M48
;Layer_Color=6321
;FILE_FORMAT=2:4
INCH
;TYPE=PLATED
T1F00S00C0.0295
T2F00S00C0.0300
T3F00S00C0.0320
T4F00S00C0.0354
T5F00S00C0.0394
T6F00S00C0.0472
%
T01
X010900Y011600
X014900
X019800
X023800
X028600
X032600
X037500
X041500
X041700Y017400
X045700
X036900
X032900
X028200
X024200
X019300
X015300
T02
X068820Y012400
X069800Y013380
X070780Y012400
Y016300
X069800Y017280
X068820Y016300
T03
X066000Y012600
X067000
Y013900
X066000
X065500Y017500
X064500
X059750
X058750
X052500Y018000
X051500
T04
X047000Y011000
Y012000
Y013000
Y014000
Y015000
X050000
Y014000
Y013000
Y012000
Y011000
X054500Y011500
Y012500
Y013500
Y014500
Y015500
X057500
Y014500
Y013500
Y012500
Y011500
X061500Y012750
Y013750
Y014750
X064500
Y013750
Y012750
X078800Y012194
Y011406
X064500Y015750
X061500
X057500Y016500
Y017500
X054500
Y016500
X050000Y017000
Y018000
Y016000
X047000
Y017000
Y018000
T05
X012500Y014500
X013500
X017000
X018000
X021400
X022400
X025800
X026800
X030150
X031150
X034550
X035550
X038900
X039900
X043300
X044300
X076316Y014500
X077300
X078284
T06
X082800Y014500
X100400
X103400
X121000
X124000
X141600
M30
