M48
;Layer_Color=6321
;FILE_FORMAT=2:4
INCH
;TYPE=PLATED
T1F00S00C0.0295
T2F00S00C0.0315
T3F00S00C0.0350
T4F00S00C0.0354
T5F00S00C0.0394
T6F00S00C0.0400
T7F00S00C0.0402
T8F00S00C0.0866
T9F00S00C0.1250
T10F00S00C0.1299
%
T01
X088500Y010800
Y014800
X080800Y024500
Y028500
X077300Y028550
X074600
X071900
X069100Y028500
X066500Y028550
X062800
Y024550
X066500
X069100Y024500
X071900Y024550
X074600
X077300
X059000
X055300Y024500
X052600
X049800Y024550
Y028550
X052600Y028500
X055300
X059000Y028550
X046200Y028500
Y024500
X048700Y034000
X050600
Y038000
X048700
X067000Y043900
X071000
T02
X047200Y038900
Y039900
Y040900
T03
X094600Y019700
Y020700
X069400Y038200
X068400
Y040100
X069400
Y042100
X068400
T04
X096806Y020700
X097594
X092400
X091900
X091400
X088994Y020600
X088206
X051394Y039900
X050606
X048294Y046400
X047506
X063100Y042050
Y041050
Y040050
Y039050
X066100
Y040050
Y041050
Y042050
T05
X047100Y012016
Y013984
X052600
Y012016
X058200
Y013984
X063600
Y012016
X069100
Y013984
X074700
Y012016
X080200
Y013984
X085400Y013100
X086400
X093016
X094000
X094984
X077300Y019016
Y020984
X071800
Y019016
X066300
Y020984
X055300
Y019016
X049800
Y020984
T06
X047500Y043900
X051500
T07
X045400Y042900
Y043900
T08
X090400Y045800
X095400
T09
X011800Y011800
X098200
Y048200
X011800
T10
X097591Y031048
X088209
Y039800
X097591
M30
