G04 Layer_Color=20142*
%FSAX24Y24*%
%MOIN*%
G70*
G01*
G75*
%ADD24C,0.0749*%
%ADD25C,0.0710*%
%ADD26C,0.0740*%
%ADD27R,0.0671X0.0671*%
%ADD28C,0.0671*%
%ADD29C,0.0680*%
%ADD30R,0.0671X0.0671*%
%ADD31C,0.0880*%
D24*
X041700Y017400D02*
D03*
X045700D02*
D03*
X037500Y011600D02*
D03*
X041500D02*
D03*
X032900Y017400D02*
D03*
X036900D02*
D03*
X028600Y011600D02*
D03*
X032600D02*
D03*
X024200Y017400D02*
D03*
X028200D02*
D03*
X019800Y011600D02*
D03*
X023800D02*
D03*
X010900D02*
D03*
X014900D02*
D03*
X015300Y017400D02*
D03*
X019300D02*
D03*
D25*
X013500Y014500D02*
D03*
X012500D02*
D03*
X018000D02*
D03*
X017000D02*
D03*
X022400D02*
D03*
X021400D02*
D03*
X026800D02*
D03*
X025800D02*
D03*
X031150D02*
D03*
X030150D02*
D03*
X035550D02*
D03*
X034550D02*
D03*
X039900D02*
D03*
X038900D02*
D03*
X044300D02*
D03*
X043300D02*
D03*
D26*
X051500Y018000D02*
D03*
X052500D02*
D03*
X058750Y017500D02*
D03*
X059750D02*
D03*
X067000Y012600D02*
D03*
X066000D02*
D03*
X067000Y013900D02*
D03*
X066000D02*
D03*
X064500Y017500D02*
D03*
X065500D02*
D03*
D27*
X047000Y018000D02*
D03*
X054500Y017500D02*
D03*
X076316Y014500D02*
D03*
X061500Y015750D02*
D03*
D28*
X047000Y017000D02*
D03*
Y016000D02*
D03*
Y015000D02*
D03*
Y014000D02*
D03*
Y013000D02*
D03*
Y012000D02*
D03*
Y011000D02*
D03*
X050000Y018000D02*
D03*
Y017000D02*
D03*
Y016000D02*
D03*
Y015000D02*
D03*
Y014000D02*
D03*
Y013000D02*
D03*
Y012000D02*
D03*
Y011000D02*
D03*
X054500Y016500D02*
D03*
Y015500D02*
D03*
Y014500D02*
D03*
Y013500D02*
D03*
Y012500D02*
D03*
Y011500D02*
D03*
X057500Y017500D02*
D03*
Y016500D02*
D03*
Y015500D02*
D03*
Y014500D02*
D03*
Y013500D02*
D03*
Y012500D02*
D03*
Y011500D02*
D03*
X077300Y014500D02*
D03*
X078284D02*
D03*
X078800Y012194D02*
D03*
X061500Y014750D02*
D03*
Y013750D02*
D03*
Y012750D02*
D03*
X064500Y015750D02*
D03*
Y014750D02*
D03*
Y013750D02*
D03*
Y012750D02*
D03*
D29*
X069800Y017280D02*
D03*
X068820Y016300D02*
D03*
X070780D02*
D03*
X069800Y013380D02*
D03*
X068820Y012400D02*
D03*
X070780D02*
D03*
D30*
X078800Y011406D02*
D03*
D31*
X082800Y014500D02*
D03*
X100400D02*
D03*
X103400D02*
D03*
X121000D02*
D03*
X124000D02*
D03*
X141600D02*
D03*
M02*
