G04 Layer_Physical_Order=1*
G04 Layer_Color=25308*
%FSAX24Y24*%
%MOIN*%
G70*
G01*
G75*
%ADD10C,0.0200*%
%ADD11C,0.0120*%
%ADD12C,0.0669*%
%ADD13C,0.0630*%
%ADD14C,0.0660*%
%ADD15R,0.0591X0.0591*%
%ADD16C,0.0591*%
%ADD17C,0.0600*%
%ADD18R,0.0591X0.0591*%
%ADD19C,0.0800*%
G36*
X143900Y010000D02*
X010000D01*
Y019000D01*
X143900D01*
Y010000D01*
D02*
G37*
%LPC*%
G36*
X046950Y013950D02*
X046608D01*
X046615Y013897D01*
X046655Y013801D01*
X046718Y013718D01*
X046801Y013655D01*
X046897Y013615D01*
X046950Y013608D01*
Y013950D01*
D02*
G37*
G36*
X050000Y014399D02*
X049897Y014385D01*
X049801Y014345D01*
X049718Y014282D01*
X049655Y014199D01*
X049615Y014103D01*
X049601Y014000D01*
X049615Y013897D01*
X049655Y013801D01*
X049718Y013718D01*
X049801Y013655D01*
X049897Y013615D01*
X050000Y013601D01*
X050103Y013615D01*
X050199Y013655D01*
X050282Y013718D01*
X050345Y013801D01*
X050385Y013897D01*
X050399Y014000D01*
X050385Y014103D01*
X050345Y014199D01*
X050282Y014282D01*
X050199Y014345D01*
X050103Y014385D01*
X050000Y014399D01*
D02*
G37*
G36*
X067427Y013850D02*
X067050D01*
Y013473D01*
X067112Y013481D01*
X067217Y013524D01*
X067307Y013593D01*
X067376Y013683D01*
X067419Y013788D01*
X067427Y013850D01*
D02*
G37*
G36*
X067050Y014327D02*
Y013950D01*
X067427D01*
X067419Y014012D01*
X067376Y014117D01*
X067307Y014207D01*
X067217Y014276D01*
X067112Y014319D01*
X067050Y014327D01*
D02*
G37*
G36*
X066950D02*
X066888Y014319D01*
X066783Y014276D01*
X066693Y014207D01*
X066624Y014117D01*
X066581Y014012D01*
X066573Y013950D01*
X066950D01*
Y014327D01*
D02*
G37*
G36*
X047392Y013950D02*
X047050D01*
Y013608D01*
X047103Y013615D01*
X047199Y013655D01*
X047282Y013718D01*
X047345Y013801D01*
X047385Y013897D01*
X047392Y013950D01*
D02*
G37*
G36*
X066950Y013850D02*
X066573D01*
X066581Y013788D01*
X066624Y013683D01*
X066693Y013593D01*
X066783Y013524D01*
X066888Y013481D01*
X066950Y013473D01*
Y013850D01*
D02*
G37*
G36*
X054500Y013899D02*
X054397Y013885D01*
X054301Y013845D01*
X054218Y013782D01*
X054155Y013699D01*
X054115Y013603D01*
X054101Y013500D01*
X054115Y013397D01*
X054155Y013301D01*
X054218Y013218D01*
X054301Y013155D01*
X054397Y013115D01*
X054500Y013101D01*
X054603Y013115D01*
X054699Y013155D01*
X054782Y013218D01*
X054845Y013301D01*
X054885Y013397D01*
X054899Y013500D01*
X054885Y013603D01*
X054845Y013699D01*
X054782Y013782D01*
X054699Y013845D01*
X054603Y013885D01*
X054500Y013899D01*
D02*
G37*
G36*
X069800Y013783D02*
X069696Y013770D01*
X069598Y013729D01*
X069515Y013665D01*
X069451Y013582D01*
X069410Y013484D01*
X069397Y013380D01*
X069410Y013276D01*
X069451Y013178D01*
X069515Y013095D01*
X069598Y013031D01*
X069696Y012990D01*
X069800Y012977D01*
X069904Y012990D01*
X070002Y013031D01*
X070085Y013095D01*
X070149Y013178D01*
X070190Y013276D01*
X070203Y013380D01*
X070190Y013484D01*
X070149Y013582D01*
X070085Y013665D01*
X070002Y013729D01*
X069904Y013770D01*
X069800Y013783D01*
D02*
G37*
G36*
X067050Y013027D02*
Y012650D01*
X067427D01*
X067419Y012712D01*
X067376Y012817D01*
X067307Y012907D01*
X067217Y012976D01*
X067112Y013019D01*
X067050Y013027D01*
D02*
G37*
G36*
X061500Y015149D02*
X061397Y015135D01*
X061301Y015095D01*
X061218Y015032D01*
X061155Y014949D01*
X061115Y014853D01*
X061101Y014750D01*
X061115Y014647D01*
X061155Y014551D01*
X061218Y014468D01*
X061301Y014405D01*
X061397Y014365D01*
X061500Y014351D01*
X061603Y014365D01*
X061639Y014380D01*
X062335Y013685D01*
X062388Y013649D01*
X062450Y013637D01*
X064119D01*
X064155Y013551D01*
X064218Y013468D01*
X064301Y013405D01*
X064397Y013365D01*
X064500Y013351D01*
X064603Y013365D01*
X064699Y013405D01*
X064782Y013468D01*
X064845Y013551D01*
X064881Y013637D01*
X065660D01*
X065693Y013593D01*
X065783Y013524D01*
X065888Y013481D01*
X066000Y013466D01*
X066112Y013481D01*
X066217Y013524D01*
X066307Y013593D01*
X066376Y013683D01*
X066419Y013788D01*
X066434Y013900D01*
X066419Y014012D01*
X066376Y014117D01*
X066307Y014207D01*
X066217Y014276D01*
X066112Y014319D01*
X066000Y014334D01*
X065888Y014319D01*
X065783Y014276D01*
X065693Y014207D01*
X065624Y014117D01*
X065581Y014012D01*
X065575Y013963D01*
X064835D01*
X064782Y014032D01*
X064699Y014095D01*
X064603Y014135D01*
X064500Y014149D01*
X064397Y014135D01*
X064301Y014095D01*
X064218Y014032D01*
X064165Y013963D01*
X062518D01*
X061870Y014611D01*
X061885Y014647D01*
X061899Y014750D01*
X061885Y014853D01*
X061845Y014949D01*
X061782Y015032D01*
X061699Y015095D01*
X061603Y015135D01*
X061500Y015149D01*
D02*
G37*
G36*
Y014149D02*
X061397Y014135D01*
X061301Y014095D01*
X061218Y014032D01*
X061155Y013949D01*
X061115Y013853D01*
X061101Y013750D01*
X061115Y013647D01*
X061155Y013551D01*
X061218Y013468D01*
X061301Y013405D01*
X061397Y013365D01*
X061500Y013351D01*
X061603Y013365D01*
X061699Y013405D01*
X061782Y013468D01*
X061845Y013551D01*
X061885Y013647D01*
X061899Y013750D01*
X061885Y013853D01*
X061845Y013949D01*
X061782Y014032D01*
X061699Y014095D01*
X061603Y014135D01*
X061500Y014149D01*
D02*
G37*
G36*
X057500Y013899D02*
X057397Y013885D01*
X057301Y013845D01*
X057218Y013782D01*
X057155Y013699D01*
X057115Y013603D01*
X057101Y013500D01*
X057115Y013397D01*
X057155Y013301D01*
X057218Y013218D01*
X057301Y013155D01*
X057397Y013115D01*
X057500Y013101D01*
X057603Y013115D01*
X057699Y013155D01*
X057782Y013218D01*
X057845Y013301D01*
X057885Y013397D01*
X057899Y013500D01*
X057885Y013603D01*
X057845Y013699D01*
X057782Y013782D01*
X057699Y013845D01*
X057603Y013885D01*
X057500Y013899D01*
D02*
G37*
G36*
X025800Y014919D02*
X025692Y014904D01*
X025591Y014862D01*
X025504Y014796D01*
X025438Y014709D01*
X025396Y014608D01*
X025381Y014500D01*
X025396Y014392D01*
X025438Y014291D01*
X025504Y014204D01*
X025591Y014137D01*
X025692Y014096D01*
X025800Y014081D01*
X025908Y014096D01*
X026009Y014137D01*
X026096Y014204D01*
X026162Y014291D01*
X026204Y014392D01*
X026219Y014500D01*
X026204Y014608D01*
X026162Y014709D01*
X026096Y014796D01*
X026009Y014862D01*
X025908Y014904D01*
X025800Y014919D01*
D02*
G37*
G36*
X021400D02*
X021292Y014904D01*
X021191Y014862D01*
X021104Y014796D01*
X021038Y014709D01*
X020996Y014608D01*
X020981Y014500D01*
X020996Y014392D01*
X021038Y014291D01*
X021104Y014204D01*
X021191Y014137D01*
X021292Y014096D01*
X021400Y014081D01*
X021508Y014096D01*
X021609Y014137D01*
X021696Y014204D01*
X021762Y014291D01*
X021804Y014392D01*
X021819Y014500D01*
X021804Y014608D01*
X021762Y014709D01*
X021696Y014796D01*
X021609Y014862D01*
X021508Y014904D01*
X021400Y014919D01*
D02*
G37*
G36*
X015300Y017838D02*
X015187Y017823D01*
X015081Y017780D01*
X014990Y017710D01*
X014920Y017619D01*
X014877Y017513D01*
X014862Y017400D01*
X014877Y017287D01*
X014920Y017181D01*
X014990Y017090D01*
X015081Y017020D01*
X015187Y016977D01*
X015300Y016962D01*
X015413Y016977D01*
X015519Y017020D01*
X015610Y017090D01*
X015680Y017181D01*
X015703Y017237D01*
X017532D01*
X017837Y016932D01*
Y014882D01*
X017791Y014862D01*
X017704Y014796D01*
X017638Y014709D01*
X017596Y014608D01*
X017581Y014500D01*
X017596Y014392D01*
X017638Y014291D01*
X017704Y014204D01*
X017791Y014137D01*
X017892Y014096D01*
X018000Y014081D01*
X018108Y014096D01*
X018209Y014137D01*
X018296Y014204D01*
X018362Y014291D01*
X018404Y014392D01*
X018419Y014500D01*
X018404Y014608D01*
X018362Y014709D01*
X018296Y014796D01*
X018209Y014862D01*
X018163Y014882D01*
Y017000D01*
X018151Y017062D01*
X018115Y017115D01*
X017715Y017515D01*
X017662Y017551D01*
X017600Y017563D01*
X015703D01*
X015680Y017619D01*
X015610Y017710D01*
X015519Y017780D01*
X015413Y017823D01*
X015300Y017838D01*
D02*
G37*
G36*
X034550Y014919D02*
X034442Y014904D01*
X034341Y014862D01*
X034254Y014796D01*
X034188Y014709D01*
X034146Y014608D01*
X034131Y014500D01*
X034146Y014392D01*
X034188Y014291D01*
X034254Y014204D01*
X034341Y014137D01*
X034442Y014096D01*
X034550Y014081D01*
X034658Y014096D01*
X034759Y014137D01*
X034846Y014204D01*
X034912Y014291D01*
X034954Y014392D01*
X034969Y014500D01*
X034954Y014608D01*
X034912Y014709D01*
X034846Y014796D01*
X034759Y014862D01*
X034658Y014904D01*
X034550Y014919D01*
D02*
G37*
G36*
X030150D02*
X030042Y014904D01*
X029941Y014862D01*
X029854Y014796D01*
X029788Y014709D01*
X029746Y014608D01*
X029731Y014500D01*
X029746Y014392D01*
X029788Y014291D01*
X029854Y014204D01*
X029941Y014137D01*
X030042Y014096D01*
X030150Y014081D01*
X030258Y014096D01*
X030359Y014137D01*
X030446Y014204D01*
X030512Y014291D01*
X030554Y014392D01*
X030569Y014500D01*
X030554Y014608D01*
X030512Y014709D01*
X030446Y014796D01*
X030359Y014862D01*
X030258Y014904D01*
X030150Y014919D01*
D02*
G37*
G36*
X024200Y017838D02*
X024087Y017823D01*
X023981Y017780D01*
X023890Y017710D01*
X023820Y017619D01*
X023777Y017513D01*
X023762Y017400D01*
X023777Y017287D01*
X023820Y017181D01*
X023890Y017090D01*
X023981Y017020D01*
X024037Y016997D01*
Y015600D01*
X024049Y015538D01*
X024085Y015485D01*
X024485Y015085D01*
X024538Y015049D01*
X024600Y015037D01*
X026182D01*
X026469Y014750D01*
X026438Y014709D01*
X026396Y014608D01*
X026381Y014500D01*
X026396Y014392D01*
X026438Y014291D01*
X026504Y014204D01*
X026591Y014137D01*
X026692Y014096D01*
X026800Y014081D01*
X026908Y014096D01*
X027009Y014137D01*
X027096Y014204D01*
X027162Y014291D01*
X027204Y014392D01*
X027219Y014500D01*
X027204Y014608D01*
X027162Y014709D01*
X027096Y014796D01*
X027009Y014862D01*
X026908Y014904D01*
X026800Y014919D01*
X026767Y014914D01*
X026365Y015315D01*
X026312Y015351D01*
X026250Y015363D01*
X024668D01*
X024363Y015668D01*
Y016997D01*
X024419Y017020D01*
X024510Y017090D01*
X024580Y017181D01*
X024623Y017287D01*
X024638Y017400D01*
X024623Y017513D01*
X024580Y017619D01*
X024510Y017710D01*
X024419Y017780D01*
X024313Y017823D01*
X024200Y017838D01*
D02*
G37*
G36*
X017000Y014919D02*
X016892Y014904D01*
X016791Y014862D01*
X016704Y014796D01*
X016638Y014709D01*
X016596Y014608D01*
X016581Y014500D01*
X016596Y014392D01*
X016638Y014291D01*
X016704Y014204D01*
X016791Y014137D01*
X016892Y014096D01*
X017000Y014081D01*
X017108Y014096D01*
X017209Y014137D01*
X017296Y014204D01*
X017362Y014291D01*
X017404Y014392D01*
X017419Y014500D01*
X017404Y014608D01*
X017362Y014709D01*
X017296Y014796D01*
X017209Y014862D01*
X017108Y014904D01*
X017000Y014919D01*
D02*
G37*
G36*
X142098Y014450D02*
X141650D01*
Y014002D01*
X141731Y014013D01*
X141852Y014063D01*
X141957Y014143D01*
X142037Y014248D01*
X142087Y014369D01*
X142098Y014450D01*
D02*
G37*
G36*
X141550D02*
X141102D01*
X141113Y014369D01*
X141163Y014248D01*
X141243Y014143D01*
X141348Y014063D01*
X141469Y014013D01*
X141550Y014002D01*
Y014450D01*
D02*
G37*
G36*
X081600Y015904D02*
X076900D01*
X076822Y015888D01*
X076756Y015844D01*
X076172Y015260D01*
X076127Y015194D01*
X076112Y015116D01*
Y014895D01*
X075920D01*
Y014105D01*
X076711D01*
Y014895D01*
X076520D01*
Y015031D01*
X076984Y015496D01*
X081516D01*
X082333Y014679D01*
X082313Y014631D01*
X082296Y014500D01*
X082313Y014369D01*
X082363Y014248D01*
X082443Y014143D01*
X082548Y014063D01*
X082669Y014013D01*
X082800Y013996D01*
X082931Y014013D01*
X083052Y014063D01*
X083157Y014143D01*
X083237Y014248D01*
X083287Y014369D01*
X083304Y014500D01*
X083287Y014631D01*
X083237Y014752D01*
X083157Y014857D01*
X083052Y014937D01*
X082931Y014987D01*
X082800Y015004D01*
X082669Y014987D01*
X082621Y014967D01*
X081744Y015844D01*
X081678Y015888D01*
X081600Y015904D01*
D02*
G37*
G36*
X012500Y014919D02*
X012392Y014904D01*
X012291Y014862D01*
X012204Y014796D01*
X012138Y014709D01*
X012096Y014608D01*
X012081Y014500D01*
X012096Y014392D01*
X012138Y014291D01*
X012204Y014204D01*
X012291Y014137D01*
X012392Y014096D01*
X012500Y014081D01*
X012608Y014096D01*
X012709Y014137D01*
X012796Y014204D01*
X012862Y014291D01*
X012904Y014392D01*
X012919Y014500D01*
X012904Y014608D01*
X012862Y014709D01*
X012796Y014796D01*
X012709Y014862D01*
X012608Y014904D01*
X012500Y014919D01*
D02*
G37*
G36*
X047050Y014392D02*
Y014050D01*
X047392D01*
X047385Y014103D01*
X047345Y014199D01*
X047282Y014282D01*
X047199Y014345D01*
X047103Y014385D01*
X047050Y014392D01*
D02*
G37*
G36*
X046950D02*
X046897Y014385D01*
X046801Y014345D01*
X046718Y014282D01*
X046655Y014199D01*
X046615Y014103D01*
X046608Y014050D01*
X046950D01*
Y014392D01*
D02*
G37*
G36*
X032600Y012038D02*
X032487Y012023D01*
X032381Y011980D01*
X032290Y011910D01*
X032220Y011819D01*
X032177Y011713D01*
X032162Y011600D01*
X032177Y011487D01*
X032220Y011381D01*
X032290Y011290D01*
X032381Y011220D01*
X032487Y011177D01*
X032600Y011162D01*
X032713Y011177D01*
X032819Y011220D01*
X032910Y011290D01*
X032980Y011381D01*
X033023Y011487D01*
X033038Y011600D01*
X033023Y011713D01*
X032980Y011819D01*
X032910Y011910D01*
X032819Y011980D01*
X032713Y012023D01*
X032600Y012038D01*
D02*
G37*
G36*
X023800D02*
X023687Y012023D01*
X023581Y011980D01*
X023490Y011910D01*
X023420Y011819D01*
X023377Y011713D01*
X023362Y011600D01*
X023377Y011487D01*
X023420Y011381D01*
X023490Y011290D01*
X023581Y011220D01*
X023687Y011177D01*
X023800Y011162D01*
X023913Y011177D01*
X024019Y011220D01*
X024110Y011290D01*
X024180Y011381D01*
X024223Y011487D01*
X024238Y011600D01*
X024223Y011713D01*
X024180Y011819D01*
X024110Y011910D01*
X024019Y011980D01*
X023913Y012023D01*
X023800Y012038D01*
D02*
G37*
G36*
X014900D02*
X014787Y012023D01*
X014681Y011980D01*
X014590Y011910D01*
X014520Y011819D01*
X014477Y011713D01*
X014462Y011600D01*
X014477Y011487D01*
X014520Y011381D01*
X014590Y011290D01*
X014681Y011220D01*
X014787Y011177D01*
X014900Y011162D01*
X015013Y011177D01*
X015119Y011220D01*
X015210Y011290D01*
X015280Y011381D01*
X015323Y011487D01*
X015338Y011600D01*
X015323Y011713D01*
X015280Y011819D01*
X015210Y011910D01*
X015119Y011980D01*
X015013Y012023D01*
X014900Y012038D01*
D02*
G37*
G36*
X054550Y011892D02*
Y011550D01*
X054892D01*
X054885Y011603D01*
X054845Y011699D01*
X054782Y011782D01*
X054699Y011845D01*
X054603Y011885D01*
X054550Y011892D01*
D02*
G37*
G36*
X054450D02*
X054397Y011885D01*
X054301Y011845D01*
X054218Y011782D01*
X054155Y011699D01*
X054115Y011603D01*
X054108Y011550D01*
X054450D01*
Y011892D01*
D02*
G37*
G36*
X077300Y014899D02*
X077197Y014885D01*
X077101Y014845D01*
X077018Y014782D01*
X076955Y014699D01*
X076915Y014603D01*
X076901Y014500D01*
X076915Y014397D01*
X076955Y014301D01*
X077018Y014218D01*
X077096Y014158D01*
Y013600D01*
X077112Y013522D01*
X077156Y013456D01*
X078403Y012208D01*
X078401Y012194D01*
X078415Y012091D01*
X078455Y011994D01*
X078518Y011912D01*
X078597Y011852D01*
X078597Y011846D01*
X078563Y011802D01*
X078405D01*
Y011456D01*
X079195D01*
Y011802D01*
X079037D01*
X079003Y011846D01*
X079003Y011852D01*
X079082Y011912D01*
X079145Y011994D01*
X079185Y012091D01*
X079199Y012194D01*
X079185Y012297D01*
X079145Y012393D01*
X079082Y012476D01*
X078999Y012539D01*
X078903Y012579D01*
X078800Y012592D01*
X078697Y012579D01*
X078635Y012553D01*
X077504Y013684D01*
Y014158D01*
X077582Y014218D01*
X077645Y014301D01*
X077685Y014397D01*
X077699Y014500D01*
X077685Y014603D01*
X077645Y014699D01*
X077582Y014782D01*
X077499Y014845D01*
X077403Y014885D01*
X077300Y014899D01*
D02*
G37*
G36*
X054892Y011450D02*
X054550D01*
Y011108D01*
X054603Y011115D01*
X054699Y011155D01*
X054782Y011218D01*
X054845Y011301D01*
X054885Y011397D01*
X054892Y011450D01*
D02*
G37*
G36*
X046950Y011392D02*
X046897Y011385D01*
X046801Y011345D01*
X046718Y011282D01*
X046655Y011199D01*
X046615Y011103D01*
X046608Y011050D01*
X046950D01*
Y011392D01*
D02*
G37*
G36*
X079195Y011356D02*
X078850D01*
Y011011D01*
X079195D01*
Y011356D01*
D02*
G37*
G36*
X078750D02*
X078405D01*
Y011011D01*
X078750D01*
Y011356D01*
D02*
G37*
G36*
X054450Y011450D02*
X054108D01*
X054115Y011397D01*
X054155Y011301D01*
X054218Y011218D01*
X054301Y011155D01*
X054397Y011115D01*
X054450Y011108D01*
Y011450D01*
D02*
G37*
G36*
X057500Y011899D02*
X057397Y011885D01*
X057301Y011845D01*
X057218Y011782D01*
X057155Y011699D01*
X057115Y011603D01*
X057101Y011500D01*
X057115Y011397D01*
X057155Y011301D01*
X057218Y011218D01*
X057301Y011155D01*
X057397Y011115D01*
X057500Y011101D01*
X057603Y011115D01*
X057699Y011155D01*
X057782Y011218D01*
X057845Y011301D01*
X057885Y011397D01*
X057899Y011500D01*
X057885Y011603D01*
X057845Y011699D01*
X057782Y011782D01*
X057699Y011845D01*
X057603Y011885D01*
X057500Y011899D01*
D02*
G37*
G36*
X047050Y011392D02*
Y011050D01*
X047392D01*
X047385Y011103D01*
X047345Y011199D01*
X047282Y011282D01*
X047199Y011345D01*
X047103Y011385D01*
X047050Y011392D01*
D02*
G37*
G36*
X067427Y012550D02*
X067050D01*
Y012173D01*
X067112Y012181D01*
X067217Y012224D01*
X067307Y012293D01*
X067376Y012383D01*
X067419Y012488D01*
X067427Y012550D01*
D02*
G37*
G36*
X066950D02*
X066573D01*
X066581Y012488D01*
X066624Y012383D01*
X066693Y012293D01*
X066783Y012224D01*
X066888Y012181D01*
X066950Y012173D01*
Y012550D01*
D02*
G37*
G36*
X066000Y013034D02*
X065888Y013019D01*
X065783Y012976D01*
X065693Y012907D01*
X065624Y012817D01*
X065581Y012712D01*
X065566Y012600D01*
X065581Y012488D01*
X065624Y012383D01*
X065693Y012293D01*
X065783Y012224D01*
X065888Y012181D01*
X066000Y012166D01*
X066112Y012181D01*
X066217Y012224D01*
X066307Y012293D01*
X066376Y012383D01*
X066419Y012488D01*
X066434Y012600D01*
X066419Y012712D01*
X066376Y012817D01*
X066307Y012907D01*
X066217Y012976D01*
X066112Y013019D01*
X066000Y013034D01*
D02*
G37*
G36*
X066950Y013027D02*
X066888Y013019D01*
X066783Y012976D01*
X066693Y012907D01*
X066624Y012817D01*
X066581Y012712D01*
X066573Y012650D01*
X066950D01*
Y013027D01*
D02*
G37*
G36*
X064500Y013149D02*
X064397Y013135D01*
X064301Y013095D01*
X064218Y013032D01*
X064155Y012949D01*
X064115Y012853D01*
X064101Y012750D01*
X064115Y012647D01*
X064155Y012551D01*
X064218Y012468D01*
X064301Y012405D01*
X064397Y012365D01*
X064500Y012351D01*
X064603Y012365D01*
X064699Y012405D01*
X064782Y012468D01*
X064845Y012551D01*
X064885Y012647D01*
X064899Y012750D01*
X064885Y012853D01*
X064845Y012949D01*
X064782Y013032D01*
X064699Y013095D01*
X064603Y013135D01*
X064500Y013149D01*
D02*
G37*
G36*
X061500D02*
X061397Y013135D01*
X061301Y013095D01*
X061218Y013032D01*
X061155Y012949D01*
X061115Y012853D01*
X061101Y012750D01*
X061115Y012647D01*
X061155Y012551D01*
X061218Y012468D01*
X061301Y012405D01*
X061397Y012365D01*
X061500Y012351D01*
X061603Y012365D01*
X061699Y012405D01*
X061782Y012468D01*
X061845Y012551D01*
X061885Y012647D01*
X061899Y012750D01*
X061885Y012853D01*
X061845Y012949D01*
X061782Y013032D01*
X061699Y013095D01*
X061603Y013135D01*
X061500Y013149D01*
D02*
G37*
G36*
X057500Y012899D02*
X057397Y012885D01*
X057301Y012845D01*
X057218Y012782D01*
X057155Y012699D01*
X057115Y012603D01*
X057101Y012500D01*
X057115Y012397D01*
X057155Y012301D01*
X057218Y012218D01*
X057301Y012155D01*
X057397Y012115D01*
X057500Y012101D01*
X057603Y012115D01*
X057699Y012155D01*
X057782Y012218D01*
X057845Y012301D01*
X057885Y012397D01*
X057899Y012500D01*
X057885Y012603D01*
X057845Y012699D01*
X057782Y012782D01*
X057699Y012845D01*
X057603Y012885D01*
X057500Y012899D01*
D02*
G37*
G36*
X068820Y012803D02*
X068716Y012790D01*
X068618Y012749D01*
X068535Y012685D01*
X068471Y012602D01*
X068430Y012504D01*
X068417Y012400D01*
X068430Y012296D01*
X068471Y012198D01*
X068535Y012115D01*
X068618Y012051D01*
X068716Y012010D01*
X068820Y011997D01*
X068924Y012010D01*
X069022Y012051D01*
X069105Y012115D01*
X069169Y012198D01*
X069210Y012296D01*
X069223Y012400D01*
X069210Y012504D01*
X069169Y012602D01*
X069105Y012685D01*
X069022Y012749D01*
X068924Y012790D01*
X068820Y012803D01*
D02*
G37*
G36*
X022400Y014919D02*
X022292Y014904D01*
X022191Y014862D01*
X022104Y014796D01*
X022038Y014709D01*
X021996Y014608D01*
X021981Y014500D01*
X021996Y014392D01*
X022038Y014291D01*
X022104Y014204D01*
X022191Y014137D01*
X022237Y014118D01*
Y012068D01*
X021932Y011763D01*
X020203D01*
X020180Y011819D01*
X020110Y011910D01*
X020019Y011980D01*
X019913Y012023D01*
X019800Y012038D01*
X019687Y012023D01*
X019581Y011980D01*
X019490Y011910D01*
X019420Y011819D01*
X019377Y011713D01*
X019362Y011600D01*
X019377Y011487D01*
X019420Y011381D01*
X019490Y011290D01*
X019581Y011220D01*
X019687Y011177D01*
X019800Y011162D01*
X019913Y011177D01*
X020019Y011220D01*
X020110Y011290D01*
X020180Y011381D01*
X020203Y011437D01*
X022000D01*
X022062Y011449D01*
X022115Y011485D01*
X022515Y011885D01*
X022551Y011938D01*
X022563Y012000D01*
Y014118D01*
X022609Y014137D01*
X022696Y014204D01*
X022762Y014291D01*
X022804Y014392D01*
X022819Y014500D01*
X022804Y014608D01*
X022762Y014709D01*
X022696Y014796D01*
X022609Y014862D01*
X022508Y014904D01*
X022400Y014919D01*
D02*
G37*
G36*
X013500D02*
X013392Y014904D01*
X013291Y014862D01*
X013204Y014796D01*
X013138Y014709D01*
X013096Y014608D01*
X013081Y014500D01*
X013096Y014392D01*
X013138Y014291D01*
X013204Y014204D01*
X013291Y014137D01*
X013337Y014118D01*
Y012068D01*
X013032Y011763D01*
X011303D01*
X011280Y011819D01*
X011210Y011910D01*
X011119Y011980D01*
X011013Y012023D01*
X010900Y012038D01*
X010787Y012023D01*
X010681Y011980D01*
X010590Y011910D01*
X010520Y011819D01*
X010477Y011713D01*
X010462Y011600D01*
X010477Y011487D01*
X010520Y011381D01*
X010590Y011290D01*
X010681Y011220D01*
X010787Y011177D01*
X010900Y011162D01*
X011013Y011177D01*
X011119Y011220D01*
X011210Y011290D01*
X011280Y011381D01*
X011303Y011437D01*
X013100D01*
X013162Y011449D01*
X013215Y011485D01*
X013615Y011885D01*
X013651Y011938D01*
X013663Y012000D01*
Y014118D01*
X013709Y014137D01*
X013796Y014204D01*
X013862Y014291D01*
X013904Y014392D01*
X013919Y014500D01*
X013904Y014608D01*
X013862Y014709D01*
X013796Y014796D01*
X013709Y014862D01*
X013608Y014904D01*
X013500Y014919D01*
D02*
G37*
G36*
X054500Y012899D02*
X054397Y012885D01*
X054301Y012845D01*
X054218Y012782D01*
X054155Y012699D01*
X054115Y012603D01*
X054101Y012500D01*
X054115Y012397D01*
X054155Y012301D01*
X054218Y012218D01*
X054301Y012155D01*
X054397Y012115D01*
X054500Y012101D01*
X054603Y012115D01*
X054699Y012155D01*
X054782Y012218D01*
X054845Y012301D01*
X054885Y012397D01*
X054899Y012500D01*
X054885Y012603D01*
X054845Y012699D01*
X054782Y012782D01*
X054699Y012845D01*
X054603Y012885D01*
X054500Y012899D01*
D02*
G37*
G36*
X039900Y014919D02*
X039792Y014904D01*
X039691Y014862D01*
X039604Y014796D01*
X039538Y014709D01*
X039496Y014608D01*
X039481Y014500D01*
X039496Y014392D01*
X039538Y014291D01*
X039604Y014204D01*
X039691Y014137D01*
X039737Y014118D01*
Y014068D01*
X037670Y012000D01*
X037613Y012023D01*
X037500Y012038D01*
X037387Y012023D01*
X037281Y011980D01*
X037190Y011910D01*
X037120Y011819D01*
X037077Y011713D01*
X037062Y011600D01*
X037077Y011487D01*
X037120Y011381D01*
X037190Y011290D01*
X037281Y011220D01*
X037387Y011177D01*
X037500Y011162D01*
X037613Y011177D01*
X037719Y011220D01*
X037810Y011290D01*
X037880Y011381D01*
X037923Y011487D01*
X037938Y011600D01*
X037923Y011713D01*
X037900Y011770D01*
X040015Y013885D01*
X040051Y013938D01*
X040063Y014000D01*
X040063Y014000D01*
Y014118D01*
X040109Y014137D01*
X040196Y014204D01*
X040262Y014291D01*
X040304Y014392D01*
X040319Y014500D01*
X040304Y014608D01*
X040262Y014709D01*
X040196Y014796D01*
X040109Y014862D01*
X040008Y014904D01*
X039900Y014919D01*
D02*
G37*
G36*
X031150D02*
X031042Y014904D01*
X030941Y014862D01*
X030854Y014796D01*
X030788Y014709D01*
X030746Y014608D01*
X030731Y014500D01*
X030746Y014392D01*
X030788Y014291D01*
X030854Y014204D01*
X030891Y014175D01*
X030895Y014125D01*
X028770Y012000D01*
X028713Y012023D01*
X028600Y012038D01*
X028487Y012023D01*
X028381Y011980D01*
X028290Y011910D01*
X028220Y011819D01*
X028177Y011713D01*
X028162Y011600D01*
X028177Y011487D01*
X028220Y011381D01*
X028290Y011290D01*
X028381Y011220D01*
X028487Y011177D01*
X028600Y011162D01*
X028713Y011177D01*
X028819Y011220D01*
X028910Y011290D01*
X028980Y011381D01*
X029023Y011487D01*
X029038Y011600D01*
X029023Y011713D01*
X029000Y011770D01*
X031265Y014035D01*
X031301Y014088D01*
X031306Y014116D01*
X031359Y014137D01*
X031446Y014204D01*
X031512Y014291D01*
X031554Y014392D01*
X031569Y014500D01*
X031554Y014608D01*
X031512Y014709D01*
X031446Y014796D01*
X031359Y014862D01*
X031258Y014904D01*
X031150Y014919D01*
D02*
G37*
G36*
X032900Y017838D02*
X032787Y017823D01*
X032681Y017780D01*
X032590Y017710D01*
X032520Y017619D01*
X032477Y017513D01*
X032462Y017400D01*
X032477Y017287D01*
X032520Y017181D01*
X032590Y017090D01*
X032681Y017020D01*
X032787Y016977D01*
X032900Y016962D01*
X033013Y016977D01*
X033119Y017020D01*
X033164Y017055D01*
X035316Y014904D01*
X035310Y014839D01*
X035254Y014796D01*
X035188Y014709D01*
X035146Y014608D01*
X035131Y014500D01*
X035146Y014392D01*
X035188Y014291D01*
X035254Y014204D01*
X035341Y014137D01*
X035442Y014096D01*
X035550Y014081D01*
X035658Y014096D01*
X035759Y014137D01*
X035846Y014204D01*
X035912Y014291D01*
X035954Y014392D01*
X035969Y014500D01*
X035954Y014608D01*
X035912Y014709D01*
X035846Y014796D01*
X035759Y014862D01*
X035713Y014882D01*
Y014900D01*
X035701Y014962D01*
X035665Y015015D01*
X033332Y017349D01*
X033338Y017400D01*
X033323Y017513D01*
X033280Y017619D01*
X033210Y017710D01*
X033119Y017780D01*
X033013Y017823D01*
X032900Y017838D01*
D02*
G37*
G36*
X045700D02*
X045587Y017823D01*
X045481Y017780D01*
X045390Y017710D01*
X045320Y017619D01*
X045277Y017513D01*
X045262Y017400D01*
X045277Y017287D01*
X045320Y017181D01*
X045390Y017090D01*
X045481Y017020D01*
X045587Y016977D01*
X045700Y016962D01*
X045813Y016977D01*
X045919Y017020D01*
X046010Y017090D01*
X046080Y017181D01*
X046123Y017287D01*
X046138Y017400D01*
X046123Y017513D01*
X046080Y017619D01*
X046010Y017710D01*
X045919Y017780D01*
X045813Y017823D01*
X045700Y017838D01*
D02*
G37*
G36*
X036900D02*
X036787Y017823D01*
X036681Y017780D01*
X036590Y017710D01*
X036520Y017619D01*
X036477Y017513D01*
X036462Y017400D01*
X036477Y017287D01*
X036520Y017181D01*
X036590Y017090D01*
X036681Y017020D01*
X036787Y016977D01*
X036900Y016962D01*
X037013Y016977D01*
X037119Y017020D01*
X037210Y017090D01*
X037280Y017181D01*
X037323Y017287D01*
X037338Y017400D01*
X037323Y017513D01*
X037280Y017619D01*
X037210Y017710D01*
X037119Y017780D01*
X037013Y017823D01*
X036900Y017838D01*
D02*
G37*
G36*
X050000Y017399D02*
X049897Y017385D01*
X049801Y017345D01*
X049718Y017282D01*
X049655Y017199D01*
X049615Y017103D01*
X049601Y017000D01*
X049615Y016897D01*
X049655Y016801D01*
X049718Y016718D01*
X049801Y016655D01*
X049897Y016615D01*
X050000Y016601D01*
X050103Y016615D01*
X050199Y016655D01*
X050282Y016718D01*
X050345Y016801D01*
X050385Y016897D01*
X050399Y017000D01*
X050385Y017103D01*
X050345Y017199D01*
X050282Y017282D01*
X050199Y017345D01*
X050103Y017385D01*
X050000Y017399D01*
D02*
G37*
G36*
X065450Y017450D02*
X065073D01*
X065081Y017388D01*
X065124Y017283D01*
X065193Y017193D01*
X065283Y017124D01*
X065388Y017081D01*
X065450Y017073D01*
Y017450D01*
D02*
G37*
G36*
X060177D02*
X059800D01*
Y017073D01*
X059862Y017081D01*
X059967Y017124D01*
X060057Y017193D01*
X060126Y017283D01*
X060169Y017388D01*
X060177Y017450D01*
D02*
G37*
G36*
X059700D02*
X059323D01*
X059331Y017388D01*
X059374Y017283D01*
X059443Y017193D01*
X059533Y017124D01*
X059638Y017081D01*
X059700Y017073D01*
Y017450D01*
D02*
G37*
G36*
X047000Y017399D02*
X046897Y017385D01*
X046801Y017345D01*
X046718Y017282D01*
X046655Y017199D01*
X046615Y017103D01*
X046601Y017000D01*
X046615Y016897D01*
X046655Y016801D01*
X046718Y016718D01*
X046801Y016655D01*
X046897Y016615D01*
X047000Y016601D01*
X047103Y016615D01*
X047199Y016655D01*
X047282Y016718D01*
X047345Y016801D01*
X047385Y016897D01*
X047399Y017000D01*
X047385Y017103D01*
X047345Y017199D01*
X047282Y017282D01*
X047199Y017345D01*
X047103Y017385D01*
X047000Y017399D01*
D02*
G37*
G36*
X054450Y016450D02*
X054108D01*
X054115Y016397D01*
X054155Y016301D01*
X054218Y016218D01*
X054301Y016155D01*
X054397Y016115D01*
X054450Y016108D01*
Y016450D01*
D02*
G37*
G36*
X070780Y016703D02*
X070676Y016690D01*
X070578Y016649D01*
X070495Y016585D01*
X070431Y016502D01*
X070390Y016404D01*
X070377Y016300D01*
X070390Y016196D01*
X070431Y016098D01*
X070495Y016015D01*
X070578Y015951D01*
X070676Y015910D01*
X070780Y015897D01*
X070884Y015910D01*
X070982Y015951D01*
X071065Y016015D01*
X071129Y016098D01*
X071170Y016196D01*
X071183Y016300D01*
X071170Y016404D01*
X071129Y016502D01*
X071065Y016585D01*
X070982Y016649D01*
X070884Y016690D01*
X070780Y016703D01*
D02*
G37*
G36*
X068820D02*
X068716Y016690D01*
X068618Y016649D01*
X068535Y016585D01*
X068471Y016502D01*
X068430Y016404D01*
X068417Y016300D01*
X068430Y016196D01*
X068471Y016098D01*
X068535Y016015D01*
X068618Y015951D01*
X068716Y015910D01*
X068820Y015897D01*
X068924Y015910D01*
X069022Y015951D01*
X069105Y016015D01*
X069169Y016098D01*
X069210Y016196D01*
X069223Y016300D01*
X069210Y016404D01*
X069169Y016502D01*
X069105Y016585D01*
X069022Y016649D01*
X068924Y016690D01*
X068820Y016703D01*
D02*
G37*
G36*
X054550Y016892D02*
Y016550D01*
X054892D01*
X054885Y016603D01*
X054845Y016699D01*
X054782Y016782D01*
X054699Y016845D01*
X054603Y016885D01*
X054550Y016892D01*
D02*
G37*
G36*
X054450D02*
X054397Y016885D01*
X054301Y016845D01*
X054218Y016782D01*
X054155Y016699D01*
X054115Y016603D01*
X054108Y016550D01*
X054450D01*
Y016892D01*
D02*
G37*
G36*
X054892Y016450D02*
X054550D01*
Y016108D01*
X054603Y016115D01*
X054699Y016155D01*
X054782Y016218D01*
X054845Y016301D01*
X054885Y016397D01*
X054892Y016450D01*
D02*
G37*
G36*
X058750Y017934D02*
X058638Y017919D01*
X058533Y017876D01*
X058443Y017807D01*
X058374Y017717D01*
X058369Y017704D01*
X057842D01*
X057782Y017782D01*
X057699Y017845D01*
X057603Y017885D01*
X057500Y017899D01*
X057397Y017885D01*
X057301Y017845D01*
X057218Y017782D01*
X057155Y017699D01*
X057115Y017603D01*
X057101Y017500D01*
X057115Y017397D01*
X057155Y017301D01*
X057218Y017218D01*
X057296Y017158D01*
Y016842D01*
X057218Y016782D01*
X057155Y016699D01*
X057115Y016603D01*
X057101Y016500D01*
X057115Y016397D01*
X057155Y016301D01*
X057218Y016218D01*
X057301Y016155D01*
X057397Y016115D01*
X057500Y016101D01*
X057603Y016115D01*
X057699Y016155D01*
X057782Y016218D01*
X057845Y016301D01*
X057885Y016397D01*
X057899Y016500D01*
X057885Y016603D01*
X057845Y016699D01*
X057782Y016782D01*
X057704Y016842D01*
Y017158D01*
X057782Y017218D01*
X057842Y017296D01*
X058369D01*
X058374Y017283D01*
X058443Y017193D01*
X058533Y017124D01*
X058638Y017081D01*
X058750Y017066D01*
X058862Y017081D01*
X058967Y017124D01*
X059057Y017193D01*
X059126Y017283D01*
X059169Y017388D01*
X059184Y017500D01*
X059169Y017612D01*
X059126Y017717D01*
X059057Y017807D01*
X058967Y017876D01*
X058862Y017919D01*
X058750Y017934D01*
D02*
G37*
G36*
X047395Y018395D02*
X046605D01*
Y017605D01*
X047395D01*
Y018395D01*
D02*
G37*
G36*
X052927Y017950D02*
X052550D01*
Y017573D01*
X052612Y017581D01*
X052717Y017624D01*
X052807Y017693D01*
X052876Y017783D01*
X052919Y017888D01*
X052927Y017950D01*
D02*
G37*
G36*
X051500Y018434D02*
X051388Y018419D01*
X051283Y018376D01*
X051193Y018307D01*
X051124Y018217D01*
X051119Y018204D01*
X050342D01*
X050282Y018282D01*
X050199Y018345D01*
X050103Y018385D01*
X050000Y018399D01*
X049897Y018385D01*
X049801Y018345D01*
X049718Y018282D01*
X049658Y018204D01*
X049450D01*
X049450Y018204D01*
X049372Y018188D01*
X049306Y018144D01*
X047856Y016694D01*
X047812Y016628D01*
X047796Y016550D01*
Y013634D01*
X047385Y013223D01*
X047325Y013226D01*
X047282Y013282D01*
X047199Y013345D01*
X047103Y013385D01*
X047000Y013399D01*
X046897Y013385D01*
X046801Y013345D01*
X046718Y013282D01*
X046655Y013199D01*
X046615Y013103D01*
X046601Y013000D01*
X046615Y012897D01*
X046655Y012801D01*
X046718Y012718D01*
X046728Y012710D01*
X046712Y012663D01*
X044118D01*
X038565Y018215D01*
X038512Y018251D01*
X038450Y018263D01*
X028900D01*
X028838Y018251D01*
X028785Y018215D01*
X028370Y017800D01*
X028313Y017823D01*
X028200Y017838D01*
X028087Y017823D01*
X027981Y017780D01*
X027890Y017710D01*
X027820Y017619D01*
X027777Y017513D01*
X027762Y017400D01*
X027777Y017287D01*
X027820Y017181D01*
X027890Y017090D01*
X027981Y017020D01*
X028087Y016977D01*
X028200Y016962D01*
X028313Y016977D01*
X028419Y017020D01*
X028510Y017090D01*
X028580Y017181D01*
X028623Y017287D01*
X028638Y017400D01*
X028623Y017513D01*
X028600Y017570D01*
X028968Y017937D01*
X038382D01*
X043935Y012385D01*
X043988Y012349D01*
X044050Y012337D01*
X046712D01*
X046728Y012290D01*
X046718Y012282D01*
X046655Y012199D01*
X046615Y012103D01*
X046601Y012000D01*
X046615Y011897D01*
X046655Y011801D01*
X046718Y011718D01*
X046801Y011655D01*
X046897Y011615D01*
X047000Y011601D01*
X047103Y011615D01*
X047199Y011655D01*
X047282Y011718D01*
X047345Y011801D01*
X047385Y011897D01*
X047399Y012000D01*
X047385Y012103D01*
X047345Y012199D01*
X047282Y012282D01*
X047272Y012290D01*
X047288Y012337D01*
X048100D01*
X048162Y012349D01*
X048215Y012385D01*
X048668Y012837D01*
X049640D01*
X049655Y012801D01*
X049718Y012718D01*
X049728Y012710D01*
X049712Y012663D01*
X049550D01*
X049488Y012651D01*
X049435Y012615D01*
X047482Y010663D01*
X047288D01*
X047272Y010710D01*
X047282Y010718D01*
X047345Y010801D01*
X047385Y010897D01*
X047392Y010950D01*
X046608D01*
X046615Y010897D01*
X046655Y010801D01*
X046718Y010718D01*
X046728Y010710D01*
X046712Y010663D01*
X042668D01*
X041900Y011430D01*
X041923Y011487D01*
X041938Y011600D01*
X041923Y011713D01*
X041880Y011819D01*
X041810Y011910D01*
X041719Y011980D01*
X041613Y012023D01*
X041500Y012038D01*
X041387Y012023D01*
X041281Y011980D01*
X041190Y011910D01*
X041120Y011819D01*
X041077Y011713D01*
X041062Y011600D01*
X041077Y011487D01*
X041120Y011381D01*
X041190Y011290D01*
X041281Y011220D01*
X041387Y011177D01*
X041500Y011162D01*
X041613Y011177D01*
X041670Y011200D01*
X042410Y010459D01*
X042391Y010413D01*
X037018D01*
X030955Y016475D01*
X030902Y016511D01*
X030840Y016523D01*
X027908D01*
X026165Y018265D01*
X026112Y018301D01*
X026050Y018313D01*
X020050D01*
X019988Y018301D01*
X019935Y018265D01*
X019470Y017800D01*
X019413Y017823D01*
X019300Y017838D01*
X019187Y017823D01*
X019081Y017780D01*
X018990Y017710D01*
X018920Y017619D01*
X018877Y017513D01*
X018862Y017400D01*
X018877Y017287D01*
X018920Y017181D01*
X018990Y017090D01*
X019081Y017020D01*
X019187Y016977D01*
X019300Y016962D01*
X019413Y016977D01*
X019519Y017020D01*
X019610Y017090D01*
X019680Y017181D01*
X019723Y017287D01*
X019738Y017400D01*
X019723Y017513D01*
X019700Y017570D01*
X020118Y017987D01*
X025982D01*
X027725Y016245D01*
X027778Y016209D01*
X027840Y016197D01*
X030772D01*
X036835Y010135D01*
X036888Y010099D01*
X036950Y010087D01*
X048050D01*
X048112Y010099D01*
X048165Y010135D01*
X048868Y010837D01*
X049640D01*
X049655Y010801D01*
X049718Y010718D01*
X049801Y010655D01*
X049897Y010615D01*
X050000Y010601D01*
X050103Y010615D01*
X050199Y010655D01*
X050282Y010718D01*
X050345Y010801D01*
X050385Y010897D01*
X050399Y011000D01*
X050385Y011103D01*
X050345Y011199D01*
X050282Y011282D01*
X050199Y011345D01*
X050103Y011385D01*
X050000Y011399D01*
X049897Y011385D01*
X049801Y011345D01*
X049718Y011282D01*
X049655Y011199D01*
X049640Y011163D01*
X048800D01*
X048738Y011151D01*
X048685Y011115D01*
X047982Y010413D01*
X047759D01*
X047740Y010459D01*
X049618Y012337D01*
X049712D01*
X049728Y012290D01*
X049718Y012282D01*
X049655Y012199D01*
X049615Y012103D01*
X049601Y012000D01*
X049615Y011897D01*
X049655Y011801D01*
X049718Y011718D01*
X049801Y011655D01*
X049897Y011615D01*
X050000Y011601D01*
X050103Y011615D01*
X050199Y011655D01*
X050282Y011718D01*
X050345Y011801D01*
X050385Y011897D01*
X050399Y012000D01*
X050385Y012103D01*
X050345Y012199D01*
X050282Y012282D01*
X050272Y012290D01*
X050288Y012337D01*
X050650D01*
X050712Y012349D01*
X050765Y012385D01*
X051165Y012785D01*
X051201Y012838D01*
X051213Y012900D01*
Y015650D01*
X051201Y015712D01*
X051165Y015765D01*
X050815Y016115D01*
X050762Y016151D01*
X050700Y016163D01*
X050360D01*
X050345Y016199D01*
X050282Y016282D01*
X050199Y016345D01*
X050103Y016385D01*
X050000Y016399D01*
X049897Y016385D01*
X049801Y016345D01*
X049718Y016282D01*
X049655Y016199D01*
X049615Y016103D01*
X049601Y016000D01*
X049615Y015897D01*
X049655Y015801D01*
X049718Y015718D01*
X049801Y015655D01*
X049897Y015615D01*
X050000Y015601D01*
X050103Y015615D01*
X050199Y015655D01*
X050282Y015718D01*
X050345Y015801D01*
X050360Y015837D01*
X050632D01*
X050887Y015582D01*
Y012968D01*
X050582Y012663D01*
X050288D01*
X050272Y012710D01*
X050282Y012718D01*
X050345Y012801D01*
X050385Y012897D01*
X050399Y013000D01*
X050385Y013103D01*
X050345Y013199D01*
X050282Y013282D01*
X050199Y013345D01*
X050103Y013385D01*
X050000Y013399D01*
X049897Y013385D01*
X049801Y013345D01*
X049718Y013282D01*
X049655Y013199D01*
X049640Y013163D01*
X048600D01*
X048538Y013151D01*
X048485Y013115D01*
X048032Y012663D01*
X047288D01*
X047272Y012710D01*
X047282Y012718D01*
X047342Y012796D01*
X047450D01*
X047528Y012812D01*
X047594Y012856D01*
X048144Y013406D01*
X048144Y013406D01*
X048171Y013445D01*
X048188Y013472D01*
X048204Y013550D01*
Y016466D01*
X049534Y017796D01*
X049658D01*
X049718Y017718D01*
X049801Y017655D01*
X049897Y017615D01*
X050000Y017601D01*
X050103Y017615D01*
X050199Y017655D01*
X050282Y017718D01*
X050342Y017796D01*
X051119D01*
X051124Y017783D01*
X051193Y017693D01*
X051283Y017624D01*
X051388Y017581D01*
X051500Y017566D01*
X051612Y017581D01*
X051717Y017624D01*
X051807Y017693D01*
X051876Y017783D01*
X051919Y017888D01*
X051934Y018000D01*
X051919Y018112D01*
X051876Y018217D01*
X051807Y018307D01*
X051717Y018376D01*
X051612Y018419D01*
X051500Y018434D01*
D02*
G37*
G36*
X052550Y018427D02*
Y018050D01*
X052927D01*
X052919Y018112D01*
X052876Y018217D01*
X052807Y018307D01*
X052717Y018376D01*
X052612Y018419D01*
X052550Y018427D01*
D02*
G37*
G36*
X052450D02*
X052388Y018419D01*
X052283Y018376D01*
X052193Y018307D01*
X052124Y018217D01*
X052081Y018112D01*
X052073Y018050D01*
X052450D01*
Y018427D01*
D02*
G37*
G36*
Y017950D02*
X052073D01*
X052081Y017888D01*
X052124Y017783D01*
X052193Y017693D01*
X052283Y017624D01*
X052388Y017581D01*
X052450Y017573D01*
Y017950D01*
D02*
G37*
G36*
X059700Y017927D02*
X059638Y017919D01*
X059533Y017876D01*
X059443Y017807D01*
X059374Y017717D01*
X059331Y017612D01*
X059323Y017550D01*
X059700D01*
Y017927D01*
D02*
G37*
G36*
X054895Y017895D02*
X054105D01*
Y017105D01*
X054895D01*
Y017895D01*
D02*
G37*
G36*
X065927Y017450D02*
X065550D01*
Y017073D01*
X065612Y017081D01*
X065717Y017124D01*
X065807Y017193D01*
X065876Y017283D01*
X065919Y017388D01*
X065927Y017450D01*
D02*
G37*
G36*
X065550Y017927D02*
Y017550D01*
X065927D01*
X065919Y017612D01*
X065876Y017717D01*
X065807Y017807D01*
X065717Y017876D01*
X065612Y017919D01*
X065550Y017927D01*
D02*
G37*
G36*
X065450D02*
X065388Y017919D01*
X065283Y017876D01*
X065193Y017807D01*
X065124Y017717D01*
X065081Y017612D01*
X065073Y017550D01*
X065450D01*
Y017927D01*
D02*
G37*
G36*
X059800D02*
Y017550D01*
X060177D01*
X060169Y017612D01*
X060126Y017717D01*
X060057Y017807D01*
X059967Y017876D01*
X059862Y017919D01*
X059800Y017927D01*
D02*
G37*
G36*
X061895Y016145D02*
X061550D01*
Y015800D01*
X061895D01*
Y016145D01*
D02*
G37*
G36*
X046950Y014950D02*
X046608D01*
X046615Y014897D01*
X046655Y014801D01*
X046718Y014718D01*
X046801Y014655D01*
X046897Y014615D01*
X046950Y014608D01*
Y014950D01*
D02*
G37*
G36*
X050000Y015399D02*
X049897Y015385D01*
X049801Y015345D01*
X049718Y015282D01*
X049655Y015199D01*
X049615Y015103D01*
X049601Y015000D01*
X049615Y014897D01*
X049655Y014801D01*
X049718Y014718D01*
X049801Y014655D01*
X049897Y014615D01*
X050000Y014601D01*
X050103Y014615D01*
X050199Y014655D01*
X050282Y014718D01*
X050345Y014801D01*
X050385Y014897D01*
X050399Y015000D01*
X050385Y015103D01*
X050345Y015199D01*
X050282Y015282D01*
X050199Y015345D01*
X050103Y015385D01*
X050000Y015399D01*
D02*
G37*
G36*
X141650Y014998D02*
Y014550D01*
X142098D01*
X142087Y014631D01*
X142037Y014752D01*
X141957Y014857D01*
X141852Y014937D01*
X141731Y014987D01*
X141650Y014998D01*
D02*
G37*
G36*
X124000Y015004D02*
X123869Y014987D01*
X123748Y014937D01*
X123643Y014857D01*
X123563Y014752D01*
X123543Y014704D01*
X121457D01*
X121437Y014752D01*
X121357Y014857D01*
X121252Y014937D01*
X121131Y014987D01*
X121000Y015004D01*
X120869Y014987D01*
X120748Y014937D01*
X120643Y014857D01*
X120563Y014752D01*
X120513Y014631D01*
X120496Y014500D01*
X120513Y014369D01*
X120563Y014248D01*
X120643Y014143D01*
X120748Y014063D01*
X120869Y014013D01*
X121000Y013996D01*
X121131Y014013D01*
X121252Y014063D01*
X121357Y014143D01*
X121437Y014248D01*
X121457Y014296D01*
X123543D01*
X123563Y014248D01*
X123643Y014143D01*
X123748Y014063D01*
X123869Y014013D01*
X124000Y013996D01*
X124131Y014013D01*
X124252Y014063D01*
X124357Y014143D01*
X124437Y014248D01*
X124487Y014369D01*
X124504Y014500D01*
X124487Y014631D01*
X124437Y014752D01*
X124357Y014857D01*
X124252Y014937D01*
X124131Y014987D01*
X124000Y015004D01*
D02*
G37*
G36*
X103400D02*
X103269Y014987D01*
X103148Y014937D01*
X103043Y014857D01*
X102963Y014752D01*
X102943Y014704D01*
X100857D01*
X100837Y014752D01*
X100757Y014857D01*
X100652Y014937D01*
X100531Y014987D01*
X100400Y015004D01*
X100269Y014987D01*
X100148Y014937D01*
X100043Y014857D01*
X099963Y014752D01*
X099913Y014631D01*
X099896Y014500D01*
X099913Y014369D01*
X099963Y014248D01*
X100043Y014143D01*
X100148Y014063D01*
X100269Y014013D01*
X100400Y013996D01*
X100531Y014013D01*
X100652Y014063D01*
X100757Y014143D01*
X100837Y014248D01*
X100857Y014296D01*
X102943D01*
X102963Y014248D01*
X103043Y014143D01*
X103148Y014063D01*
X103269Y014013D01*
X103400Y013996D01*
X103531Y014013D01*
X103652Y014063D01*
X103757Y014143D01*
X103837Y014248D01*
X103887Y014369D01*
X103904Y014500D01*
X103887Y014631D01*
X103837Y014752D01*
X103757Y014857D01*
X103652Y014937D01*
X103531Y014987D01*
X103400Y015004D01*
D02*
G37*
G36*
X047392Y014950D02*
X047050D01*
Y014608D01*
X047103Y014615D01*
X047199Y014655D01*
X047282Y014718D01*
X047345Y014801D01*
X047385Y014897D01*
X047392Y014950D01*
D02*
G37*
G36*
X141550Y014998D02*
X141469Y014987D01*
X141348Y014937D01*
X141243Y014857D01*
X141163Y014752D01*
X141113Y014631D01*
X141102Y014550D01*
X141550D01*
Y014998D01*
D02*
G37*
G36*
X041700Y017838D02*
X041587Y017823D01*
X041481Y017780D01*
X041390Y017710D01*
X041320Y017619D01*
X041277Y017513D01*
X041262Y017400D01*
X041277Y017287D01*
X041320Y017181D01*
X041390Y017090D01*
X041481Y017020D01*
X041587Y016977D01*
X041700Y016962D01*
X041813Y016977D01*
X041919Y017020D01*
X042010Y017090D01*
X042080Y017181D01*
X042103Y017237D01*
X043632D01*
X044137Y016732D01*
Y014882D01*
X044091Y014862D01*
X044004Y014796D01*
X043938Y014709D01*
X043896Y014608D01*
X043881Y014500D01*
X043896Y014392D01*
X043938Y014291D01*
X044004Y014204D01*
X044091Y014137D01*
X044192Y014096D01*
X044300Y014081D01*
X044408Y014096D01*
X044509Y014137D01*
X044596Y014204D01*
X044662Y014291D01*
X044704Y014392D01*
X044719Y014500D01*
X044704Y014608D01*
X044662Y014709D01*
X044596Y014796D01*
X044509Y014862D01*
X044463Y014882D01*
Y016800D01*
X044451Y016862D01*
X044415Y016915D01*
X043815Y017515D01*
X043762Y017551D01*
X043700Y017563D01*
X042103D01*
X042080Y017619D01*
X042010Y017710D01*
X041919Y017780D01*
X041813Y017823D01*
X041700Y017838D01*
D02*
G37*
G36*
X043300Y014919D02*
X043192Y014904D01*
X043091Y014862D01*
X043004Y014796D01*
X042938Y014709D01*
X042896Y014608D01*
X042881Y014500D01*
X042896Y014392D01*
X042938Y014291D01*
X043004Y014204D01*
X043091Y014137D01*
X043192Y014096D01*
X043300Y014081D01*
X043408Y014096D01*
X043509Y014137D01*
X043596Y014204D01*
X043662Y014291D01*
X043704Y014392D01*
X043719Y014500D01*
X043704Y014608D01*
X043662Y014709D01*
X043596Y014796D01*
X043509Y014862D01*
X043408Y014904D01*
X043300Y014919D01*
D02*
G37*
G36*
X038900D02*
X038792Y014904D01*
X038691Y014862D01*
X038604Y014796D01*
X038538Y014709D01*
X038496Y014608D01*
X038481Y014500D01*
X038496Y014392D01*
X038538Y014291D01*
X038604Y014204D01*
X038691Y014137D01*
X038792Y014096D01*
X038900Y014081D01*
X039008Y014096D01*
X039109Y014137D01*
X039196Y014204D01*
X039262Y014291D01*
X039304Y014392D01*
X039319Y014500D01*
X039304Y014608D01*
X039262Y014709D01*
X039196Y014796D01*
X039109Y014862D01*
X039008Y014904D01*
X038900Y014919D01*
D02*
G37*
G36*
X078284Y014899D02*
X078181Y014885D01*
X078085Y014845D01*
X078002Y014782D01*
X077939Y014699D01*
X077899Y014603D01*
X077886Y014500D01*
X077899Y014397D01*
X077939Y014301D01*
X078002Y014218D01*
X078085Y014155D01*
X078181Y014115D01*
X078284Y014101D01*
X078387Y014115D01*
X078484Y014155D01*
X078566Y014218D01*
X078630Y014301D01*
X078669Y014397D01*
X078683Y014500D01*
X078669Y014603D01*
X078630Y014699D01*
X078566Y014782D01*
X078484Y014845D01*
X078387Y014885D01*
X078284Y014899D01*
D02*
G37*
G36*
X057500D02*
X057397Y014885D01*
X057301Y014845D01*
X057218Y014782D01*
X057155Y014699D01*
X057115Y014603D01*
X057101Y014500D01*
X057115Y014397D01*
X057155Y014301D01*
X057218Y014218D01*
X057301Y014155D01*
X057397Y014115D01*
X057500Y014101D01*
X057603Y014115D01*
X057699Y014155D01*
X057782Y014218D01*
X057845Y014301D01*
X057885Y014397D01*
X057899Y014500D01*
X057885Y014603D01*
X057845Y014699D01*
X057782Y014782D01*
X057699Y014845D01*
X057603Y014885D01*
X057500Y014899D01*
D02*
G37*
G36*
X054500D02*
X054397Y014885D01*
X054301Y014845D01*
X054218Y014782D01*
X054155Y014699D01*
X054115Y014603D01*
X054101Y014500D01*
X054115Y014397D01*
X054155Y014301D01*
X054218Y014218D01*
X054301Y014155D01*
X054397Y014115D01*
X054500Y014101D01*
X054603Y014115D01*
X054699Y014155D01*
X054782Y014218D01*
X054845Y014301D01*
X054885Y014397D01*
X054899Y014500D01*
X054885Y014603D01*
X054845Y014699D01*
X054782Y014782D01*
X054699Y014845D01*
X054603Y014885D01*
X054500Y014899D01*
D02*
G37*
G36*
X057450Y015892D02*
X057397Y015885D01*
X057301Y015845D01*
X057218Y015782D01*
X057155Y015699D01*
X057115Y015603D01*
X057108Y015550D01*
X057450D01*
Y015892D01*
D02*
G37*
G36*
X061895Y015700D02*
X061550D01*
Y015355D01*
X061895D01*
Y015700D01*
D02*
G37*
G36*
X061450D02*
X061105D01*
Y015355D01*
X061450D01*
Y015700D01*
D02*
G37*
G36*
Y016145D02*
X061105D01*
Y015800D01*
X061450D01*
Y016145D01*
D02*
G37*
G36*
X047000Y016399D02*
X046897Y016385D01*
X046801Y016345D01*
X046718Y016282D01*
X046655Y016199D01*
X046615Y016103D01*
X046601Y016000D01*
X046615Y015897D01*
X046655Y015801D01*
X046718Y015718D01*
X046801Y015655D01*
X046897Y015615D01*
X047000Y015601D01*
X047103Y015615D01*
X047199Y015655D01*
X047282Y015718D01*
X047345Y015801D01*
X047385Y015897D01*
X047399Y016000D01*
X047385Y016103D01*
X047345Y016199D01*
X047282Y016282D01*
X047199Y016345D01*
X047103Y016385D01*
X047000Y016399D01*
D02*
G37*
G36*
X057550Y015892D02*
Y015550D01*
X057892D01*
X057885Y015603D01*
X057845Y015699D01*
X057782Y015782D01*
X057699Y015845D01*
X057603Y015885D01*
X057550Y015892D01*
D02*
G37*
G36*
X064500Y017934D02*
X064388Y017919D01*
X064283Y017876D01*
X064193Y017807D01*
X064124Y017717D01*
X064081Y017612D01*
X064066Y017500D01*
X064081Y017388D01*
X064124Y017283D01*
X064193Y017193D01*
X064283Y017124D01*
X064296Y017119D01*
Y016092D01*
X064218Y016032D01*
X064155Y015949D01*
X064115Y015853D01*
X064101Y015750D01*
X064115Y015647D01*
X064155Y015551D01*
X064218Y015468D01*
X064301Y015405D01*
X064397Y015365D01*
X064500Y015351D01*
X064603Y015365D01*
X064699Y015405D01*
X064782Y015468D01*
X064845Y015551D01*
X064885Y015647D01*
X064899Y015750D01*
X064885Y015853D01*
X064845Y015949D01*
X064782Y016032D01*
X064704Y016092D01*
Y017119D01*
X064717Y017124D01*
X064807Y017193D01*
X064876Y017283D01*
X064919Y017388D01*
X064934Y017500D01*
X064919Y017612D01*
X064876Y017717D01*
X064807Y017807D01*
X064717Y017876D01*
X064612Y017919D01*
X064500Y017934D01*
D02*
G37*
G36*
X047050Y015392D02*
Y015050D01*
X047392D01*
X047385Y015103D01*
X047345Y015199D01*
X047282Y015282D01*
X047199Y015345D01*
X047103Y015385D01*
X047050Y015392D01*
D02*
G37*
G36*
X046950D02*
X046897Y015385D01*
X046801Y015345D01*
X046718Y015282D01*
X046655Y015199D01*
X046615Y015103D01*
X046608Y015050D01*
X046950D01*
Y015392D01*
D02*
G37*
G36*
X069800Y017683D02*
X069696Y017670D01*
X069598Y017629D01*
X069515Y017565D01*
X069451Y017482D01*
X069410Y017384D01*
X069397Y017280D01*
X069410Y017176D01*
X069451Y017078D01*
X069515Y016995D01*
X069598Y016931D01*
X069637Y016915D01*
Y016050D01*
X069649Y015988D01*
X069685Y015935D01*
X070617Y015002D01*
Y014913D01*
X064860D01*
X064845Y014949D01*
X064782Y015032D01*
X064699Y015095D01*
X064603Y015135D01*
X064500Y015149D01*
X064397Y015135D01*
X064301Y015095D01*
X064218Y015032D01*
X064155Y014949D01*
X064115Y014853D01*
X064101Y014750D01*
X064115Y014647D01*
X064155Y014551D01*
X064218Y014468D01*
X064301Y014405D01*
X064397Y014365D01*
X064500Y014351D01*
X064603Y014365D01*
X064699Y014405D01*
X064782Y014468D01*
X064845Y014551D01*
X064860Y014587D01*
X070617D01*
Y012765D01*
X070578Y012749D01*
X070495Y012685D01*
X070431Y012602D01*
X070390Y012504D01*
X070377Y012400D01*
X070390Y012296D01*
X070431Y012198D01*
X070495Y012115D01*
X070578Y012051D01*
X070676Y012010D01*
X070780Y011997D01*
X070884Y012010D01*
X070982Y012051D01*
X071065Y012115D01*
X071129Y012198D01*
X071170Y012296D01*
X071183Y012400D01*
X071170Y012504D01*
X071129Y012602D01*
X071065Y012685D01*
X070982Y012749D01*
X070943Y012765D01*
Y014750D01*
Y015070D01*
X070931Y015132D01*
X070895Y015185D01*
X069963Y016118D01*
Y016915D01*
X070002Y016931D01*
X070085Y016995D01*
X070149Y017078D01*
X070190Y017176D01*
X070203Y017280D01*
X070190Y017384D01*
X070149Y017482D01*
X070085Y017565D01*
X070002Y017629D01*
X069904Y017670D01*
X069800Y017683D01*
D02*
G37*
G36*
X057892Y015450D02*
X057550D01*
Y015108D01*
X057603Y015115D01*
X057699Y015155D01*
X057782Y015218D01*
X057845Y015301D01*
X057885Y015397D01*
X057892Y015450D01*
D02*
G37*
G36*
X057450D02*
X057108D01*
X057115Y015397D01*
X057155Y015301D01*
X057218Y015218D01*
X057301Y015155D01*
X057397Y015115D01*
X057450Y015108D01*
Y015450D01*
D02*
G37*
G36*
X054500Y015899D02*
X054397Y015885D01*
X054301Y015845D01*
X054218Y015782D01*
X054155Y015699D01*
X054115Y015603D01*
X054101Y015500D01*
X054115Y015397D01*
X054155Y015301D01*
X054218Y015218D01*
X054301Y015155D01*
X054397Y015115D01*
X054500Y015101D01*
X054603Y015115D01*
X054699Y015155D01*
X054782Y015218D01*
X054845Y015301D01*
X054885Y015397D01*
X054899Y015500D01*
X054885Y015603D01*
X054845Y015699D01*
X054782Y015782D01*
X054699Y015845D01*
X054603Y015885D01*
X054500Y015899D01*
D02*
G37*
%LPD*%
D10*
X049450Y018000D02*
X050000D01*
X048000Y016550D02*
X049450Y018000D01*
X048000Y013550D02*
Y016550D01*
X077300Y013600D02*
X078706Y012194D01*
X077300Y013600D02*
Y014500D01*
X076900Y015700D02*
X081600D01*
X076316Y015116D02*
X076900Y015700D01*
X076316Y014500D02*
Y015116D01*
X047450Y013000D02*
X048000Y013550D01*
X047000Y013000D02*
X047450D01*
X081600Y015700D02*
X082800Y014500D01*
X050000Y018000D02*
X051500D01*
X057500Y016500D02*
Y017500D01*
X058750D01*
X064500Y015750D02*
Y017500D01*
X121000Y014500D02*
X124000D01*
X100400D02*
X103400D01*
D11*
X078706Y012194D02*
X078800D01*
X070780Y012420D02*
Y014750D01*
Y015070D01*
X064500Y014750D02*
X070780D01*
X069800Y016050D02*
X070780Y015070D01*
X069800Y016050D02*
Y017280D01*
X065900Y013800D02*
X066000Y013900D01*
X062450Y013800D02*
X065900D01*
X061500Y014750D02*
X062450Y013800D01*
X048600Y013000D02*
X050000D01*
X048100Y012500D02*
X048600Y013000D01*
X044050Y012500D02*
X048100D01*
X048050Y010250D02*
X048800Y011000D01*
X036950Y010250D02*
X048050D01*
X030840Y016360D02*
X036950Y010250D01*
X048800Y011000D02*
X050000D01*
X049550Y012500D02*
X050650D01*
X047550Y010500D02*
X049550Y012500D01*
X042600Y010500D02*
X047550D01*
X041500Y011600D02*
X042600Y010500D01*
X050650Y012500D02*
X051050Y012900D01*
Y015650D01*
X050700Y016000D02*
X051050Y015650D01*
X050000Y016000D02*
X050700D01*
X038450Y018100D02*
X044050Y012500D01*
X028900Y018100D02*
X038450D01*
X027840Y016360D02*
X030840D01*
X026050Y018150D02*
X027840Y016360D01*
X020050Y018150D02*
X026050D01*
X032900Y017400D02*
X033050D01*
X028200D02*
X028900Y018100D01*
X026800Y014500D02*
Y014650D01*
X026250Y015200D02*
X026800Y014650D01*
X024600Y015200D02*
X026250D01*
X024200Y015600D02*
X024600Y015200D01*
X019300Y017400D02*
X020050Y018150D01*
X035550Y014500D02*
Y014900D01*
X033050Y017400D02*
X035550Y014900D01*
X018000Y014500D02*
Y017000D01*
X017600Y017400D02*
X018000Y017000D01*
X015300Y017400D02*
X017600D01*
X013500Y012000D02*
Y014500D01*
X013100Y011600D02*
X013500Y012000D01*
X010900Y011600D02*
X013100D01*
X022400Y012000D02*
Y014500D01*
X022000Y011600D02*
X022400Y012000D01*
X019800Y011600D02*
X022000D01*
X024200Y015600D02*
Y017400D01*
X044300Y014500D02*
Y016800D01*
X043700Y017400D02*
X044300Y016800D01*
X041700Y017400D02*
X043700D01*
X031150Y014150D02*
Y014500D01*
X028600Y011600D02*
X031150Y014150D01*
X039900Y014000D02*
Y014500D01*
X037500Y011600D02*
X039900Y014000D01*
D12*
X041700Y017400D02*
D03*
X045700D02*
D03*
X037500Y011600D02*
D03*
X041500D02*
D03*
X032900Y017400D02*
D03*
X036900D02*
D03*
X028600Y011600D02*
D03*
X032600D02*
D03*
X024200Y017400D02*
D03*
X028200D02*
D03*
X019800Y011600D02*
D03*
X023800D02*
D03*
X010900D02*
D03*
X014900D02*
D03*
X015300Y017400D02*
D03*
X019300D02*
D03*
D13*
X013500Y014500D02*
D03*
X012500D02*
D03*
X018000D02*
D03*
X017000D02*
D03*
X022400D02*
D03*
X021400D02*
D03*
X026800D02*
D03*
X025800D02*
D03*
X031150D02*
D03*
X030150D02*
D03*
X035550D02*
D03*
X034550D02*
D03*
X039900D02*
D03*
X038900D02*
D03*
X044300D02*
D03*
X043300D02*
D03*
D14*
X051500Y018000D02*
D03*
X052500D02*
D03*
X058750Y017500D02*
D03*
X059750D02*
D03*
X067000Y012600D02*
D03*
X066000D02*
D03*
X067000Y013900D02*
D03*
X066000D02*
D03*
X064500Y017500D02*
D03*
X065500D02*
D03*
D15*
X047000Y018000D02*
D03*
X054500Y017500D02*
D03*
X076316Y014500D02*
D03*
X061500Y015750D02*
D03*
D16*
X047000Y017000D02*
D03*
Y016000D02*
D03*
Y015000D02*
D03*
Y014000D02*
D03*
Y013000D02*
D03*
Y012000D02*
D03*
Y011000D02*
D03*
X050000Y018000D02*
D03*
Y017000D02*
D03*
Y016000D02*
D03*
Y015000D02*
D03*
Y014000D02*
D03*
Y013000D02*
D03*
Y012000D02*
D03*
Y011000D02*
D03*
X054500Y016500D02*
D03*
Y015500D02*
D03*
Y014500D02*
D03*
Y013500D02*
D03*
Y012500D02*
D03*
Y011500D02*
D03*
X057500Y017500D02*
D03*
Y016500D02*
D03*
Y015500D02*
D03*
Y014500D02*
D03*
Y013500D02*
D03*
Y012500D02*
D03*
Y011500D02*
D03*
X077300Y014500D02*
D03*
X078284D02*
D03*
X078800Y012194D02*
D03*
X061500Y014750D02*
D03*
Y013750D02*
D03*
Y012750D02*
D03*
X064500Y015750D02*
D03*
Y014750D02*
D03*
Y013750D02*
D03*
Y012750D02*
D03*
D17*
X069800Y017280D02*
D03*
X068820Y016300D02*
D03*
X070780D02*
D03*
X069800Y013380D02*
D03*
X068820Y012400D02*
D03*
X070780D02*
D03*
D18*
X078800Y011406D02*
D03*
D19*
X082800Y014500D02*
D03*
X100400D02*
D03*
X103400D02*
D03*
X121000D02*
D03*
X124000D02*
D03*
X141600D02*
D03*
M02*
