M48
;Layer_Color=6321
;FILE_FORMAT=2:4
INCH
;TYPE=PLATED
T1F00S00C0.0100
T2F00S00C0.0276
T3F00S00C0.0394
T4F00S00C0.0402
T5F00S00C0.0500
T6F00S00C0.0866
T7F00S00C0.1299
;TYPE=NON_PLATED
T8F00S00C0.0354
%
T01
X056130Y014290
X058140Y012420
X059930Y012440
X061700Y012450
X063650Y012500
X064540Y014310
X067130Y014340
X078700Y023400
X079270Y024650
X080950Y024840
X081180Y023950
X082280Y023240
X080960Y027210
X080100Y026940
X080170Y027590
X078090Y024300
X075050Y022250
X073700
X072450
X071050
X070650Y020250
X069900
X070650Y019050
X071750Y018100
X073700
X073150Y020284
X074350Y020300
X075250Y020900
X075950Y018750
X072850Y023640
X074500Y027300
X068744Y022120
X065200Y016000
X063550Y015980
X062530Y026800
X066580Y030430
X061390Y029420
X059714Y026800
X058290Y025800
X058010Y022840
X057850Y018600
X056850Y019150
X055900Y018700
X055533Y017850
X055850Y016900
X057560Y015940
X059960
X061740Y015960
X062130Y021280
X054385Y020230
X056000Y031420
X059950Y033850
X060560Y035000
X061390Y034530
X062130Y034810
X062380Y034660
X061430Y037190
X060430Y036950
X060040Y036660
X059120Y036000
X058720Y037614
X059930Y038180
X059938Y038939
X060210Y039128
X060150Y039800
X060650Y041290
X060390Y041920
X061470Y041990
X062255Y042440
X061663Y040880
X061370Y040570
X061663Y039193
X062220Y039160
X061950Y038890
X057460Y036950
X057070Y037130
X058814Y042268
X063230Y042440
X063320Y041920
X063480Y040240
X063650Y039770
X062610Y039730
X062930Y039043
X062840Y038570
X062610Y038340
X062930Y037440
X063430Y038840
X064900Y039050
X064787Y037810
X064984Y036500
X064850Y035600
X063920Y034760
X063545Y034400
X062570
X066250Y031420
X067200Y038600
X068380Y039040
X065330Y040320
X064790
X065080Y043040
X065040Y044270
X072050Y045300
X071864Y041626
X071580Y040880
X072300Y040505
X075870Y040640
X074900Y041900
X077486Y035580
X082600Y035550
X084000Y034750
Y034250
X082700Y031400
X078250Y040950
T02
X058350Y038939
Y040861
T03
X067766Y010500
X069734
X068750Y015100
X079666Y018900
X081634
X081250Y028000
X082250
X085266
X087234
X074834Y029200
X072866
X069734
X067766
X064934Y029100
X062966
X067866Y025200
X068850
X069834
X072966
X074934
X068750Y016100
X060550Y019800
Y020800
Y021800
Y022800
Y023800
Y024800
Y025800
Y026800
Y027800
Y028800
Y029800
Y030800
X059050
Y029800
Y028800
Y027800
Y026800
Y025800
Y024800
Y023800
Y022800
Y021800
Y020800
Y019800
X056450Y027900
X055450
X052234
X050266
X054350Y035900
X055350
Y036900
Y037900
X054350
Y036900
X059050Y033800
Y032800
Y031800
X060550
Y032800
Y033800
X067866Y033300
X068850
X069834
X068750Y040400
Y041400
X068650Y044516
Y046484
T04
X066650Y012700
Y013700
T05
X073750Y013000
Y014250
Y015500
X075000
X076250
X077500
Y014250
X076250
X075000
Y013000
X076250
X077500
Y011750
X076250
X075000
X078750Y013000
Y014250
Y015500
X077500Y016750
X076250
X075000
T06
X056850Y017800
X061850
T07
X064041Y023800
X054659
Y032552
X064041
T08
X084350Y033634
Y035366
M30
