G04 Layer_Color=8150272*
%FSAX24Y24*%
%MOIN*%
G70*
G01*
G75*
%ADD71C,0.0534*%
%ADD72C,0.0789*%
%ADD73C,0.0680*%
%ADD74C,0.0710*%
%ADD75C,0.1655*%
%ADD76C,0.2442*%
%ADD77R,0.0671X0.0671*%
%ADD78C,0.0671*%
%ADD79C,0.0690*%
%ADD80R,0.0690X0.0690*%
%ADD81C,0.0955*%
%ADD82C,0.0280*%
D71*
X084350Y035366D02*
D03*
Y033634D02*
D03*
D72*
X054350Y035900D02*
D03*
X055350D02*
D03*
X054350Y037900D02*
D03*
X055350D02*
D03*
Y036900D02*
D03*
X054350D02*
D03*
D73*
X068650Y046484D02*
D03*
Y044516D02*
D03*
X050266Y027900D02*
D03*
X052234D02*
D03*
X085266Y028000D02*
D03*
X087234D02*
D03*
X067766Y010500D02*
D03*
X069734D02*
D03*
X074934Y025200D02*
D03*
X072966D02*
D03*
X062966Y029100D02*
D03*
X064934D02*
D03*
X067766Y029200D02*
D03*
X069734D02*
D03*
X072866D02*
D03*
X074834D02*
D03*
X059050Y033800D02*
D03*
Y032800D02*
D03*
Y031800D02*
D03*
Y030800D02*
D03*
Y029800D02*
D03*
Y028800D02*
D03*
Y027800D02*
D03*
Y026800D02*
D03*
Y025800D02*
D03*
Y024800D02*
D03*
Y023800D02*
D03*
Y022800D02*
D03*
Y021800D02*
D03*
Y020800D02*
D03*
Y019800D02*
D03*
X060550Y033800D02*
D03*
Y032800D02*
D03*
Y031800D02*
D03*
Y030800D02*
D03*
Y029800D02*
D03*
Y028800D02*
D03*
Y027800D02*
D03*
Y026800D02*
D03*
Y025800D02*
D03*
Y024800D02*
D03*
Y023800D02*
D03*
Y022800D02*
D03*
Y021800D02*
D03*
Y020800D02*
D03*
Y019800D02*
D03*
X079666Y018900D02*
D03*
X081634D02*
D03*
X073750Y015500D02*
D03*
X075000D02*
D03*
X076250D02*
D03*
X077500D02*
D03*
X078750D02*
D03*
Y014250D02*
D03*
X077500D02*
D03*
X076250D02*
D03*
X075000D02*
D03*
X073750D02*
D03*
X078750Y013000D02*
D03*
X077500D02*
D03*
X076250D02*
D03*
X075000D02*
D03*
X073750D02*
D03*
X077500Y011750D02*
D03*
X076250D02*
D03*
X075000D02*
D03*
X077500Y016750D02*
D03*
X076250D02*
D03*
X075000D02*
D03*
D74*
X068750Y041400D02*
D03*
Y040400D02*
D03*
Y015100D02*
D03*
Y016100D02*
D03*
X082250Y028000D02*
D03*
X081250D02*
D03*
X055450Y027900D02*
D03*
X056450D02*
D03*
D75*
X056850Y017800D02*
D03*
X061850D02*
D03*
D76*
X064041Y023800D02*
D03*
X054659D02*
D03*
Y032552D02*
D03*
X064041D02*
D03*
D77*
X069834Y033300D02*
D03*
Y025200D02*
D03*
D78*
X068850Y033300D02*
D03*
X067866D02*
D03*
X068850Y025200D02*
D03*
X067866D02*
D03*
D79*
X066650Y013700D02*
D03*
D80*
Y012700D02*
D03*
D81*
X058350Y038939D02*
D03*
Y040861D02*
D03*
D82*
X074500Y027300D02*
D03*
X061390Y029420D02*
D03*
X067130Y014340D02*
D03*
X056130Y014290D02*
D03*
X065200Y016000D02*
D03*
X058140Y012420D02*
D03*
X059930Y012440D02*
D03*
X061700Y012450D02*
D03*
X063650Y012500D02*
D03*
X063550Y015980D02*
D03*
X061740Y015960D02*
D03*
X064540Y014310D02*
D03*
X057560Y015940D02*
D03*
X059960D02*
D03*
X059120Y036000D02*
D03*
X058720Y037614D02*
D03*
X059930Y038180D02*
D03*
X060150Y039800D02*
D03*
X065330Y040320D02*
D03*
X064790D02*
D03*
X061470Y041990D02*
D03*
X063545Y034400D02*
D03*
X062570D02*
D03*
X080960Y027210D02*
D03*
X063480Y040240D02*
D03*
X060560Y035000D02*
D03*
X062930Y039043D02*
D03*
X062380Y034660D02*
D03*
X062530Y026800D02*
D03*
X063430Y038840D02*
D03*
X063650Y039770D02*
D03*
X075870Y040640D02*
D03*
X060430Y036950D02*
D03*
X057460D02*
D03*
X062930Y037440D02*
D03*
X061430Y037190D02*
D03*
X061390Y034530D02*
D03*
X061663Y039193D02*
D03*
X082700Y031400D02*
D03*
X058290Y025800D02*
D03*
X060650Y041290D02*
D03*
X062220Y039160D02*
D03*
X072300Y040505D02*
D03*
X061663Y040880D02*
D03*
X058010Y022840D02*
D03*
X066250Y031420D02*
D03*
X080950Y024840D02*
D03*
X054385Y020230D02*
D03*
X079270Y024650D02*
D03*
X059714Y026800D02*
D03*
X062255Y042440D02*
D03*
X061370Y040570D02*
D03*
X062610Y039730D02*
D03*
X056000Y031420D02*
D03*
X062130Y021280D02*
D03*
Y034810D02*
D03*
X061950Y038890D02*
D03*
X081180Y023950D02*
D03*
X072850Y023640D02*
D03*
X066580Y030430D02*
D03*
X062840Y038570D02*
D03*
X062610Y038340D02*
D03*
X071580Y040880D02*
D03*
X059938Y038939D02*
D03*
X060040Y036660D02*
D03*
X082280Y023240D02*
D03*
X057070Y037130D02*
D03*
X080170Y027590D02*
D03*
X080100Y026940D02*
D03*
X078090Y024300D02*
D03*
X063230Y042440D02*
D03*
X071864Y041626D02*
D03*
X060210Y039128D02*
D03*
X069900Y020250D02*
D03*
X070650D02*
D03*
Y019050D02*
D03*
X071750Y018100D02*
D03*
X073150Y020284D02*
D03*
X074350Y020300D02*
D03*
X072450Y022250D02*
D03*
X073700D02*
D03*
X071050D02*
D03*
X075950Y018750D02*
D03*
X075250Y020900D02*
D03*
X075050Y022250D02*
D03*
X073700Y018100D02*
D03*
X084000Y034750D02*
D03*
Y034250D02*
D03*
X082600Y035550D02*
D03*
X063320Y041920D02*
D03*
X064787Y037810D02*
D03*
X060390Y041920D02*
D03*
X065040Y044270D02*
D03*
X065080Y043040D02*
D03*
X058814Y042268D02*
D03*
X077486Y035580D02*
D03*
X064984Y036500D02*
D03*
X063920Y034760D02*
D03*
X064850Y035600D02*
D03*
X055533Y017850D02*
D03*
X056850Y019150D02*
D03*
X057850Y018600D02*
D03*
X055900Y018700D02*
D03*
X055850Y016900D02*
D03*
X068744Y022120D02*
D03*
X059950Y033850D02*
D03*
X072050Y045300D02*
D03*
X074900Y041900D02*
D03*
X078250Y040950D02*
D03*
X078700Y023400D02*
D03*
X064900Y039050D02*
D03*
X067200Y038600D02*
D03*
X068380Y039040D02*
D03*
M02*
