G04 Layer_Color=15132400*
%FSAX24Y24*%
%MOIN*%
G70*
G01*
G75*
%ADD29C,0.0100*%
%ADD30C,0.0200*%
%ADD31C,0.0150*%
%ADD44C,0.0080*%
%ADD45C,0.0079*%
%ADD46C,0.0098*%
%ADD47C,0.0157*%
%ADD48C,0.0060*%
%ADD49C,0.0039*%
%ADD50R,0.0080X0.0355*%
%ADD51R,0.0355X0.0080*%
G36*
X068792Y014375D02*
X068697D01*
X068792Y014279D01*
Y014245D01*
X068714Y014325D01*
X068600Y014241D01*
Y014275D01*
X068697Y014343D01*
X068667Y014375D01*
X068600D01*
Y014400D01*
X068792D01*
Y014375D01*
D02*
G37*
G36*
X068900Y042225D02*
X068803Y042157D01*
X068833Y042126D01*
X068900D01*
Y042100D01*
X068708D01*
Y042126D01*
X068803D01*
X068708Y042221D01*
Y042256D01*
X068786Y042175D01*
X068900Y042259D01*
Y042225D01*
D02*
G37*
G36*
X054750Y027858D02*
X054724D01*
Y027953D01*
X054629Y027858D01*
X054594D01*
X054675Y027936D01*
X054591Y028050D01*
X054625D01*
X054693Y027953D01*
X054724Y027984D01*
Y028050D01*
X054750D01*
Y027858D01*
D02*
G37*
G36*
X083025Y027964D02*
X083109Y027850D01*
X083075D01*
X083007Y027947D01*
X082976Y027917D01*
Y027850D01*
X082950D01*
Y028042D01*
X082976D01*
Y027947D01*
X083071Y028042D01*
X083105D01*
X083025Y027964D01*
D02*
G37*
G36*
X084247Y037600D02*
X084047Y037450D01*
Y037750D01*
X084247Y037600D01*
D02*
G37*
G36*
Y038700D02*
X084047Y038550D01*
Y038850D01*
X084247Y038700D01*
D02*
G37*
G36*
X074500Y019197D02*
X074200D01*
X074350Y019397D01*
X074500Y019197D01*
D02*
G37*
G36*
X051400Y033253D02*
X051250Y033453D01*
X051550D01*
X051400Y033253D01*
D02*
G37*
D29*
X070091Y045500D02*
G03*
X070091Y045500I-001457J000000D01*
G01*
X052707Y027884D02*
G03*
X052707Y027884I-001457J000000D01*
G01*
X087707Y027984D02*
G03*
X087707Y027984I-001457J000000D01*
G01*
X070207Y010484D02*
G03*
X070207Y010484I-001457J000000D01*
G01*
X075407Y025216D02*
G03*
X075407Y025216I-001457J000000D01*
G01*
X065407Y029084D02*
G03*
X065407Y029084I-001457J000000D01*
G01*
X070207Y029184D02*
G03*
X070207Y029184I-001457J000000D01*
G01*
X075307D02*
G03*
X075307Y029184I-001457J000000D01*
G01*
X082107Y018884D02*
G03*
X082107Y018884I-001457J000000D01*
G01*
X053669Y035325D02*
X056031D01*
Y038475D01*
X053669D02*
X056031D01*
X053669Y035325D02*
Y038475D01*
X058300Y019050D02*
Y034550D01*
X059800D01*
Y019050D02*
Y034550D01*
X058300Y019050D02*
X059800D01*
Y034550D01*
X061300D01*
Y019050D02*
Y034550D01*
X059800Y019050D02*
X061300D01*
X069517Y022533D02*
X069450Y022600D01*
X069317D01*
X069250Y022533D01*
Y022267D01*
X069317Y022200D01*
X069450D01*
X069517Y022267D01*
X069650Y022200D02*
X069783D01*
X069717D01*
Y022600D01*
X069650Y022533D01*
X071717Y018433D02*
X071650Y018500D01*
X071517D01*
X071450Y018433D01*
Y018167D01*
X071517Y018100D01*
X071650D01*
X071717Y018167D01*
X072116Y018100D02*
X071850D01*
X072116Y018367D01*
Y018433D01*
X072050Y018500D01*
X071917D01*
X071850Y018433D01*
X073117Y022533D02*
X073050Y022600D01*
X072917D01*
X072850Y022533D01*
Y022267D01*
X072917Y022200D01*
X073050D01*
X073117Y022267D01*
X073250Y022533D02*
X073317Y022600D01*
X073450D01*
X073516Y022533D01*
Y022467D01*
X073450Y022400D01*
X073383D01*
X073450D01*
X073516Y022333D01*
Y022267D01*
X073450Y022200D01*
X073317D01*
X073250Y022267D01*
X074317Y022533D02*
X074250Y022600D01*
X074117D01*
X074050Y022533D01*
Y022267D01*
X074117Y022200D01*
X074250D01*
X074317Y022267D01*
X074650Y022200D02*
Y022600D01*
X074450Y022400D01*
X074716D01*
X065117Y044433D02*
X065050Y044500D01*
X064917D01*
X064850Y044433D01*
Y044167D01*
X064917Y044100D01*
X065050D01*
X065117Y044167D01*
X065516Y044500D02*
X065383Y044433D01*
X065250Y044300D01*
Y044167D01*
X065317Y044100D01*
X065450D01*
X065516Y044167D01*
Y044233D01*
X065450Y044300D01*
X065250D01*
X065117Y043233D02*
X065050Y043300D01*
X064917D01*
X064850Y043233D01*
Y042967D01*
X064917Y042900D01*
X065050D01*
X065117Y042967D01*
X065250Y043300D02*
X065516D01*
Y043233D01*
X065250Y042967D01*
Y042900D01*
X060117Y035683D02*
X060050Y035750D01*
X059917D01*
X059850Y035683D01*
Y035417D01*
X059917Y035350D01*
X060050D01*
X060117Y035417D01*
X060250Y035683D02*
X060317Y035750D01*
X060450D01*
X060516Y035683D01*
Y035617D01*
X060450Y035550D01*
X060516Y035483D01*
Y035417D01*
X060450Y035350D01*
X060317D01*
X060250Y035417D01*
Y035483D01*
X060317Y035550D01*
X060250Y035617D01*
Y035683D01*
X060317Y035550D02*
X060450D01*
X065117Y035783D02*
X065050Y035850D01*
X064917D01*
X064850Y035783D01*
Y035517D01*
X064917Y035450D01*
X065050D01*
X065117Y035517D01*
X065250D02*
X065317Y035450D01*
X065450D01*
X065516Y035517D01*
Y035783D01*
X065450Y035850D01*
X065317D01*
X065250Y035783D01*
Y035717D01*
X065317Y035650D01*
X065516D01*
X066217Y038433D02*
X066150Y038500D01*
X066017D01*
X065950Y038433D01*
Y038167D01*
X066017Y038100D01*
X066150D01*
X066217Y038167D01*
X066350Y038100D02*
X066483D01*
X066417D01*
Y038500D01*
X066350Y038433D01*
X066683D02*
X066750Y038500D01*
X066883D01*
X066950Y038433D01*
Y038167D01*
X066883Y038100D01*
X066750D01*
X066683Y038167D01*
Y038433D01*
X058317Y043933D02*
X058250Y044000D01*
X058117D01*
X058050Y043933D01*
Y043667D01*
X058117Y043600D01*
X058250D01*
X058317Y043667D01*
X058450Y043600D02*
X058583D01*
X058517D01*
Y044000D01*
X058450Y043933D01*
X058783Y043600D02*
X058916D01*
X058850D01*
Y044000D01*
X058783Y043933D01*
X058167Y036133D02*
X058100Y036200D01*
X057967D01*
X057900Y036133D01*
Y035867D01*
X057967Y035800D01*
X058100D01*
X058167Y035867D01*
X058300Y035800D02*
X058433D01*
X058367D01*
Y036200D01*
X058300Y036133D01*
X058900Y035800D02*
X058633D01*
X058900Y036067D01*
Y036133D01*
X058833Y036200D01*
X058700D01*
X058633Y036133D01*
X054797Y040613D02*
X054730Y040680D01*
X054597D01*
X054530Y040613D01*
Y040347D01*
X054597Y040280D01*
X054730D01*
X054797Y040347D01*
X054930Y040280D02*
X055063D01*
X054997D01*
Y040680D01*
X054930Y040613D01*
X055263D02*
X055330Y040680D01*
X055463D01*
X055530Y040613D01*
Y040547D01*
X055463Y040480D01*
X055396D01*
X055463D01*
X055530Y040413D01*
Y040347D01*
X055463Y040280D01*
X055330D01*
X055263Y040347D01*
X076637Y034453D02*
X076570Y034520D01*
X076437D01*
X076370Y034453D01*
Y034187D01*
X076437Y034120D01*
X076570D01*
X076637Y034187D01*
X076770Y034120D02*
X076903D01*
X076837D01*
Y034520D01*
X076770Y034453D01*
X077303Y034120D02*
Y034520D01*
X077103Y034320D01*
X077370D01*
X075317Y034433D02*
X075250Y034500D01*
X075117D01*
X075050Y034433D01*
Y034167D01*
X075117Y034100D01*
X075250D01*
X075317Y034167D01*
X075450Y034100D02*
X075583D01*
X075517D01*
Y034500D01*
X075450Y034433D01*
X076050Y034500D02*
X075783D01*
Y034300D01*
X075916Y034367D01*
X075983D01*
X076050Y034300D01*
Y034167D01*
X075983Y034100D01*
X075850D01*
X075783Y034167D01*
X077967Y043733D02*
X077900Y043800D01*
X077767D01*
X077700Y043733D01*
Y043467D01*
X077767Y043400D01*
X077900D01*
X077967Y043467D01*
X078100Y043400D02*
X078233D01*
X078167D01*
Y043800D01*
X078100Y043733D01*
X078700Y043800D02*
X078566Y043733D01*
X078433Y043600D01*
Y043467D01*
X078500Y043400D01*
X078633D01*
X078700Y043467D01*
Y043533D01*
X078633Y043600D01*
X078433D01*
X079367Y043733D02*
X079300Y043800D01*
X079167D01*
X079100Y043733D01*
Y043467D01*
X079167Y043400D01*
X079300D01*
X079367Y043467D01*
X079500Y043400D02*
X079633D01*
X079567D01*
Y043800D01*
X079500Y043733D01*
X079833Y043800D02*
X080100D01*
Y043733D01*
X079833Y043467D01*
Y043400D01*
X077967Y038933D02*
X077900Y039000D01*
X077767D01*
X077700Y038933D01*
Y038667D01*
X077767Y038600D01*
X077900D01*
X077967Y038667D01*
X078100Y038600D02*
X078233D01*
X078167D01*
Y039000D01*
X078100Y038933D01*
X078433D02*
X078500Y039000D01*
X078633D01*
X078700Y038933D01*
Y038867D01*
X078633Y038800D01*
X078700Y038733D01*
Y038667D01*
X078633Y038600D01*
X078500D01*
X078433Y038667D01*
Y038733D01*
X078500Y038800D01*
X078433Y038867D01*
Y038933D01*
X078500Y038800D02*
X078633D01*
X079367Y038933D02*
X079300Y039000D01*
X079167D01*
X079100Y038933D01*
Y038667D01*
X079167Y038600D01*
X079300D01*
X079367Y038667D01*
X079500Y038600D02*
X079633D01*
X079567D01*
Y039000D01*
X079500Y038933D01*
X079833Y038667D02*
X079900Y038600D01*
X080033D01*
X080100Y038667D01*
Y038933D01*
X080033Y039000D01*
X079900D01*
X079833Y038933D01*
Y038867D01*
X079900Y038800D01*
X080100D01*
X072317Y043733D02*
X072250Y043800D01*
X072117D01*
X072050Y043733D01*
Y043467D01*
X072117Y043400D01*
X072250D01*
X072317Y043467D01*
X072716Y043400D02*
X072450D01*
X072716Y043667D01*
Y043733D01*
X072650Y043800D01*
X072517D01*
X072450Y043733D01*
X072850D02*
X072916Y043800D01*
X073050D01*
X073116Y043733D01*
Y043467D01*
X073050Y043400D01*
X072916D01*
X072850Y043467D01*
Y043733D01*
X065067Y012533D02*
X065000Y012600D01*
X064867D01*
X064800Y012533D01*
Y012267D01*
X064867Y012200D01*
X065000D01*
X065067Y012267D01*
X065466Y012200D02*
X065200D01*
X065466Y012467D01*
Y012533D01*
X065400Y012600D01*
X065267D01*
X065200Y012533D01*
X065600Y012200D02*
X065733D01*
X065666D01*
Y012600D01*
X065600Y012533D01*
X058567Y016583D02*
X058500Y016650D01*
X058367D01*
X058300Y016583D01*
Y016317D01*
X058367Y016250D01*
X058500D01*
X058567Y016317D01*
X058966Y016250D02*
X058700D01*
X058966Y016517D01*
Y016583D01*
X058900Y016650D01*
X058767D01*
X058700Y016583D01*
X059366Y016250D02*
X059100D01*
X059366Y016517D01*
Y016583D01*
X059300Y016650D01*
X059166D01*
X059100Y016583D01*
X057267Y016573D02*
X057200Y016640D01*
X057067D01*
X057000Y016573D01*
Y016307D01*
X057067Y016240D01*
X057200D01*
X057267Y016307D01*
X057666Y016240D02*
X057400D01*
X057666Y016507D01*
Y016573D01*
X057600Y016640D01*
X057467D01*
X057400Y016573D01*
X057800D02*
X057866Y016640D01*
X058000D01*
X058066Y016573D01*
Y016507D01*
X058000Y016440D01*
X057933D01*
X058000D01*
X058066Y016373D01*
Y016307D01*
X058000Y016240D01*
X057866D01*
X057800Y016307D01*
X059867Y016583D02*
X059800Y016650D01*
X059667D01*
X059600Y016583D01*
Y016317D01*
X059667Y016250D01*
X059800D01*
X059867Y016317D01*
X060266Y016250D02*
X060000D01*
X060266Y016517D01*
Y016583D01*
X060200Y016650D01*
X060067D01*
X060000Y016583D01*
X060600Y016250D02*
Y016650D01*
X060400Y016450D01*
X060666D01*
X083867Y026433D02*
X083800Y026500D01*
X083667D01*
X083600Y026433D01*
Y026167D01*
X083667Y026100D01*
X083800D01*
X083867Y026167D01*
X084266Y026100D02*
X084000D01*
X084266Y026367D01*
Y026433D01*
X084200Y026500D01*
X084067D01*
X084000Y026433D01*
X084666Y026500D02*
X084400D01*
Y026300D01*
X084533Y026367D01*
X084600D01*
X084666Y026300D01*
Y026167D01*
X084600Y026100D01*
X084466D01*
X084400Y026167D01*
X067850Y022600D02*
Y022200D01*
X068050D01*
X068117Y022267D01*
Y022533D01*
X068050Y022600D01*
X067850D01*
X068250Y022200D02*
X068383D01*
X068317D01*
Y022600D01*
X068250Y022533D01*
X073550Y035900D02*
Y035500D01*
X073750D01*
X073817Y035567D01*
Y035833D01*
X073750Y035900D01*
X073550D01*
X074216Y035500D02*
X073950D01*
X074216Y035767D01*
Y035833D01*
X074150Y035900D01*
X074017D01*
X073950Y035833D01*
X080117Y031800D02*
X079850D01*
Y031600D01*
X079983D01*
X079850D01*
Y031400D01*
X080250D02*
X080383D01*
X080317D01*
Y031800D01*
X080250Y031733D01*
X077917Y034500D02*
X077650D01*
Y034300D01*
X077783D01*
X077650D01*
Y034100D01*
X078050Y034500D02*
Y034100D01*
X078250D01*
X078316Y034167D01*
Y034233D01*
X078250Y034300D01*
X078050D01*
X078250D01*
X078316Y034367D01*
Y034433D01*
X078250Y034500D01*
X078050D01*
X078450Y034100D02*
X078583D01*
X078516D01*
Y034500D01*
X078450Y034433D01*
X061217Y045350D02*
X060950D01*
Y045150D01*
X061083D01*
X060950D01*
Y044950D01*
X061350Y045350D02*
Y044950D01*
X061550D01*
X061616Y045017D01*
Y045083D01*
X061550Y045150D01*
X061350D01*
X061550D01*
X061616Y045217D01*
Y045283D01*
X061550Y045350D01*
X061350D01*
X062016Y044950D02*
X061750D01*
X062016Y045217D01*
Y045283D01*
X061950Y045350D01*
X061816D01*
X061750Y045283D01*
X059017Y018800D02*
X058883D01*
X058950D01*
Y018467D01*
X058883Y018400D01*
X058817D01*
X058750Y018467D01*
X059150Y018400D02*
X059283D01*
X059217D01*
Y018800D01*
X059150Y018733D01*
X060417Y018800D02*
X060283D01*
X060350D01*
Y018467D01*
X060283Y018400D01*
X060217D01*
X060150Y018467D01*
X060816Y018400D02*
X060550D01*
X060816Y018667D01*
Y018733D01*
X060750Y018800D01*
X060617D01*
X060550Y018733D01*
X085117Y034800D02*
X084983D01*
X085050D01*
Y034467D01*
X084983Y034400D01*
X084917D01*
X084850Y034467D01*
X085250Y034733D02*
X085317Y034800D01*
X085450D01*
X085516Y034733D01*
Y034667D01*
X085450Y034600D01*
X085383D01*
X085450D01*
X085516Y034533D01*
Y034467D01*
X085450Y034400D01*
X085317D01*
X085250Y034467D01*
X054767Y039000D02*
X054633D01*
X054700D01*
Y038667D01*
X054633Y038600D01*
X054567D01*
X054500Y038667D01*
X055100Y038600D02*
Y039000D01*
X054900Y038800D01*
X055166D01*
X074850Y018850D02*
Y018450D01*
X075117D01*
X075516Y018850D02*
X075250D01*
Y018450D01*
X075516D01*
X075250Y018650D02*
X075383D01*
X075650Y018850D02*
Y018450D01*
X075850D01*
X075916Y018517D01*
Y018783D01*
X075850Y018850D01*
X075650D01*
X076050Y018450D02*
X076183D01*
X076116D01*
Y018850D01*
X076050Y018783D01*
X083350Y037100D02*
Y036700D01*
X083617D01*
X084016Y037100D02*
X083750D01*
Y036700D01*
X084016D01*
X083750Y036900D02*
X083883D01*
X084150Y037100D02*
Y036700D01*
X084350D01*
X084416Y036767D01*
Y037033D01*
X084350Y037100D01*
X084150D01*
X084816Y036700D02*
X084550D01*
X084816Y036967D01*
Y037033D01*
X084750Y037100D01*
X084616D01*
X084550Y037033D01*
X083450Y039600D02*
Y039200D01*
X083717D01*
X084116Y039600D02*
X083850D01*
Y039200D01*
X084116D01*
X083850Y039400D02*
X083983D01*
X084250Y039600D02*
Y039200D01*
X084450D01*
X084516Y039267D01*
Y039533D01*
X084450Y039600D01*
X084250D01*
X084650Y039533D02*
X084716Y039600D01*
X084850D01*
X084916Y039533D01*
Y039467D01*
X084850Y039400D01*
X084783D01*
X084850D01*
X084916Y039333D01*
Y039267D01*
X084850Y039200D01*
X084716D01*
X084650Y039267D01*
X080250Y030100D02*
Y029700D01*
X080517D01*
X080916Y030100D02*
X080650D01*
Y029700D01*
X080916D01*
X080650Y029900D02*
X080783D01*
X081050Y030100D02*
Y029700D01*
X081250D01*
X081316Y029767D01*
Y030033D01*
X081250Y030100D01*
X081050D01*
X081450Y029633D02*
X081716D01*
X081849Y030100D02*
Y029700D01*
X082049D01*
X082116Y029767D01*
Y029833D01*
X082049Y029900D01*
X081849D01*
X082049D01*
X082116Y029967D01*
Y030033D01*
X082049Y030100D01*
X081849D01*
X082249D02*
Y029700D01*
X082516D01*
X082649Y030100D02*
Y029767D01*
X082716Y029700D01*
X082849D01*
X082916Y029767D01*
Y030100D01*
X083316D02*
X083049D01*
Y029700D01*
X083316D01*
X083049Y029900D02*
X083182D01*
X054450Y030000D02*
Y029600D01*
X054717D01*
X055116Y030000D02*
X054850D01*
Y029600D01*
X055116D01*
X054850Y029800D02*
X054983D01*
X055250Y030000D02*
Y029600D01*
X055450D01*
X055516Y029667D01*
Y029933D01*
X055450Y030000D01*
X055250D01*
X055650Y029533D02*
X055916D01*
X056316Y029933D02*
X056249Y030000D01*
X056116D01*
X056049Y029933D01*
Y029667D01*
X056116Y029600D01*
X056249D01*
X056316Y029667D01*
Y029800D01*
X056183D01*
X056449Y029600D02*
Y030000D01*
X056649D01*
X056716Y029933D01*
Y029800D01*
X056649Y029733D01*
X056449D01*
X056583D02*
X056716Y029600D01*
X057116Y030000D02*
X056849D01*
Y029600D01*
X057116D01*
X056849Y029800D02*
X056983D01*
X057516Y030000D02*
X057249D01*
Y029600D01*
X057516D01*
X057249Y029800D02*
X057382D01*
X057649Y029600D02*
Y030000D01*
X057916Y029600D01*
Y030000D01*
X067350Y043000D02*
Y042600D01*
X067617D01*
X068016Y043000D02*
X067750D01*
Y042600D01*
X068016D01*
X067750Y042800D02*
X067883D01*
X068150Y043000D02*
Y042600D01*
X068350D01*
X068416Y042667D01*
Y042933D01*
X068350Y043000D01*
X068150D01*
X068550Y042533D02*
X068816D01*
X068949Y042600D02*
Y043000D01*
X069149D01*
X069216Y042933D01*
Y042800D01*
X069149Y042733D01*
X068949D01*
X069083D02*
X069216Y042600D01*
X069616Y043000D02*
X069349D01*
Y042600D01*
X069616D01*
X069349Y042800D02*
X069483D01*
X069749Y043000D02*
Y042600D01*
X069949D01*
X070016Y042667D01*
Y042933D01*
X069949Y043000D01*
X069749D01*
X067300Y014000D02*
Y013600D01*
X067567D01*
X067966Y014000D02*
X067700D01*
Y013600D01*
X067966D01*
X067700Y013800D02*
X067833D01*
X068100Y014000D02*
Y013600D01*
X068300D01*
X068366Y013667D01*
Y013933D01*
X068300Y014000D01*
X068100D01*
X068500Y013533D02*
X068766D01*
X068899Y014000D02*
Y013933D01*
X069033Y013800D01*
X069166Y013933D01*
Y014000D01*
X069033Y013800D02*
Y013600D01*
X069566Y014000D02*
X069299D01*
Y013600D01*
X069566D01*
X069299Y013800D02*
X069433D01*
X069699Y014000D02*
Y013600D01*
X069966D01*
X070099Y014000D02*
Y013600D01*
X070366D01*
X070699Y014000D02*
X070566D01*
X070499Y013933D01*
Y013667D01*
X070566Y013600D01*
X070699D01*
X070766Y013667D01*
Y013933D01*
X070699Y014000D01*
X070899D02*
Y013600D01*
X071032Y013733D01*
X071165Y013600D01*
Y014000D01*
X072950Y018100D02*
Y018500D01*
X073150D01*
X073217Y018433D01*
Y018300D01*
X073150Y018233D01*
X072950D01*
X073083D02*
X073217Y018100D01*
X073350D02*
X073483D01*
X073417D01*
Y018500D01*
X073350Y018433D01*
X060450Y042900D02*
Y043300D01*
X060650D01*
X060717Y043233D01*
Y043100D01*
X060650Y043033D01*
X060450D01*
X060583D02*
X060717Y042900D01*
X061116D02*
X060850D01*
X061116Y043167D01*
Y043233D01*
X061050Y043300D01*
X060917D01*
X060850Y043233D01*
X073150Y039050D02*
Y039450D01*
X073350D01*
X073417Y039383D01*
Y039250D01*
X073350Y039183D01*
X073150D01*
X073283D02*
X073417Y039050D01*
X073550Y039383D02*
X073617Y039450D01*
X073750D01*
X073816Y039383D01*
Y039317D01*
X073750Y039250D01*
X073683D01*
X073750D01*
X073816Y039183D01*
Y039117D01*
X073750Y039050D01*
X073617D01*
X073550Y039117D01*
X070750Y039050D02*
Y039450D01*
X070950D01*
X071017Y039383D01*
Y039250D01*
X070950Y039183D01*
X070750D01*
X070883D02*
X071017Y039050D01*
X071350D02*
Y039450D01*
X071150Y039250D01*
X071416D01*
X080550Y035100D02*
Y035500D01*
X080750D01*
X080817Y035433D01*
Y035300D01*
X080750Y035233D01*
X080550D01*
X080683D02*
X080817Y035100D01*
X081216Y035500D02*
X080950D01*
Y035300D01*
X081083Y035367D01*
X081150D01*
X081216Y035300D01*
Y035167D01*
X081150Y035100D01*
X081017D01*
X080950Y035167D01*
X080550Y036500D02*
Y036900D01*
X080750D01*
X080817Y036833D01*
Y036700D01*
X080750Y036633D01*
X080550D01*
X080683D02*
X080817Y036500D01*
X081216Y036900D02*
X081083Y036833D01*
X080950Y036700D01*
Y036567D01*
X081017Y036500D01*
X081150D01*
X081216Y036567D01*
Y036633D01*
X081150Y036700D01*
X080950D01*
X082250Y036700D02*
Y037100D01*
X082450D01*
X082517Y037033D01*
Y036900D01*
X082450Y036833D01*
X082250D01*
X082383D02*
X082517Y036700D01*
X082650Y037100D02*
X082916D01*
Y037033D01*
X082650Y036767D01*
Y036700D01*
X082250Y039200D02*
Y039600D01*
X082450D01*
X082517Y039533D01*
Y039400D01*
X082450Y039333D01*
X082250D01*
X082383D02*
X082517Y039200D01*
X082650Y039533D02*
X082717Y039600D01*
X082850D01*
X082916Y039533D01*
Y039467D01*
X082850Y039400D01*
X082916Y039333D01*
Y039267D01*
X082850Y039200D01*
X082717D01*
X082650Y039267D01*
Y039333D01*
X082717Y039400D01*
X082650Y039467D01*
Y039533D01*
X082717Y039400D02*
X082850D01*
X056900Y012050D02*
Y012450D01*
X057100D01*
X057167Y012383D01*
Y012250D01*
X057100Y012183D01*
X056900D01*
X057033D02*
X057167Y012050D01*
X057300D02*
X057433D01*
X057367D01*
Y012450D01*
X057300Y012383D01*
X057633Y012050D02*
X057766D01*
X057700D01*
Y012450D01*
X057633Y012383D01*
X066010Y046340D02*
Y046740D01*
X066210D01*
X066277Y046673D01*
Y046540D01*
X066210Y046473D01*
X066010D01*
X066143D02*
X066277Y046340D01*
X066410D02*
X066543D01*
X066477D01*
Y046740D01*
X066410Y046673D01*
X067010Y046740D02*
X066743D01*
Y046540D01*
X066876Y046607D01*
X066943D01*
X067010Y046540D01*
Y046407D01*
X066943Y046340D01*
X066810D01*
X066743Y046407D01*
X050750Y024500D02*
Y024900D01*
X050950D01*
X051017Y024833D01*
Y024700D01*
X050950Y024633D01*
X050750D01*
X050883D02*
X051017Y024500D01*
X051150D02*
X051283D01*
X051217D01*
Y024900D01*
X051150Y024833D01*
X051750Y024900D02*
X051616Y024833D01*
X051483Y024700D01*
Y024567D01*
X051550Y024500D01*
X051683D01*
X051750Y024567D01*
Y024633D01*
X051683Y024700D01*
X051483D01*
X065750Y010000D02*
X065350D01*
Y010200D01*
X065417Y010267D01*
X065550D01*
X065617Y010200D01*
Y010000D01*
Y010133D02*
X065750Y010267D01*
Y010400D02*
Y010533D01*
Y010467D01*
X065350D01*
X065417Y010400D01*
X065350Y010733D02*
Y011000D01*
X065417D01*
X065683Y010733D01*
X065750D01*
X085750Y024500D02*
Y024900D01*
X085950D01*
X086017Y024833D01*
Y024700D01*
X085950Y024633D01*
X085750D01*
X085883D02*
X086017Y024500D01*
X086150D02*
X086283D01*
X086217D01*
Y024900D01*
X086150Y024833D01*
X086483D02*
X086550Y024900D01*
X086683D01*
X086750Y024833D01*
Y024767D01*
X086683Y024700D01*
X086750Y024633D01*
Y024567D01*
X086683Y024500D01*
X086550D01*
X086483Y024567D01*
Y024633D01*
X086550Y024700D01*
X086483Y024767D01*
Y024833D01*
X086550Y024700D02*
X086683D01*
X070050Y027900D02*
Y028300D01*
X070250D01*
X070317Y028233D01*
Y028100D01*
X070250Y028033D01*
X070050D01*
X070183D02*
X070317Y027900D01*
X070450D02*
X070583D01*
X070517D01*
Y028300D01*
X070450Y028233D01*
X070783Y027967D02*
X070850Y027900D01*
X070983D01*
X071050Y027967D01*
Y028233D01*
X070983Y028300D01*
X070850D01*
X070783Y028233D01*
Y028167D01*
X070850Y028100D01*
X071050D01*
X065850Y027900D02*
Y028300D01*
X066050D01*
X066117Y028233D01*
Y028100D01*
X066050Y028033D01*
X065850D01*
X065983D02*
X066117Y027900D01*
X066516D02*
X066250D01*
X066516Y028167D01*
Y028233D01*
X066450Y028300D01*
X066317D01*
X066250Y028233D01*
X066650D02*
X066716Y028300D01*
X066850D01*
X066916Y028233D01*
Y027967D01*
X066850Y027900D01*
X066716D01*
X066650Y027967D01*
Y028233D01*
X077400Y029000D02*
Y029400D01*
X077600D01*
X077667Y029333D01*
Y029200D01*
X077600Y029133D01*
X077400D01*
X077533D02*
X077667Y029000D01*
X078066D02*
X077800D01*
X078066Y029267D01*
Y029333D01*
X078000Y029400D01*
X077867D01*
X077800Y029333D01*
X078200Y029000D02*
X078333D01*
X078266D01*
Y029400D01*
X078200Y029333D01*
X082700Y017650D02*
Y018050D01*
X082900D01*
X082967Y017983D01*
Y017850D01*
X082900Y017783D01*
X082700D01*
X082833D02*
X082967Y017650D01*
X083366D02*
X083100D01*
X083366Y017917D01*
Y017983D01*
X083300Y018050D01*
X083167D01*
X083100Y017983D01*
X083766Y017650D02*
X083500D01*
X083766Y017917D01*
Y017983D01*
X083700Y018050D01*
X083566D01*
X083500Y017983D01*
X069950Y034600D02*
Y035000D01*
X070150D01*
X070217Y034933D01*
Y034800D01*
X070150Y034733D01*
X069950D01*
X070083D02*
X070217Y034600D01*
X070616D02*
X070350D01*
X070616Y034867D01*
Y034933D01*
X070550Y035000D01*
X070417D01*
X070350Y034933D01*
X070750D02*
X070816Y035000D01*
X070950D01*
X071016Y034933D01*
Y034867D01*
X070950Y034800D01*
X070883D01*
X070950D01*
X071016Y034733D01*
Y034667D01*
X070950Y034600D01*
X070816D01*
X070750Y034667D01*
X069250Y038400D02*
Y038800D01*
X069450D01*
X069517Y038733D01*
Y038600D01*
X069450Y038533D01*
X069250D01*
X069383D02*
X069517Y038400D01*
X069916D02*
X069650D01*
X069916Y038667D01*
Y038733D01*
X069850Y038800D01*
X069717D01*
X069650Y038733D01*
X070316Y038800D02*
X070050D01*
Y038600D01*
X070183Y038667D01*
X070250D01*
X070316Y038600D01*
Y038467D01*
X070250Y038400D01*
X070116D01*
X070050Y038467D01*
X055800Y025000D02*
Y025400D01*
X056000D01*
X056067Y025333D01*
Y025200D01*
X056000Y025133D01*
X055800D01*
X055933D02*
X056067Y025000D01*
X056466D02*
X056200D01*
X056466Y025267D01*
Y025333D01*
X056400Y025400D01*
X056267D01*
X056200Y025333D01*
X056866Y025400D02*
X056733Y025333D01*
X056600Y025200D01*
Y025067D01*
X056666Y025000D01*
X056800D01*
X056866Y025067D01*
Y025133D01*
X056800Y025200D01*
X056600D01*
X067200Y017600D02*
Y018000D01*
X067400D01*
X067467Y017933D01*
Y017800D01*
X067400Y017733D01*
X067200D01*
X067333D02*
X067467Y017600D01*
X067866D02*
X067600D01*
X067866Y017867D01*
Y017933D01*
X067800Y018000D01*
X067667D01*
X067600Y017933D01*
X068000Y018000D02*
X068266D01*
Y017933D01*
X068000Y017667D01*
Y017600D01*
X079150Y028500D02*
Y028900D01*
X079350D01*
X079417Y028833D01*
Y028700D01*
X079350Y028633D01*
X079150D01*
X079283D02*
X079417Y028500D01*
X079816D02*
X079550D01*
X079816Y028767D01*
Y028833D01*
X079750Y028900D01*
X079617D01*
X079550Y028833D01*
X079950D02*
X080016Y028900D01*
X080150D01*
X080216Y028833D01*
Y028767D01*
X080150Y028700D01*
X080216Y028633D01*
Y028567D01*
X080150Y028500D01*
X080016D01*
X079950Y028567D01*
Y028633D01*
X080016Y028700D01*
X079950Y028767D01*
Y028833D01*
X080016Y028700D02*
X080150D01*
X062350Y011000D02*
Y011400D01*
X062550D01*
X062617Y011333D01*
Y011200D01*
X062550Y011133D01*
X062350D01*
X062483D02*
X062617Y011000D01*
X062817D02*
Y011333D01*
Y011200D01*
X062750D01*
X062883D01*
X062817D01*
Y011333D01*
X062883Y011400D01*
X058550Y012050D02*
Y012450D01*
X058750D01*
X058817Y012383D01*
Y012250D01*
X058750Y012183D01*
X058550D01*
X058683D02*
X058817Y012050D01*
X058950D02*
X059083D01*
X059017D01*
Y012317D01*
X058950D01*
X059283Y012050D02*
Y012317D01*
X059483D01*
X059550Y012250D01*
Y012050D01*
X073067Y026083D02*
X073000Y026150D01*
X072867D01*
X072800Y026083D01*
Y026017D01*
X072867Y025950D01*
X073000D01*
X073067Y025883D01*
Y025817D01*
X073000Y025750D01*
X072867D01*
X072800Y025817D01*
X073200Y026150D02*
Y025750D01*
X073333Y025883D01*
X073466Y025750D01*
Y026150D01*
X073600Y025683D02*
X073866D01*
X074000Y025750D02*
Y026150D01*
X074200D01*
X074266Y026083D01*
Y025950D01*
X074200Y025883D01*
X074000D01*
X074133D02*
X074266Y025750D01*
X074666Y026150D02*
X074399D01*
Y025750D01*
X074666D01*
X074399Y025950D02*
X074533D01*
X075066Y026083D02*
X074999Y026150D01*
X074866D01*
X074799Y026083D01*
Y026017D01*
X074866Y025950D01*
X074999D01*
X075066Y025883D01*
Y025817D01*
X074999Y025750D01*
X074866D01*
X074799Y025817D01*
X068167Y026083D02*
X068100Y026150D01*
X067967D01*
X067900Y026083D01*
Y026017D01*
X067967Y025950D01*
X068100D01*
X068167Y025883D01*
Y025817D01*
X068100Y025750D01*
X067967D01*
X067900Y025817D01*
X068300Y026150D02*
Y025750D01*
X068433Y025883D01*
X068566Y025750D01*
Y026150D01*
X068700Y025683D02*
X068966D01*
X069300Y026150D02*
X069166D01*
X069100Y026083D01*
Y025817D01*
X069166Y025750D01*
X069300D01*
X069366Y025817D01*
Y026083D01*
X069300Y026150D01*
X069499Y025750D02*
Y026150D01*
X069766Y025750D01*
Y026150D01*
X067817Y034233D02*
X067750Y034300D01*
X067617D01*
X067550Y034233D01*
Y034167D01*
X067617Y034100D01*
X067750D01*
X067817Y034033D01*
Y033967D01*
X067750Y033900D01*
X067617D01*
X067550Y033967D01*
X067950Y034300D02*
Y033900D01*
X068083Y034033D01*
X068216Y033900D01*
Y034300D01*
X068350Y033833D02*
X068616D01*
X068750Y033900D02*
Y034300D01*
X068883Y034167D01*
X069016Y034300D01*
Y033900D01*
X069349Y034300D02*
X069216D01*
X069149Y034233D01*
Y033967D01*
X069216Y033900D01*
X069349D01*
X069416Y033967D01*
Y034233D01*
X069349Y034300D01*
X069549D02*
Y033900D01*
X069749D01*
X069816Y033967D01*
Y034233D01*
X069749Y034300D01*
X069549D01*
X070216D02*
X069949D01*
Y033900D01*
X070216D01*
X069949Y034100D02*
X070083D01*
X079867Y019883D02*
X079800Y019950D01*
X079667D01*
X079600Y019883D01*
Y019817D01*
X079667Y019750D01*
X079800D01*
X079867Y019683D01*
Y019617D01*
X079800Y019550D01*
X079667D01*
X079600Y019617D01*
X080000Y019950D02*
Y019550D01*
X080133Y019683D01*
X080266Y019550D01*
Y019950D01*
X080400Y019483D02*
X080666D01*
X080800Y019550D02*
Y019817D01*
X080933Y019950D01*
X081066Y019817D01*
Y019550D01*
Y019750D01*
X080800D01*
X081199Y019950D02*
Y019617D01*
X081266Y019550D01*
X081399D01*
X081466Y019617D01*
Y019950D01*
X081599D02*
X081866Y019550D01*
Y019950D02*
X081599Y019550D01*
X085107Y030193D02*
X085040Y030260D01*
X084907D01*
X084840Y030193D01*
Y030127D01*
X084907Y030060D01*
X085040D01*
X085107Y029993D01*
Y029927D01*
X085040Y029860D01*
X084907D01*
X084840Y029927D01*
X085240Y030260D02*
Y029860D01*
X085373Y029993D01*
X085506Y029860D01*
Y030260D01*
X085640Y029793D02*
X085906D01*
X086040Y030260D02*
Y029860D01*
X086240D01*
X086306Y029927D01*
Y029993D01*
X086240Y030060D01*
X086040D01*
X086240D01*
X086306Y030127D01*
Y030193D01*
X086240Y030260D01*
X086040D01*
X086439D02*
Y029860D01*
X086706D01*
X086839Y030260D02*
Y029927D01*
X086906Y029860D01*
X087039D01*
X087106Y029927D01*
Y030260D01*
X087506D02*
X087239D01*
Y029860D01*
X087506D01*
X087239Y030060D02*
X087373D01*
X050107Y030093D02*
X050040Y030160D01*
X049907D01*
X049840Y030093D01*
Y030027D01*
X049907Y029960D01*
X050040D01*
X050107Y029893D01*
Y029827D01*
X050040Y029760D01*
X049907D01*
X049840Y029827D01*
X050240Y030160D02*
Y029760D01*
X050373Y029893D01*
X050506Y029760D01*
Y030160D01*
X050640Y029693D02*
X050906D01*
X051306Y030093D02*
X051240Y030160D01*
X051106D01*
X051040Y030093D01*
Y029827D01*
X051106Y029760D01*
X051240D01*
X051306Y029827D01*
Y029960D01*
X051173D01*
X051439Y029760D02*
Y030160D01*
X051639D01*
X051706Y030093D01*
Y029960D01*
X051639Y029893D01*
X051439D01*
X051573D02*
X051706Y029760D01*
X052106Y030160D02*
X051839D01*
Y029760D01*
X052106D01*
X051839Y029960D02*
X051973D01*
X052506Y030160D02*
X052239D01*
Y029760D01*
X052506D01*
X052239Y029960D02*
X052373D01*
X052639Y029760D02*
Y030160D01*
X052906Y029760D01*
Y030160D01*
X062917Y030083D02*
X062850Y030150D01*
X062717D01*
X062650Y030083D01*
Y030017D01*
X062717Y029950D01*
X062850D01*
X062917Y029883D01*
Y029817D01*
X062850Y029750D01*
X062717D01*
X062650Y029817D01*
X063050Y030150D02*
Y029750D01*
X063183Y029883D01*
X063316Y029750D01*
Y030150D01*
X063450Y029683D02*
X063716D01*
X063850Y030150D02*
Y029750D01*
X064116D01*
X064249D02*
Y030017D01*
X064383Y030150D01*
X064516Y030017D01*
Y029750D01*
Y029950D01*
X064249D01*
X064916Y030083D02*
X064849Y030150D01*
X064716D01*
X064649Y030083D01*
Y030017D01*
X064716Y029950D01*
X064849D01*
X064916Y029883D01*
Y029817D01*
X064849Y029750D01*
X064716D01*
X064649Y029817D01*
X065049Y030150D02*
X065316D01*
X065183D01*
Y029750D01*
X072317Y030133D02*
X072250Y030200D01*
X072117D01*
X072050Y030133D01*
Y030067D01*
X072117Y030000D01*
X072250D01*
X072317Y029933D01*
Y029867D01*
X072250Y029800D01*
X072117D01*
X072050Y029867D01*
X072450Y030200D02*
Y029800D01*
X072583Y029933D01*
X072716Y029800D01*
Y030200D01*
X072850Y029733D02*
X073116D01*
X073250Y030200D02*
Y029800D01*
X073516D01*
X073849Y030200D02*
X073716D01*
X073649Y030133D01*
Y029867D01*
X073716Y029800D01*
X073849D01*
X073916Y029867D01*
Y030133D01*
X073849Y030200D01*
X074049Y029800D02*
Y030200D01*
X074316Y029800D01*
Y030200D01*
X074716Y030133D02*
X074649Y030200D01*
X074516D01*
X074449Y030133D01*
Y029867D01*
X074516Y029800D01*
X074649D01*
X074716Y029867D01*
Y030000D01*
X074583D01*
X075116Y030200D02*
X074849D01*
Y029800D01*
X075116D01*
X074849Y030000D02*
X074982D01*
X075516Y030133D02*
X075449Y030200D01*
X075316D01*
X075249Y030133D01*
Y030067D01*
X075316Y030000D01*
X075449D01*
X075516Y029933D01*
Y029867D01*
X075449Y029800D01*
X075316D01*
X075249Y029867D01*
X075649Y030200D02*
X075915D01*
X075782D01*
Y029800D01*
X067817Y047633D02*
X067750Y047700D01*
X067617D01*
X067550Y047633D01*
Y047567D01*
X067617Y047500D01*
X067750D01*
X067817Y047433D01*
Y047367D01*
X067750Y047300D01*
X067617D01*
X067550Y047367D01*
X067950Y047700D02*
Y047300D01*
X068083Y047433D01*
X068216Y047300D01*
Y047700D01*
X068350Y047233D02*
X068616D01*
X068750Y047300D02*
Y047700D01*
X068950D01*
X069016Y047633D01*
Y047500D01*
X068950Y047433D01*
X068750D01*
X068883D02*
X069016Y047300D01*
X069416Y047700D02*
X069149D01*
Y047300D01*
X069416D01*
X069149Y047500D02*
X069283D01*
X069549Y047700D02*
Y047300D01*
X069749D01*
X069816Y047367D01*
Y047633D01*
X069749Y047700D01*
X069549D01*
X067667Y030083D02*
X067600Y030150D01*
X067467D01*
X067400Y030083D01*
Y030017D01*
X067467Y029950D01*
X067600D01*
X067667Y029883D01*
Y029817D01*
X067600Y029750D01*
X067467D01*
X067400Y029817D01*
X067800Y030150D02*
Y029750D01*
X067933Y029883D01*
X068066Y029750D01*
Y030150D01*
X068200Y029683D02*
X068466D01*
X068866Y030083D02*
X068800Y030150D01*
X068666D01*
X068600Y030083D01*
Y030017D01*
X068666Y029950D01*
X068800D01*
X068866Y029883D01*
Y029817D01*
X068800Y029750D01*
X068666D01*
X068600Y029817D01*
X068999Y030150D02*
X069266D01*
X069133D01*
Y029750D01*
X069399D02*
Y030017D01*
X069533Y030150D01*
X069666Y030017D01*
Y029750D01*
Y029950D01*
X069399D01*
X069799Y029750D02*
Y030150D01*
X069999D01*
X070066Y030083D01*
Y029950D01*
X069999Y029883D01*
X069799D01*
X069933D02*
X070066Y029750D01*
X070199Y030150D02*
X070466D01*
X070332D01*
Y029750D01*
X067667Y012733D02*
X067600Y012800D01*
X067467D01*
X067400Y012733D01*
Y012667D01*
X067467Y012600D01*
X067600D01*
X067667Y012533D01*
Y012467D01*
X067600Y012400D01*
X067467D01*
X067400Y012467D01*
X067800Y012800D02*
Y012400D01*
X067933Y012533D01*
X068066Y012400D01*
Y012800D01*
X068200Y012333D02*
X068466D01*
X068600Y012800D02*
Y012733D01*
X068733Y012600D01*
X068866Y012733D01*
Y012800D01*
X068733Y012600D02*
Y012400D01*
X069266Y012800D02*
X068999D01*
Y012400D01*
X069266D01*
X068999Y012600D02*
X069133D01*
X069399Y012800D02*
Y012400D01*
X069666D01*
X069799Y012800D02*
Y012400D01*
X070066D01*
X070399Y012800D02*
X070266D01*
X070199Y012733D01*
Y012467D01*
X070266Y012400D01*
X070399D01*
X070466Y012467D01*
Y012733D01*
X070399Y012800D01*
X070599D02*
Y012400D01*
X070732Y012533D01*
X070866Y012400D01*
Y012800D01*
X075050Y022750D02*
X075317D01*
X075183D01*
Y022350D01*
X075450D02*
Y022750D01*
X075650D01*
X075716Y022683D01*
Y022550D01*
X075650Y022483D01*
X075450D01*
X075850Y022283D02*
X076116D01*
X076516Y022750D02*
X076250D01*
Y022550D01*
X076383Y022617D01*
X076450D01*
X076516Y022550D01*
Y022417D01*
X076450Y022350D01*
X076316D01*
X076250Y022417D01*
X076649Y022750D02*
Y022483D01*
X076783Y022350D01*
X076916Y022483D01*
Y022750D01*
X074850Y020950D02*
X075117D01*
X074983D01*
Y020550D01*
X075250D02*
Y020950D01*
X075450D01*
X075516Y020883D01*
Y020750D01*
X075450Y020683D01*
X075250D01*
X075650Y020483D02*
X075916D01*
X076316Y020883D02*
X076250Y020950D01*
X076116D01*
X076050Y020883D01*
Y020617D01*
X076116Y020550D01*
X076250D01*
X076316Y020617D01*
Y020750D01*
X076183D01*
X076449Y020550D02*
Y020950D01*
X076716Y020550D01*
Y020950D01*
X076849D02*
Y020550D01*
X077049D01*
X077116Y020617D01*
Y020883D01*
X077049Y020950D01*
X076849D01*
X062250Y040700D02*
Y040367D01*
X062317Y040300D01*
X062450D01*
X062517Y040367D01*
Y040700D01*
X062650Y040300D02*
X062783D01*
X062717D01*
Y040700D01*
X062650Y040633D01*
X070150Y020450D02*
Y020117D01*
X070217Y020050D01*
X070350D01*
X070417Y020117D01*
Y020450D01*
X070816Y020050D02*
X070550D01*
X070816Y020317D01*
Y020383D01*
X070750Y020450D01*
X070617D01*
X070550Y020383D01*
X075050Y041700D02*
Y041367D01*
X075117Y041300D01*
X075250D01*
X075317Y041367D01*
Y041700D01*
X075450Y041633D02*
X075517Y041700D01*
X075650D01*
X075716Y041633D01*
Y041567D01*
X075650Y041500D01*
X075583D01*
X075650D01*
X075716Y041433D01*
Y041367D01*
X075650Y041300D01*
X075517D01*
X075450Y041367D01*
X062350Y015600D02*
Y015267D01*
X062417Y015200D01*
X062550D01*
X062617Y015267D01*
Y015600D01*
X062950Y015200D02*
Y015600D01*
X062750Y015400D01*
X063016D01*
X080400Y021600D02*
Y021267D01*
X080467Y021200D01*
X080600D01*
X080667Y021267D01*
Y021600D01*
X081066D02*
X080800D01*
Y021400D01*
X080933Y021467D01*
X081000D01*
X081066Y021400D01*
Y021267D01*
X081000Y021200D01*
X080867D01*
X080800Y021267D01*
X056750Y039000D02*
X057150Y039267D01*
X056750D02*
X057150Y039000D01*
X056750Y039400D02*
Y039666D01*
Y039533D01*
X057150D01*
Y039800D02*
X056883D01*
X056750Y039933D01*
X056883Y040066D01*
X057150D01*
X056950D01*
Y039800D01*
X056750Y040200D02*
X057150D01*
Y040466D01*
Y040599D02*
Y040733D01*
Y040666D01*
X056750D01*
X056817Y040599D01*
X050450Y032600D02*
X050850D01*
Y032867D01*
X050450Y033266D02*
Y033000D01*
X050850D01*
Y033266D01*
X050650Y033000D02*
Y033133D01*
X050450Y033400D02*
X050850D01*
Y033600D01*
X050783Y033666D01*
X050517D01*
X050450Y033600D01*
Y033400D01*
X050850Y034000D02*
X050450D01*
X050650Y033800D01*
Y034066D01*
X050850Y034350D02*
X050450D01*
Y034550D01*
X050517Y034617D01*
X050650D01*
X050717Y034550D01*
Y034350D01*
Y034483D02*
X050850Y034617D01*
X050517Y034750D02*
X050450Y034817D01*
Y034950D01*
X050517Y035016D01*
X050583D01*
X050650Y034950D01*
Y034883D01*
Y034950D01*
X050717Y035016D01*
X050783D01*
X050850Y034950D01*
Y034817D01*
X050783Y034750D01*
X050517Y035150D02*
X050450Y035216D01*
Y035350D01*
X050517Y035416D01*
X050783D01*
X050850Y035350D01*
Y035216D01*
X050783Y035150D01*
X050517D01*
X072050Y023050D02*
Y023550D01*
X072217Y023383D01*
X072383Y023550D01*
Y023050D01*
X072550D02*
Y023550D01*
X072800D01*
X072883Y023467D01*
Y023300D01*
X072800Y023217D01*
X072550D01*
X073050Y023550D02*
Y023133D01*
X073133Y023050D01*
X073300D01*
X073383Y023133D01*
Y023550D01*
X074049Y023050D02*
Y023550D01*
X074299D01*
X074383Y023467D01*
Y023300D01*
X074299Y023217D01*
X074049D01*
X074216D02*
X074383Y023050D01*
X074799D02*
X074633D01*
X074549Y023133D01*
Y023300D01*
X074633Y023383D01*
X074799D01*
X074882Y023300D01*
Y023217D01*
X074549D01*
X075049Y023050D02*
X075299D01*
X075382Y023133D01*
X075299Y023217D01*
X075132D01*
X075049Y023300D01*
X075132Y023383D01*
X075382D01*
X075799Y023050D02*
X075632D01*
X075549Y023133D01*
Y023300D01*
X075632Y023383D01*
X075799D01*
X075882Y023300D01*
Y023217D01*
X075549D01*
X076132Y023467D02*
Y023383D01*
X076049D01*
X076215D01*
X076132D01*
Y023133D01*
X076215Y023050D01*
X052633Y017820D02*
X052652Y017936D01*
X052556Y018072D01*
X052439Y018091D01*
X052168Y017898D01*
X052148Y017782D01*
X052245Y017646D01*
X052361Y017627D01*
X052497Y017723D01*
X052400Y017859D01*
X052710Y017568D02*
X052806Y017432D01*
X052786Y017316D01*
X052583Y017171D01*
X052438Y017375D01*
X052458Y017491D01*
X052574Y017471D01*
X052719Y017268D01*
X052679Y017035D02*
X052951Y017228D01*
X052999Y017161D01*
X052980Y017044D01*
X052776Y016900D01*
X052980Y017044D01*
X053096Y017025D01*
X053076Y016909D01*
X052872Y016764D01*
X053114Y016424D02*
X053017Y016560D01*
X053037Y016676D01*
X053173Y016773D01*
X053289Y016753D01*
X053385Y016617D01*
X053366Y016501D01*
X053298Y016453D01*
X053105Y016725D01*
X050750Y020350D02*
X051188Y020590D01*
X051122Y020364D01*
X051348Y020298D01*
X050910Y020058D01*
X051322Y019998D02*
X051402Y019852D01*
X051369Y019739D01*
X051150Y019619D01*
X051030Y019838D01*
X051063Y019952D01*
X051176Y019918D01*
X051296Y019699D01*
X051635Y019600D02*
X051562Y019560D01*
X051522Y019633D01*
X051602Y019487D01*
X051562Y019560D01*
X051343Y019440D01*
X051310Y019327D01*
X051882Y018975D02*
X051762Y019195D01*
X051649Y019228D01*
X051503Y019148D01*
X051470Y019035D01*
X051590Y018815D01*
X052108Y018909D02*
X051670Y018669D01*
X051889Y018789D01*
X052002Y018756D01*
X052082Y018610D01*
X052049Y018497D01*
X051830Y018377D01*
X050264Y022659D02*
X050308Y022768D01*
X050242Y022921D01*
X050132Y022965D01*
X049826Y022833D01*
X049783Y022724D01*
X049849Y022571D01*
X049958Y022527D01*
X049981Y022265D02*
X050047Y022112D01*
X050156Y022068D01*
X050309Y022134D01*
X050353Y022243D01*
X050287Y022396D01*
X050177Y022440D01*
X050024Y022374D01*
X049981Y022265D01*
X050146Y021882D02*
X050212Y021729D01*
X050179Y021806D01*
X050638Y022003D01*
X050605Y022080D01*
X050344Y021423D02*
X050410Y021270D01*
X050519Y021227D01*
X050672Y021292D01*
X050716Y021402D01*
X050650Y021555D01*
X050540Y021598D01*
X050387Y021533D01*
X050344Y021423D01*
X050815Y021172D02*
X050509Y021041D01*
X050662Y021107D01*
X050771Y021063D01*
X050881Y021019D01*
X050914Y020943D01*
X086725Y020059D02*
X086600Y019750D01*
X086416Y020184D01*
X086339Y020215D01*
X086230Y020169D01*
X086168Y020015D01*
X086214Y019906D01*
X086401Y020370D02*
X086355Y020478D01*
X086418Y020633D01*
X086526Y020678D01*
X086835Y020553D01*
X086881Y020445D01*
X086819Y020291D01*
X086710Y020245D01*
X086401Y020370D01*
X086975Y020677D02*
X087038Y020831D01*
X087006Y020754D01*
X086543Y020941D01*
X086589Y020833D01*
X086745Y021219D02*
X086699Y021328D01*
X086762Y021482D01*
X086870Y021528D01*
X086947Y021497D01*
X086993Y021388D01*
X087102Y021434D01*
X087179Y021403D01*
X087225Y021294D01*
X087163Y021140D01*
X087054Y021094D01*
X086977Y021125D01*
X086931Y021234D01*
X086822Y021188D01*
X086745Y021219D01*
X086931Y021234D02*
X086993Y021388D01*
X083266Y015453D02*
X083083Y015175D01*
X083500Y014900D01*
X083683Y015178D01*
X083291Y015038D02*
X083383Y015177D01*
X083775Y015317D02*
X083867Y015456D01*
X083821Y015387D01*
X083404Y015662D01*
X083358Y015592D01*
X084142Y015874D02*
X084050Y015734D01*
X083935Y015711D01*
X083796Y015803D01*
X083772Y015918D01*
X083864Y016057D01*
X083979Y016081D01*
X084049Y016035D01*
X083865Y015757D01*
X084185Y016544D02*
X084047Y016335D01*
X084071Y016220D01*
X084210Y016128D01*
X084326Y016152D01*
X084463Y016360D01*
X084253Y016798D02*
X084323Y016752D01*
X084277Y016683D01*
X084369Y016822D01*
X084323Y016752D01*
X084531Y016615D01*
X084647Y016639D01*
X084506Y017031D02*
X084784Y016847D01*
X084645Y016939D01*
X084622Y017054D01*
X084598Y017170D01*
X084644Y017239D01*
X085105Y017334D02*
X085197Y017473D01*
X085173Y017588D01*
X085034Y017680D01*
X084919Y017657D01*
X084827Y017517D01*
X084851Y017402D01*
X084990Y017310D01*
X085105Y017334D01*
X085335Y017682D02*
X085057Y017865D01*
X085194Y018074D01*
X085310Y018097D01*
X085518Y017960D01*
X085610Y018099D02*
X085702Y018238D01*
X085656Y018168D01*
X085378Y018352D01*
X085332Y018282D01*
X085745Y018908D02*
X085607Y018700D01*
X085631Y018584D01*
X085770Y018492D01*
X085885Y018516D01*
X086023Y018725D01*
X086114Y018864D02*
X086252Y019073D01*
X086228Y019188D01*
X086113Y019164D01*
X086021Y019025D01*
X085906Y019001D01*
X085882Y019117D01*
X086020Y019326D01*
X078892Y011583D02*
X078775Y011595D01*
X078646Y011489D01*
X078635Y011371D01*
X078847Y011114D01*
X078964Y011103D01*
X079093Y011209D01*
X079104Y011326D01*
X079074Y011625D02*
X079286Y011368D01*
X079180Y011496D01*
X079191Y011614D01*
X079202Y011731D01*
X079267Y011784D01*
X079524Y011996D02*
X079652Y012102D01*
X079770Y012091D01*
X079929Y011898D01*
X079736Y011739D01*
X079618Y011750D01*
X079630Y011867D01*
X079823Y012026D01*
X080057Y012004D02*
X080250Y012163D01*
X080261Y012280D01*
X080144Y012291D01*
X080015Y012185D01*
X079898Y012197D01*
X079910Y012314D01*
X080102Y012473D01*
X080125Y012707D02*
X080443Y012322D01*
X080284Y012514D01*
X080295Y012632D01*
X080424Y012738D01*
X080541Y012726D01*
X080700Y012534D01*
X080874Y013109D02*
X080681Y012950D01*
X080670Y012832D01*
X080776Y012704D01*
X080893Y012692D01*
X081086Y012851D01*
X081279Y013010D02*
X081407Y013116D01*
X081418Y013234D01*
X081313Y013362D01*
X081195Y013373D01*
X081067Y013268D01*
X081055Y013150D01*
X081161Y013022D01*
X081279Y013010D01*
X081388Y013532D02*
X081547Y013340D01*
X081664Y013328D01*
X081857Y013487D01*
X081645Y013744D01*
X081774Y013850D02*
X081986Y013593D01*
X081880Y013722D01*
X081891Y013839D01*
X081902Y013956D01*
X081967Y014009D01*
X082371Y013911D02*
X082564Y014070D01*
X082576Y014187D01*
X082458Y014199D01*
X082330Y014093D01*
X082213Y014104D01*
X082224Y014221D01*
X082417Y014380D01*
X082950Y014388D02*
X082821Y014282D01*
X082704Y014293D01*
X082598Y014422D01*
X082610Y014539D01*
X082738Y014645D01*
X082855Y014634D01*
X082908Y014569D01*
X082651Y014358D01*
X066450Y008800D02*
X066350Y008900D01*
X066150D01*
X066050Y008800D01*
Y008700D01*
X066150Y008600D01*
X066350D01*
X066450Y008500D01*
Y008400D01*
X066350Y008300D01*
X066150D01*
X066050Y008400D01*
X066650Y008900D02*
X066850D01*
X066750D01*
Y008300D01*
X066650D01*
X066850D01*
X067150D02*
Y008900D01*
X067350Y008700D01*
X067550Y008900D01*
Y008300D01*
X068049Y008900D02*
X067849D01*
X067749Y008800D01*
Y008400D01*
X067849Y008300D01*
X068049D01*
X068149Y008400D01*
Y008800D01*
X068049Y008900D01*
X068349Y008300D02*
Y008900D01*
X068749Y008300D01*
Y008900D01*
X068949D02*
Y008300D01*
X069249D01*
X069349Y008400D01*
Y008800D01*
X069249Y008900D01*
X068949D01*
X069549D02*
Y008400D01*
X069649Y008300D01*
X069849D01*
X069949Y008400D01*
Y008900D01*
X070149D02*
X070349D01*
X070249D01*
Y008300D01*
X070149D01*
X070349D01*
X070649D02*
Y008900D01*
X071048Y008300D01*
Y008900D01*
X071548D02*
X071348D01*
X071248Y008800D01*
Y008400D01*
X071348Y008300D01*
X071548D01*
X071648Y008400D01*
Y008800D01*
X071548Y008900D01*
X053350Y038350D02*
X053517D01*
X053433D01*
Y038850D01*
X053350Y038767D01*
X052100Y037700D02*
Y038100D01*
X052233Y037967D01*
X052367Y038100D01*
Y037700D01*
X052500Y038100D02*
X052633D01*
X052567D01*
Y037700D01*
X052500D01*
X052633D01*
X053100Y038033D02*
X053033Y038100D01*
X052900D01*
X052833Y038033D01*
Y037967D01*
X052900Y037900D01*
X053033D01*
X053100Y037833D01*
Y037767D01*
X053033Y037700D01*
X052900D01*
X052833Y037767D01*
X053433Y038100D02*
X053300D01*
X053233Y038033D01*
Y037767D01*
X053300Y037700D01*
X053433D01*
X053500Y037767D01*
Y038033D01*
X053433Y038100D01*
X052667Y037033D02*
X052600Y037100D01*
X052467D01*
X052400Y037033D01*
Y036967D01*
X052467Y036900D01*
X052600D01*
X052667Y036833D01*
Y036767D01*
X052600Y036700D01*
X052467D01*
X052400Y036767D01*
X053066Y037033D02*
X053000Y037100D01*
X052867D01*
X052800Y037033D01*
Y036767D01*
X052867Y036700D01*
X053000D01*
X053066Y036767D01*
X053200Y037100D02*
Y036700D01*
Y036833D01*
X053466Y037100D01*
X053266Y036900D01*
X053466Y036700D01*
X051300Y035750D02*
Y036150D01*
X051500D01*
X051567Y036083D01*
Y035950D01*
X051500Y035883D01*
X051300D01*
X051433D02*
X051567Y035750D01*
X051900D02*
X051767D01*
X051700Y035817D01*
Y035950D01*
X051767Y036017D01*
X051900D01*
X051966Y035950D01*
Y035883D01*
X051700D01*
X052100Y035750D02*
X052300D01*
X052366Y035817D01*
X052300Y035883D01*
X052166D01*
X052100Y035950D01*
X052166Y036017D01*
X052366D01*
X052700Y035750D02*
X052566D01*
X052500Y035817D01*
Y035950D01*
X052566Y036017D01*
X052700D01*
X052766Y035950D01*
Y035883D01*
X052500D01*
X052966Y036083D02*
Y036017D01*
X052899D01*
X053033D01*
X052966D01*
Y035817D01*
X053033Y035750D01*
X053233D02*
Y036017D01*
X053433D01*
X053499Y035950D01*
Y035750D01*
X056200Y037900D02*
X056467D01*
X056333Y038033D02*
Y037767D01*
X056866Y038100D02*
X056600D01*
Y037900D01*
X056733Y037967D01*
X056800D01*
X056866Y037900D01*
Y037767D01*
X056800Y037700D01*
X056667D01*
X056600Y037767D01*
X057000Y038100D02*
Y037833D01*
X057133Y037700D01*
X057266Y037833D01*
Y038100D01*
X056200Y036750D02*
Y037150D01*
X056333Y037017D01*
X056467Y037150D01*
Y036750D01*
X056800Y037150D02*
X056667D01*
X056600Y037083D01*
Y036817D01*
X056667Y036750D01*
X056800D01*
X056866Y036817D01*
Y037083D01*
X056800Y037150D01*
X057266Y037083D02*
X057200Y037150D01*
X057066D01*
X057000Y037083D01*
Y037017D01*
X057066Y036950D01*
X057200D01*
X057266Y036883D01*
Y036817D01*
X057200Y036750D01*
X057066D01*
X057000Y036817D01*
X057400Y037150D02*
X057533D01*
X057466D01*
Y036750D01*
X057400D01*
X057533D01*
X056467Y036033D02*
X056400Y036100D01*
X056267D01*
X056200Y036033D01*
Y035767D01*
X056267Y035700D01*
X056400D01*
X056467Y035767D01*
Y035900D01*
X056333D01*
X056600Y035700D02*
Y036100D01*
X056866Y035700D01*
Y036100D01*
X057000D02*
Y035700D01*
X057200D01*
X057266Y035767D01*
Y036033D01*
X057200Y036100D01*
X057000D01*
D30*
X071600Y027750D02*
Y026950D01*
X072133D01*
X072533D02*
X072800D01*
X072933Y027083D01*
Y027350D01*
X072800Y027483D01*
X072533D01*
X072400Y027350D01*
Y027083D01*
X072533Y026950D01*
X073199D02*
Y027483D01*
X073599D01*
X073733Y027350D01*
Y026950D01*
X074266Y026683D02*
X074399D01*
X074532Y026817D01*
Y027483D01*
X074133D01*
X073999Y027350D01*
Y027083D01*
X074133Y026950D01*
X074532D01*
X075199D02*
X074932D01*
X074799Y027083D01*
Y027350D01*
X074932Y027483D01*
X075199D01*
X075332Y027350D01*
Y027217D01*
X074799D01*
X075599Y026950D02*
X075999D01*
X076132Y027083D01*
X075999Y027217D01*
X075732D01*
X075599Y027350D01*
X075732Y027483D01*
X076132D01*
X076532Y027616D02*
Y027483D01*
X076398D01*
X076665D01*
X076532D01*
Y027083D01*
X076665Y026950D01*
X062550Y027700D02*
Y026900D01*
X063083D01*
X063483Y027433D02*
X063750D01*
X063883Y027300D01*
Y026900D01*
X063483D01*
X063350Y027033D01*
X063483Y027167D01*
X063883D01*
X064149Y026900D02*
X064549D01*
X064683Y027033D01*
X064549Y027167D01*
X064283D01*
X064149Y027300D01*
X064283Y027433D01*
X064683D01*
X065083Y027566D02*
Y027433D01*
X064949D01*
X065216D01*
X065083D01*
Y027033D01*
X065216Y026900D01*
X069150Y024150D02*
X068883D01*
X068750Y024016D01*
Y023483D01*
X068883Y023350D01*
X069150D01*
X069283Y023483D01*
Y024016D01*
X069150Y024150D01*
X069550Y023350D02*
Y024150D01*
X070083Y023350D01*
Y024150D01*
X067683Y027566D02*
X067550Y027700D01*
X067283D01*
X067150Y027566D01*
Y027433D01*
X067283Y027300D01*
X067550D01*
X067683Y027167D01*
Y027033D01*
X067550Y026900D01*
X067283D01*
X067150Y027033D01*
X068083Y027566D02*
Y027433D01*
X067950D01*
X068216D01*
X068083D01*
Y027033D01*
X068216Y026900D01*
X068749Y027433D02*
X069016D01*
X069149Y027300D01*
Y026900D01*
X068749D01*
X068616Y027033D01*
X068749Y027167D01*
X069149D01*
X069416Y027433D02*
Y026900D01*
Y027167D01*
X069549Y027300D01*
X069683Y027433D01*
X069816D01*
X070349Y027566D02*
Y027433D01*
X070216D01*
X070482D01*
X070349D01*
Y027033D01*
X070482Y026900D01*
X067450Y031503D02*
Y032303D01*
X067717Y032036D01*
X067983Y032303D01*
Y031503D01*
X068383D02*
X068650D01*
X068783Y031636D01*
Y031903D01*
X068650Y032036D01*
X068383D01*
X068250Y031903D01*
Y031636D01*
X068383Y031503D01*
X069583Y032303D02*
Y031503D01*
X069183D01*
X069049Y031636D01*
Y031903D01*
X069183Y032036D01*
X069583D01*
X070249Y031503D02*
X069983D01*
X069849Y031636D01*
Y031903D01*
X069983Y032036D01*
X070249D01*
X070382Y031903D01*
Y031769D01*
X069849D01*
X083350Y032100D02*
Y031433D01*
X083483Y031300D01*
X083750D01*
X083883Y031433D01*
Y032100D01*
X084683Y031966D02*
X084550Y032100D01*
X084283D01*
X084150Y031966D01*
Y031833D01*
X084283Y031700D01*
X084550D01*
X084683Y031567D01*
Y031433D01*
X084550Y031300D01*
X084283D01*
X084150Y031433D01*
X084949Y032100D02*
Y031300D01*
X085349D01*
X085483Y031433D01*
Y031567D01*
X085349Y031700D01*
X084949D01*
X085349D01*
X085483Y031833D01*
Y031966D01*
X085349Y032100D01*
X084949D01*
X053850Y034900D02*
X054117D01*
X053983D01*
Y034100D01*
X053850D01*
X054117D01*
X055050Y034766D02*
X054916Y034900D01*
X054650D01*
X054516Y034766D01*
Y034633D01*
X054650Y034500D01*
X054916D01*
X055050Y034367D01*
Y034233D01*
X054916Y034100D01*
X054650D01*
X054516Y034233D01*
X055316Y034100D02*
Y034900D01*
X055716D01*
X055849Y034766D01*
Y034500D01*
X055716Y034367D01*
X055316D01*
X054633Y020966D02*
X054500Y021100D01*
X054233D01*
X054100Y020966D01*
Y020433D01*
X054233Y020300D01*
X054500D01*
X054633Y020433D01*
Y020700D01*
X054367D01*
X054900Y020300D02*
Y021100D01*
X055300D01*
X055433Y020966D01*
Y020700D01*
X055300Y020567D01*
X054900D01*
X055699Y021100D02*
X055966D01*
X055833D01*
Y020300D01*
X055699D01*
X055966D01*
X056766Y021100D02*
X056499D01*
X056366Y020966D01*
Y020433D01*
X056499Y020300D01*
X056766D01*
X056899Y020433D01*
Y020966D01*
X056766Y021100D01*
X073583Y010766D02*
X073450Y010900D01*
X073183D01*
X073050Y010766D01*
Y010633D01*
X073183Y010500D01*
X073450D01*
X073583Y010367D01*
Y010233D01*
X073450Y010100D01*
X073183D01*
X073050Y010233D01*
X073850Y010100D02*
Y010900D01*
X074250D01*
X074383Y010766D01*
Y010500D01*
X074250Y010367D01*
X073850D01*
X074649Y010900D02*
Y010100D01*
Y010367D01*
X075183Y010900D01*
X074783Y010500D01*
X075183Y010100D01*
X075449D02*
Y010900D01*
X075849D01*
X075982Y010766D01*
Y010500D01*
X075849Y010367D01*
X075449D01*
X075716D02*
X075982Y010100D01*
X064100Y041550D02*
Y042350D01*
X064367Y042083D01*
X064633Y042350D01*
Y041550D01*
X064900D02*
Y042350D01*
X065300D01*
X065433Y042216D01*
Y041950D01*
X065300Y041817D01*
X064900D01*
X065699Y042350D02*
Y041683D01*
X065833Y041550D01*
X066099D01*
X066233Y041683D01*
Y042350D01*
D31*
X070750Y022100D02*
G03*
X070750Y022100I-000050J000000D01*
G01*
X056987Y033446D02*
X057204D01*
X057096D01*
Y034096D01*
X056987Y033988D01*
X057962Y034096D02*
X057529D01*
Y033771D01*
X057745Y033880D01*
X057854D01*
X057962Y033771D01*
Y033555D01*
X057854Y033446D01*
X057637D01*
X057529Y033555D01*
X061500Y033450D02*
X061717D01*
X061608D01*
Y034100D01*
X061500Y033991D01*
X062475Y034100D02*
X062041D01*
Y033775D01*
X062258Y033883D01*
X062366D01*
X062475Y033775D01*
Y033558D01*
X062366Y033450D01*
X062150D01*
X062041Y033558D01*
X061500Y019350D02*
X061717D01*
X061608D01*
Y020000D01*
X061500Y019891D01*
X057850Y019300D02*
X058067D01*
X057958D01*
Y019950D01*
X057850Y019841D01*
X080800Y037950D02*
X081200D01*
X081000D01*
Y037350D01*
X081400Y037950D02*
X081800Y037350D01*
Y037950D02*
X081400Y037350D01*
X080800Y038500D02*
Y039100D01*
X081100D01*
X081200Y039000D01*
Y038800D01*
X081100Y038700D01*
X080800D01*
X081000D02*
X081200Y038500D01*
X081400Y039100D02*
X081800Y038500D01*
Y039100D02*
X081400Y038500D01*
D44*
X075041Y042750D02*
G03*
X075041Y042750I-000141J000000D01*
G01*
X084035Y035996D02*
X084862D01*
X082972Y035405D02*
Y035760D01*
Y033240D02*
Y033594D01*
X084035Y033004D02*
X084862D01*
X074580Y039595D02*
Y043005D01*
Y039595D02*
X076120D01*
Y043005D01*
X074580D02*
X076120D01*
D45*
X068019Y041777D02*
G03*
X068152Y039928I000731J-000877D01*
G01*
X068092Y039967D02*
G03*
X069476Y041781I000658J000933D01*
G01*
X069481Y014723D02*
G03*
X069348Y016572I-000731J000877D01*
G01*
X069408Y016533D02*
G03*
X068024Y014719I-000658J-000933D01*
G01*
X082627Y028731D02*
G03*
X080778Y028598I-000877J-000731D01*
G01*
X080817Y028658D02*
G03*
X082631Y027274I000933J-000658D01*
G01*
X055073Y027169D02*
G03*
X056922Y027302I000877J000731D01*
G01*
X056883Y027242D02*
G03*
X055069Y028626I-000933J000658D01*
G01*
X059265Y041219D02*
G03*
X057435Y041219I-000915J000000D01*
G01*
Y038581D02*
G03*
X059265Y038581I000915J000000D01*
G01*
X076414Y033096D02*
Y033104D01*
X076886Y033096D02*
Y033104D01*
X079636Y041896D02*
Y041904D01*
X079164Y041896D02*
Y041904D01*
Y039996D02*
Y040004D01*
X079636Y039996D02*
Y040004D01*
X078064Y039996D02*
Y040004D01*
X078536Y039996D02*
Y040004D01*
Y041896D02*
Y041904D01*
X078064Y041896D02*
Y041904D01*
X072414Y041996D02*
Y042004D01*
X072886Y041996D02*
Y042004D01*
X075214Y033096D02*
Y033104D01*
X075686Y033096D02*
Y033104D01*
X068050Y041800D02*
X069450D01*
X068050Y014700D02*
X069450D01*
X055146Y039836D02*
X055154D01*
X055146Y039364D02*
X055154D01*
X071514Y019396D02*
Y019404D01*
X071986Y019396D02*
Y019404D01*
X080356Y021932D02*
Y025868D01*
X081144Y021932D02*
Y025868D01*
X080356D02*
X081144D01*
X080356Y021932D02*
X081144D01*
X082964Y025296D02*
Y025304D01*
X083436Y025296D02*
Y025304D01*
X066567Y032513D02*
X071133D01*
X066567D02*
Y034087D01*
X071133D01*
Y032513D02*
Y034087D01*
X066567Y024413D02*
X071133D01*
X066567D02*
Y025987D01*
X071133D01*
Y024413D02*
Y025987D01*
X066014Y039496D02*
Y039504D01*
X066486Y039496D02*
Y039504D01*
X060186Y014896D02*
Y014904D01*
X059714Y014896D02*
Y014904D01*
X062296Y013016D02*
X063004D01*
X062296Y014984D02*
X063004D01*
Y013016D02*
Y014984D01*
X062296Y013016D02*
Y014984D01*
X065586Y014096D02*
Y014104D01*
X065114Y014096D02*
Y014104D01*
X058514Y014896D02*
Y014904D01*
X058986Y014896D02*
Y014904D01*
X057314Y014896D02*
Y014904D01*
X057786Y014896D02*
Y014904D01*
X069314Y021296D02*
Y021304D01*
X069786Y021296D02*
Y021304D01*
X072914Y021296D02*
Y021304D01*
X073386Y021296D02*
Y021304D01*
X074114Y021296D02*
Y021304D01*
X074586Y021296D02*
Y021304D01*
X063846Y042864D02*
X063854D01*
X063846Y043336D02*
X063854D01*
X082650Y027300D02*
Y028700D01*
X055050Y027200D02*
Y028600D01*
X059265Y038581D02*
Y041219D01*
X057435Y038581D02*
Y041219D01*
X058446Y043336D02*
X058454D01*
X058446Y042864D02*
X058454D01*
X058346Y036936D02*
X058354D01*
X058346Y036464D02*
X058354D01*
X061596Y035836D02*
X061604D01*
X061596Y035364D02*
X061604D01*
X063796Y035836D02*
X063804D01*
X063796Y035364D02*
X063804D01*
X063846Y044064D02*
X063854D01*
X063846Y044536D02*
X063854D01*
D46*
X079874Y025985D02*
G03*
X079874Y025985I-000049J000000D01*
G01*
X069883Y032257D02*
G03*
X069883Y032257I-000049J000000D01*
G01*
Y024157D02*
G03*
X069883Y024157I-000049J000000D01*
G01*
X061754Y015085D02*
G03*
X061754Y015085I-000049J000000D01*
G01*
D47*
X080750Y025554D02*
G03*
X080750Y025554I-000079J000000D01*
G01*
D48*
X061520Y040680D02*
G03*
X061520Y040680I-000150J000000D01*
G01*
X061070Y040850D02*
X061210Y040980D01*
X063830D01*
X061070Y038220D02*
Y040850D01*
Y038220D02*
X063830D01*
Y040980D01*
D49*
X067500Y019500D02*
X068550D01*
X067500D02*
Y021500D01*
X068600D01*
Y019500D02*
Y021500D01*
X068550Y019500D02*
X068600D01*
X067500Y021000D02*
X068600D01*
X073350Y034800D02*
X074400D01*
Y032800D02*
Y034800D01*
X073300Y032800D02*
X074400D01*
X073300D02*
Y034800D01*
X073350D01*
X073300Y033300D02*
X074400D01*
D50*
X084247Y037597D02*
D03*
Y038698D02*
D03*
D51*
X074352Y019397D02*
D03*
X051398Y033253D02*
D03*
M02*
