G04 Layer_Physical_Order=1*
G04 Layer_Color=25308*
%FSAX24Y24*%
%MOIN*%
G70*
G01*
G75*
%ADD10R,0.0532X0.0374*%
G04:AMPARAMS|DCode=11|XSize=59.1mil|YSize=51.2mil|CornerRadius=2.6mil|HoleSize=0mil|Usage=FLASHONLY|Rotation=180.000|XOffset=0mil|YOffset=0mil|HoleType=Round|Shape=RoundedRectangle|*
%AMROUNDEDRECTD11*
21,1,0.0591,0.0461,0,0,180.0*
21,1,0.0539,0.0512,0,0,180.0*
1,1,0.0051,-0.0270,0.0230*
1,1,0.0051,0.0270,0.0230*
1,1,0.0051,0.0270,-0.0230*
1,1,0.0051,-0.0270,-0.0230*
%
%ADD11ROUNDEDRECTD11*%
%ADD12R,0.0787X0.0787*%
%ADD13R,0.0630X0.0276*%
%ADD14R,0.0787X0.0630*%
%ADD15R,0.0374X0.0532*%
%ADD16R,0.0750X0.1340*%
%ADD17R,0.0480X0.0480*%
%ADD18R,0.0450X0.0150*%
G04:AMPARAMS|DCode=19|XSize=59.1mil|YSize=51.2mil|CornerRadius=2.6mil|HoleSize=0mil|Usage=FLASHONLY|Rotation=90.000|XOffset=0mil|YOffset=0mil|HoleType=Round|Shape=RoundedRectangle|*
%AMROUNDEDRECTD19*
21,1,0.0591,0.0461,0,0,90.0*
21,1,0.0539,0.0512,0,0,90.0*
1,1,0.0051,0.0230,0.0270*
1,1,0.0051,0.0230,-0.0270*
1,1,0.0051,-0.0230,-0.0270*
1,1,0.0051,-0.0230,0.0270*
%
%ADD19ROUNDEDRECTD19*%
%ADD20R,0.0480X0.0480*%
%ADD21O,0.0748X0.0236*%
%ADD22O,0.0866X0.0236*%
%ADD23R,0.0748X0.0787*%
%ADD24R,0.0480X0.0220*%
%ADD25R,0.0394X0.0551*%
%ADD26R,0.0220X0.0500*%
%ADD27R,0.0500X0.0220*%
%ADD28R,0.0551X0.0394*%
%ADD29C,0.0100*%
%ADD30C,0.0200*%
%ADD31C,0.0150*%
%ADD32C,0.0454*%
%ADD33C,0.0709*%
%ADD34C,0.0600*%
%ADD35C,0.0630*%
%ADD36C,0.1575*%
%ADD37C,0.2362*%
%ADD38R,0.0591X0.0591*%
%ADD39C,0.0591*%
%ADD40C,0.0610*%
%ADD41R,0.0610X0.0610*%
%ADD42C,0.0875*%
%ADD43C,0.0200*%
G36*
X088750Y008000D02*
X048750D01*
Y048000D01*
X088750D01*
Y008000D01*
D02*
G37*
%LPC*%
G36*
X056900Y019344D02*
Y019200D01*
X057044D01*
X057038Y019228D01*
X056994Y019294D01*
X056928Y019338D01*
X056900Y019344D01*
D02*
G37*
G36*
X056800D02*
X056772Y019338D01*
X056706Y019294D01*
X056662Y019228D01*
X056656Y019200D01*
X056800D01*
Y019344D01*
D02*
G37*
G36*
X070700Y019244D02*
Y019100D01*
X070844D01*
X070838Y019128D01*
X070794Y019194D01*
X070728Y019238D01*
X070700Y019244D01*
D02*
G37*
G36*
X081931Y022852D02*
X081419D01*
X081342Y022837D01*
X081276Y022793D01*
X081233Y022727D01*
X081217Y022650D01*
X081233Y022573D01*
X081276Y022507D01*
X081342Y022463D01*
X081419Y022448D01*
X081931D01*
X082008Y022463D01*
X082074Y022507D01*
X082081Y022517D01*
X082505D01*
X083067Y021955D01*
Y019472D01*
X082854D01*
Y019338D01*
X082700D01*
X082444Y019594D01*
X082401Y019622D01*
X082350Y019633D01*
X080150D01*
X080099Y019622D01*
X080056Y019594D01*
X079737Y019274D01*
X079666Y019283D01*
X079567Y019270D01*
X079474Y019232D01*
X079395Y019171D01*
X079334Y019092D01*
X079296Y018999D01*
X079282Y018900D01*
X079296Y018801D01*
X079334Y018708D01*
X079395Y018629D01*
X079474Y018568D01*
X079567Y018530D01*
X079666Y018517D01*
X079765Y018530D01*
X079857Y018568D01*
X079937Y018629D01*
X079998Y018708D01*
X080036Y018801D01*
X080049Y018900D01*
X080036Y018999D01*
X079998Y019092D01*
X079968Y019130D01*
X080205Y019367D01*
X082295D01*
X082551Y019111D01*
X082594Y019083D01*
X082645Y019073D01*
X082854D01*
Y018938D01*
X083546D01*
Y019472D01*
X083333D01*
Y022010D01*
X083322Y022061D01*
X083294Y022104D01*
X082654Y022744D01*
X082611Y022772D01*
X082560Y022783D01*
X082081D01*
X082074Y022793D01*
X082008Y022837D01*
X081931Y022852D01*
D02*
G37*
G36*
X076444Y019650D02*
X076000D01*
Y019206D01*
X076444D01*
Y019650D01*
D02*
G37*
G36*
X075900D02*
X075456D01*
Y019206D01*
X075900D01*
Y019650D01*
D02*
G37*
G36*
X070600Y019244D02*
X070572Y019238D01*
X070506Y019194D01*
X070462Y019128D01*
X070456Y019100D01*
X070600D01*
Y019244D01*
D02*
G37*
G36*
X057044Y019100D02*
X056900D01*
Y018956D01*
X056928Y018962D01*
X056994Y019006D01*
X057038Y019072D01*
X057044Y019100D01*
D02*
G37*
G36*
X056800D02*
X056656D01*
X056662Y019072D01*
X056706Y019006D01*
X056772Y018962D01*
X056800Y018956D01*
Y019100D01*
D02*
G37*
G36*
X081684Y019297D02*
Y018950D01*
X082031D01*
X082024Y019004D01*
X081984Y019102D01*
X081920Y019185D01*
X081836Y019249D01*
X081739Y019290D01*
X081684Y019297D01*
D02*
G37*
G36*
X072020Y019384D02*
X071800D01*
Y019076D01*
X072148D01*
Y019256D01*
X072138Y019305D01*
X072110Y019347D01*
X072069Y019375D01*
X072020Y019384D01*
D02*
G37*
G36*
X071700D02*
X071480D01*
X071431Y019375D01*
X071390Y019347D01*
X071362Y019305D01*
X071352Y019256D01*
Y019076D01*
X071700D01*
Y019384D01*
D02*
G37*
G36*
X060550Y020238D02*
X060437Y020223D01*
X060331Y020179D01*
X060240Y020110D01*
X060171Y020019D01*
X060127Y019913D01*
X060112Y019800D01*
X060127Y019687D01*
X060171Y019581D01*
X060240Y019490D01*
X060331Y019421D01*
X060437Y019377D01*
X060550Y019362D01*
X060663Y019377D01*
X060769Y019421D01*
X060860Y019490D01*
X060929Y019581D01*
X060944Y019616D01*
X061666D01*
Y018650D01*
X061516Y018605D01*
X061366Y018524D01*
X061234Y018416D01*
X061125Y018284D01*
X061045Y018133D01*
X060995Y017970D01*
X060978Y017800D01*
X060995Y017630D01*
X061045Y017466D01*
X061125Y017315D01*
X061234Y017183D01*
X061366Y017075D01*
X061516Y016994D01*
X061680Y016945D01*
X061850Y016928D01*
X062020Y016945D01*
X062184Y016994D01*
X062334Y017075D01*
X062466Y017183D01*
X062575Y017315D01*
X062655Y017466D01*
X062705Y017630D01*
X062722Y017800D01*
X062705Y017970D01*
X062655Y018133D01*
X062575Y018284D01*
X062466Y018416D01*
X062334Y018524D01*
X062184Y018605D01*
X062034Y018650D01*
Y019616D01*
X064224D01*
X064470Y019370D01*
X064530Y019330D01*
X064541Y019328D01*
X064600Y019316D01*
X067596D01*
Y019003D01*
X068504D01*
Y019950D01*
X067596D01*
Y019684D01*
X064676D01*
X064430Y019930D01*
X064370Y019970D01*
X064359Y019972D01*
X064300Y019984D01*
X060944D01*
X060929Y020019D01*
X060860Y020110D01*
X060769Y020179D01*
X060663Y020223D01*
X060550Y020238D01*
D02*
G37*
G36*
X074300Y019667D02*
X074010D01*
Y019377D01*
X074300D01*
Y019667D01*
D02*
G37*
G36*
X070844Y020200D02*
X070700D01*
Y020056D01*
X070728Y020062D01*
X070794Y020106D01*
X070838Y020172D01*
X070844Y020200D01*
D02*
G37*
G36*
X070600D02*
X070456D01*
X070462Y020172D01*
X070506Y020106D01*
X070572Y020062D01*
X070600Y020056D01*
Y020200D01*
D02*
G37*
G36*
X070094D02*
X069950D01*
Y020056D01*
X069978Y020062D01*
X070044Y020106D01*
X070088Y020172D01*
X070094Y020200D01*
D02*
G37*
G36*
X069850Y020444D02*
X069822Y020438D01*
X069756Y020394D01*
X069712Y020328D01*
X069706Y020300D01*
X069850D01*
Y020444D01*
D02*
G37*
G36*
X073344Y020234D02*
X073200D01*
Y020090D01*
X073228Y020095D01*
X073294Y020139D01*
X073338Y020205D01*
X073344Y020234D01*
D02*
G37*
G36*
X073100D02*
X072956D01*
X072962Y020205D01*
X073006Y020139D01*
X073072Y020095D01*
X073100Y020090D01*
Y020234D01*
D02*
G37*
G36*
X069850Y020200D02*
X069706D01*
X069712Y020172D01*
X069756Y020106D01*
X069822Y020062D01*
X069850Y020056D01*
Y020200D01*
D02*
G37*
G36*
X075900Y020194D02*
X075456D01*
Y019750D01*
X075900D01*
Y020194D01*
D02*
G37*
G36*
X072090Y021110D02*
X071450D01*
Y020730D01*
X071637D01*
Y020396D01*
X071628Y020381D01*
X071617Y020330D01*
Y020112D01*
X071480D01*
X071439Y020104D01*
X071404Y020080D01*
X071381Y020046D01*
X071373Y020004D01*
Y019544D01*
X071381Y019503D01*
X071404Y019468D01*
X071439Y019444D01*
X071480Y019436D01*
X072020D01*
X072061Y019444D01*
X072096Y019468D01*
X072119Y019503D01*
X072127Y019544D01*
Y020004D01*
X072119Y020046D01*
X072096Y020080D01*
X072061Y020104D01*
X072020Y020112D01*
X071883D01*
Y020284D01*
X071892Y020299D01*
X071903Y020350D01*
Y020730D01*
X072090D01*
Y021110D01*
D02*
G37*
G36*
X074690Y019667D02*
X074400D01*
Y019377D01*
X074690D01*
Y019667D01*
D02*
G37*
G36*
X050266Y028283D02*
X050167Y028270D01*
X050074Y028232D01*
X049995Y028171D01*
X049934Y028092D01*
X049896Y027999D01*
X049882Y027900D01*
X049896Y027801D01*
X049934Y027708D01*
X049995Y027629D01*
X050074Y027568D01*
X050167Y027530D01*
X050266Y027517D01*
X050365Y027530D01*
X050424Y027554D01*
X050812Y027166D01*
Y025846D01*
X050678D01*
Y025154D01*
X050812D01*
Y023670D01*
X050822Y023619D01*
X050851Y023576D01*
X054202Y020225D01*
X054215Y020160D01*
X054255Y020100D01*
X054315Y020060D01*
X054385Y020046D01*
X054455Y020060D01*
X054515Y020100D01*
X054554Y020160D01*
X054568Y020230D01*
X054554Y020300D01*
X054515Y020360D01*
X054455Y020400D01*
X054390Y020413D01*
X051077Y023725D01*
Y025154D01*
X051212D01*
Y025846D01*
X051077D01*
Y027221D01*
X051067Y027272D01*
X051039Y027315D01*
X050611Y027742D01*
X050636Y027801D01*
X050649Y027900D01*
X050636Y027999D01*
X050598Y028092D01*
X050537Y028171D01*
X050457Y028232D01*
X050365Y028270D01*
X050266Y028283D01*
D02*
G37*
G36*
X074544Y020250D02*
X074156D01*
X074162Y020222D01*
X074206Y020156D01*
X074272Y020112D01*
X074297Y020107D01*
X074292Y020057D01*
X074010D01*
Y019767D01*
X074690D01*
Y020057D01*
X074408D01*
X074403Y020107D01*
X074428Y020112D01*
X074494Y020156D01*
X074538Y020222D01*
X074544Y020250D01*
D02*
G37*
G36*
X076444Y020194D02*
X076000D01*
Y019750D01*
X076444D01*
Y020194D01*
D02*
G37*
G36*
X081584Y019297D02*
X081530Y019290D01*
X081433Y019249D01*
X081349Y019185D01*
X081285Y019102D01*
X081245Y019004D01*
X081237Y018950D01*
X081584D01*
Y019297D01*
D02*
G37*
G36*
X058044Y018550D02*
X057900D01*
Y018406D01*
X057928Y018412D01*
X057994Y018456D01*
X058038Y018522D01*
X058044Y018550D01*
D02*
G37*
G36*
X057800D02*
X057656D01*
X057662Y018522D01*
X057706Y018456D01*
X057772Y018412D01*
X057800Y018406D01*
Y018550D01*
D02*
G37*
G36*
X073750Y018294D02*
Y018150D01*
X073894D01*
X073888Y018178D01*
X073844Y018244D01*
X073778Y018288D01*
X073750Y018294D01*
D02*
G37*
G36*
X055850Y018650D02*
X055706D01*
X055712Y018622D01*
X055756Y018556D01*
X055822Y018512D01*
X055850Y018506D01*
Y018650D01*
D02*
G37*
G36*
X082031Y018850D02*
X081684D01*
Y018503D01*
X081739Y018510D01*
X081836Y018551D01*
X081920Y018615D01*
X081984Y018698D01*
X082024Y018796D01*
X082031Y018850D01*
D02*
G37*
G36*
X081584D02*
X081237D01*
X081245Y018796D01*
X081285Y018698D01*
X081349Y018615D01*
X081433Y018551D01*
X081530Y018510D01*
X081584Y018503D01*
Y018850D01*
D02*
G37*
G36*
X073650Y018294D02*
X073622Y018288D01*
X073556Y018244D01*
X073512Y018178D01*
X073506Y018150D01*
X073650D01*
Y018294D01*
D02*
G37*
G36*
Y018050D02*
X073506D01*
X073512Y018022D01*
X073556Y017956D01*
X073622Y017912D01*
X073650Y017906D01*
Y018050D01*
D02*
G37*
G36*
X071944D02*
X071800D01*
Y017906D01*
X071828Y017912D01*
X071894Y017956D01*
X071938Y018022D01*
X071944Y018050D01*
D02*
G37*
G36*
X071700D02*
X071556D01*
X071562Y018022D01*
X071606Y017956D01*
X071672Y017912D01*
X071700Y017906D01*
Y018050D01*
D02*
G37*
G36*
X071800Y018294D02*
Y018150D01*
X071944D01*
X071938Y018178D01*
X071894Y018244D01*
X071828Y018288D01*
X071800Y018294D01*
D02*
G37*
G36*
X071700D02*
X071672Y018288D01*
X071606Y018244D01*
X071562Y018178D01*
X071556Y018150D01*
X071700D01*
Y018294D01*
D02*
G37*
G36*
X073894Y018050D02*
X073750D01*
Y017906D01*
X073778Y017912D01*
X073844Y017956D01*
X073888Y018022D01*
X073894Y018050D01*
D02*
G37*
G36*
X056094Y018650D02*
X055950D01*
Y018506D01*
X055978Y018512D01*
X056044Y018556D01*
X056088Y018622D01*
X056094Y018650D01*
D02*
G37*
G36*
X075900Y018944D02*
X075872Y018938D01*
X075806Y018894D01*
X075762Y018828D01*
X075756Y018800D01*
X075900D01*
Y018944D01*
D02*
G37*
G36*
X055950Y018894D02*
Y018750D01*
X056094D01*
X056088Y018778D01*
X056044Y018844D01*
X055978Y018888D01*
X055950Y018894D01*
D02*
G37*
G36*
X055850D02*
X055822Y018888D01*
X055756Y018844D01*
X055712Y018778D01*
X055706Y018750D01*
X055850D01*
Y018894D01*
D02*
G37*
G36*
X070844Y019000D02*
X070700D01*
Y018856D01*
X070728Y018862D01*
X070794Y018906D01*
X070838Y018972D01*
X070844Y019000D01*
D02*
G37*
G36*
X070600D02*
X070456D01*
X070462Y018972D01*
X070506Y018906D01*
X070572Y018862D01*
X070600Y018856D01*
Y019000D01*
D02*
G37*
G36*
X076000Y018944D02*
Y018800D01*
X076144D01*
X076138Y018828D01*
X076094Y018894D01*
X076028Y018938D01*
X076000Y018944D01*
D02*
G37*
G36*
X072148Y018976D02*
X071800D01*
Y018668D01*
X072020D01*
X072069Y018677D01*
X072110Y018705D01*
X072138Y018747D01*
X072148Y018796D01*
Y018976D01*
D02*
G37*
G36*
X073496Y019262D02*
X072804D01*
Y018728D01*
X073496D01*
Y018862D01*
X073635D01*
X073708Y018790D01*
X073751Y018761D01*
X073802Y018751D01*
X074030D01*
Y018563D01*
X074670D01*
Y019203D01*
X074030D01*
Y019016D01*
X073856D01*
X073784Y019089D01*
X073741Y019117D01*
X073690Y019127D01*
X073496D01*
Y019262D01*
D02*
G37*
G36*
X076144Y018700D02*
X076000D01*
Y018556D01*
X076028Y018562D01*
X076094Y018606D01*
X076138Y018672D01*
X076144Y018700D01*
D02*
G37*
G36*
X075900D02*
X075756D01*
X075762Y018672D01*
X075806Y018606D01*
X075872Y018562D01*
X075900Y018556D01*
Y018700D01*
D02*
G37*
G36*
X071700Y018976D02*
X071352D01*
Y018796D01*
X071362Y018747D01*
X071390Y018705D01*
X071431Y018677D01*
X071480Y018668D01*
X071700D01*
Y018976D01*
D02*
G37*
G36*
X057900Y018794D02*
Y018650D01*
X058044D01*
X058038Y018678D01*
X057994Y018744D01*
X057928Y018788D01*
X057900Y018794D01*
D02*
G37*
G36*
X057800D02*
X057772Y018788D01*
X057706Y018744D01*
X057662Y018678D01*
X057656Y018650D01*
X057800D01*
Y018794D01*
D02*
G37*
G36*
X069950Y020444D02*
Y020300D01*
X070094D01*
X070088Y020328D01*
X070044Y020394D01*
X069978Y020438D01*
X069950Y020444D01*
D02*
G37*
G36*
X075244Y022200D02*
X075100D01*
Y022056D01*
X075128Y022062D01*
X075194Y022106D01*
X075238Y022172D01*
X075244Y022200D01*
D02*
G37*
G36*
X075000D02*
X074856D01*
X074862Y022172D01*
X074906Y022106D01*
X074972Y022062D01*
X075000Y022056D01*
Y022200D01*
D02*
G37*
G36*
X073894D02*
X073750D01*
Y022056D01*
X073778Y022062D01*
X073844Y022106D01*
X073888Y022172D01*
X073894Y022200D01*
D02*
G37*
G36*
X071000Y022444D02*
X070972Y022438D01*
X070906Y022394D01*
X070862Y022328D01*
X070856Y022300D01*
X071000D01*
Y022444D01*
D02*
G37*
G36*
X080081Y022372D02*
X079875D01*
Y022200D01*
X080293D01*
X080286Y022235D01*
X080238Y022307D01*
X080166Y022355D01*
X080081Y022372D01*
D02*
G37*
G36*
X079775D02*
X079569D01*
X079484Y022355D01*
X079412Y022307D01*
X079363Y022235D01*
X079356Y022200D01*
X079775D01*
Y022372D01*
D02*
G37*
G36*
X073650Y022200D02*
X073506D01*
X073512Y022172D01*
X073556Y022106D01*
X073622Y022062D01*
X073650Y022056D01*
Y022200D01*
D02*
G37*
G36*
X071000D02*
X070856D01*
X070862Y022172D01*
X070906Y022106D01*
X070972Y022062D01*
X071000Y022056D01*
Y022200D01*
D02*
G37*
G36*
X080293Y022100D02*
X079875D01*
Y021928D01*
X080081D01*
X080166Y021945D01*
X080238Y021993D01*
X080286Y022065D01*
X080293Y022100D01*
D02*
G37*
G36*
X079775D02*
X079356D01*
X079363Y022065D01*
X079412Y021993D01*
X079484Y021945D01*
X079569Y021928D01*
X079775D01*
Y022100D01*
D02*
G37*
G36*
X072644Y022200D02*
X072500D01*
Y022056D01*
X072528Y022062D01*
X072594Y022106D01*
X072638Y022172D01*
X072644Y022200D01*
D02*
G37*
G36*
X072400D02*
X072256D01*
X072262Y022172D01*
X072306Y022106D01*
X072372Y022062D01*
X072400Y022056D01*
Y022200D01*
D02*
G37*
G36*
X071244D02*
X071100D01*
Y022056D01*
X071128Y022062D01*
X071194Y022106D01*
X071238Y022172D01*
X071244Y022200D01*
D02*
G37*
G36*
X071100Y022444D02*
Y022300D01*
X071244D01*
X071238Y022328D01*
X071194Y022394D01*
X071128Y022438D01*
X071100Y022444D01*
D02*
G37*
G36*
X059100Y023252D02*
Y022850D01*
X059502D01*
X059493Y022919D01*
X059447Y023029D01*
X059374Y023124D01*
X059279Y023197D01*
X059169Y023243D01*
X059100Y023252D01*
D02*
G37*
G36*
X064041Y025065D02*
X063843Y025049D01*
X063650Y025003D01*
X063467Y024927D01*
X063297Y024823D01*
X063146Y024694D01*
X063018Y024543D01*
X062914Y024374D01*
X062838Y024191D01*
X062792Y023997D01*
X062776Y023800D01*
X062792Y023602D01*
X062838Y023409D01*
X062914Y023225D01*
X063018Y023056D01*
X063146Y022905D01*
X063297Y022776D01*
X063467Y022672D01*
X063650Y022597D01*
X063843Y022550D01*
X064041Y022535D01*
X064239Y022550D01*
X064432Y022597D01*
X064615Y022672D01*
X064784Y022776D01*
X064935Y022905D01*
X065064Y023056D01*
X065168Y023225D01*
X065244Y023409D01*
X065290Y023602D01*
X065306Y023800D01*
X065290Y023997D01*
X065244Y024191D01*
X065168Y024374D01*
X065064Y024543D01*
X064935Y024694D01*
X064784Y024823D01*
X064615Y024927D01*
X064432Y025003D01*
X064239Y025049D01*
X064041Y025065D01*
D02*
G37*
G36*
X054659D02*
X054461Y025049D01*
X054268Y025003D01*
X054085Y024927D01*
X053916Y024823D01*
X053765Y024694D01*
X053636Y024543D01*
X053532Y024374D01*
X053456Y024191D01*
X053410Y023997D01*
X053394Y023800D01*
X053410Y023602D01*
X053456Y023409D01*
X053532Y023225D01*
X053636Y023056D01*
X053765Y022905D01*
X053916Y022776D01*
X054085Y022672D01*
X054268Y022597D01*
X054461Y022550D01*
X054659Y022535D01*
X054857Y022550D01*
X055050Y022597D01*
X055233Y022672D01*
X055403Y022776D01*
X055554Y022905D01*
X055682Y023056D01*
X055786Y023225D01*
X055862Y023409D01*
X055908Y023602D01*
X055924Y023800D01*
X055908Y023997D01*
X055862Y024191D01*
X055786Y024374D01*
X055682Y024543D01*
X055554Y024694D01*
X055403Y024823D01*
X055233Y024927D01*
X055050Y025003D01*
X054857Y025049D01*
X054659Y025065D01*
D02*
G37*
G36*
X079775Y023600D02*
X079356D01*
X079363Y023565D01*
X079412Y023493D01*
X079484Y023445D01*
X079569Y023428D01*
X079775D01*
Y023600D01*
D02*
G37*
G36*
X060550Y024238D02*
X060437Y024223D01*
X060331Y024179D01*
X060240Y024110D01*
X060171Y024019D01*
X060127Y023913D01*
X060112Y023800D01*
X060127Y023687D01*
X060171Y023581D01*
X060240Y023490D01*
X060331Y023421D01*
X060437Y023377D01*
X060550Y023362D01*
X060663Y023377D01*
X060769Y023421D01*
X060860Y023490D01*
X060929Y023581D01*
X060973Y023687D01*
X060988Y023800D01*
X060973Y023913D01*
X060929Y024019D01*
X060860Y024110D01*
X060769Y024179D01*
X060663Y024223D01*
X060550Y024238D01*
D02*
G37*
G36*
X082280Y023424D02*
X082210Y023410D01*
X082150Y023370D01*
X082116Y023319D01*
X082100Y023309D01*
X082058Y023303D01*
X082008Y023337D01*
X081931Y023352D01*
X081419D01*
X081342Y023337D01*
X081276Y023293D01*
X081233Y023227D01*
X081217Y023150D01*
X081233Y023073D01*
X081276Y023007D01*
X081342Y022963D01*
X081419Y022948D01*
X081931D01*
X082008Y022963D01*
X082074Y023007D01*
X082081Y023017D01*
X082190D01*
X082241Y023028D01*
X082284Y023056D01*
X082285Y023057D01*
X082350Y023070D01*
X082410Y023110D01*
X082450Y023170D01*
X082464Y023240D01*
X082450Y023310D01*
X082410Y023370D01*
X082350Y023410D01*
X082280Y023424D01*
D02*
G37*
G36*
X059502Y022750D02*
X059100D01*
Y022348D01*
X059169Y022357D01*
X059279Y022403D01*
X059374Y022476D01*
X059447Y022571D01*
X059493Y022681D01*
X059502Y022750D01*
D02*
G37*
G36*
X073650Y022444D02*
X073622Y022438D01*
X073556Y022394D01*
X073512Y022328D01*
X073506Y022300D01*
X073650D01*
Y022444D01*
D02*
G37*
G36*
X072500D02*
Y022300D01*
X072644D01*
X072638Y022328D01*
X072594Y022394D01*
X072528Y022438D01*
X072500Y022444D01*
D02*
G37*
G36*
X072400D02*
X072372Y022438D01*
X072306Y022394D01*
X072262Y022328D01*
X072256Y022300D01*
X072400D01*
Y022444D01*
D02*
G37*
G36*
X075100D02*
Y022300D01*
X075244D01*
X075238Y022328D01*
X075194Y022394D01*
X075128Y022438D01*
X075100Y022444D01*
D02*
G37*
G36*
X075000D02*
X074972Y022438D01*
X074906Y022394D01*
X074862Y022328D01*
X074856Y022300D01*
X075000D01*
Y022444D01*
D02*
G37*
G36*
X073750D02*
Y022300D01*
X073894D01*
X073888Y022328D01*
X073844Y022394D01*
X073778Y022438D01*
X073750Y022444D01*
D02*
G37*
G36*
X060550Y022238D02*
X060437Y022223D01*
X060331Y022179D01*
X060240Y022110D01*
X060171Y022019D01*
X060127Y021913D01*
X060112Y021800D01*
X060127Y021687D01*
X060171Y021581D01*
X060240Y021490D01*
X060331Y021421D01*
X060437Y021377D01*
X060550Y021362D01*
X060663Y021377D01*
X060769Y021421D01*
X060860Y021490D01*
X060929Y021581D01*
X060973Y021687D01*
X060988Y021800D01*
X060973Y021913D01*
X060929Y022019D01*
X060860Y022110D01*
X060769Y022179D01*
X060663Y022223D01*
X060550Y022238D01*
D02*
G37*
G36*
X069948Y020876D02*
X069600D01*
Y020568D01*
X069820D01*
X069869Y020577D01*
X069910Y020605D01*
X069938Y020647D01*
X069948Y020696D01*
Y020876D01*
D02*
G37*
G36*
X069500D02*
X069152D01*
Y020696D01*
X069162Y020647D01*
X069190Y020605D01*
X069231Y020577D01*
X069280Y020568D01*
X069500D01*
Y020876D01*
D02*
G37*
G36*
X074400Y020494D02*
Y020350D01*
X074544D01*
X074538Y020378D01*
X074494Y020444D01*
X074428Y020488D01*
X074400Y020494D01*
D02*
G37*
G36*
X074300Y020876D02*
X073952D01*
Y020696D01*
X073962Y020647D01*
X073990Y020605D01*
X074031Y020577D01*
X074080Y020568D01*
X074300D01*
Y020876D01*
D02*
G37*
G36*
X073548D02*
X073200D01*
Y020568D01*
X073420D01*
X073469Y020577D01*
X073510Y020605D01*
X073538Y020647D01*
X073548Y020696D01*
Y020876D01*
D02*
G37*
G36*
X073100D02*
X072752D01*
Y020696D01*
X072762Y020647D01*
X072790Y020605D01*
X072831Y020577D01*
X072880Y020568D01*
X073100D01*
Y020876D01*
D02*
G37*
G36*
X074300Y020494D02*
X074272Y020488D01*
X074206Y020444D01*
X074162Y020378D01*
X074156Y020350D01*
X074300D01*
Y020494D01*
D02*
G37*
G36*
X073100Y020477D02*
X073072Y020472D01*
X073006Y020428D01*
X072962Y020362D01*
X072956Y020334D01*
X073100D01*
Y020477D01*
D02*
G37*
G36*
X070700Y020444D02*
Y020300D01*
X070844D01*
X070838Y020328D01*
X070794Y020394D01*
X070728Y020438D01*
X070700Y020444D01*
D02*
G37*
G36*
X070600D02*
X070572Y020438D01*
X070506Y020394D01*
X070462Y020328D01*
X070456Y020300D01*
X070600D01*
Y020444D01*
D02*
G37*
G36*
X061002Y020750D02*
X060600D01*
Y020348D01*
X060669Y020357D01*
X060779Y020403D01*
X060874Y020476D01*
X060947Y020571D01*
X060993Y020681D01*
X061002Y020750D01*
D02*
G37*
G36*
X060500D02*
X060098D01*
X060107Y020681D01*
X060153Y020571D01*
X060226Y020476D01*
X060321Y020403D01*
X060431Y020357D01*
X060500Y020348D01*
Y020750D01*
D02*
G37*
G36*
X073200Y020477D02*
Y020334D01*
X073344D01*
X073338Y020362D01*
X073294Y020428D01*
X073228Y020472D01*
X073200Y020477D01*
D02*
G37*
G36*
X074748Y020876D02*
X074400D01*
Y020568D01*
X074620D01*
X074669Y020577D01*
X074710Y020605D01*
X074738Y020647D01*
X074748Y020696D01*
Y020876D01*
D02*
G37*
G36*
X073100Y021284D02*
X072880D01*
X072831Y021275D01*
X072790Y021247D01*
X072762Y021205D01*
X072752Y021156D01*
Y020976D01*
X073100D01*
Y021284D01*
D02*
G37*
G36*
X069820D02*
X069600D01*
Y020976D01*
X069948D01*
Y021156D01*
X069938Y021205D01*
X069910Y021247D01*
X069869Y021275D01*
X069820Y021284D01*
D02*
G37*
G36*
X069500D02*
X069280D01*
X069231Y021275D01*
X069190Y021247D01*
X069162Y021205D01*
X069152Y021156D01*
Y020976D01*
X069500D01*
Y021284D01*
D02*
G37*
G36*
X074620D02*
X074400D01*
Y020976D01*
X074748D01*
Y021156D01*
X074738Y021205D01*
X074710Y021247D01*
X074669Y021275D01*
X074620Y021284D01*
D02*
G37*
G36*
X074300D02*
X074080D01*
X074031Y021275D01*
X073990Y021247D01*
X073962Y021205D01*
X073952Y021156D01*
Y020976D01*
X074300D01*
Y021284D01*
D02*
G37*
G36*
X073420D02*
X073200D01*
Y020976D01*
X073548D01*
Y021156D01*
X073538Y021205D01*
X073510Y021247D01*
X073469Y021275D01*
X073420Y021284D01*
D02*
G37*
G36*
X075300Y021094D02*
Y020950D01*
X075444D01*
X075438Y020978D01*
X075394Y021044D01*
X075328Y021088D01*
X075300Y021094D01*
D02*
G37*
G36*
X070210Y025575D02*
X069459D01*
Y024825D01*
X069651D01*
Y023650D01*
X069420Y023420D01*
X069380Y023360D01*
X069378Y023349D01*
X069366Y023290D01*
Y022012D01*
X069280D01*
X069239Y022004D01*
X069204Y021980D01*
X069181Y021946D01*
X069173Y021904D01*
Y021444D01*
X069181Y021403D01*
X069204Y021368D01*
X069239Y021344D01*
X069280Y021336D01*
X069820D01*
X069861Y021344D01*
X069896Y021368D01*
X069919Y021403D01*
X069927Y021444D01*
Y021490D01*
X070126D01*
Y021010D01*
X070138Y020951D01*
X070140Y020940D01*
X070180Y020880D01*
X070270Y020790D01*
X070330Y020750D01*
X070341Y020748D01*
X070400Y020736D01*
X070418D01*
Y020730D01*
X071058D01*
Y021090D01*
X071078D01*
Y021250D01*
X070738D01*
Y021350D01*
X071078D01*
Y021510D01*
X071058D01*
Y021864D01*
X070418D01*
Y021858D01*
X069927D01*
Y021904D01*
X069919Y021946D01*
X069896Y021980D01*
X069861Y022004D01*
X069820Y022012D01*
X069734D01*
Y023214D01*
X069964Y023444D01*
X069991Y023484D01*
X070004Y023504D01*
X070018Y023574D01*
Y024825D01*
X070210D01*
Y025575D01*
D02*
G37*
G36*
X075444Y020850D02*
X075300D01*
Y020706D01*
X075328Y020712D01*
X075394Y020756D01*
X075438Y020822D01*
X075444Y020850D01*
D02*
G37*
G36*
X075200D02*
X075056D01*
X075062Y020822D01*
X075106Y020756D01*
X075172Y020712D01*
X075200Y020706D01*
Y020850D01*
D02*
G37*
G36*
Y021094D02*
X075172Y021088D01*
X075106Y021044D01*
X075062Y020978D01*
X075056Y020950D01*
X075200D01*
Y021094D01*
D02*
G37*
G36*
X060600Y021252D02*
Y020850D01*
X061002D01*
X060993Y020919D01*
X060947Y021029D01*
X060874Y021124D01*
X060779Y021197D01*
X060669Y021243D01*
X060600Y021252D01*
D02*
G37*
G36*
X060500D02*
X060431Y021243D01*
X060321Y021197D01*
X060226Y021124D01*
X060153Y021029D01*
X060107Y020919D01*
X060098Y020850D01*
X060500D01*
Y021252D01*
D02*
G37*
G36*
X063545Y014200D02*
X063067D01*
X063074Y014165D01*
X063123Y014093D01*
X063195Y014045D01*
X063280Y014028D01*
X063545D01*
Y014200D01*
D02*
G37*
G36*
X078750Y014633D02*
X078651Y014620D01*
X078558Y014582D01*
X078479Y014521D01*
X078418Y014442D01*
X078380Y014349D01*
X078367Y014250D01*
X078380Y014151D01*
X078418Y014058D01*
X078479Y013979D01*
X078558Y013918D01*
X078651Y013880D01*
X078750Y013867D01*
X078849Y013880D01*
X078942Y013918D01*
X079021Y013979D01*
X079082Y014058D01*
X079120Y014151D01*
X079133Y014250D01*
X079120Y014349D01*
X079082Y014442D01*
X079021Y014521D01*
X078942Y014582D01*
X078849Y014620D01*
X078750Y014633D01*
D02*
G37*
G36*
X077500D02*
X077401Y014620D01*
X077308Y014582D01*
X077229Y014521D01*
X077168Y014442D01*
X077130Y014349D01*
X077117Y014250D01*
X077130Y014151D01*
X077168Y014058D01*
X077229Y013979D01*
X077308Y013918D01*
X077401Y013880D01*
X077500Y013867D01*
X077599Y013880D01*
X077692Y013918D01*
X077771Y013979D01*
X077832Y014058D01*
X077870Y014151D01*
X077883Y014250D01*
X077870Y014349D01*
X077832Y014442D01*
X077771Y014521D01*
X077692Y014582D01*
X077599Y014620D01*
X077500Y014633D01*
D02*
G37*
G36*
X056324Y014240D02*
X056180D01*
Y014096D01*
X056208Y014102D01*
X056274Y014146D01*
X056318Y014212D01*
X056324Y014240D01*
D02*
G37*
G36*
X056080D02*
X055936D01*
X055942Y014212D01*
X055986Y014146D01*
X056052Y014102D01*
X056080Y014096D01*
Y014240D01*
D02*
G37*
G36*
X064122Y014200D02*
X063645D01*
Y014028D01*
X063910D01*
X063995Y014045D01*
X064067Y014093D01*
X064115Y014165D01*
X064122Y014200D01*
D02*
G37*
G36*
X076250Y014633D02*
X076151Y014620D01*
X076058Y014582D01*
X075979Y014521D01*
X075918Y014442D01*
X075880Y014349D01*
X075867Y014250D01*
X075880Y014151D01*
X075918Y014058D01*
X075979Y013979D01*
X076058Y013918D01*
X076151Y013880D01*
X076250Y013867D01*
X076349Y013880D01*
X076442Y013918D01*
X076521Y013979D01*
X076582Y014058D01*
X076620Y014151D01*
X076633Y014250D01*
X076620Y014349D01*
X076582Y014442D01*
X076521Y014521D01*
X076442Y014582D01*
X076349Y014620D01*
X076250Y014633D01*
D02*
G37*
G36*
X062020Y013452D02*
X061390D01*
X061313Y013437D01*
X061247Y013393D01*
X061240Y013383D01*
X060405D01*
X060405Y013383D01*
X060354Y013372D01*
X060311Y013344D01*
X059995Y013027D01*
X059096D01*
Y013162D01*
X058404D01*
Y012628D01*
X059096D01*
Y012762D01*
X060050D01*
X060101Y012772D01*
X060144Y012801D01*
X060460Y013117D01*
X061240D01*
X061247Y013107D01*
X061313Y013063D01*
X061390Y013048D01*
X062020D01*
X062097Y013063D01*
X062163Y013107D01*
X062212Y013091D01*
X062212Y013090D01*
Y012346D01*
X062078D01*
Y011654D01*
X062612D01*
Y012346D01*
X062477D01*
Y013145D01*
X062467Y013196D01*
X062439Y013239D01*
X062334Y013344D01*
X062291Y013372D01*
X062240Y013383D01*
X062170D01*
X062163Y013393D01*
X062097Y013437D01*
X062020Y013452D01*
D02*
G37*
G36*
X059020Y014864D02*
X058480D01*
X058439Y014856D01*
X058404Y014832D01*
X058381Y014797D01*
X058373Y014756D01*
Y014296D01*
X058381Y014254D01*
X058404Y014220D01*
X058439Y014196D01*
X058480Y014188D01*
X058617D01*
Y013772D01*
X058404D01*
Y013238D01*
X059096D01*
Y013772D01*
X058883D01*
Y014188D01*
X059020D01*
X059061Y014196D01*
X059096Y014220D01*
X059119Y014254D01*
X059127Y014296D01*
Y014756D01*
X059119Y014797D01*
X059096Y014832D01*
X059061Y014856D01*
X059020Y014864D01*
D02*
G37*
G36*
X078750Y013383D02*
X078651Y013370D01*
X078558Y013332D01*
X078479Y013271D01*
X078418Y013192D01*
X078380Y013099D01*
X078367Y013000D01*
X078380Y012901D01*
X078418Y012808D01*
X078479Y012729D01*
X078558Y012668D01*
X078651Y012630D01*
X078750Y012617D01*
X078849Y012630D01*
X078942Y012668D01*
X079021Y012729D01*
X079082Y012808D01*
X079120Y012901D01*
X079133Y013000D01*
X079120Y013099D01*
X079082Y013192D01*
X079021Y013271D01*
X078942Y013332D01*
X078849Y013370D01*
X078750Y013383D01*
D02*
G37*
G36*
X075000Y014633D02*
X074901Y014620D01*
X074808Y014582D01*
X074729Y014521D01*
X074668Y014442D01*
X074630Y014349D01*
X074617Y014250D01*
X074630Y014151D01*
X074668Y014058D01*
X074729Y013979D01*
X074808Y013918D01*
X074901Y013880D01*
X075000Y013867D01*
X075099Y013880D01*
X075192Y013918D01*
X075271Y013979D01*
X075332Y014058D01*
X075370Y014151D01*
X075383Y014250D01*
X075370Y014349D01*
X075332Y014442D01*
X075271Y014521D01*
X075192Y014582D01*
X075099Y014620D01*
X075000Y014633D01*
D02*
G37*
G36*
X073750D02*
X073651Y014620D01*
X073558Y014582D01*
X073479Y014521D01*
X073418Y014442D01*
X073380Y014349D01*
X073367Y014250D01*
X073380Y014151D01*
X073418Y014058D01*
X073479Y013979D01*
X073558Y013918D01*
X073651Y013880D01*
X073750Y013867D01*
X073849Y013880D01*
X073942Y013918D01*
X074021Y013979D01*
X074082Y014058D01*
X074120Y014151D01*
X074133Y014250D01*
X074120Y014349D01*
X074082Y014442D01*
X074021Y014521D01*
X073942Y014582D01*
X073849Y014620D01*
X073750Y014633D01*
D02*
G37*
G36*
X060220Y014864D02*
X059680D01*
X059639Y014856D01*
X059604Y014832D01*
X059581Y014797D01*
X059573Y014756D01*
Y014296D01*
X059581Y014254D01*
X059604Y014220D01*
X059639Y014196D01*
X059680Y014188D01*
X060220D01*
X060261Y014196D01*
X060296Y014220D01*
X060319Y014254D01*
X060327Y014296D01*
Y014393D01*
X060625D01*
X060862Y014156D01*
X060905Y014128D01*
X060956Y014117D01*
X061240D01*
X061247Y014107D01*
X061313Y014063D01*
X061390Y014048D01*
X061573D01*
Y013952D01*
X061390D01*
X061313Y013937D01*
X061247Y013893D01*
X061204Y013827D01*
X061188Y013750D01*
X061204Y013673D01*
X061247Y013607D01*
X061313Y013563D01*
X061390Y013548D01*
X062020D01*
X062097Y013563D01*
X062163Y013607D01*
X062207Y013673D01*
X062222Y013750D01*
X062207Y013827D01*
X062163Y013893D01*
X062097Y013937D01*
X062020Y013952D01*
X061838D01*
Y014048D01*
X062020D01*
X062097Y014063D01*
X062163Y014107D01*
X062207Y014173D01*
X062222Y014250D01*
X062207Y014327D01*
X062163Y014393D01*
X062097Y014437D01*
X062020Y014452D01*
X061390D01*
X061313Y014437D01*
X061247Y014393D01*
X061240Y014383D01*
X061011D01*
X060774Y014620D01*
X060731Y014648D01*
X060680Y014659D01*
X060327D01*
Y014756D01*
X060319Y014797D01*
X060296Y014832D01*
X060261Y014856D01*
X060220Y014864D01*
D02*
G37*
G36*
X065300Y014424D02*
X064952D01*
Y014244D01*
X064962Y014195D01*
X064990Y014153D01*
X065031Y014125D01*
X065080Y014116D01*
X065300D01*
Y014424D01*
D02*
G37*
G36*
X064490Y014504D02*
X064462Y014498D01*
X064396Y014454D01*
X064352Y014388D01*
X064346Y014360D01*
X064490D01*
Y014504D01*
D02*
G37*
G36*
X056180Y014484D02*
Y014340D01*
X056324D01*
X056318Y014368D01*
X056274Y014434D01*
X056208Y014478D01*
X056180Y014484D01*
D02*
G37*
G36*
X056080D02*
X056052Y014478D01*
X055986Y014434D01*
X055942Y014368D01*
X055936Y014340D01*
X056080D01*
Y014484D01*
D02*
G37*
G36*
X067180Y014534D02*
Y014390D01*
X067324D01*
X067318Y014418D01*
X067274Y014484D01*
X067208Y014528D01*
X067180Y014534D01*
D02*
G37*
G36*
X067080D02*
X067052Y014528D01*
X066986Y014484D01*
X066942Y014418D01*
X066936Y014390D01*
X067080D01*
Y014534D01*
D02*
G37*
G36*
X064590Y014504D02*
Y014360D01*
X064734D01*
X064728Y014388D01*
X064684Y014454D01*
X064618Y014498D01*
X064590Y014504D01*
D02*
G37*
G36*
X063910Y014472D02*
X063645D01*
Y014300D01*
X064122D01*
X064115Y014335D01*
X064067Y014407D01*
X063995Y014455D01*
X063910Y014472D01*
D02*
G37*
G36*
X064734Y014260D02*
X064590D01*
Y014116D01*
X064618Y014122D01*
X064684Y014166D01*
X064728Y014232D01*
X064734Y014260D01*
D02*
G37*
G36*
X064490D02*
X064346D01*
X064352Y014232D01*
X064396Y014166D01*
X064462Y014122D01*
X064490Y014116D01*
Y014260D01*
D02*
G37*
G36*
X065748Y014424D02*
X065400D01*
Y014116D01*
X065620D01*
X065669Y014125D01*
X065710Y014153D01*
X065738Y014195D01*
X065748Y014244D01*
Y014424D01*
D02*
G37*
G36*
X063545Y014472D02*
X063280D01*
X063195Y014455D01*
X063123Y014407D01*
X063074Y014335D01*
X063067Y014300D01*
X063545D01*
Y014472D01*
D02*
G37*
G36*
X067324Y014290D02*
X067180D01*
Y014146D01*
X067208Y014152D01*
X067274Y014196D01*
X067318Y014262D01*
X067324Y014290D01*
D02*
G37*
G36*
X067080D02*
X066936D01*
X066942Y014262D01*
X066986Y014196D01*
X067052Y014152D01*
X067080Y014146D01*
Y014290D01*
D02*
G37*
G36*
X077500Y013383D02*
X077401Y013370D01*
X077308Y013332D01*
X077229Y013271D01*
X077168Y013192D01*
X077130Y013099D01*
X077117Y013000D01*
X077130Y012901D01*
X077168Y012808D01*
X077229Y012729D01*
X077308Y012668D01*
X077401Y012630D01*
X077500Y012617D01*
X077599Y012630D01*
X077692Y012668D01*
X077771Y012729D01*
X077832Y012808D01*
X077870Y012901D01*
X077883Y013000D01*
X077870Y013099D01*
X077832Y013192D01*
X077771Y013271D01*
X077692Y013332D01*
X077599Y013370D01*
X077500Y013383D01*
D02*
G37*
G36*
X058334Y012370D02*
X058190D01*
Y012226D01*
X058218Y012232D01*
X058284Y012276D01*
X058328Y012342D01*
X058334Y012370D01*
D02*
G37*
G36*
X058090D02*
X057946D01*
X057952Y012342D01*
X057996Y012276D01*
X058062Y012232D01*
X058090Y012226D01*
Y012370D01*
D02*
G37*
G36*
X077500Y012133D02*
X077401Y012120D01*
X077308Y012082D01*
X077229Y012021D01*
X077168Y011942D01*
X077130Y011849D01*
X077117Y011750D01*
X077130Y011651D01*
X077168Y011558D01*
X077229Y011479D01*
X077308Y011418D01*
X077401Y011380D01*
X077500Y011367D01*
X077599Y011380D01*
X077692Y011418D01*
X077771Y011479D01*
X077832Y011558D01*
X077870Y011651D01*
X077883Y011750D01*
X077870Y011849D01*
X077832Y011942D01*
X077771Y012021D01*
X077692Y012082D01*
X077599Y012120D01*
X077500Y012133D01*
D02*
G37*
G36*
X061650Y012400D02*
X061506D01*
X061512Y012372D01*
X061556Y012306D01*
X061622Y012262D01*
X061650Y012256D01*
Y012400D01*
D02*
G37*
G36*
X060124Y012390D02*
X059980D01*
Y012246D01*
X060008Y012252D01*
X060074Y012296D01*
X060118Y012362D01*
X060124Y012390D01*
D02*
G37*
G36*
X059880D02*
X059736D01*
X059742Y012362D01*
X059786Y012296D01*
X059852Y012252D01*
X059880Y012246D01*
Y012390D01*
D02*
G37*
G36*
X076250Y012133D02*
X076151Y012120D01*
X076058Y012082D01*
X075979Y012021D01*
X075918Y011942D01*
X075880Y011849D01*
X075867Y011750D01*
X075880Y011651D01*
X075918Y011558D01*
X075979Y011479D01*
X076058Y011418D01*
X076151Y011380D01*
X076250Y011367D01*
X076349Y011380D01*
X076442Y011418D01*
X076521Y011479D01*
X076582Y011558D01*
X076620Y011651D01*
X076633Y011750D01*
X076620Y011849D01*
X076582Y011942D01*
X076521Y012021D01*
X076442Y012082D01*
X076349Y012120D01*
X076250Y012133D01*
D02*
G37*
G36*
X067766Y010883D02*
X067667Y010870D01*
X067574Y010832D01*
X067495Y010771D01*
X067434Y010692D01*
X067396Y010599D01*
X067382Y010500D01*
X067396Y010401D01*
X067420Y010342D01*
X067306Y010227D01*
X066596D01*
Y010362D01*
X065904D01*
Y009828D01*
X066596D01*
Y009962D01*
X067361D01*
X067411Y009972D01*
X067454Y010001D01*
X067607Y010154D01*
X067667Y010130D01*
X067766Y010117D01*
X067865Y010130D01*
X067957Y010168D01*
X068037Y010229D01*
X068098Y010308D01*
X068136Y010401D01*
X068149Y010500D01*
X068136Y010599D01*
X068098Y010692D01*
X068037Y010771D01*
X067957Y010832D01*
X067865Y010870D01*
X067766Y010883D01*
D02*
G37*
G36*
X070131Y010450D02*
X069784D01*
Y010103D01*
X069839Y010110D01*
X069936Y010151D01*
X070020Y010215D01*
X070084Y010298D01*
X070124Y010396D01*
X070131Y010450D01*
D02*
G37*
G36*
X069684D02*
X069337D01*
X069345Y010396D01*
X069385Y010298D01*
X069449Y010215D01*
X069533Y010151D01*
X069630Y010110D01*
X069684Y010103D01*
Y010450D01*
D02*
G37*
G36*
X075000Y012133D02*
X074901Y012120D01*
X074808Y012082D01*
X074729Y012021D01*
X074668Y011942D01*
X074630Y011849D01*
X074617Y011750D01*
X074630Y011651D01*
X074668Y011558D01*
X074729Y011479D01*
X074808Y011418D01*
X074901Y011380D01*
X075000Y011367D01*
X075099Y011380D01*
X075192Y011418D01*
X075271Y011479D01*
X075332Y011558D01*
X075370Y011651D01*
X075383Y011750D01*
X075370Y011849D01*
X075332Y011942D01*
X075271Y012021D01*
X075192Y012082D01*
X075099Y012120D01*
X075000Y012133D01*
D02*
G37*
G36*
X069784Y010897D02*
Y010550D01*
X070131D01*
X070124Y010604D01*
X070084Y010702D01*
X070020Y010785D01*
X069936Y010849D01*
X069839Y010890D01*
X069784Y010897D01*
D02*
G37*
G36*
X069684D02*
X069630Y010890D01*
X069533Y010849D01*
X069449Y010785D01*
X069385Y010702D01*
X069345Y010604D01*
X069337Y010550D01*
X069684D01*
Y010897D01*
D02*
G37*
G36*
X061894Y012400D02*
X061750D01*
Y012256D01*
X061778Y012262D01*
X061844Y012306D01*
X061888Y012372D01*
X061894Y012400D01*
D02*
G37*
G36*
X063700Y012694D02*
Y012550D01*
X063844D01*
X063838Y012578D01*
X063794Y012644D01*
X063728Y012688D01*
X063700Y012694D01*
D02*
G37*
G36*
X063600D02*
X063572Y012688D01*
X063506Y012644D01*
X063462Y012578D01*
X063456Y012550D01*
X063600D01*
Y012694D01*
D02*
G37*
G36*
X061750Y012644D02*
Y012500D01*
X061894D01*
X061888Y012528D01*
X061844Y012594D01*
X061778Y012638D01*
X061750Y012644D01*
D02*
G37*
G36*
X076250Y013383D02*
X076151Y013370D01*
X076058Y013332D01*
X075979Y013271D01*
X075918Y013192D01*
X075880Y013099D01*
X075867Y013000D01*
X075880Y012901D01*
X075918Y012808D01*
X075979Y012729D01*
X076058Y012668D01*
X076151Y012630D01*
X076250Y012617D01*
X076349Y012630D01*
X076442Y012668D01*
X076521Y012729D01*
X076582Y012808D01*
X076620Y012901D01*
X076633Y013000D01*
X076620Y013099D01*
X076582Y013192D01*
X076521Y013271D01*
X076442Y013332D01*
X076349Y013370D01*
X076250Y013383D01*
D02*
G37*
G36*
X075000D02*
X074901Y013370D01*
X074808Y013332D01*
X074729Y013271D01*
X074668Y013192D01*
X074630Y013099D01*
X074617Y013000D01*
X074630Y012901D01*
X074668Y012808D01*
X074729Y012729D01*
X074808Y012668D01*
X074901Y012630D01*
X075000Y012617D01*
X075099Y012630D01*
X075192Y012668D01*
X075271Y012729D01*
X075332Y012808D01*
X075370Y012901D01*
X075383Y013000D01*
X075370Y013099D01*
X075332Y013192D01*
X075271Y013271D01*
X075192Y013332D01*
X075099Y013370D01*
X075000Y013383D01*
D02*
G37*
G36*
X073750D02*
X073651Y013370D01*
X073558Y013332D01*
X073479Y013271D01*
X073418Y013192D01*
X073380Y013099D01*
X073367Y013000D01*
X073380Y012901D01*
X073418Y012808D01*
X073479Y012729D01*
X073558Y012668D01*
X073651Y012630D01*
X073750Y012617D01*
X073849Y012630D01*
X073942Y012668D01*
X074021Y012729D01*
X074082Y012808D01*
X074120Y012901D01*
X074133Y013000D01*
X074120Y013099D01*
X074082Y013192D01*
X074021Y013271D01*
X073942Y013332D01*
X073849Y013370D01*
X073750Y013383D01*
D02*
G37*
G36*
X061650Y012644D02*
X061622Y012638D01*
X061556Y012594D01*
X061512Y012528D01*
X061506Y012500D01*
X061650D01*
Y012644D01*
D02*
G37*
G36*
X058090Y012614D02*
X058062Y012608D01*
X057996Y012564D01*
X057952Y012498D01*
X057946Y012470D01*
X058090D01*
Y012614D01*
D02*
G37*
G36*
X063844Y012450D02*
X063700D01*
Y012306D01*
X063728Y012312D01*
X063794Y012356D01*
X063838Y012422D01*
X063844Y012450D01*
D02*
G37*
G36*
X063600D02*
X063456D01*
X063462Y012422D01*
X063506Y012356D01*
X063572Y012312D01*
X063600Y012306D01*
Y012450D01*
D02*
G37*
G36*
X059980Y012634D02*
Y012490D01*
X060124D01*
X060118Y012518D01*
X060074Y012584D01*
X060008Y012628D01*
X059980Y012634D01*
D02*
G37*
G36*
X059880D02*
X059852Y012628D01*
X059786Y012584D01*
X059742Y012518D01*
X059736Y012490D01*
X059880D01*
Y012634D01*
D02*
G37*
G36*
X058190Y012614D02*
Y012470D01*
X058334D01*
X058328Y012498D01*
X058284Y012564D01*
X058218Y012608D01*
X058190Y012614D01*
D02*
G37*
G36*
X065300Y014832D02*
X065080D01*
X065031Y014823D01*
X064990Y014795D01*
X064962Y014753D01*
X064952Y014704D01*
Y014524D01*
X065300D01*
Y014832D01*
D02*
G37*
G36*
X063600Y016174D02*
Y016030D01*
X063744D01*
X063738Y016058D01*
X063694Y016124D01*
X063628Y016168D01*
X063600Y016174D01*
D02*
G37*
G36*
X063500D02*
X063472Y016168D01*
X063406Y016124D01*
X063362Y016058D01*
X063356Y016030D01*
X063500D01*
Y016174D01*
D02*
G37*
G36*
X061790Y016154D02*
Y016010D01*
X061934D01*
X061928Y016038D01*
X061884Y016104D01*
X061818Y016148D01*
X061790Y016154D01*
D02*
G37*
G36*
X075000Y017133D02*
X074901Y017120D01*
X074808Y017082D01*
X074729Y017021D01*
X074668Y016942D01*
X074630Y016849D01*
X074617Y016750D01*
X074630Y016651D01*
X074668Y016558D01*
X074729Y016479D01*
X074808Y016418D01*
X074901Y016380D01*
X075000Y016367D01*
X075099Y016380D01*
X075192Y016418D01*
X075271Y016479D01*
X075332Y016558D01*
X075370Y016651D01*
X075383Y016750D01*
X075370Y016849D01*
X075332Y016942D01*
X075271Y017021D01*
X075192Y017082D01*
X075099Y017120D01*
X075000Y017133D01*
D02*
G37*
G36*
X065250Y016194D02*
Y016050D01*
X065394D01*
X065388Y016078D01*
X065344Y016144D01*
X065278Y016188D01*
X065250Y016194D01*
D02*
G37*
G36*
X065150D02*
X065122Y016188D01*
X065056Y016144D01*
X065012Y016078D01*
X065006Y016050D01*
X065150D01*
Y016194D01*
D02*
G37*
G36*
X061690Y016154D02*
X061662Y016148D01*
X061596Y016104D01*
X061552Y016038D01*
X061546Y016010D01*
X061690D01*
Y016154D01*
D02*
G37*
G36*
X057510Y016134D02*
X057482Y016128D01*
X057416Y016084D01*
X057372Y016018D01*
X057366Y015990D01*
X057510D01*
Y016134D01*
D02*
G37*
G36*
X065394Y015950D02*
X065250D01*
Y015806D01*
X065278Y015812D01*
X065344Y015856D01*
X065388Y015922D01*
X065394Y015950D01*
D02*
G37*
G36*
X065150D02*
X065006D01*
X065012Y015922D01*
X065056Y015856D01*
X065122Y015812D01*
X065150Y015806D01*
Y015950D01*
D02*
G37*
G36*
X060010Y016134D02*
Y015990D01*
X060154D01*
X060148Y016018D01*
X060104Y016084D01*
X060038Y016128D01*
X060010Y016134D01*
D02*
G37*
G36*
X059910D02*
X059882Y016128D01*
X059816Y016084D01*
X059772Y016018D01*
X059766Y015990D01*
X059910D01*
Y016134D01*
D02*
G37*
G36*
X057610D02*
Y015990D01*
X057754D01*
X057748Y016018D01*
X057704Y016084D01*
X057638Y016128D01*
X057610Y016134D01*
D02*
G37*
G36*
X076250Y017133D02*
X076151Y017120D01*
X076058Y017082D01*
X075979Y017021D01*
X075918Y016942D01*
X075880Y016849D01*
X075867Y016750D01*
X075880Y016651D01*
X075918Y016558D01*
X075979Y016479D01*
X076058Y016418D01*
X076151Y016380D01*
X076250Y016367D01*
X076349Y016380D01*
X076442Y016418D01*
X076521Y016479D01*
X076582Y016558D01*
X076620Y016651D01*
X076633Y016750D01*
X076620Y016849D01*
X076582Y016942D01*
X076521Y017021D01*
X076442Y017082D01*
X076349Y017120D01*
X076250Y017133D01*
D02*
G37*
G36*
X056800Y018686D02*
X056676Y018674D01*
X056509Y018623D01*
X056355Y018541D01*
X056219Y018430D01*
X056109Y018295D01*
X056026Y018141D01*
X055975Y017974D01*
X055963Y017850D01*
X056800D01*
Y018686D01*
D02*
G37*
G36*
X055727Y017800D02*
X055583D01*
Y017656D01*
X055611Y017661D01*
X055678Y017705D01*
X055722Y017772D01*
X055727Y017800D01*
D02*
G37*
G36*
X055483D02*
X055339D01*
X055345Y017772D01*
X055389Y017705D01*
X055455Y017661D01*
X055483Y017656D01*
Y017800D01*
D02*
G37*
G36*
X055583Y018044D02*
Y017900D01*
X055727D01*
X055722Y017928D01*
X055678Y017994D01*
X055611Y018038D01*
X055583Y018044D01*
D02*
G37*
G36*
X055483D02*
X055455Y018038D01*
X055389Y017994D01*
X055345Y017928D01*
X055339Y017900D01*
X055483D01*
Y018044D01*
D02*
G37*
G36*
X056900Y018686D02*
Y017850D01*
X057737D01*
X057725Y017974D01*
X057674Y018141D01*
X057591Y018295D01*
X057481Y018430D01*
X057345Y018541D01*
X057191Y018623D01*
X057024Y018674D01*
X056900Y018686D01*
D02*
G37*
G36*
X055900Y017094D02*
Y016950D01*
X056044D01*
X056038Y016978D01*
X055994Y017044D01*
X055928Y017088D01*
X055900Y017094D01*
D02*
G37*
G36*
X056044Y016850D02*
X055900D01*
Y016706D01*
X055928Y016712D01*
X055994Y016756D01*
X056038Y016822D01*
X056044Y016850D01*
D02*
G37*
G36*
X055800D02*
X055656D01*
X055662Y016822D01*
X055706Y016756D01*
X055772Y016712D01*
X055800Y016706D01*
Y016850D01*
D02*
G37*
G36*
X077500Y017133D02*
X077401Y017120D01*
X077308Y017082D01*
X077229Y017021D01*
X077168Y016942D01*
X077130Y016849D01*
X077117Y016750D01*
X077130Y016651D01*
X077168Y016558D01*
X077229Y016479D01*
X077308Y016418D01*
X077401Y016380D01*
X077500Y016367D01*
X077599Y016380D01*
X077692Y016418D01*
X077771Y016479D01*
X077832Y016558D01*
X077870Y016651D01*
X077883Y016750D01*
X077870Y016849D01*
X077832Y016942D01*
X077771Y017021D01*
X077692Y017082D01*
X077599Y017120D01*
X077500Y017133D01*
D02*
G37*
G36*
X055800Y017094D02*
X055772Y017088D01*
X055706Y017044D01*
X055662Y016978D01*
X055656Y016950D01*
X055800D01*
Y017094D01*
D02*
G37*
G36*
X057737Y017750D02*
X056900D01*
Y016913D01*
X057024Y016925D01*
X057191Y016976D01*
X057345Y017058D01*
X057481Y017169D01*
X057591Y017304D01*
X057674Y017458D01*
X057725Y017626D01*
X057737Y017750D01*
D02*
G37*
G36*
X056800D02*
X055963D01*
X055975Y017626D01*
X056026Y017458D01*
X056109Y017304D01*
X056219Y017169D01*
X056355Y017058D01*
X056509Y016976D01*
X056676Y016925D01*
X056800Y016913D01*
Y017750D01*
D02*
G37*
G36*
X063744Y015930D02*
X063600D01*
Y015786D01*
X063628Y015792D01*
X063694Y015836D01*
X063738Y015902D01*
X063744Y015930D01*
D02*
G37*
G36*
X075000Y015883D02*
X074901Y015870D01*
X074808Y015832D01*
X074729Y015771D01*
X074668Y015692D01*
X074630Y015599D01*
X074617Y015500D01*
X074630Y015401D01*
X074668Y015308D01*
X074729Y015229D01*
X074808Y015168D01*
X074901Y015130D01*
X075000Y015117D01*
X075099Y015130D01*
X075192Y015168D01*
X075271Y015229D01*
X075332Y015308D01*
X075370Y015401D01*
X075383Y015500D01*
X075370Y015599D01*
X075332Y015692D01*
X075271Y015771D01*
X075192Y015832D01*
X075099Y015870D01*
X075000Y015883D01*
D02*
G37*
G36*
X073750D02*
X073651Y015870D01*
X073558Y015832D01*
X073479Y015771D01*
X073418Y015692D01*
X073380Y015599D01*
X073367Y015500D01*
X073380Y015401D01*
X073418Y015308D01*
X073479Y015229D01*
X073558Y015168D01*
X073651Y015130D01*
X073750Y015117D01*
X073849Y015130D01*
X073942Y015168D01*
X074021Y015229D01*
X074082Y015308D01*
X074120Y015401D01*
X074133Y015500D01*
X074120Y015599D01*
X074082Y015692D01*
X074021Y015771D01*
X073942Y015832D01*
X073849Y015870D01*
X073750Y015883D01*
D02*
G37*
G36*
X059020Y015612D02*
X058480D01*
X058439Y015604D01*
X058404Y015580D01*
X058381Y015546D01*
X058373Y015504D01*
Y015316D01*
X057892Y014835D01*
X057861Y014856D01*
X057820Y014864D01*
X057280D01*
X057239Y014856D01*
X057204Y014832D01*
X057181Y014797D01*
X057173Y014756D01*
Y014296D01*
X057181Y014254D01*
X057204Y014220D01*
X057239Y014196D01*
X057280Y014188D01*
X057417D01*
Y013772D01*
X057204D01*
Y013238D01*
X057896D01*
Y013772D01*
X057683D01*
Y014188D01*
X057820D01*
X057861Y014196D01*
X057896Y014220D01*
X057919Y014254D01*
X057927Y014296D01*
Y014496D01*
X058400Y014968D01*
X058404Y014968D01*
X058439Y014944D01*
X058480Y014936D01*
X059020D01*
X059061Y014944D01*
X059096Y014968D01*
X059119Y015003D01*
X059127Y015044D01*
Y015504D01*
X059119Y015546D01*
X059096Y015580D01*
X059061Y015604D01*
X059020Y015612D01*
D02*
G37*
G36*
X078750Y015883D02*
X078651Y015870D01*
X078558Y015832D01*
X078479Y015771D01*
X078418Y015692D01*
X078380Y015599D01*
X078367Y015500D01*
X078380Y015401D01*
X078418Y015308D01*
X078479Y015229D01*
X078558Y015168D01*
X078651Y015130D01*
X078750Y015117D01*
X078849Y015130D01*
X078942Y015168D01*
X079021Y015229D01*
X079082Y015308D01*
X079120Y015401D01*
X079133Y015500D01*
X079120Y015599D01*
X079082Y015692D01*
X079021Y015771D01*
X078942Y015832D01*
X078849Y015870D01*
X078750Y015883D01*
D02*
G37*
G36*
X077500D02*
X077401Y015870D01*
X077308Y015832D01*
X077229Y015771D01*
X077168Y015692D01*
X077130Y015599D01*
X077117Y015500D01*
X077130Y015401D01*
X077168Y015308D01*
X077229Y015229D01*
X077308Y015168D01*
X077401Y015130D01*
X077500Y015117D01*
X077599Y015130D01*
X077692Y015168D01*
X077771Y015229D01*
X077832Y015308D01*
X077870Y015401D01*
X077883Y015500D01*
X077870Y015599D01*
X077832Y015692D01*
X077771Y015771D01*
X077692Y015832D01*
X077599Y015870D01*
X077500Y015883D01*
D02*
G37*
G36*
X076250D02*
X076151Y015870D01*
X076058Y015832D01*
X075979Y015771D01*
X075918Y015692D01*
X075880Y015599D01*
X075867Y015500D01*
X075880Y015401D01*
X075918Y015308D01*
X075979Y015229D01*
X076058Y015168D01*
X076151Y015130D01*
X076250Y015117D01*
X076349Y015130D01*
X076442Y015168D01*
X076521Y015229D01*
X076582Y015308D01*
X076620Y015401D01*
X076633Y015500D01*
X076620Y015599D01*
X076582Y015692D01*
X076521Y015771D01*
X076442Y015832D01*
X076349Y015870D01*
X076250Y015883D01*
D02*
G37*
G36*
X060348Y015224D02*
X060000D01*
Y014916D01*
X060220D01*
X060269Y014925D01*
X060310Y014953D01*
X060338Y014995D01*
X060348Y015044D01*
Y015224D01*
D02*
G37*
G36*
X069162Y015050D02*
X068800D01*
Y014688D01*
X068858Y014696D01*
X068959Y014738D01*
X069046Y014804D01*
X069112Y014891D01*
X069154Y014992D01*
X069162Y015050D01*
D02*
G37*
G36*
X068700D02*
X068338D01*
X068346Y014992D01*
X068388Y014891D01*
X068454Y014804D01*
X068541Y014738D01*
X068642Y014696D01*
X068700Y014688D01*
Y015050D01*
D02*
G37*
G36*
X065620Y014832D02*
X065400D01*
Y014524D01*
X065748D01*
Y014704D01*
X065738Y014753D01*
X065710Y014795D01*
X065669Y014823D01*
X065620Y014832D01*
D02*
G37*
G36*
X059900Y015224D02*
X059552D01*
Y015044D01*
X059562Y014995D01*
X059590Y014953D01*
X059631Y014925D01*
X059680Y014916D01*
X059900D01*
Y015224D01*
D02*
G37*
G36*
X057948D02*
X057600D01*
Y014916D01*
X057820D01*
X057869Y014925D01*
X057910Y014953D01*
X057938Y014995D01*
X057948Y015044D01*
Y015224D01*
D02*
G37*
G36*
X057500D02*
X057152D01*
Y015044D01*
X057162Y014995D01*
X057190Y014953D01*
X057231Y014925D01*
X057280Y014916D01*
X057500D01*
Y015224D01*
D02*
G37*
G36*
X068700Y015512D02*
X068642Y015504D01*
X068541Y015462D01*
X068454Y015396D01*
X068388Y015309D01*
X068346Y015208D01*
X068338Y015150D01*
X068700D01*
Y015512D01*
D02*
G37*
G36*
X060154Y015890D02*
X060010D01*
Y015746D01*
X060038Y015752D01*
X060104Y015796D01*
X060148Y015862D01*
X060154Y015890D01*
D02*
G37*
G36*
X059910D02*
X059766D01*
X059772Y015862D01*
X059816Y015796D01*
X059882Y015752D01*
X059910Y015746D01*
Y015890D01*
D02*
G37*
G36*
X057754D02*
X057610D01*
Y015746D01*
X057638Y015752D01*
X057704Y015796D01*
X057748Y015862D01*
X057754Y015890D01*
D02*
G37*
G36*
X063500Y015930D02*
X063356D01*
X063362Y015902D01*
X063406Y015836D01*
X063472Y015792D01*
X063500Y015786D01*
Y015930D01*
D02*
G37*
G36*
X061934Y015910D02*
X061790D01*
Y015766D01*
X061818Y015772D01*
X061884Y015816D01*
X061928Y015882D01*
X061934Y015910D01*
D02*
G37*
G36*
X061690D02*
X061546D01*
X061552Y015882D01*
X061596Y015816D01*
X061662Y015772D01*
X061690Y015766D01*
Y015910D01*
D02*
G37*
G36*
X057510Y015890D02*
X057366D01*
X057372Y015862D01*
X057416Y015796D01*
X057482Y015752D01*
X057510Y015746D01*
Y015890D01*
D02*
G37*
G36*
X057820Y015632D02*
X057600D01*
Y015324D01*
X057948D01*
Y015504D01*
X057938Y015553D01*
X057910Y015595D01*
X057869Y015623D01*
X057820Y015632D01*
D02*
G37*
G36*
X057500D02*
X057280D01*
X057231Y015623D01*
X057190Y015595D01*
X057162Y015553D01*
X057152Y015504D01*
Y015324D01*
X057500D01*
Y015632D01*
D02*
G37*
G36*
X068800Y015512D02*
Y015150D01*
X069162D01*
X069154Y015208D01*
X069112Y015309D01*
X069046Y015396D01*
X068959Y015462D01*
X068858Y015504D01*
X068800Y015512D01*
D02*
G37*
G36*
X069112Y018146D02*
X068578D01*
Y017454D01*
X068712D01*
Y017050D01*
X068656Y016994D01*
X068628Y016951D01*
X068617Y016900D01*
Y016473D01*
X068551Y016445D01*
X068468Y016382D01*
X068405Y016299D01*
X068365Y016203D01*
X068352Y016100D01*
X068365Y015997D01*
X068405Y015901D01*
X068468Y015818D01*
X068551Y015755D01*
X068647Y015715D01*
X068750Y015702D01*
X068853Y015715D01*
X068949Y015755D01*
X069032Y015818D01*
X069095Y015901D01*
X069135Y015997D01*
X069148Y016100D01*
X069135Y016203D01*
X069095Y016299D01*
X069032Y016382D01*
X068949Y016445D01*
X068883Y016473D01*
Y016845D01*
X068939Y016901D01*
X068967Y016944D01*
X068977Y016995D01*
Y017454D01*
X069112D01*
Y018146D01*
D02*
G37*
G36*
X060220Y015632D02*
X060000D01*
Y015324D01*
X060348D01*
Y015504D01*
X060338Y015553D01*
X060310Y015595D01*
X060269Y015623D01*
X060220Y015632D01*
D02*
G37*
G36*
X059900D02*
X059680D01*
X059631Y015623D01*
X059590Y015595D01*
X059562Y015553D01*
X059552Y015504D01*
Y015324D01*
X059900D01*
Y015632D01*
D02*
G37*
G36*
X080293Y023600D02*
X079875D01*
Y023428D01*
X080081D01*
X080166Y023445D01*
X080238Y023493D01*
X080286Y023565D01*
X080293Y023600D01*
D02*
G37*
G36*
X082794Y035500D02*
X082650D01*
Y035356D01*
X082678Y035362D01*
X082744Y035406D01*
X082788Y035472D01*
X082794Y035500D01*
D02*
G37*
G36*
X082550D02*
X082406D01*
X082412Y035472D01*
X082456Y035406D01*
X082522Y035362D01*
X082550Y035356D01*
Y035500D01*
D02*
G37*
G36*
Y035744D02*
X082522Y035738D01*
X082456Y035694D01*
X082412Y035628D01*
X082406Y035600D01*
X082550D01*
Y035744D01*
D02*
G37*
G36*
X068600Y044913D02*
X068546Y044905D01*
X068448Y044865D01*
X068365Y044801D01*
X068301Y044717D01*
X068260Y044620D01*
X068253Y044566D01*
X068600D01*
Y044913D01*
D02*
G37*
G36*
X083950Y034944D02*
X083922Y034938D01*
X083856Y034894D01*
X083812Y034828D01*
X083806Y034800D01*
X083950D01*
Y034944D01*
D02*
G37*
G36*
X084194Y034700D02*
X084050D01*
Y034556D01*
X084078Y034562D01*
X084144Y034606D01*
X084188Y034672D01*
X084194Y034700D01*
D02*
G37*
G36*
X068700Y044913D02*
Y044566D01*
X069047D01*
X069040Y044620D01*
X068999Y044717D01*
X068935Y044801D01*
X068852Y044865D01*
X068754Y044905D01*
X068700Y044913D01*
D02*
G37*
G36*
X084050Y034944D02*
Y034800D01*
X084194D01*
X084188Y034828D01*
X084144Y034894D01*
X084078Y034938D01*
X084050Y034944D01*
D02*
G37*
G36*
X059054Y043498D02*
X058874D01*
Y043150D01*
X059182D01*
Y043370D01*
X059173Y043419D01*
X059145Y043460D01*
X059103Y043488D01*
X059054Y043498D01*
D02*
G37*
G36*
X086005Y036608D02*
X085057D01*
Y035818D01*
X086005D01*
Y036608D01*
D02*
G37*
G36*
X083122Y037946D02*
X082588D01*
Y037254D01*
X083122D01*
Y037467D01*
X083413D01*
Y037280D01*
X084053D01*
Y037920D01*
X083413D01*
Y037733D01*
X083122D01*
Y037946D01*
D02*
G37*
G36*
X058774Y043498D02*
X058594D01*
X058545Y043488D01*
X058503Y043460D01*
X058475Y043419D01*
X058466Y043370D01*
Y043150D01*
X058774D01*
Y043498D01*
D02*
G37*
G36*
X069047Y044466D02*
X068700D01*
Y044119D01*
X068754Y044126D01*
X068852Y044166D01*
X068935Y044230D01*
X068999Y044314D01*
X069040Y044411D01*
X069047Y044466D01*
D02*
G37*
G36*
X082650Y035744D02*
Y035600D01*
X082794D01*
X082788Y035628D01*
X082744Y035694D01*
X082678Y035738D01*
X082650Y035744D01*
D02*
G37*
G36*
X083839Y036608D02*
X082892D01*
Y035818D01*
X083839D01*
Y036608D01*
D02*
G37*
G36*
X068600Y044466D02*
X068253D01*
X068260Y044411D01*
X068301Y044314D01*
X068365Y044230D01*
X068448Y044166D01*
X068546Y044126D01*
X068600Y044119D01*
Y044466D01*
D02*
G37*
G36*
X051350Y033273D02*
X051060D01*
Y032983D01*
X051350D01*
Y033273D01*
D02*
G37*
G36*
X072244Y045250D02*
X072100D01*
Y045106D01*
X072128Y045112D01*
X072194Y045156D01*
X072238Y045222D01*
X072244Y045250D01*
D02*
G37*
G36*
X074304Y035297D02*
X073396D01*
Y034350D01*
X074304D01*
Y034616D01*
X074814D01*
X075266Y034164D01*
Y033812D01*
X075180D01*
X075139Y033804D01*
X075104Y033780D01*
X075081Y033746D01*
X075073Y033704D01*
Y033244D01*
X075081Y033203D01*
X075104Y033168D01*
X075139Y033144D01*
X075180Y033136D01*
X075720D01*
X075761Y033144D01*
X075796Y033168D01*
X075819Y033203D01*
X075827Y033244D01*
Y033290D01*
X076273D01*
Y033244D01*
X076281Y033203D01*
X076304Y033168D01*
X076339Y033144D01*
X076380Y033136D01*
X076920D01*
X076961Y033144D01*
X076996Y033168D01*
X077019Y033203D01*
X077027Y033244D01*
Y033290D01*
X077180D01*
X077239Y033302D01*
X077250Y033304D01*
X077286Y033328D01*
X077473D01*
Y033156D01*
X078027D01*
Y033867D01*
X077473D01*
Y033695D01*
X077218D01*
X077159Y033684D01*
X077148Y033681D01*
X077112Y033658D01*
X077027D01*
Y033704D01*
X077019Y033746D01*
X076996Y033780D01*
X076961Y033804D01*
X076920Y033812D01*
X076380D01*
X076339Y033804D01*
X076304Y033780D01*
X076281Y033746D01*
X076273Y033704D01*
Y033658D01*
X075827D01*
Y033704D01*
X075819Y033746D01*
X075796Y033780D01*
X075761Y033804D01*
X075720Y033812D01*
X075634D01*
Y034240D01*
X075620Y034310D01*
X075580Y034370D01*
X075020Y034930D01*
X074960Y034970D01*
X074949Y034972D01*
X074890Y034984D01*
X074304D01*
Y035297D01*
D02*
G37*
G36*
X051740Y033273D02*
X051450D01*
Y032983D01*
X051740D01*
Y033273D01*
D02*
G37*
G36*
X068650Y046868D02*
X068551Y046854D01*
X068458Y046816D01*
X068379Y046755D01*
X068318Y046676D01*
X068280Y046583D01*
X068267Y046484D01*
X068280Y046385D01*
X068318Y046293D01*
X068379Y046213D01*
X068458Y046152D01*
X068517Y046128D01*
Y045938D01*
X066596D01*
Y046072D01*
X065904D01*
Y045538D01*
X066596D01*
Y045673D01*
X068600D01*
X069917Y044355D01*
Y037040D01*
X069928Y036989D01*
X069956Y036946D01*
X073466Y033436D01*
X073509Y033408D01*
X073560Y033397D01*
X074465D01*
X074567Y033295D01*
Y032290D01*
X074578Y032239D01*
X074606Y032196D01*
X077611Y029191D01*
Y024238D01*
X077621Y024188D01*
X077650Y024145D01*
X077826Y023968D01*
X077869Y023940D01*
X077920Y023930D01*
X078273D01*
X078324Y023940D01*
X078367Y023968D01*
X078416Y024017D01*
X078859D01*
X078880Y023967D01*
X078606Y023694D01*
X078578Y023651D01*
X078567Y023600D01*
Y023526D01*
X078530Y023470D01*
X078516Y023400D01*
X078530Y023330D01*
X078570Y023270D01*
X078630Y023230D01*
X078700Y023216D01*
X078770Y023230D01*
X078830Y023270D01*
X078870Y023330D01*
X078884Y023400D01*
X078870Y023470D01*
X078833Y023526D01*
Y023545D01*
X079055Y023767D01*
X079330D01*
X079360Y023717D01*
X079356Y023700D01*
X080293D01*
X080286Y023735D01*
X080278Y023747D01*
X080291Y023778D01*
X080326Y023801D01*
X080376Y023787D01*
Y023474D01*
X080207Y023304D01*
X080158Y023337D01*
X080081Y023352D01*
X079569D01*
X079492Y023337D01*
X079426Y023293D01*
X079382Y023227D01*
X079367Y023150D01*
X079382Y023073D01*
X079426Y023007D01*
X079492Y022963D01*
X079569Y022948D01*
X080081D01*
X080158Y022963D01*
X080224Y023007D01*
X080230Y023017D01*
X080240D01*
X080291Y023028D01*
X080334Y023056D01*
X080521Y023244D01*
X080567Y023225D01*
Y023065D01*
X080285Y022783D01*
X080230D01*
X080224Y022793D01*
X080158Y022837D01*
X080081Y022852D01*
X079569D01*
X079492Y022837D01*
X079426Y022793D01*
X079419Y022783D01*
X078555D01*
X076883Y024455D01*
Y025050D01*
X076883Y025050D01*
X076872Y025101D01*
X076844Y025144D01*
X074683Y027305D01*
X074670Y027370D01*
X074630Y027430D01*
X074570Y027470D01*
X074500Y027484D01*
X074430Y027470D01*
X074370Y027430D01*
X074330Y027370D01*
X074316Y027300D01*
X074330Y027230D01*
X074370Y027170D01*
X074430Y027130D01*
X074495Y027117D01*
X076617Y024995D01*
Y024400D01*
X076628Y024349D01*
X076656Y024306D01*
X078406Y022556D01*
X078449Y022528D01*
X078500Y022517D01*
X079419D01*
X079426Y022507D01*
X079492Y022463D01*
X079569Y022448D01*
X080081D01*
X080158Y022463D01*
X080224Y022507D01*
X080230Y022517D01*
X080340D01*
X080391Y022528D01*
X080434Y022556D01*
X080767Y022890D01*
X080817Y022869D01*
Y022480D01*
X080828Y022429D01*
X080856Y022386D01*
X081186Y022056D01*
X081229Y022028D01*
X081268Y022020D01*
X081276Y022007D01*
X081342Y021963D01*
X081419Y021948D01*
X081931D01*
X082008Y021963D01*
X082074Y022007D01*
X082118Y022073D01*
X082133Y022150D01*
X082118Y022227D01*
X082074Y022293D01*
X082008Y022337D01*
X081931Y022352D01*
X081419D01*
X081342Y022337D01*
X081305Y022312D01*
X081083Y022535D01*
Y023743D01*
X081133Y023776D01*
X081180Y023766D01*
X081202Y023771D01*
X081233Y023727D01*
X081217Y023650D01*
X081233Y023573D01*
X081276Y023507D01*
X081342Y023463D01*
X081419Y023448D01*
X081931D01*
X082008Y023463D01*
X082074Y023507D01*
X082081Y023518D01*
X082131Y023528D01*
X082174Y023556D01*
X082274Y023656D01*
X082302Y023699D01*
X082313Y023750D01*
Y024800D01*
X082302Y024851D01*
X082274Y024894D01*
X082174Y024994D01*
X082140Y025016D01*
X082114Y025067D01*
X082118Y025073D01*
X082133Y025150D01*
X082118Y025227D01*
X082074Y025293D01*
X082008Y025337D01*
X081931Y025352D01*
X081419D01*
X081342Y025337D01*
X081276Y025293D01*
X081233Y025227D01*
X081228Y025202D01*
X081180Y025188D01*
X081093Y025275D01*
Y027084D01*
X081130Y027140D01*
X081186Y027168D01*
X081190Y027167D01*
X082500D01*
X082551Y027178D01*
X082594Y027206D01*
X082994Y027606D01*
X083022Y027649D01*
X083033Y027700D01*
Y031200D01*
X083022Y031251D01*
X082994Y031294D01*
X082883Y031405D01*
X082870Y031470D01*
X082830Y031530D01*
X082770Y031570D01*
X082700Y031584D01*
X082630Y031570D01*
X082570Y031530D01*
X082530Y031470D01*
X082516Y031400D01*
X082530Y031330D01*
X082570Y031270D01*
X082630Y031230D01*
X082695Y031217D01*
X082767Y031145D01*
Y027755D01*
X082445Y027433D01*
X081250D01*
X081149Y027534D01*
X081106Y027562D01*
X081055Y027573D01*
X080865D01*
X080814Y027562D01*
X080771Y027534D01*
X080662Y027425D01*
X080649Y027422D01*
X080606Y027394D01*
X080558Y027389D01*
X080353Y027595D01*
X080340Y027660D01*
X080300Y027720D01*
X080240Y027760D01*
X080170Y027774D01*
X080100Y027760D01*
X080064Y027736D01*
D01*
X080045Y027723D01*
X080019Y027728D01*
X080011Y027731D01*
X080007Y027734D01*
X080006Y027735D01*
X080006Y027735D01*
X080000Y027740D01*
X079998Y027741D01*
X079998Y027742D01*
X079996Y027781D01*
X079996Y027787D01*
Y027787D01*
Y027787D01*
Y027873D01*
X080419D01*
X080445Y027867D01*
X080877D01*
X080905Y027801D01*
X080968Y027718D01*
X081051Y027655D01*
X081147Y027615D01*
X081250Y027602D01*
X081353Y027615D01*
X081449Y027655D01*
X081532Y027718D01*
X081595Y027801D01*
X081635Y027897D01*
X081648Y028000D01*
X081635Y028103D01*
X081595Y028199D01*
X081532Y028282D01*
X081449Y028345D01*
X081353Y028385D01*
X081250Y028398D01*
X081147Y028385D01*
X081051Y028345D01*
X080968Y028282D01*
X080905Y028199D01*
X080877Y028133D01*
X080466D01*
X080440Y028138D01*
X079996D01*
Y028272D01*
X079304D01*
Y027738D01*
X079946D01*
X079948D01*
X079958Y027738D01*
X079970Y027737D01*
X079998Y027732D01*
X079998Y027732D01*
X080011Y027719D01*
X080016Y027714D01*
X080021Y027709D01*
X080026Y027699D01*
X079996Y027662D01*
X079304D01*
Y027527D01*
X078583D01*
Y027995D01*
X080144Y029556D01*
X080172Y029599D01*
X080183Y029650D01*
Y033850D01*
X080172Y033901D01*
X080144Y033944D01*
X079754Y034334D01*
X079711Y034362D01*
X079660Y034373D01*
X076815D01*
X076034Y035154D01*
X076035Y035157D01*
X076089Y035174D01*
X076636Y034626D01*
X076679Y034598D01*
X076730Y034587D01*
X080278D01*
Y034354D01*
X080812D01*
Y035046D01*
X080278D01*
Y034853D01*
X076785D01*
X076183Y035455D01*
Y040020D01*
X076693D01*
X076767Y039945D01*
Y035350D01*
X076778Y035299D01*
X076806Y035256D01*
X077056Y035006D01*
X077099Y034978D01*
X077150Y034967D01*
X079200D01*
X079251Y034978D01*
X079294Y035006D01*
X080155Y035867D01*
X080278D01*
Y035654D01*
X080812D01*
Y036346D01*
X080278D01*
Y036133D01*
X080100D01*
X080049Y036122D01*
X080006Y036094D01*
X079145Y035233D01*
X077205D01*
X077033Y035405D01*
Y040000D01*
X077022Y040051D01*
X076994Y040094D01*
X076819Y040269D01*
X076776Y040297D01*
X076725Y040308D01*
X076710D01*
Y040517D01*
X077304D01*
X077428Y040392D01*
X077357Y040320D01*
X077317Y040261D01*
X077315Y040249D01*
X077303Y040190D01*
Y035580D01*
X077317Y035510D01*
X077357Y035450D01*
X077416Y035410D01*
X077486Y035396D01*
X077557Y035410D01*
X077616Y035450D01*
X077656Y035510D01*
X077670Y035580D01*
Y040114D01*
X077746Y040190D01*
X077923D01*
Y040144D01*
X077931Y040103D01*
X077954Y040068D01*
X077989Y040044D01*
X078030Y040036D01*
X078570D01*
X078611Y040044D01*
X078646Y040068D01*
X078669Y040103D01*
X078677Y040144D01*
Y040190D01*
X079023D01*
Y040144D01*
X079031Y040103D01*
X079054Y040068D01*
X079089Y040044D01*
X079130Y040036D01*
X079670D01*
X079711Y040044D01*
X079746Y040068D01*
X079769Y040103D01*
X079777Y040144D01*
Y040604D01*
X079769Y040646D01*
X079746Y040680D01*
X079711Y040704D01*
X079670Y040712D01*
X079130D01*
X079089Y040704D01*
X079054Y040680D01*
X079031Y040646D01*
X079023Y040604D01*
Y040558D01*
X078677D01*
Y040604D01*
X078669Y040646D01*
X078646Y040680D01*
X078611Y040704D01*
X078570Y040712D01*
X078030D01*
X077989Y040704D01*
X077954Y040680D01*
X077931Y040646D01*
X077923Y040604D01*
Y040558D01*
X077710D01*
X077481Y040787D01*
X077429Y040821D01*
X077369Y040833D01*
X076710D01*
Y041017D01*
X077425D01*
X077485Y041029D01*
X077537Y041063D01*
X077841Y041368D01*
X077923D01*
Y041296D01*
X077931Y041254D01*
X077954Y041220D01*
X077989Y041196D01*
X078030Y041188D01*
X078092D01*
Y041037D01*
X078080Y041020D01*
X078066Y040950D01*
X078080Y040880D01*
X078120Y040820D01*
X078180Y040780D01*
X078250Y040766D01*
X078320Y040780D01*
X078380Y040820D01*
X078420Y040880D01*
X078434Y040950D01*
X078420Y041020D01*
X078408Y041037D01*
Y041188D01*
X078570D01*
X078611Y041196D01*
X078646Y041220D01*
X078669Y041254D01*
X078677Y041296D01*
Y041342D01*
X079023D01*
Y041296D01*
X079031Y041254D01*
X079054Y041220D01*
X079089Y041196D01*
X079130Y041188D01*
X079670D01*
X079711Y041196D01*
X079746Y041220D01*
X079769Y041254D01*
X079777Y041296D01*
Y041342D01*
X080098D01*
X082061Y039379D01*
Y039046D01*
X081978D01*
Y038354D01*
X082061D01*
Y037946D01*
X081978D01*
Y037254D01*
X082061D01*
Y037120D01*
X082073Y037061D01*
X082075Y037050D01*
X082115Y036990D01*
X082335Y036770D01*
X082395Y036730D01*
X082406Y036728D01*
X082465Y036716D01*
X083964D01*
X084416Y036264D01*
Y035718D01*
X084368Y035674D01*
X084350Y035676D01*
X084270Y035665D01*
X084195Y035634D01*
X084131Y035585D01*
X084082Y035521D01*
X084051Y035446D01*
X084040Y035366D01*
X084051Y035286D01*
X084082Y035211D01*
X084131Y035147D01*
X084195Y035098D01*
X084270Y035067D01*
X084350Y035056D01*
X084368Y035059D01*
X084416Y035015D01*
Y033985D01*
X084368Y033941D01*
X084350Y033944D01*
X084270Y033933D01*
X084195Y033902D01*
X084131Y033853D01*
X084082Y033789D01*
X084051Y033714D01*
X084040Y033634D01*
X084051Y033554D01*
X084082Y033479D01*
X084131Y033415D01*
X084195Y033366D01*
X084270Y033335D01*
X084350Y033324D01*
X084368Y033326D01*
X084416Y033282D01*
Y028026D01*
X083070Y026680D01*
X083030Y026620D01*
X083028Y026609D01*
X083016Y026550D01*
Y026012D01*
X082930D01*
X082889Y026004D01*
X082854Y025980D01*
X082831Y025946D01*
X082823Y025904D01*
Y025834D01*
X082013D01*
X082008Y025837D01*
X081931Y025852D01*
X081419D01*
X081342Y025837D01*
X081276Y025793D01*
X081233Y025727D01*
X081217Y025650D01*
X081233Y025573D01*
X081276Y025507D01*
X081342Y025463D01*
X081419Y025448D01*
X081931D01*
X082008Y025463D01*
X082013Y025466D01*
X082823D01*
Y025444D01*
X082831Y025403D01*
X082854Y025368D01*
X082889Y025344D01*
X082930Y025336D01*
X083470D01*
X083511Y025344D01*
X083546Y025368D01*
X083569Y025403D01*
X083577Y025444D01*
Y025904D01*
X083569Y025946D01*
X083546Y025980D01*
X083511Y026004D01*
X083470Y026012D01*
X083384D01*
Y026474D01*
X084370Y027461D01*
X084416Y027442D01*
Y024350D01*
Y019126D01*
X084069Y018778D01*
X083546D01*
Y018862D01*
X082854D01*
Y018778D01*
X082845D01*
X082775Y018764D01*
X082755Y018751D01*
X082715Y018725D01*
X081874Y017884D01*
X079776D01*
X078684Y018976D01*
Y020300D01*
X078672Y020359D01*
X078670Y020370D01*
X078630Y020430D01*
X077230Y021830D01*
X077170Y021870D01*
X077159Y021872D01*
X077100Y021884D01*
X076424D01*
Y022174D01*
X076134D01*
Y022400D01*
X076122Y022459D01*
X076120Y022470D01*
X076080Y022530D01*
X074209Y024401D01*
Y026206D01*
X074195Y026276D01*
X074181Y026296D01*
X074155Y026336D01*
X072315Y028176D01*
Y029685D01*
X073795Y031165D01*
X073845D01*
X075735Y029275D01*
X075794Y029236D01*
X075864Y029222D01*
X076004D01*
Y029138D01*
X076696D01*
Y029672D01*
X076004D01*
Y029589D01*
X075940D01*
X074034Y031496D01*
Y032303D01*
X074304D01*
Y033250D01*
X073396D01*
Y033157D01*
X072003D01*
X070230Y034930D01*
X070170Y034970D01*
X070159Y034972D01*
X070100Y034984D01*
X069722D01*
Y035146D01*
X069684D01*
Y042100D01*
X069672Y042159D01*
X069670Y042170D01*
X069630Y042230D01*
X067984Y043876D01*
Y044300D01*
X067970Y044370D01*
X067956Y044390D01*
X067930Y044430D01*
X067035Y045325D01*
X066975Y045364D01*
X066964Y045367D01*
X066905Y045378D01*
X066596D01*
Y045462D01*
X065904D01*
Y045378D01*
X062388D01*
X062362Y045384D01*
X061300D01*
X061241Y045372D01*
X061230Y045370D01*
X061170Y045330D01*
X060370Y044530D01*
X060330Y044470D01*
X060328Y044459D01*
X060316Y044400D01*
Y043284D01*
X059840D01*
X059781Y043272D01*
X059770Y043270D01*
X059710Y043230D01*
X059320Y042840D01*
X059280Y042780D01*
X059278Y042769D01*
X059266Y042710D01*
Y040796D01*
X058754Y040284D01*
X057550D01*
X057491Y040272D01*
X057480Y040270D01*
X057420Y040230D01*
X055499Y038308D01*
X055463Y038323D01*
X055350Y038338D01*
X055237Y038323D01*
X055201Y038308D01*
X054960Y038550D01*
Y039223D01*
X055006D01*
X055047Y039231D01*
X055082Y039254D01*
X055106Y039289D01*
X055114Y039330D01*
Y039870D01*
X055106Y039911D01*
X055082Y039946D01*
X055047Y039969D01*
X055006Y039977D01*
X054546D01*
X054504Y039969D01*
X054470Y039946D01*
X054446Y039911D01*
X054438Y039870D01*
Y039784D01*
X054080D01*
X054010Y039770D01*
X053990Y039756D01*
X053950Y039730D01*
X053410Y039190D01*
X053370Y039130D01*
X053368Y039119D01*
X053356Y039060D01*
Y038416D01*
X050500Y035560D01*
X050460Y035500D01*
X050458Y035489D01*
X050446Y035430D01*
Y031380D01*
X050458Y031321D01*
X050460Y031310D01*
X050500Y031250D01*
X051372Y030379D01*
Y025846D01*
X051288D01*
Y025154D01*
X051822D01*
Y025846D01*
X051739D01*
Y030455D01*
X051727Y030513D01*
X051725Y030525D01*
X051685Y030585D01*
X050814Y031456D01*
Y035354D01*
X053670Y038210D01*
X053696Y038250D01*
X053710Y038270D01*
X053724Y038340D01*
Y038984D01*
X054156Y039416D01*
X054438D01*
Y039330D01*
X054446Y039289D01*
X054470Y039254D01*
X054504Y039231D01*
X054546Y039223D01*
X054592D01*
Y038474D01*
X054604Y038415D01*
X054606Y038404D01*
X054646Y038344D01*
X054942Y038049D01*
X054927Y038013D01*
X054912Y037900D01*
X054927Y037787D01*
X054971Y037681D01*
X055040Y037590D01*
X055056Y037578D01*
X055048Y037555D01*
X055035Y037531D01*
X054989Y037522D01*
X054946Y037494D01*
X054766Y037314D01*
X054738Y037271D01*
X054727Y037220D01*
Y037199D01*
X054680Y037183D01*
X054660Y037210D01*
X054569Y037279D01*
X054463Y037323D01*
X054350Y037338D01*
X054237Y037323D01*
X054131Y037279D01*
X054040Y037210D01*
X053971Y037119D01*
X053935Y037033D01*
X052800D01*
X052749Y037022D01*
X052706Y036994D01*
X051306Y035594D01*
X051278Y035551D01*
X051267Y035500D01*
Y035422D01*
X051054D01*
Y034888D01*
X051746D01*
Y035422D01*
X051580D01*
X051560Y035472D01*
X052855Y036767D01*
X053935D01*
X053971Y036681D01*
X054040Y036590D01*
X054131Y036521D01*
X054237Y036477D01*
X054350Y036462D01*
X054463Y036477D01*
X054569Y036521D01*
X054660Y036590D01*
X054680Y036617D01*
X054727Y036601D01*
Y036199D01*
X054680Y036183D01*
X054660Y036210D01*
X054569Y036279D01*
X054463Y036323D01*
X054350Y036338D01*
X054237Y036323D01*
X054131Y036279D01*
X054040Y036210D01*
X053971Y036119D01*
X053927Y036013D01*
X053912Y035900D01*
X053927Y035787D01*
X053971Y035681D01*
X054040Y035590D01*
X054131Y035521D01*
X054237Y035477D01*
X054238Y035477D01*
X054256Y035449D01*
X057877Y031828D01*
Y022966D01*
X057840Y022910D01*
X057826Y022840D01*
X057840Y022770D01*
X057880Y022710D01*
X057940Y022670D01*
X058010Y022656D01*
X058080Y022670D01*
X058140Y022710D01*
X058180Y022770D01*
X058194Y022840D01*
X058180Y022910D01*
X058143Y022966D01*
Y025622D01*
X058193Y025649D01*
X058220Y025630D01*
X058290Y025616D01*
X058360Y025630D01*
X058377Y025642D01*
X058427Y025615D01*
Y017855D01*
X056716Y016144D01*
X056688Y016101D01*
X056677Y016050D01*
Y013110D01*
X056688Y013059D01*
X056716Y013016D01*
X056931Y012801D01*
X056974Y012772D01*
X057025Y012762D01*
X057204D01*
Y012628D01*
X057896D01*
Y013162D01*
X057204D01*
Y013027D01*
X057080D01*
X056943Y013165D01*
Y015995D01*
X058654Y017706D01*
X058682Y017749D01*
X058693Y017800D01*
Y019475D01*
X058725Y019486D01*
X058743Y019488D01*
X058831Y019421D01*
X058937Y019377D01*
X059050Y019362D01*
X059163Y019377D01*
X059269Y019421D01*
X059360Y019490D01*
X059429Y019581D01*
X059473Y019687D01*
X059488Y019800D01*
X059473Y019913D01*
X059429Y020019D01*
X059360Y020110D01*
X059269Y020179D01*
X059163Y020223D01*
X059050Y020238D01*
X058937Y020223D01*
X058831Y020179D01*
X058743Y020112D01*
X058725Y020114D01*
X058693Y020125D01*
Y020475D01*
X058725Y020486D01*
X058743Y020488D01*
X058831Y020421D01*
X058937Y020377D01*
X059050Y020362D01*
X059163Y020377D01*
X059269Y020421D01*
X059360Y020490D01*
X059429Y020581D01*
X059473Y020687D01*
X059488Y020800D01*
X059473Y020913D01*
X059429Y021019D01*
X059360Y021110D01*
X059269Y021179D01*
X059163Y021223D01*
X059050Y021238D01*
X058937Y021223D01*
X058831Y021179D01*
X058743Y021112D01*
X058725Y021114D01*
X058693Y021125D01*
Y021475D01*
X058725Y021486D01*
X058743Y021488D01*
X058831Y021421D01*
X058937Y021377D01*
X059050Y021362D01*
X059163Y021377D01*
X059269Y021421D01*
X059360Y021490D01*
X059429Y021581D01*
X059473Y021687D01*
X059488Y021800D01*
X059473Y021913D01*
X059429Y022019D01*
X059360Y022110D01*
X059269Y022179D01*
X059163Y022223D01*
X059050Y022238D01*
X058937Y022223D01*
X058831Y022179D01*
X058743Y022112D01*
X058725Y022114D01*
X058693Y022125D01*
Y022441D01*
X058743Y022463D01*
X058821Y022403D01*
X058931Y022357D01*
X059000Y022348D01*
Y022800D01*
Y023252D01*
X058931Y023243D01*
X058821Y023197D01*
X058743Y023137D01*
X058693Y023159D01*
Y023475D01*
X058725Y023486D01*
X058743Y023488D01*
X058831Y023421D01*
X058937Y023377D01*
X059050Y023362D01*
X059163Y023377D01*
X059269Y023421D01*
X059360Y023490D01*
X059429Y023581D01*
X059473Y023687D01*
X059488Y023800D01*
X059473Y023913D01*
X059429Y024019D01*
X059360Y024110D01*
X059269Y024179D01*
X059163Y024223D01*
X059050Y024238D01*
X058937Y024223D01*
X058831Y024179D01*
X058743Y024112D01*
X058725Y024114D01*
X058693Y024125D01*
Y024475D01*
X058725Y024486D01*
X058743Y024488D01*
X058831Y024421D01*
X058937Y024377D01*
X059050Y024362D01*
X059163Y024377D01*
X059269Y024421D01*
X059360Y024490D01*
X059429Y024581D01*
X059473Y024687D01*
X059488Y024800D01*
X059473Y024913D01*
X059437Y025000D01*
X059634Y025196D01*
X059662Y025239D01*
X059673Y025290D01*
Y026136D01*
X059662Y026186D01*
X059634Y026229D01*
X059454Y026409D01*
X059411Y026438D01*
X059382Y026444D01*
X059370Y026469D01*
X059364Y026496D01*
X059364Y026496D01*
X059429Y026581D01*
X059473Y026687D01*
X059485Y026775D01*
X059534Y026777D01*
X059535Y026777D01*
X059535Y026777D01*
X059535Y026777D01*
X059535Y026777D01*
X059536Y026775D01*
X059536Y026774D01*
X059539Y026757D01*
X059545Y026730D01*
X059546Y026728D01*
X059585Y026670D01*
X059644Y026630D01*
X059714Y026616D01*
X059785Y026630D01*
X059844Y026670D01*
X059884Y026730D01*
X059898Y026800D01*
X059884Y026870D01*
X059847Y026926D01*
Y028250D01*
X059893Y028269D01*
X060163Y028000D01*
X060127Y027913D01*
X060112Y027800D01*
X060127Y027687D01*
X060171Y027581D01*
X060240Y027490D01*
X060331Y027421D01*
X060437Y027377D01*
X060550Y027362D01*
X060663Y027377D01*
X060769Y027421D01*
X060860Y027490D01*
X060929Y027581D01*
X060973Y027687D01*
X060988Y027800D01*
X060973Y027913D01*
X060929Y028019D01*
X060860Y028110D01*
X060769Y028179D01*
X060663Y028223D01*
X060550Y028238D01*
X060437Y028223D01*
X060350Y028187D01*
X060027Y028511D01*
Y033339D01*
X060044Y033356D01*
X060072Y033399D01*
X060083Y033450D01*
Y033663D01*
X060133Y033673D01*
X060171Y033581D01*
X060240Y033490D01*
X060331Y033421D01*
X060437Y033377D01*
X060550Y033362D01*
X060663Y033377D01*
X060769Y033421D01*
X060852Y033484D01*
X060902Y033471D01*
Y033129D01*
X060852Y033116D01*
X060769Y033179D01*
X060663Y033223D01*
X060550Y033238D01*
X060437Y033223D01*
X060331Y033179D01*
X060240Y033110D01*
X060171Y033019D01*
X060127Y032913D01*
X060112Y032800D01*
X060127Y032687D01*
X060171Y032581D01*
X060240Y032490D01*
X060331Y032421D01*
X060437Y032377D01*
X060550Y032362D01*
X060663Y032377D01*
X060769Y032421D01*
X060852Y032484D01*
X060902Y032471D01*
Y032129D01*
X060852Y032116D01*
X060769Y032179D01*
X060663Y032223D01*
X060550Y032238D01*
X060437Y032223D01*
X060331Y032179D01*
X060240Y032110D01*
X060171Y032019D01*
X060127Y031913D01*
X060112Y031800D01*
X060127Y031687D01*
X060171Y031581D01*
X060240Y031490D01*
X060331Y031421D01*
X060437Y031377D01*
X060550Y031362D01*
X060663Y031377D01*
X060769Y031421D01*
X060852Y031484D01*
X060902Y031471D01*
Y031339D01*
X060750Y031187D01*
X060663Y031223D01*
X060550Y031238D01*
X060437Y031223D01*
X060331Y031179D01*
X060240Y031110D01*
X060171Y031019D01*
X060127Y030913D01*
X060112Y030800D01*
X060127Y030687D01*
X060171Y030581D01*
X060240Y030490D01*
X060331Y030421D01*
X060437Y030377D01*
X060550Y030362D01*
X060663Y030377D01*
X060769Y030421D01*
X060860Y030490D01*
X060929Y030581D01*
X060973Y030687D01*
X060988Y030800D01*
X060973Y030913D01*
X060937Y031000D01*
X061128Y031191D01*
X061157Y031234D01*
X061167Y031284D01*
Y034473D01*
X061217Y034478D01*
X061220Y034460D01*
X061257Y034404D01*
Y029546D01*
X061220Y029490D01*
X061206Y029420D01*
X061220Y029350D01*
X061260Y029290D01*
X061320Y029250D01*
X061390Y029236D01*
X061437Y029246D01*
X061487Y029213D01*
Y029115D01*
X061305Y028933D01*
X060965D01*
X060929Y029019D01*
X060860Y029110D01*
X060769Y029179D01*
X060663Y029223D01*
X060550Y029238D01*
X060437Y029223D01*
X060331Y029179D01*
X060240Y029110D01*
X060171Y029019D01*
X060127Y028913D01*
X060112Y028800D01*
X060127Y028687D01*
X060171Y028581D01*
X060240Y028490D01*
X060331Y028421D01*
X060437Y028377D01*
X060550Y028362D01*
X060663Y028377D01*
X060769Y028421D01*
X060860Y028490D01*
X060929Y028581D01*
X060965Y028667D01*
X061360D01*
X061411Y028678D01*
X061454Y028706D01*
X061620Y028873D01*
X061666Y028854D01*
Y024176D01*
X060699Y023208D01*
X060663Y023223D01*
X060550Y023238D01*
X060437Y023223D01*
X060331Y023179D01*
X060240Y023110D01*
X060171Y023019D01*
X060127Y022913D01*
X060112Y022800D01*
X060127Y022687D01*
X060142Y022651D01*
X059670Y022180D01*
X059630Y022120D01*
X059628Y022109D01*
X059616Y022050D01*
Y019196D01*
X059628Y019137D01*
X059630Y019125D01*
X059670Y019066D01*
X060466Y018270D01*
Y015220D01*
X060478Y015161D01*
X060480Y015150D01*
X060520Y015090D01*
X060990Y014620D01*
X061030Y014594D01*
X061050Y014580D01*
X061120Y014566D01*
X061308D01*
X061313Y014563D01*
X061390Y014548D01*
X062020D01*
X062097Y014563D01*
X062102Y014566D01*
X062311D01*
Y013866D01*
X062322Y013807D01*
X062325Y013795D01*
X062365Y013736D01*
X062480Y013620D01*
X062540Y013580D01*
X062610Y013566D01*
X063198D01*
X063203Y013563D01*
X063280Y013548D01*
X063910D01*
X063987Y013563D01*
X063992Y013566D01*
X064399D01*
X064414Y013556D01*
X064484Y013542D01*
X064973D01*
Y013496D01*
X064981Y013454D01*
X065004Y013420D01*
X065039Y013396D01*
X065080Y013388D01*
X065620D01*
X065661Y013396D01*
X065696Y013420D01*
X065719Y013454D01*
X065727Y013496D01*
Y013542D01*
X065808D01*
X066232Y013119D01*
X066265Y013085D01*
X066265D01*
X066265Y013085D01*
Y012899D01*
X066215Y012878D01*
X066060Y013034D01*
X066017Y013062D01*
X065966Y013073D01*
X064455D01*
X064184Y013344D01*
X064141Y013372D01*
X064090Y013383D01*
X064060D01*
X064053Y013393D01*
X063987Y013437D01*
X063910Y013452D01*
X063280D01*
X063203Y013437D01*
X063137Y013393D01*
X063130Y013383D01*
X063040D01*
X062989Y013372D01*
X062946Y013344D01*
X062861Y013259D01*
X062833Y013216D01*
X062823Y013165D01*
Y012346D01*
X062688D01*
Y011654D01*
X063222D01*
Y012346D01*
X063088D01*
Y013095D01*
X063137Y013107D01*
X063203Y013063D01*
X063280Y013048D01*
X063910D01*
X063987Y013063D01*
X064048Y013104D01*
X064306Y012846D01*
X064349Y012818D01*
X064400Y012807D01*
X065911D01*
X066112Y012606D01*
X066155Y012578D01*
X066206Y012567D01*
X066265D01*
Y012315D01*
X067035D01*
Y013026D01*
X067234D01*
X067366Y012894D01*
Y012426D01*
X066120Y011180D01*
X066080Y011120D01*
X066078Y011109D01*
X066066Y011050D01*
Y010972D01*
X065904D01*
Y010438D01*
X066596D01*
Y010972D01*
X066502D01*
X066482Y011022D01*
X067680Y012220D01*
X067720Y012280D01*
X067734Y012350D01*
Y012970D01*
X067720Y013040D01*
X067680Y013099D01*
X067439Y013340D01*
X067380Y013380D01*
X067368Y013382D01*
X067310Y013394D01*
X066962D01*
X066939Y013444D01*
X066986Y013506D01*
X067025Y013599D01*
X067038Y013700D01*
X067025Y013801D01*
X066986Y013894D01*
X066925Y013975D01*
X066844Y014036D01*
X066751Y014075D01*
X066650Y014088D01*
X066549Y014075D01*
X066488Y014050D01*
X066333Y014205D01*
Y014780D01*
X066322Y014831D01*
X066294Y014874D01*
X065874Y015294D01*
X065831Y015322D01*
X065780Y015333D01*
X064730D01*
X064679Y015322D01*
X064636Y015294D01*
X064225Y014883D01*
X064060D01*
X064053Y014893D01*
X063987Y014937D01*
X063910Y014952D01*
X063280D01*
X063203Y014937D01*
X063137Y014893D01*
X063093Y014827D01*
X063078Y014750D01*
X063093Y014673D01*
X063137Y014607D01*
X063203Y014563D01*
X063280Y014548D01*
X063910D01*
X063987Y014563D01*
X064053Y014607D01*
X064060Y014617D01*
X064280D01*
X064331Y014628D01*
X064374Y014656D01*
X064785Y015067D01*
X065725D01*
X066067Y014725D01*
Y014150D01*
X066078Y014099D01*
X066106Y014056D01*
X066300Y013862D01*
X066275Y013801D01*
X066262Y013700D01*
X066265Y013675D01*
X066217Y013652D01*
X066014Y013856D01*
X065954Y013896D01*
X065943Y013898D01*
X065884Y013910D01*
X065727D01*
Y013956D01*
X065719Y013997D01*
X065696Y014032D01*
X065661Y014056D01*
X065620Y014064D01*
X065080D01*
X065039Y014056D01*
X065004Y014032D01*
X064981Y013997D01*
X064973Y013956D01*
Y013910D01*
X064545D01*
X064530Y013920D01*
X064519Y013922D01*
X064460Y013934D01*
X063992D01*
X063987Y013937D01*
X063910Y013952D01*
X063280D01*
X063203Y013937D01*
X063198Y013934D01*
X062686D01*
X062678Y013942D01*
Y014656D01*
X062666Y014714D01*
X062664Y014726D01*
X062624Y014785D01*
X062530Y014880D01*
X062470Y014920D01*
X062459Y014922D01*
X062400Y014934D01*
X062102D01*
X062097Y014937D01*
X062020Y014952D01*
X061390D01*
X061313Y014937D01*
X061308Y014934D01*
X061196D01*
X060834Y015296D01*
Y018346D01*
X060820Y018416D01*
X060780Y018475D01*
X059984Y019272D01*
Y021974D01*
X060401Y022392D01*
X060437Y022377D01*
X060550Y022362D01*
X060663Y022377D01*
X060769Y022421D01*
X060860Y022490D01*
X060929Y022581D01*
X060973Y022687D01*
X060988Y022800D01*
X060973Y022913D01*
X060958Y022949D01*
X061947Y023938D01*
X061997Y023917D01*
Y021406D01*
X061960Y021350D01*
X061946Y021280D01*
X061960Y021210D01*
X062000Y021150D01*
X062060Y021110D01*
X062130Y021096D01*
X062200Y021110D01*
X062260Y021150D01*
X062300Y021210D01*
X062314Y021280D01*
X062300Y021350D01*
X062263Y021406D01*
Y026815D01*
X062309Y026834D01*
X062347Y026795D01*
X062360Y026730D01*
X062400Y026670D01*
X062460Y026630D01*
X062530Y026616D01*
X062600Y026630D01*
X062660Y026670D01*
X062700Y026730D01*
X062714Y026800D01*
X062700Y026870D01*
X062660Y026930D01*
X062600Y026970D01*
X062535Y026983D01*
X062443Y027075D01*
Y028305D01*
X062489Y028324D01*
X066867Y023945D01*
Y020900D01*
X066878Y020849D01*
X066906Y020806D01*
X067156Y020556D01*
X067199Y020528D01*
X067250Y020517D01*
X068743D01*
X069006Y020254D01*
X069323Y019937D01*
Y018146D01*
X069188D01*
Y017454D01*
X069722D01*
Y018146D01*
X069588D01*
Y019992D01*
X069588Y019992D01*
X069578Y020043D01*
X069549Y020086D01*
X069194Y020441D01*
X068891Y020744D01*
X068876Y020759D01*
Y021994D01*
X068913Y022050D01*
X068927Y022120D01*
X068913Y022190D01*
X068873Y022250D01*
X068814Y022290D01*
X068744Y022304D01*
X068673Y022290D01*
X068614Y022250D01*
X068574Y022190D01*
X068560Y022120D01*
X068574Y022050D01*
X068611Y021994D01*
Y020783D01*
X067305D01*
X067133Y020955D01*
Y024000D01*
X067122Y024051D01*
X067094Y024094D01*
X062668Y028519D01*
Y028786D01*
X062718Y028811D01*
X062774Y028768D01*
X062867Y028730D01*
X062966Y028717D01*
X063065Y028730D01*
X063124Y028754D01*
X063522Y028356D01*
X063565Y028328D01*
X063616Y028317D01*
X065600D01*
X065651Y028328D01*
X065694Y028356D01*
X065954Y028617D01*
X066004Y028596D01*
Y028528D01*
X066696D01*
Y029062D01*
X066004D01*
Y028927D01*
X065945D01*
X065894Y028917D01*
X065851Y028889D01*
X065545Y028583D01*
X063671D01*
X063311Y028942D01*
X063336Y029001D01*
X063349Y029100D01*
X063336Y029199D01*
X063298Y029292D01*
X063237Y029371D01*
X063157Y029432D01*
X063065Y029470D01*
X062966Y029483D01*
X062867Y029470D01*
X062774Y029432D01*
X062718Y029389D01*
X062668Y029414D01*
Y033481D01*
X063225Y034037D01*
X063820D01*
X063871Y034048D01*
X063914Y034076D01*
X064014Y034176D01*
X064042Y034219D01*
X064053Y034270D01*
Y034634D01*
X064086Y034684D01*
X064114Y034697D01*
X064136Y034704D01*
X065536Y033304D01*
Y029405D01*
X065550Y029335D01*
X065590Y029275D01*
X065650Y029236D01*
X065720Y029222D01*
X066004D01*
Y029138D01*
X066696D01*
Y029672D01*
X066582D01*
X066562Y029722D01*
X066606Y029766D01*
X071024D01*
X071072Y029718D01*
X071053Y029672D01*
X071004D01*
Y029138D01*
X071696D01*
Y029222D01*
X071775D01*
X071834Y029233D01*
X071845Y029236D01*
X071898Y029270D01*
X071948Y029256D01*
Y028100D01*
X071959Y028041D01*
X071962Y028030D01*
X072001Y027970D01*
X073841Y026130D01*
Y024325D01*
X073853Y024266D01*
X073855Y024255D01*
X073895Y024195D01*
X075766Y022324D01*
Y022174D01*
X075476D01*
Y021858D01*
X074727D01*
Y021904D01*
X074719Y021946D01*
X074696Y021980D01*
X074661Y022004D01*
X074620Y022012D01*
X074080D01*
X074039Y022004D01*
X074004Y021980D01*
X073981Y021946D01*
X073973Y021904D01*
Y021858D01*
X073527D01*
Y021904D01*
X073519Y021946D01*
X073496Y021980D01*
X073461Y022004D01*
X073420Y022012D01*
X072880D01*
X072839Y022004D01*
X072804Y021980D01*
X072781Y021946D01*
X072773Y021904D01*
Y021858D01*
X072090D01*
Y021864D01*
X071450D01*
Y021484D01*
X072090D01*
Y021490D01*
X072303D01*
Y019814D01*
X072315Y019755D01*
X072317Y019743D01*
X072357Y019684D01*
X072565Y019475D01*
X072625Y019436D01*
X072695Y019422D01*
X072804D01*
Y019338D01*
X073496D01*
Y019872D01*
X072804D01*
Y019826D01*
X072754Y019805D01*
X072670Y019890D01*
Y021490D01*
X072773D01*
Y021444D01*
X072781Y021403D01*
X072804Y021368D01*
X072839Y021344D01*
X072880Y021336D01*
X073420D01*
X073461Y021344D01*
X073496Y021368D01*
X073519Y021403D01*
X073527Y021444D01*
Y021490D01*
X073973D01*
Y021444D01*
X073981Y021403D01*
X074004Y021368D01*
X074039Y021344D01*
X074080Y021336D01*
X074620D01*
X074661Y021344D01*
X074696Y021368D01*
X074719Y021403D01*
X074727Y021444D01*
Y021490D01*
X075476D01*
Y021226D01*
X076424D01*
Y021516D01*
X077024D01*
X078316Y020224D01*
Y018900D01*
X078328Y018841D01*
X078330Y018830D01*
X078370Y018770D01*
X079570Y017570D01*
X079630Y017530D01*
X079641Y017528D01*
X079700Y017516D01*
X081950D01*
X082009Y017528D01*
X082020Y017530D01*
X082080Y017570D01*
X082814Y018305D01*
X082854Y018328D01*
Y018328D01*
X082854Y018328D01*
X083546D01*
Y018411D01*
X084145D01*
X084203Y018423D01*
X084215Y018425D01*
X084275Y018465D01*
X084730Y018920D01*
X084770Y018980D01*
X084772Y018991D01*
X084784Y019050D01*
Y024166D01*
X086250D01*
X086309Y024178D01*
X086320Y024180D01*
X086380Y024220D01*
X086685Y024525D01*
X086725Y024585D01*
X086727Y024597D01*
X086739Y024655D01*
Y025154D01*
X086822D01*
Y025846D01*
X086288D01*
Y025154D01*
X086372D01*
Y024731D01*
X086174Y024534D01*
X084784D01*
Y027950D01*
Y033247D01*
X084876Y033340D01*
X084916Y033399D01*
X084918Y033411D01*
X084930Y033470D01*
Y033798D01*
X084918Y033857D01*
X084916Y033868D01*
X084876Y033928D01*
X084784Y034021D01*
Y034979D01*
X084876Y035072D01*
X084916Y035132D01*
X084918Y035143D01*
X084930Y035202D01*
Y035530D01*
X084918Y035589D01*
X084916Y035601D01*
X084876Y035660D01*
X084784Y035753D01*
Y036340D01*
X084770Y036410D01*
X084730Y036470D01*
X084170Y037030D01*
X084110Y037070D01*
X084099Y037072D01*
X084040Y037084D01*
X082541D01*
X082428Y037196D01*
Y037254D01*
X082512D01*
Y037946D01*
X082428D01*
Y038354D01*
X082512D01*
Y039046D01*
X082428D01*
Y039455D01*
X082417Y039514D01*
X082414Y039525D01*
X082375Y039585D01*
X080304Y041656D01*
X080244Y041696D01*
X080233Y041698D01*
X080174Y041710D01*
X079777D01*
Y041756D01*
X079769Y041797D01*
X079746Y041832D01*
X079711Y041856D01*
X079670Y041864D01*
X079130D01*
X079089Y041856D01*
X079054Y041832D01*
X079031Y041797D01*
X079023Y041756D01*
Y041710D01*
X078677D01*
Y041756D01*
X078669Y041797D01*
X078646Y041832D01*
X078611Y041856D01*
X078570Y041864D01*
X078030D01*
X077989Y041856D01*
X077954Y041832D01*
X077931Y041797D01*
X077923Y041756D01*
Y041684D01*
X077776D01*
X077716Y041672D01*
X077664Y041638D01*
X077360Y041333D01*
X076730D01*
Y041375D01*
X076080D01*
Y041250D01*
X076100D01*
Y041020D01*
Y040770D01*
Y040668D01*
X076098Y040662D01*
X076051Y040658D01*
X076050Y040658D01*
X076048Y040670D01*
X076045Y040685D01*
X076040Y040710D01*
X076036Y040715D01*
X076000Y040770D01*
X075940Y040810D01*
X075870Y040824D01*
X075800Y040810D01*
X075740Y040770D01*
X075700Y040710D01*
X075686Y040640D01*
X075700Y040570D01*
X075737Y040514D01*
Y035130D01*
X075748Y035079D01*
X075776Y035036D01*
X076666Y034146D01*
X076709Y034118D01*
X076760Y034107D01*
X079605D01*
X079917Y033795D01*
Y029705D01*
X078356Y028144D01*
X078328Y028101D01*
X078317Y028050D01*
Y026961D01*
X078298Y026931D01*
X078287Y026880D01*
Y024685D01*
X078085Y024483D01*
X078020Y024470D01*
X077960Y024430D01*
X077926Y024379D01*
X077886Y024384D01*
X077876Y024387D01*
Y029246D01*
X077866Y029297D01*
X077837Y029340D01*
X074833Y032345D01*
Y033350D01*
X074822Y033401D01*
X074794Y033444D01*
X074614Y033624D01*
X074571Y033652D01*
X074520Y033663D01*
X073615D01*
X070183Y037095D01*
Y044410D01*
X070172Y044461D01*
X070144Y044504D01*
X068783Y045865D01*
Y046128D01*
X068842Y046152D01*
X068921Y046213D01*
X068982Y046293D01*
X069020Y046385D01*
X069033Y046484D01*
X069020Y046583D01*
X068982Y046676D01*
X068921Y046755D01*
X068842Y046816D01*
X068749Y046854D01*
X068650Y046868D01*
D02*
G37*
G36*
X076920Y033084D02*
X076700D01*
Y032776D01*
X077048D01*
Y032956D01*
X077038Y033005D01*
X077010Y033047D01*
X076969Y033075D01*
X076920Y033084D01*
D02*
G37*
G36*
X072000Y045494D02*
X071972Y045488D01*
X071906Y045444D01*
X071862Y045378D01*
X071856Y045350D01*
X072000D01*
Y045494D01*
D02*
G37*
G36*
X072100D02*
Y045350D01*
X072244D01*
X072238Y045378D01*
X072194Y045444D01*
X072128Y045488D01*
X072100Y045494D01*
D02*
G37*
G36*
X084050Y034444D02*
Y034300D01*
X084194D01*
X084188Y034328D01*
X084144Y034394D01*
X084078Y034438D01*
X084050Y034444D01*
D02*
G37*
G36*
X083950D02*
X083922Y034438D01*
X083856Y034394D01*
X083812Y034328D01*
X083806Y034300D01*
X083950D01*
Y034444D01*
D02*
G37*
G36*
Y034700D02*
X083806D01*
X083812Y034672D01*
X083856Y034606D01*
X083922Y034562D01*
X083950Y034556D01*
Y034700D01*
D02*
G37*
G36*
X081422Y036346D02*
X080888D01*
Y035654D01*
X081422D01*
Y035725D01*
X081468Y035744D01*
X082806Y034406D01*
X082849Y034378D01*
X082892Y034369D01*
Y034318D01*
X082620D01*
X082144Y034794D01*
X082101Y034822D01*
X082050Y034833D01*
X081422D01*
Y035046D01*
X080888D01*
Y034354D01*
X081422D01*
Y034567D01*
X081995D01*
X082459Y034104D01*
X082442Y034055D01*
X082441Y034054D01*
X080930D01*
X080872Y034042D01*
X080860Y034040D01*
X080800Y034000D01*
X080690Y033890D01*
X080650Y033830D01*
X080648Y033819D01*
X080636Y033760D01*
Y033750D01*
X080365D01*
Y032250D01*
X081275D01*
Y033687D01*
X082892D01*
Y033652D01*
X083682D01*
Y033967D01*
Y034282D01*
Y034597D01*
Y034912D01*
Y035348D01*
X082892D01*
Y034912D01*
Y034761D01*
X082846Y034742D01*
X081494Y036094D01*
X081451Y036122D01*
X081422Y036128D01*
Y036346D01*
D02*
G37*
G36*
X051746Y034812D02*
X051054D01*
Y034278D01*
X051267D01*
Y034087D01*
X051080D01*
Y033447D01*
X051720D01*
Y034087D01*
X051533D01*
Y034278D01*
X051746D01*
Y034812D01*
D02*
G37*
G36*
X072000Y045250D02*
X071856D01*
X071862Y045222D01*
X071906Y045156D01*
X071972Y045112D01*
X072000Y045106D01*
Y045250D01*
D02*
G37*
G36*
X084194Y034200D02*
X084050D01*
Y034056D01*
X084078Y034062D01*
X084144Y034106D01*
X084188Y034172D01*
X084194Y034200D01*
D02*
G37*
G36*
X083950D02*
X083806D01*
X083812Y034172D01*
X083856Y034106D01*
X083922Y034062D01*
X083950Y034056D01*
Y034200D01*
D02*
G37*
G36*
X078250Y039984D02*
X078030D01*
X077981Y039975D01*
X077940Y039947D01*
X077912Y039905D01*
X077902Y039856D01*
Y039676D01*
X078250D01*
Y039984D01*
D02*
G37*
G36*
X055754Y039998D02*
X055574D01*
Y039650D01*
X055882D01*
Y039870D01*
X055873Y039919D01*
X055845Y039960D01*
X055803Y039988D01*
X055754Y039998D01*
D02*
G37*
G36*
X079350Y039984D02*
X079130D01*
X079081Y039975D01*
X079040Y039947D01*
X079012Y039905D01*
X079002Y039856D01*
Y039676D01*
X079350D01*
Y039984D01*
D02*
G37*
G36*
X078570D02*
X078350D01*
Y039676D01*
X078698D01*
Y039856D01*
X078688Y039905D01*
X078660Y039947D01*
X078619Y039975D01*
X078570Y039984D01*
D02*
G37*
G36*
X059008Y042218D02*
X058864D01*
Y042074D01*
X058892Y042079D01*
X058958Y042124D01*
X059002Y042190D01*
X059008Y042218D01*
D02*
G37*
G36*
X079798Y039576D02*
X079450D01*
Y039268D01*
X079670D01*
X079719Y039277D01*
X079760Y039305D01*
X079788Y039347D01*
X079798Y039396D01*
Y039576D01*
D02*
G37*
G36*
X055474Y039998D02*
X055294D01*
X055245Y039988D01*
X055203Y039960D01*
X055175Y039919D01*
X055166Y039870D01*
Y039650D01*
X055474D01*
Y039998D01*
D02*
G37*
G36*
X058764Y042218D02*
X058620D01*
X058626Y042190D01*
X058670Y042124D01*
X058736Y042079D01*
X058764Y042074D01*
Y042218D01*
D02*
G37*
G36*
X078250Y042224D02*
X077902D01*
Y042044D01*
X077912Y041995D01*
X077940Y041953D01*
X077981Y041925D01*
X078030Y041916D01*
X078250D01*
Y042224D01*
D02*
G37*
G36*
X078698D02*
X078350D01*
Y041916D01*
X078570D01*
X078619Y041925D01*
X078660Y041953D01*
X078688Y041995D01*
X078698Y042044D01*
Y042224D01*
D02*
G37*
G36*
X072920Y042712D02*
X072380D01*
X072339Y042704D01*
X072304Y042680D01*
X072281Y042646D01*
X072273Y042604D01*
Y042144D01*
X072281Y042103D01*
X072304Y042068D01*
X072339Y042044D01*
X072380Y042036D01*
X072920D01*
X072961Y042044D01*
X072996Y042068D01*
X073019Y042103D01*
X073027Y042144D01*
Y042241D01*
X073440D01*
X073491Y042252D01*
X073534Y042280D01*
X073546Y042292D01*
X073990D01*
Y042270D01*
Y042020D01*
Y041808D01*
X073475D01*
X073424Y041797D01*
X073381Y041769D01*
X073266Y041654D01*
X073238Y041611D01*
X073227Y041560D01*
Y041185D01*
X073045Y041003D01*
X072115D01*
X072064Y040992D01*
X072021Y040964D01*
X071830Y040772D01*
X071780D01*
X071752Y040822D01*
X071764Y040880D01*
X071750Y040950D01*
X071710Y041010D01*
X071650Y041050D01*
X071580Y041064D01*
X071510Y041050D01*
X071450Y041010D01*
X071447Y041004D01*
X071438Y041002D01*
X071395Y040974D01*
X071273Y040852D01*
X071261Y040844D01*
X071232Y040801D01*
X071222Y040750D01*
Y039981D01*
X071232Y039930D01*
X071261Y039887D01*
X071346Y039801D01*
X071389Y039772D01*
X071404Y039769D01*
Y039628D01*
X072096D01*
Y040162D01*
X071487D01*
Y040238D01*
X072096D01*
Y040397D01*
X072146Y040412D01*
X072170Y040375D01*
X072230Y040336D01*
X072300Y040322D01*
X072370Y040336D01*
X072426Y040373D01*
X072504D01*
Y040238D01*
X073196D01*
Y040772D01*
X073227Y040809D01*
X073454Y041036D01*
X073482Y041079D01*
X073493Y041130D01*
X073493Y041130D01*
Y041505D01*
X073530Y041542D01*
X073990D01*
Y041520D01*
Y041350D01*
X073970D01*
Y041225D01*
X074620D01*
Y041350D01*
X074600D01*
Y041520D01*
Y041767D01*
X074775D01*
X074830Y041730D01*
X074900Y041716D01*
X074970Y041730D01*
X075030Y041770D01*
X075070Y041830D01*
X075084Y041900D01*
X075070Y041970D01*
X075030Y042030D01*
X074970Y042070D01*
X074900Y042084D01*
X074886Y042081D01*
X074875Y042083D01*
X074600D01*
Y042270D01*
Y042580D01*
X073990D01*
Y042558D01*
X073491D01*
X073440Y042547D01*
X073397Y042519D01*
X073385Y042507D01*
X073027D01*
Y042604D01*
X073019Y042646D01*
X072996Y042680D01*
X072961Y042704D01*
X072920Y042712D01*
D02*
G37*
G36*
Y041964D02*
X072380D01*
X072339Y041956D01*
X072304Y041932D01*
X072281Y041897D01*
X072273Y041856D01*
Y041759D01*
X071990D01*
X071934Y041796D01*
X071864Y041810D01*
X071794Y041796D01*
X071734Y041756D01*
X071694Y041696D01*
X071680Y041626D01*
X071694Y041556D01*
X071734Y041496D01*
X071794Y041456D01*
X071864Y041442D01*
X071934Y041456D01*
X071990Y041493D01*
X072273D01*
Y041396D01*
X072281Y041354D01*
X072304Y041320D01*
X072339Y041296D01*
X072380Y041288D01*
X072920D01*
X072961Y041296D01*
X072996Y041320D01*
X073019Y041354D01*
X073027Y041396D01*
Y041856D01*
X073019Y041897D01*
X072996Y041932D01*
X072961Y041956D01*
X072920Y041964D01*
D02*
G37*
G36*
X058306Y043477D02*
X057846D01*
X057804Y043469D01*
X057770Y043446D01*
X057746Y043411D01*
X057738Y043370D01*
Y042830D01*
X057746Y042789D01*
X057770Y042754D01*
X057804Y042731D01*
X057846Y042723D01*
X057943D01*
Y042114D01*
X057954Y042063D01*
X057982Y042020D01*
X058217Y041785D01*
Y041365D01*
X058215Y041365D01*
X058089Y041313D01*
X057981Y041230D01*
X057898Y041122D01*
X057846Y040996D01*
X057828Y040861D01*
X057846Y040726D01*
X057898Y040600D01*
X057981Y040492D01*
X058089Y040409D01*
X058215Y040356D01*
X058350Y040339D01*
X058485Y040356D01*
X058611Y040409D01*
X058719Y040492D01*
X058802Y040600D01*
X058854Y040726D01*
X058872Y040861D01*
X058854Y040996D01*
X058802Y041122D01*
X058719Y041230D01*
X058611Y041313D01*
X058485Y041365D01*
X058483Y041365D01*
Y041840D01*
X058472Y041891D01*
X058444Y041934D01*
X058209Y042169D01*
Y042723D01*
X058306D01*
X058347Y042731D01*
X058382Y042754D01*
X058406Y042789D01*
X058414Y042830D01*
Y043370D01*
X058406Y043411D01*
X058382Y043446D01*
X058347Y043469D01*
X058306Y043477D01*
D02*
G37*
G36*
X079670Y039984D02*
X079450D01*
Y039676D01*
X079798D01*
Y039856D01*
X079788Y039905D01*
X079760Y039947D01*
X079719Y039975D01*
X079670Y039984D01*
D02*
G37*
G36*
X079350Y042224D02*
X079002D01*
Y042044D01*
X079012Y041995D01*
X079040Y041953D01*
X079081Y041925D01*
X079130Y041916D01*
X079350D01*
Y042224D01*
D02*
G37*
G36*
X079798D02*
X079450D01*
Y041916D01*
X079670D01*
X079719Y041925D01*
X079760Y041953D01*
X079788Y041995D01*
X079798Y042044D01*
Y042224D01*
D02*
G37*
G36*
X078570Y042632D02*
X078350D01*
Y042324D01*
X078698D01*
Y042504D01*
X078688Y042553D01*
X078660Y042595D01*
X078619Y042623D01*
X078570Y042632D01*
D02*
G37*
G36*
X079350D02*
X079130D01*
X079081Y042623D01*
X079040Y042595D01*
X079012Y042553D01*
X079002Y042504D01*
Y042324D01*
X079350D01*
Y042632D01*
D02*
G37*
G36*
X058864Y042462D02*
Y042318D01*
X059008D01*
X059002Y042346D01*
X058958Y042412D01*
X058892Y042456D01*
X058864Y042462D01*
D02*
G37*
G36*
X078250Y042632D02*
X078030D01*
X077981Y042623D01*
X077940Y042595D01*
X077912Y042553D01*
X077902Y042504D01*
Y042324D01*
X078250D01*
Y042632D01*
D02*
G37*
G36*
X059182Y043050D02*
X058874D01*
Y042702D01*
X059054D01*
X059103Y042712D01*
X059145Y042740D01*
X059173Y042781D01*
X059182Y042830D01*
Y043050D01*
D02*
G37*
G36*
X054350Y038338D02*
X054237Y038323D01*
X054131Y038279D01*
X054040Y038210D01*
X053971Y038119D01*
X053927Y038013D01*
X053912Y037900D01*
X053927Y037787D01*
X053971Y037681D01*
X054040Y037590D01*
X054131Y037521D01*
X054237Y037477D01*
X054350Y037462D01*
X054463Y037477D01*
X054569Y037521D01*
X054660Y037590D01*
X054729Y037681D01*
X054773Y037787D01*
X054788Y037900D01*
X054773Y038013D01*
X054729Y038119D01*
X054660Y038210D01*
X054569Y038279D01*
X054463Y038323D01*
X054350Y038338D01*
D02*
G37*
G36*
X079670Y042632D02*
X079450D01*
Y042324D01*
X079798D01*
Y042504D01*
X079788Y042553D01*
X079760Y042595D01*
X079719Y042623D01*
X079670Y042632D01*
D02*
G37*
G36*
X058774Y043050D02*
X058466D01*
Y042830D01*
X058475Y042781D01*
X058503Y042740D01*
X058545Y042712D01*
X058594Y042702D01*
X058774D01*
Y043050D01*
D02*
G37*
G36*
X078250Y039576D02*
X077902D01*
Y039396D01*
X077912Y039347D01*
X077940Y039305D01*
X077981Y039277D01*
X078030Y039268D01*
X078250D01*
Y039576D01*
D02*
G37*
G36*
X055882Y039550D02*
X055574D01*
Y039202D01*
X055754D01*
X055803Y039212D01*
X055845Y039240D01*
X055873Y039281D01*
X055882Y039330D01*
Y039550D01*
D02*
G37*
G36*
X079350Y039576D02*
X079002D01*
Y039396D01*
X079012Y039347D01*
X079040Y039305D01*
X079081Y039277D01*
X079130Y039268D01*
X079350D01*
Y039576D01*
D02*
G37*
G36*
X078698D02*
X078350D01*
Y039268D01*
X078570D01*
X078619Y039277D01*
X078660Y039305D01*
X078688Y039347D01*
X078698Y039396D01*
Y039576D01*
D02*
G37*
G36*
X083122Y039046D02*
X082588D01*
Y038354D01*
X083122D01*
Y038567D01*
X083413D01*
Y038380D01*
X084053D01*
Y039020D01*
X083413D01*
Y038833D01*
X083122D01*
Y039046D01*
D02*
G37*
G36*
X058764Y042462D02*
X058736Y042456D01*
X058670Y042412D01*
X058626Y042346D01*
X058620Y042318D01*
X058764D01*
Y042462D01*
D02*
G37*
G36*
X055474Y039550D02*
X055166D01*
Y039330D01*
X055175Y039281D01*
X055203Y039240D01*
X055245Y039212D01*
X055294Y039202D01*
X055474D01*
Y039550D01*
D02*
G37*
G36*
X080770Y043483D02*
X071050D01*
X070999Y043472D01*
X070956Y043444D01*
X070356Y042844D01*
X070328Y042801D01*
X070317Y042750D01*
Y039700D01*
X070328Y039649D01*
X070356Y039606D01*
X071156Y038806D01*
X071199Y038778D01*
X071250Y038767D01*
X073150D01*
X073201Y038778D01*
X073244Y038806D01*
X073744Y039306D01*
X073772Y039349D01*
X073783Y039400D01*
Y039995D01*
X073830Y040042D01*
X073990D01*
Y040020D01*
X074600D01*
Y040270D01*
Y040520D01*
Y040770D01*
Y041000D01*
X074620D01*
Y041125D01*
X073970D01*
Y041000D01*
X073990D01*
Y040770D01*
Y040520D01*
Y040308D01*
X073775D01*
X073724Y040297D01*
X073681Y040269D01*
X073556Y040144D01*
X073528Y040101D01*
X073517Y040050D01*
Y039455D01*
X073095Y039033D01*
X071305D01*
X070583Y039755D01*
Y042695D01*
X071105Y043217D01*
X080715D01*
X084863Y039070D01*
X084842Y039020D01*
X084699D01*
Y039083D01*
X084689Y039134D01*
X084660Y039177D01*
X080744Y043094D01*
X080701Y043122D01*
X080650Y043133D01*
X078020D01*
X077969Y043122D01*
X077926Y043094D01*
X076756Y041924D01*
X076710Y041943D01*
Y042020D01*
Y042270D01*
Y042580D01*
X076100D01*
Y042558D01*
X075880D01*
X075394Y043044D01*
X075351Y043072D01*
X075300Y043083D01*
X071500D01*
X071449Y043072D01*
X071406Y043044D01*
X070756Y042394D01*
X070728Y042351D01*
X070717Y042300D01*
Y039850D01*
X070728Y039799D01*
X070756Y039756D01*
X071256Y039256D01*
X071299Y039228D01*
X071350Y039217D01*
X072600D01*
X072651Y039228D01*
X072694Y039256D01*
X072944Y039506D01*
X072972Y039549D01*
X072983Y039600D01*
Y039628D01*
X073196D01*
Y040162D01*
X072504D01*
Y039628D01*
X072625D01*
X072644Y039582D01*
X072545Y039483D01*
X071405D01*
X070983Y039905D01*
Y042245D01*
X071555Y042817D01*
X075245D01*
X075731Y042331D01*
X075774Y042303D01*
X075825Y042292D01*
X076100D01*
Y042270D01*
Y042020D01*
Y041770D01*
Y041600D01*
X076080D01*
Y041475D01*
X076730D01*
Y041549D01*
X076746Y041553D01*
X076789Y041581D01*
X078075Y042867D01*
X080595D01*
X084393Y039070D01*
X084372Y039020D01*
X084247D01*
Y038380D01*
X084887D01*
Y038973D01*
X084930Y038992D01*
X084967Y038961D01*
Y037855D01*
X084933Y037820D01*
X084887Y037839D01*
Y037920D01*
X084247D01*
Y037280D01*
X084887D01*
Y037467D01*
X084900D01*
X084951Y037478D01*
X084994Y037506D01*
X085194Y037706D01*
X085222Y037749D01*
X085233Y037800D01*
Y039020D01*
X085222Y039071D01*
X085194Y039114D01*
X080864Y043444D01*
X080821Y043472D01*
X080770Y043483D01*
D02*
G37*
G36*
X076600Y033084D02*
X076380D01*
X076331Y033075D01*
X076290Y033047D01*
X076262Y033005D01*
X076252Y032956D01*
Y032776D01*
X076600D01*
Y033084D01*
D02*
G37*
G36*
X055500Y028312D02*
Y027950D01*
X055862D01*
X055854Y028008D01*
X055812Y028109D01*
X055746Y028196D01*
X055659Y028262D01*
X055558Y028304D01*
X055500Y028312D01*
D02*
G37*
G36*
X055400D02*
X055342Y028304D01*
X055241Y028262D01*
X055154Y028196D01*
X055088Y028109D01*
X055046Y028008D01*
X055038Y027950D01*
X055400D01*
Y028312D01*
D02*
G37*
G36*
X082300Y028412D02*
Y028050D01*
X082662D01*
X082654Y028108D01*
X082612Y028209D01*
X082546Y028296D01*
X082459Y028362D01*
X082358Y028404D01*
X082300Y028412D01*
D02*
G37*
G36*
X082200D02*
X082142Y028404D01*
X082041Y028362D01*
X081954Y028296D01*
X081888Y028209D01*
X081846Y028108D01*
X081838Y028050D01*
X082200D01*
Y028412D01*
D02*
G37*
G36*
X087631Y027950D02*
X087284D01*
Y027603D01*
X087339Y027610D01*
X087436Y027651D01*
X087520Y027715D01*
X087584Y027798D01*
X087624Y027896D01*
X087631Y027950D01*
D02*
G37*
G36*
X087184D02*
X086837D01*
X086845Y027896D01*
X086885Y027798D01*
X086949Y027715D01*
X087033Y027651D01*
X087130Y027610D01*
X087184Y027603D01*
Y027950D01*
D02*
G37*
G36*
X052284Y028297D02*
Y027950D01*
X052631D01*
X052624Y028004D01*
X052584Y028102D01*
X052520Y028185D01*
X052436Y028249D01*
X052339Y028290D01*
X052284Y028297D01*
D02*
G37*
G36*
X052184D02*
X052130Y028290D01*
X052033Y028249D01*
X051949Y028185D01*
X051885Y028102D01*
X051845Y028004D01*
X051837Y027950D01*
X052184D01*
Y028297D01*
D02*
G37*
G36*
X072966Y025583D02*
X072867Y025570D01*
X072774Y025532D01*
X072695Y025471D01*
X072634Y025392D01*
X072596Y025299D01*
X072582Y025200D01*
X072596Y025101D01*
X072634Y025008D01*
X072695Y024929D01*
X072774Y024868D01*
X072867Y024830D01*
X072966Y024817D01*
X073065Y024830D01*
X073157Y024868D01*
X073237Y024929D01*
X073298Y025008D01*
X073336Y025101D01*
X073349Y025200D01*
X073336Y025299D01*
X073298Y025392D01*
X073237Y025471D01*
X073157Y025532D01*
X073065Y025570D01*
X072966Y025583D01*
D02*
G37*
G36*
X072866Y029583D02*
X072767Y029570D01*
X072674Y029532D01*
X072595Y029471D01*
X072534Y029392D01*
X072496Y029299D01*
X072482Y029200D01*
X072496Y029101D01*
X072534Y029008D01*
X072595Y028929D01*
X072674Y028868D01*
X072767Y028830D01*
X072866Y028817D01*
X072965Y028830D01*
X073024Y028854D01*
X073472Y028406D01*
X073515Y028378D01*
X073566Y028367D01*
X075320D01*
X075371Y028378D01*
X075414Y028406D01*
X075670Y028662D01*
X076004D01*
Y028528D01*
X076696D01*
Y029062D01*
X076004D01*
Y028927D01*
X075615D01*
X075564Y028917D01*
X075521Y028889D01*
X075265Y028633D01*
X073621D01*
X073211Y029042D01*
X073236Y029101D01*
X073249Y029200D01*
X073236Y029299D01*
X073198Y029392D01*
X073137Y029471D01*
X073057Y029532D01*
X072965Y029570D01*
X072866Y029583D01*
D02*
G37*
G36*
X083598Y024876D02*
X083250D01*
Y024568D01*
X083470D01*
X083519Y024577D01*
X083560Y024605D01*
X083588Y024647D01*
X083598Y024696D01*
Y024876D01*
D02*
G37*
G36*
X083150D02*
X082802D01*
Y024696D01*
X082812Y024647D01*
X082840Y024605D01*
X082881Y024577D01*
X082930Y024568D01*
X083150D01*
Y024876D01*
D02*
G37*
G36*
X064884Y029050D02*
X064537D01*
X064545Y028996D01*
X064585Y028898D01*
X064649Y028815D01*
X064733Y028751D01*
X064830Y028710D01*
X064884Y028703D01*
Y029050D01*
D02*
G37*
G36*
X087284Y028397D02*
Y028050D01*
X087631D01*
X087624Y028104D01*
X087584Y028202D01*
X087520Y028285D01*
X087436Y028349D01*
X087339Y028390D01*
X087284Y028397D01*
D02*
G37*
G36*
X087184D02*
X087130Y028390D01*
X087033Y028349D01*
X086949Y028285D01*
X086885Y028202D01*
X086845Y028104D01*
X086837Y028050D01*
X087184D01*
Y028397D01*
D02*
G37*
G36*
X074884Y025150D02*
X074537D01*
X074545Y025096D01*
X074585Y024998D01*
X074649Y024915D01*
X074733Y024851D01*
X074830Y024810D01*
X074884Y024803D01*
Y025150D01*
D02*
G37*
G36*
X075331D02*
X074984D01*
Y024803D01*
X075039Y024810D01*
X075136Y024851D01*
X075220Y024915D01*
X075284Y024998D01*
X075324Y025096D01*
X075331Y025150D01*
D02*
G37*
G36*
X074884Y025597D02*
X074830Y025590D01*
X074733Y025549D01*
X074649Y025485D01*
X074585Y025402D01*
X074545Y025304D01*
X074537Y025250D01*
X074884D01*
Y025597D01*
D02*
G37*
G36*
X085266Y028383D02*
X085167Y028370D01*
X085074Y028332D01*
X084995Y028271D01*
X084934Y028192D01*
X084896Y028099D01*
X084882Y028000D01*
X084896Y027901D01*
X084934Y027808D01*
X084995Y027729D01*
X085074Y027668D01*
X085133Y027644D01*
Y026734D01*
X085143Y026684D01*
X085172Y026641D01*
X085812Y026000D01*
Y025846D01*
X085678D01*
Y025154D01*
X086212D01*
Y025846D01*
X086077D01*
Y026055D01*
X086067Y026106D01*
X086039Y026149D01*
X085398Y026789D01*
Y027644D01*
X085457Y027668D01*
X085537Y027729D01*
X085598Y027808D01*
X085636Y027901D01*
X085649Y028000D01*
X085636Y028099D01*
X085598Y028192D01*
X085537Y028271D01*
X085457Y028332D01*
X085365Y028370D01*
X085266Y028383D01*
D02*
G37*
G36*
X060550Y026238D02*
X060437Y026223D01*
X060331Y026179D01*
X060240Y026110D01*
X060171Y026019D01*
X060127Y025913D01*
X060112Y025800D01*
X060127Y025687D01*
X060171Y025581D01*
X060240Y025490D01*
X060331Y025421D01*
X060437Y025377D01*
X060550Y025362D01*
X060663Y025377D01*
X060769Y025421D01*
X060860Y025490D01*
X060929Y025581D01*
X060973Y025687D01*
X060988Y025800D01*
X060973Y025913D01*
X060929Y026019D01*
X060860Y026110D01*
X060769Y026179D01*
X060663Y026223D01*
X060550Y026238D01*
D02*
G37*
G36*
X074984Y025597D02*
Y025250D01*
X075331D01*
X075324Y025304D01*
X075284Y025402D01*
X075220Y025485D01*
X075136Y025549D01*
X075039Y025590D01*
X074984Y025597D01*
D02*
G37*
G36*
X068850Y025579D02*
X068752Y025566D01*
X068661Y025528D01*
X068582Y025468D01*
X068522Y025389D01*
X068484Y025298D01*
X068471Y025200D01*
X068484Y025102D01*
X068487Y025096D01*
X067920Y024530D01*
X067880Y024470D01*
X067878Y024459D01*
X067866Y024400D01*
Y021997D01*
X067596D01*
Y021050D01*
X068504D01*
Y021997D01*
X068234D01*
Y024324D01*
X068746Y024837D01*
X068752Y024834D01*
X068850Y024821D01*
X068948Y024834D01*
X069039Y024872D01*
X069118Y024932D01*
X069178Y025011D01*
X069216Y025102D01*
X069229Y025200D01*
X069216Y025298D01*
X069178Y025389D01*
X069118Y025468D01*
X069039Y025528D01*
X068948Y025566D01*
X068850Y025579D01*
D02*
G37*
G36*
X067866D02*
X067768Y025566D01*
X067676Y025528D01*
X067598Y025468D01*
X067538Y025389D01*
X067500Y025298D01*
X067487Y025200D01*
X067500Y025102D01*
X067538Y025011D01*
X067598Y024932D01*
X067676Y024872D01*
X067768Y024834D01*
X067866Y024821D01*
X067964Y024834D01*
X068055Y024872D01*
X068133Y024932D01*
X068194Y025011D01*
X068231Y025102D01*
X068244Y025200D01*
X068231Y025298D01*
X068194Y025389D01*
X068133Y025468D01*
X068055Y025528D01*
X067964Y025566D01*
X067866Y025579D01*
D02*
G37*
G36*
X083470Y025284D02*
X083250D01*
Y024976D01*
X083598D01*
Y025156D01*
X083588Y025205D01*
X083560Y025247D01*
X083519Y025275D01*
X083470Y025284D01*
D02*
G37*
G36*
X083150D02*
X082930D01*
X082881Y025275D01*
X082840Y025247D01*
X082812Y025205D01*
X082802Y025156D01*
Y024976D01*
X083150D01*
Y025284D01*
D02*
G37*
G36*
X056000Y031604D02*
X055930Y031590D01*
X055870Y031550D01*
X055830Y031490D01*
X055817Y031425D01*
X054674Y030281D01*
X054645Y030238D01*
X054635Y030187D01*
Y026977D01*
X054645Y026927D01*
X054674Y026884D01*
X055165Y026392D01*
X055146Y026346D01*
X055078D01*
Y025654D01*
X055612D01*
Y026346D01*
X055477D01*
Y026400D01*
X055467Y026451D01*
X055439Y026494D01*
X054900Y027032D01*
Y030133D01*
X056005Y031237D01*
X056070Y031250D01*
X056130Y031290D01*
X056170Y031350D01*
X056184Y031420D01*
X056170Y031490D01*
X056130Y031550D01*
X056070Y031590D01*
X056000Y031604D01*
D02*
G37*
G36*
X052631Y027850D02*
X052284D01*
Y027503D01*
X052339Y027510D01*
X052436Y027551D01*
X052520Y027615D01*
X052584Y027698D01*
X052624Y027796D01*
X052631Y027850D01*
D02*
G37*
G36*
X052184D02*
X051837D01*
X051845Y027796D01*
X051885Y027698D01*
X051949Y027615D01*
X052033Y027551D01*
X052130Y027510D01*
X052184Y027503D01*
Y027850D01*
D02*
G37*
G36*
X082662Y027950D02*
X082300D01*
Y027588D01*
X082358Y027596D01*
X082459Y027638D01*
X082546Y027704D01*
X082612Y027791D01*
X082654Y027892D01*
X082662Y027950D01*
D02*
G37*
G36*
X082200D02*
X081838D01*
X081846Y027892D01*
X081888Y027791D01*
X081954Y027704D01*
X082041Y027638D01*
X082142Y027596D01*
X082200Y027588D01*
Y027950D01*
D02*
G37*
G36*
X060550Y027238D02*
X060437Y027223D01*
X060331Y027179D01*
X060240Y027110D01*
X060171Y027019D01*
X060127Y026913D01*
X060112Y026800D01*
X060127Y026687D01*
X060171Y026581D01*
X060240Y026490D01*
X060331Y026421D01*
X060437Y026377D01*
X060550Y026362D01*
X060663Y026377D01*
X060769Y026421D01*
X060860Y026490D01*
X060929Y026581D01*
X060973Y026687D01*
X060988Y026800D01*
X060973Y026913D01*
X060929Y027019D01*
X060860Y027110D01*
X060769Y027179D01*
X060663Y027223D01*
X060550Y027238D01*
D02*
G37*
G36*
X056450Y028298D02*
X056347Y028285D01*
X056251Y028245D01*
X056168Y028182D01*
X056105Y028099D01*
X056065Y028003D01*
X056052Y027900D01*
X056065Y027797D01*
X056105Y027701D01*
X056168Y027618D01*
X056251Y027555D01*
X056317Y027527D01*
Y027250D01*
X055861Y026794D01*
X055833Y026751D01*
X055823Y026700D01*
Y026346D01*
X055688D01*
Y025654D01*
X056222D01*
Y026346D01*
X056088D01*
Y026645D01*
X056544Y027101D01*
X056572Y027144D01*
X056583Y027195D01*
Y027527D01*
X056649Y027555D01*
X056732Y027618D01*
X056795Y027701D01*
X056835Y027797D01*
X056848Y027900D01*
X056835Y028003D01*
X056795Y028099D01*
X056732Y028182D01*
X056649Y028245D01*
X056553Y028285D01*
X056450Y028298D01*
D02*
G37*
G36*
X055862Y027850D02*
X055500D01*
Y027488D01*
X055558Y027496D01*
X055659Y027538D01*
X055746Y027604D01*
X055812Y027691D01*
X055854Y027792D01*
X055862Y027850D01*
D02*
G37*
G36*
X055400D02*
X055038D01*
X055046Y027792D01*
X055088Y027691D01*
X055154Y027604D01*
X055241Y027538D01*
X055342Y027496D01*
X055400Y027488D01*
Y027850D01*
D02*
G37*
G36*
X054659Y033817D02*
X054461Y033801D01*
X054268Y033755D01*
X054085Y033679D01*
X053916Y033575D01*
X053765Y033446D01*
X053636Y033295D01*
X053532Y033126D01*
X053456Y032942D01*
X053410Y032749D01*
X053394Y032552D01*
X053410Y032354D01*
X053456Y032161D01*
X053532Y031977D01*
X053636Y031808D01*
X053765Y031657D01*
X053916Y031528D01*
X054085Y031424D01*
X054268Y031348D01*
X054461Y031302D01*
X054659Y031287D01*
X054857Y031302D01*
X055050Y031348D01*
X055233Y031424D01*
X055403Y031528D01*
X055554Y031657D01*
X055682Y031808D01*
X055786Y031977D01*
X055862Y032161D01*
X055908Y032354D01*
X055924Y032552D01*
X055908Y032749D01*
X055862Y032942D01*
X055786Y033126D01*
X055682Y033295D01*
X055554Y033446D01*
X055403Y033575D01*
X055233Y033679D01*
X055050Y033755D01*
X054857Y033801D01*
X054659Y033817D01*
D02*
G37*
G36*
X060550Y030238D02*
X060437Y030223D01*
X060331Y030179D01*
X060240Y030110D01*
X060171Y030019D01*
X060127Y029913D01*
X060112Y029800D01*
X060127Y029687D01*
X060171Y029581D01*
X060240Y029490D01*
X060331Y029421D01*
X060437Y029377D01*
X060550Y029362D01*
X060663Y029377D01*
X060769Y029421D01*
X060860Y029490D01*
X060929Y029581D01*
X060973Y029687D01*
X060988Y029800D01*
X060973Y029913D01*
X060929Y030019D01*
X060860Y030110D01*
X060769Y030179D01*
X060663Y030223D01*
X060550Y030238D01*
D02*
G37*
G36*
X075400Y032676D02*
X075052D01*
Y032496D01*
X075062Y032447D01*
X075090Y032405D01*
X075131Y032377D01*
X075180Y032368D01*
X075400D01*
Y032676D01*
D02*
G37*
G36*
X064041Y033817D02*
X063843Y033801D01*
X063650Y033755D01*
X063467Y033679D01*
X063297Y033575D01*
X063146Y033446D01*
X063018Y033295D01*
X062914Y033126D01*
X062838Y032942D01*
X062792Y032749D01*
X062776Y032552D01*
X062792Y032354D01*
X062838Y032161D01*
X062914Y031977D01*
X063018Y031808D01*
X063146Y031657D01*
X063297Y031528D01*
X063467Y031424D01*
X063650Y031348D01*
X063843Y031302D01*
X064041Y031287D01*
X064239Y031302D01*
X064432Y031348D01*
X064615Y031424D01*
X064784Y031528D01*
X064935Y031657D01*
X065064Y031808D01*
X065168Y031977D01*
X065244Y032161D01*
X065290Y032354D01*
X065306Y032552D01*
X065290Y032749D01*
X065244Y032942D01*
X065168Y033126D01*
X065064Y033295D01*
X064935Y033446D01*
X064784Y033575D01*
X064615Y033679D01*
X064432Y033755D01*
X064239Y033801D01*
X064041Y033817D01*
D02*
G37*
G36*
X074884Y029597D02*
Y029250D01*
X075231D01*
X075224Y029304D01*
X075184Y029402D01*
X075120Y029485D01*
X075036Y029549D01*
X074939Y029590D01*
X074884Y029597D01*
D02*
G37*
G36*
X069684D02*
X069630Y029590D01*
X069533Y029549D01*
X069449Y029485D01*
X069385Y029402D01*
X069345Y029304D01*
X069337Y029250D01*
X069684D01*
Y029597D01*
D02*
G37*
G36*
X064984Y029497D02*
Y029150D01*
X065331D01*
X065324Y029204D01*
X065284Y029302D01*
X065220Y029385D01*
X065136Y029449D01*
X065039Y029490D01*
X064984Y029497D01*
D02*
G37*
G36*
X074784Y029597D02*
X074730Y029590D01*
X074633Y029549D01*
X074549Y029485D01*
X074485Y029402D01*
X074445Y029304D01*
X074437Y029250D01*
X074784D01*
Y029597D01*
D02*
G37*
G36*
X069784D02*
Y029250D01*
X070131D01*
X070124Y029304D01*
X070084Y029402D01*
X070020Y029485D01*
X069936Y029549D01*
X069839Y029590D01*
X069784Y029597D01*
D02*
G37*
G36*
X075848Y032676D02*
X075500D01*
Y032368D01*
X075720D01*
X075769Y032377D01*
X075810Y032405D01*
X075838Y032447D01*
X075848Y032496D01*
Y032676D01*
D02*
G37*
G36*
X079737Y033750D02*
X078827D01*
Y033184D01*
X078600D01*
X078541Y033172D01*
X078530Y033170D01*
X078470Y033130D01*
X078073Y032733D01*
X078027Y032752D01*
Y032844D01*
X077473D01*
Y032133D01*
X078027D01*
Y032305D01*
X078088D01*
X078147Y032316D01*
X078158Y032319D01*
X078218Y032358D01*
X078676Y032816D01*
X078827D01*
Y032250D01*
X079737D01*
Y033750D01*
D02*
G37*
G36*
X051740Y032883D02*
X051450D01*
Y032593D01*
X051740D01*
Y032883D01*
D02*
G37*
G36*
X075720Y033084D02*
X075500D01*
Y032776D01*
X075848D01*
Y032956D01*
X075838Y033005D01*
X075810Y033047D01*
X075769Y033075D01*
X075720Y033084D01*
D02*
G37*
G36*
X075400D02*
X075180D01*
X075131Y033075D01*
X075090Y033047D01*
X075062Y033005D01*
X075052Y032956D01*
Y032776D01*
X075400D01*
Y033084D01*
D02*
G37*
G36*
X051350Y032883D02*
X051060D01*
Y032593D01*
X051350D01*
Y032883D01*
D02*
G37*
G36*
X077048Y032676D02*
X076700D01*
Y032368D01*
X076920D01*
X076969Y032377D01*
X077010Y032405D01*
X077038Y032447D01*
X077048Y032496D01*
Y032676D01*
D02*
G37*
G36*
X076600D02*
X076252D01*
Y032496D01*
X076262Y032447D01*
X076290Y032405D01*
X076331Y032377D01*
X076380Y032368D01*
X076600D01*
Y032676D01*
D02*
G37*
G36*
X086005Y033182D02*
X085057D01*
Y032392D01*
X086005D01*
Y033182D01*
D02*
G37*
G36*
X083839D02*
X082892D01*
Y032392D01*
X083839D01*
Y033182D01*
D02*
G37*
G36*
X075231Y029150D02*
X074884D01*
Y028803D01*
X074939Y028810D01*
X075036Y028851D01*
X075120Y028915D01*
X075184Y028998D01*
X075224Y029096D01*
X075231Y029150D01*
D02*
G37*
G36*
X060550Y025238D02*
X060437Y025223D01*
X060331Y025179D01*
X060240Y025110D01*
X060171Y025019D01*
X060127Y024913D01*
X060112Y024800D01*
X060127Y024687D01*
X060171Y024581D01*
X060240Y024490D01*
X060331Y024421D01*
X060437Y024377D01*
X060550Y024362D01*
X060663Y024377D01*
X060769Y024421D01*
X060860Y024490D01*
X060929Y024581D01*
X060973Y024687D01*
X060988Y024800D01*
X060973Y024913D01*
X060929Y025019D01*
X060860Y025110D01*
X060769Y025179D01*
X060663Y025223D01*
X060550Y025238D01*
D02*
G37*
G36*
X070131Y029150D02*
X069784D01*
Y028803D01*
X069839Y028810D01*
X069936Y028851D01*
X070020Y028915D01*
X070084Y028998D01*
X070124Y029096D01*
X070131Y029150D01*
D02*
G37*
G36*
X067766Y029583D02*
X067667Y029570D01*
X067574Y029532D01*
X067495Y029471D01*
X067434Y029392D01*
X067396Y029299D01*
X067382Y029200D01*
X067396Y029101D01*
X067434Y029008D01*
X067495Y028929D01*
X067574Y028868D01*
X067667Y028830D01*
X067766Y028817D01*
X067865Y028830D01*
X067924Y028854D01*
X068272Y028506D01*
X068315Y028478D01*
X068366Y028467D01*
X070370D01*
X070421Y028478D01*
X070464Y028506D01*
X070620Y028662D01*
X071004D01*
Y028528D01*
X071167D01*
Y025190D01*
X071178Y025139D01*
X071206Y025096D01*
X072667Y023635D01*
X072680Y023570D01*
X072720Y023510D01*
X072780Y023470D01*
X072850Y023456D01*
X072920Y023470D01*
X072980Y023510D01*
X073020Y023570D01*
X073034Y023640D01*
X073020Y023710D01*
X072980Y023770D01*
X072920Y023810D01*
X072855Y023823D01*
X071433Y025245D01*
Y028528D01*
X071696D01*
Y029062D01*
X071004D01*
Y028927D01*
X070565D01*
X070514Y028917D01*
X070471Y028889D01*
X070315Y028733D01*
X068421D01*
X068111Y029042D01*
X068136Y029101D01*
X068149Y029200D01*
X068136Y029299D01*
X068098Y029392D01*
X068037Y029471D01*
X067957Y029532D01*
X067865Y029570D01*
X067766Y029583D01*
D02*
G37*
G36*
X074784Y029150D02*
X074437D01*
X074445Y029096D01*
X074485Y028998D01*
X074549Y028915D01*
X074633Y028851D01*
X074730Y028810D01*
X074784Y028803D01*
Y029150D01*
D02*
G37*
G36*
X064884Y029497D02*
X064830Y029490D01*
X064733Y029449D01*
X064649Y029385D01*
X064585Y029302D01*
X064545Y029204D01*
X064537Y029150D01*
X064884D01*
Y029497D01*
D02*
G37*
G36*
X065331Y029050D02*
X064984D01*
Y028703D01*
X065039Y028710D01*
X065136Y028751D01*
X065220Y028815D01*
X065284Y028898D01*
X065324Y028996D01*
X065331Y029050D01*
D02*
G37*
G36*
X069684Y029150D02*
X069337D01*
X069345Y029096D01*
X069385Y028998D01*
X069449Y028915D01*
X069533Y028851D01*
X069630Y028810D01*
X069684Y028803D01*
Y029150D01*
D02*
G37*
%LPD*%
G36*
X063047Y042435D02*
X063060Y042370D01*
X063100Y042310D01*
X063160Y042270D01*
X063230Y042256D01*
X063300Y042270D01*
X063360Y042310D01*
X063380Y042340D01*
X063442Y042348D01*
X063790Y042000D01*
X063850Y041960D01*
X063920Y041946D01*
X066194D01*
X068122Y040019D01*
Y039910D01*
X068072Y039901D01*
X068044Y039944D01*
X066634Y041354D01*
X066591Y041382D01*
X066540Y041393D01*
X063750D01*
Y041620D01*
X062388D01*
Y042314D01*
X062425Y042370D01*
X062439Y042440D01*
X062425Y042510D01*
X062388Y042566D01*
Y042754D01*
X062522D01*
Y042897D01*
X062585D01*
X063047Y042435D01*
D02*
G37*
G36*
X056367Y036495D02*
Y035350D01*
X056378Y035299D01*
X056406Y035256D01*
X058663Y033000D01*
X058627Y032913D01*
X058612Y032800D01*
X058627Y032687D01*
X058671Y032581D01*
X058740Y032490D01*
X058831Y032421D01*
X058937Y032377D01*
X059050Y032362D01*
X059163Y032377D01*
X059269Y032421D01*
X059352Y032484D01*
X059402Y032471D01*
Y032129D01*
X059352Y032116D01*
X059269Y032179D01*
X059163Y032223D01*
X059050Y032238D01*
X058937Y032223D01*
X058831Y032179D01*
X058740Y032110D01*
X058671Y032019D01*
X058627Y031913D01*
X058612Y031800D01*
X058627Y031687D01*
X058671Y031581D01*
X058740Y031490D01*
X058831Y031421D01*
X058937Y031377D01*
X059050Y031362D01*
X059163Y031377D01*
X059269Y031421D01*
X059352Y031484D01*
X059402Y031471D01*
Y031129D01*
X059352Y031116D01*
X059269Y031179D01*
X059163Y031223D01*
X059050Y031238D01*
X058937Y031223D01*
X058831Y031179D01*
X058740Y031110D01*
X058671Y031019D01*
X058627Y030913D01*
X058612Y030800D01*
X058627Y030687D01*
X058663Y030600D01*
X058384Y030322D01*
X058338Y030341D01*
Y032244D01*
X058328Y032295D01*
X058299Y032338D01*
X055230Y035407D01*
X055254Y035454D01*
X055300Y035448D01*
Y035900D01*
Y036352D01*
X055231Y036343D01*
X055121Y036297D01*
X055043Y036237D01*
X054993Y036259D01*
Y036575D01*
X055025Y036586D01*
X055043Y036588D01*
X055131Y036521D01*
X055237Y036477D01*
X055350Y036462D01*
X055463Y036477D01*
X055569Y036521D01*
X055660Y036590D01*
X055729Y036681D01*
X055765Y036767D01*
X056095D01*
X056367Y036495D01*
D02*
G37*
G36*
X054727Y035601D02*
Y035590D01*
X054738Y035539D01*
X054766Y035496D01*
X058073Y032189D01*
Y032072D01*
X058027Y032053D01*
X054599Y035481D01*
X054604Y035547D01*
X054660Y035590D01*
X054680Y035617D01*
X054727Y035601D01*
D02*
G37*
G36*
X067616Y044224D02*
Y043800D01*
X067628Y043741D01*
X067630Y043730D01*
X067670Y043670D01*
X069316Y042024D01*
Y035146D01*
X069188D01*
Y034454D01*
X069722D01*
Y034616D01*
X070024D01*
X071797Y032843D01*
X071857Y032804D01*
X071868Y032801D01*
X071927Y032790D01*
X073396D01*
Y032303D01*
X073666D01*
Y031556D01*
X071746Y029635D01*
X071696Y029656D01*
Y029672D01*
X071534D01*
Y029700D01*
X071520Y029770D01*
X071506Y029790D01*
X071480Y029830D01*
X071230Y030080D01*
X071170Y030120D01*
X071159Y030122D01*
X071100Y030134D01*
X066530D01*
X066471Y030122D01*
X066460Y030120D01*
X066400Y030080D01*
X066230Y029910D01*
X066190Y029850D01*
X066188Y029839D01*
X066176Y029780D01*
Y029672D01*
X066004D01*
Y029589D01*
X065903D01*
Y033380D01*
X065892Y033439D01*
X065890Y033450D01*
X065850Y033510D01*
X064384Y034976D01*
Y035223D01*
X064404D01*
X064446Y035231D01*
X064480Y035254D01*
X064504Y035289D01*
X064512Y035330D01*
Y035870D01*
X064504Y035911D01*
X064480Y035946D01*
X064446Y035969D01*
X064404Y035977D01*
X063944D01*
X063903Y035969D01*
X063868Y035946D01*
X063844Y035911D01*
X063836Y035870D01*
Y035330D01*
X063843Y035295D01*
X063835Y035276D01*
X063813Y035246D01*
X063811Y035246D01*
X063800Y035258D01*
X063777Y035293D01*
X063784Y035330D01*
Y035550D01*
X063068D01*
Y035330D01*
X063077Y035281D01*
X063082Y035274D01*
X063055Y035224D01*
X062910D01*
X062404Y035730D01*
X062344Y035770D01*
X062333Y035772D01*
X062312Y035776D01*
Y035870D01*
X062304Y035911D01*
X062280Y035946D01*
X062246Y035969D01*
X062204Y035977D01*
X061744D01*
X061703Y035969D01*
X061668Y035946D01*
X061644Y035911D01*
X061636Y035870D01*
Y035330D01*
X061644Y035289D01*
X061668Y035254D01*
X061703Y035231D01*
X061744Y035223D01*
X061790D01*
Y035166D01*
X061720Y035096D01*
X061705Y035073D01*
X061641Y035067D01*
X061614Y035094D01*
X061571Y035122D01*
X061520Y035133D01*
X061026D01*
X061009Y035152D01*
X061033Y035202D01*
X061176D01*
Y035550D01*
X060868D01*
Y035341D01*
X060843Y035324D01*
X060819Y035318D01*
X060633Y035505D01*
Y035845D01*
X060888Y036101D01*
X063583D01*
X063634Y036111D01*
X063677Y036140D01*
X063905Y036367D01*
X064858D01*
X064913Y036330D01*
X064984Y036316D01*
X065054Y036330D01*
X065113Y036370D01*
X065153Y036430D01*
X065167Y036500D01*
X065153Y036570D01*
X065113Y036630D01*
X065054Y036670D01*
X064984Y036684D01*
X064913Y036670D01*
X064858Y036633D01*
X063891D01*
X063870Y036683D01*
X064234Y037046D01*
X064262Y037089D01*
X064273Y037140D01*
Y038308D01*
X064470D01*
Y038623D01*
Y038655D01*
X064520D01*
X064580Y038667D01*
X064632Y038701D01*
X064819Y038888D01*
X064830Y038880D01*
X064900Y038866D01*
X064970Y038880D01*
X065030Y038920D01*
X065070Y038980D01*
X065084Y039050D01*
X065070Y039120D01*
X065030Y039180D01*
X064970Y039220D01*
X064900Y039234D01*
X064830Y039220D01*
X064813Y039208D01*
X064757D01*
X064697Y039196D01*
X064646Y039162D01*
X064516Y039032D01*
X064470Y039051D01*
Y039253D01*
Y039310D01*
X065353D01*
X065630Y039032D01*
X065673Y039004D01*
X065724Y038993D01*
X065873D01*
Y038896D01*
X065881Y038854D01*
X065904Y038820D01*
X065939Y038796D01*
X065980Y038788D01*
X066117D01*
Y031546D01*
X066080Y031490D01*
X066066Y031420D01*
X066080Y031350D01*
X066120Y031290D01*
X066180Y031250D01*
X066250Y031236D01*
X066320Y031250D01*
X066380Y031290D01*
X066420Y031350D01*
X066434Y031420D01*
X066420Y031490D01*
X066383Y031546D01*
Y038788D01*
X066520D01*
X066561Y038796D01*
X066596Y038820D01*
X066619Y038854D01*
X066627Y038896D01*
Y039356D01*
X066619Y039397D01*
X066596Y039432D01*
X066561Y039456D01*
X066520Y039464D01*
X065980D01*
X065939Y039456D01*
X065904Y039432D01*
X065881Y039397D01*
X065873Y039356D01*
Y039259D01*
X065779D01*
X065494Y039544D01*
X065451Y039572D01*
X065400Y039583D01*
X065362Y039575D01*
X064977D01*
X064962Y039625D01*
X064970Y039630D01*
X065010Y039690D01*
X065024Y039760D01*
X065010Y039830D01*
X064970Y039890D01*
X064910Y039930D01*
X064840Y039944D01*
X064490D01*
Y039970D01*
X064470D01*
Y040200D01*
Y040520D01*
Y040577D01*
X066485D01*
X066817Y040245D01*
Y038855D01*
X066706Y038744D01*
X066678Y038701D01*
X066667Y038650D01*
Y030705D01*
X066575Y030613D01*
X066510Y030600D01*
X066450Y030560D01*
X066410Y030500D01*
X066396Y030430D01*
X066410Y030360D01*
X066450Y030300D01*
X066510Y030260D01*
X066580Y030246D01*
X066650Y030260D01*
X066710Y030300D01*
X066750Y030360D01*
X066763Y030425D01*
X066894Y030556D01*
X066922Y030599D01*
X066933Y030650D01*
Y038595D01*
X066972Y038635D01*
X067019Y038610D01*
X067016Y038600D01*
X067030Y038530D01*
X067070Y038470D01*
X067130Y038430D01*
X067200Y038416D01*
X067270Y038430D01*
X067326Y038467D01*
X067878D01*
Y038254D01*
X068412D01*
Y038827D01*
X068439Y038842D01*
X068488Y038813D01*
Y038254D01*
X069022D01*
Y038946D01*
X068888D01*
Y039490D01*
X068883Y039516D01*
Y040027D01*
X068949Y040055D01*
X069032Y040118D01*
X069095Y040201D01*
X069135Y040297D01*
X069148Y040400D01*
X069135Y040503D01*
X069095Y040599D01*
X069032Y040682D01*
X068949Y040745D01*
X068853Y040785D01*
X068750Y040798D01*
X068647Y040785D01*
X068551Y040745D01*
X068468Y040682D01*
X068405Y040599D01*
X068365Y040503D01*
X068352Y040400D01*
X068355Y040375D01*
X068308Y040352D01*
X066400Y042260D01*
X066340Y042300D01*
X066329Y042302D01*
X066270Y042314D01*
X063996D01*
X063694Y042616D01*
Y042723D01*
X063706D01*
X063747Y042731D01*
X063782Y042754D01*
X063806Y042789D01*
X063814Y042830D01*
Y043370D01*
X063806Y043411D01*
X063782Y043446D01*
X063747Y043469D01*
X063706Y043477D01*
X063660D01*
Y043750D01*
Y043923D01*
X063706D01*
X063747Y043931D01*
X063782Y043954D01*
X063806Y043989D01*
X063814Y044030D01*
Y044570D01*
X063806Y044611D01*
X063782Y044646D01*
X063747Y044669D01*
X063706Y044677D01*
X063246D01*
X063204Y044669D01*
X063170Y044646D01*
X063146Y044611D01*
X063138Y044570D01*
Y044030D01*
X063146Y043989D01*
X063150Y043984D01*
X063123Y043934D01*
X062717D01*
Y044477D01*
X062545D01*
Y045011D01*
X065904D01*
Y044928D01*
X066596D01*
Y045011D01*
X066829D01*
X067616Y044224D01*
D02*
G37*
G36*
X061485Y040910D02*
X061479Y040880D01*
X061493Y040810D01*
X061533Y040750D01*
X061592Y040710D01*
X061663Y040696D01*
X061733Y040710D01*
X061792Y040750D01*
X061795Y040754D01*
X061845Y040739D01*
Y039402D01*
Y039334D01*
X061795Y039318D01*
X061792Y039322D01*
X061733Y039362D01*
X061663Y039376D01*
X061603Y039364D01*
X061553Y039391D01*
Y040520D01*
X061548Y040543D01*
X061554Y040570D01*
X061540Y040640D01*
X061500Y040700D01*
X061440Y040740D01*
X061370Y040754D01*
X061323Y040744D01*
X061273Y040777D01*
Y040950D01*
X061281Y040960D01*
X061444D01*
X061485Y040910D01*
D02*
G37*
G36*
X080100Y027420D02*
X080165Y027407D01*
X080376Y027196D01*
Y025263D01*
X080326Y025249D01*
X080291Y025272D01*
X080240Y025283D01*
X080230D01*
X080224Y025293D01*
X080158Y025337D01*
X080081Y025352D01*
X079569D01*
X079492Y025337D01*
X079426Y025293D01*
X079382Y025227D01*
X079367Y025150D01*
X079382Y025073D01*
X079426Y025007D01*
X079492Y024963D01*
X079569Y024948D01*
X080081D01*
X080146Y024961D01*
X080196Y024933D01*
Y024867D01*
X080146Y024839D01*
X080081Y024852D01*
X079569D01*
X079492Y024837D01*
X079426Y024793D01*
X079375Y024796D01*
X079340Y024820D01*
X079270Y024834D01*
X079200Y024820D01*
X079140Y024780D01*
X079100Y024720D01*
X079086Y024650D01*
X079100Y024580D01*
X079140Y024520D01*
X079200Y024480D01*
X079270Y024466D01*
X079340Y024480D01*
X079375Y024504D01*
X079426Y024507D01*
X079492Y024463D01*
X079569Y024448D01*
X080081D01*
X080146Y024461D01*
X080196Y024433D01*
Y024367D01*
X080146Y024339D01*
X080081Y024352D01*
X079569D01*
X079492Y024337D01*
X079426Y024293D01*
X079419Y024283D01*
X078361D01*
X078361Y024283D01*
X078323Y024275D01*
X078296Y024318D01*
X078514Y024536D01*
X078542Y024579D01*
X078553Y024630D01*
Y026791D01*
X078572Y026821D01*
X078583Y026872D01*
Y027262D01*
X079304D01*
Y027128D01*
X079954D01*
X079954D01*
X079954Y027128D01*
X079965Y027128D01*
X079967D01*
X079967D01*
X079967Y027128D01*
X079968Y027125D01*
X079969Y027123D01*
X079969Y027123D01*
X079969Y027121D01*
X079972Y027111D01*
X079972Y027111D01*
X079977Y027096D01*
X079959Y027052D01*
X079930Y027010D01*
X079917Y026945D01*
X079726Y026754D01*
X079698Y026711D01*
X079687Y026660D01*
Y025852D01*
X079569D01*
X079492Y025837D01*
X079426Y025793D01*
X079382Y025727D01*
X079367Y025650D01*
X079382Y025573D01*
X079426Y025507D01*
X079492Y025463D01*
X079569Y025448D01*
X080081D01*
X080158Y025463D01*
X080224Y025507D01*
X080267Y025573D01*
X080283Y025650D01*
X080267Y025727D01*
X080224Y025793D01*
X080158Y025837D01*
X080081Y025852D01*
X079953D01*
Y026605D01*
X080105Y026757D01*
X080170Y026770D01*
X080230Y026810D01*
X080270Y026870D01*
X080284Y026940D01*
X080270Y027010D01*
X080230Y027070D01*
X080170Y027110D01*
X080100Y027124D01*
X080069Y027117D01*
X080020Y027125D01*
X080020Y027125D01*
X079996Y027147D01*
X079996Y027147D01*
Y027147D01*
Y027150D01*
X079996Y027153D01*
X079996Y027166D01*
X079996Y027166D01*
X079996Y027166D01*
Y027437D01*
X080021Y027450D01*
X080046Y027457D01*
X080100Y027420D01*
D02*
G37*
G36*
X062178Y044477D02*
X062006D01*
Y043934D01*
X061694D01*
Y044477D01*
X060983D01*
Y043923D01*
X061155D01*
Y043812D01*
X061166Y043753D01*
X061169Y043742D01*
X061208Y043682D01*
X061270Y043620D01*
X061330Y043580D01*
X061400Y043566D01*
X063292D01*
Y043477D01*
X063246D01*
X063204Y043469D01*
X063170Y043446D01*
X063146Y043411D01*
X063138Y043370D01*
Y042830D01*
X063146Y042789D01*
X063161Y042768D01*
X063122Y042736D01*
X062734Y043124D01*
X062691Y043152D01*
X062640Y043163D01*
X062522D01*
Y043446D01*
X061988D01*
Y042754D01*
X062123D01*
Y042566D01*
X062086Y042510D01*
X062072Y042440D01*
X062086Y042370D01*
X062123Y042314D01*
Y041620D01*
X061158D01*
Y041423D01*
X060776D01*
X060720Y041460D01*
X060650Y041474D01*
X060580Y041460D01*
X060520Y041420D01*
X060480Y041360D01*
X060466Y041290D01*
X060480Y041220D01*
X060520Y041160D01*
X060562Y041133D01*
X060546Y041083D01*
X060350D01*
X060299Y041072D01*
X060256Y041044D01*
X058995Y039783D01*
X057920D01*
X057920Y039783D01*
X057869Y039772D01*
X057826Y039744D01*
X055798Y037715D01*
X055755Y037743D01*
X055773Y037787D01*
X055788Y037900D01*
X055773Y038013D01*
X055758Y038049D01*
X057626Y039916D01*
X058830D01*
X058889Y039928D01*
X058900Y039930D01*
X058960Y039970D01*
X059580Y040590D01*
X059606Y040630D01*
X059620Y040650D01*
X059634Y040720D01*
Y042634D01*
X059916Y042916D01*
X061378D01*
Y042754D01*
X061912D01*
Y043446D01*
X061378D01*
Y043284D01*
X060684D01*
Y044324D01*
X061376Y045016D01*
X062178D01*
Y044477D01*
D02*
G37*
G36*
X060143Y040115D02*
X060136Y040080D01*
X060142Y040053D01*
X060105Y039995D01*
X060072Y039988D01*
X060006Y039944D01*
X059962Y039878D01*
X059956Y039850D01*
X060150D01*
Y039750D01*
X059956D01*
X059962Y039722D01*
X060006Y039656D01*
X060072Y039612D01*
X060095Y039607D01*
X060097Y039606D01*
X060114Y039552D01*
X060088Y039513D01*
X060074Y039443D01*
X060088Y039372D01*
X060128Y039313D01*
X060100Y039271D01*
X060080Y039257D01*
X060040Y039198D01*
X060031Y039152D01*
X060017Y039125D01*
X059978Y039115D01*
X059938Y039123D01*
X059868Y039109D01*
X059808Y039069D01*
X059769Y039010D01*
X059755Y038939D01*
X059769Y038869D01*
X059808Y038810D01*
X059868Y038770D01*
X059933Y038757D01*
X060286Y038404D01*
X060329Y038375D01*
X060380Y038365D01*
X060430D01*
Y038308D01*
X061090D01*
Y038623D01*
Y038680D01*
X061193D01*
X061243Y038690D01*
X061286Y038719D01*
X061480Y038913D01*
X061530Y038892D01*
Y038240D01*
X061158D01*
Y038043D01*
X060340D01*
X060289Y038032D01*
X060246Y038004D01*
X059713Y037471D01*
X059667Y037490D01*
Y039709D01*
X059864Y039907D01*
X060097Y040140D01*
X060143Y040115D01*
D02*
G37*
G36*
X062704Y034911D02*
X062763Y034871D01*
X062775Y034869D01*
X062834Y034857D01*
X063713D01*
X063746Y034807D01*
X063736Y034760D01*
X063750Y034690D01*
X063787Y034634D01*
Y034367D01*
X063749Y034341D01*
X063721Y034361D01*
X063729Y034400D01*
X063715Y034470D01*
X063675Y034530D01*
X063616Y034570D01*
X063545Y034584D01*
X062599D01*
X062560Y034626D01*
X062558Y034632D01*
X062564Y034660D01*
X062550Y034730D01*
X062510Y034790D01*
X062450Y034830D01*
X062380Y034844D01*
X062310Y034830D01*
X062310Y034830D01*
X062300Y034880D01*
X062260Y034940D01*
X062200Y034980D01*
X062180Y034984D01*
X062156Y035007D01*
X062148Y035041D01*
X062158Y035090D01*
Y035223D01*
X062204D01*
X062246Y035231D01*
X062280Y035254D01*
X062284Y035260D01*
X062347Y035268D01*
X062704Y034911D01*
D02*
G37*
G36*
X059402Y030471D02*
Y030129D01*
X059352Y030116D01*
X059269Y030179D01*
X059163Y030223D01*
X059050Y030238D01*
X058937Y030223D01*
X058831Y030179D01*
X058740Y030110D01*
X058671Y030019D01*
X058627Y029913D01*
X058612Y029800D01*
X058627Y029687D01*
X058671Y029581D01*
X058740Y029490D01*
X058831Y029421D01*
X058937Y029377D01*
X059050Y029362D01*
X059163Y029377D01*
X059269Y029421D01*
X059352Y029484D01*
X059402Y029471D01*
Y029129D01*
X059352Y029116D01*
X059269Y029179D01*
X059163Y029223D01*
X059050Y029238D01*
X058937Y029223D01*
X058831Y029179D01*
X058740Y029110D01*
X058671Y029019D01*
X058627Y028913D01*
X058612Y028800D01*
X058627Y028687D01*
X058671Y028581D01*
X058740Y028490D01*
X058831Y028421D01*
X058937Y028377D01*
X059050Y028362D01*
X059163Y028377D01*
X059269Y028421D01*
X059352Y028484D01*
X059402Y028471D01*
Y028129D01*
X059352Y028116D01*
X059269Y028179D01*
X059163Y028223D01*
X059050Y028238D01*
X058937Y028223D01*
X058831Y028179D01*
X058740Y028110D01*
X058671Y028019D01*
X058627Y027913D01*
X058612Y027800D01*
X058627Y027687D01*
X058671Y027581D01*
X058740Y027490D01*
X058755Y027479D01*
X058737Y027430D01*
X058699Y027422D01*
X058656Y027394D01*
X058564Y027302D01*
X058518Y027321D01*
Y030081D01*
X058850Y030413D01*
X058937Y030377D01*
X059050Y030362D01*
X059163Y030377D01*
X059269Y030421D01*
X059352Y030484D01*
X059402Y030471D01*
D02*
G37*
G36*
X062774Y037530D02*
X062760Y037510D01*
X062746Y037440D01*
X062760Y037370D01*
X062800Y037310D01*
X062840Y037283D01*
X062853Y037225D01*
X062720Y037093D01*
X061741D01*
X061720Y037143D01*
X062071Y037493D01*
X062100Y037536D01*
X062109Y037580D01*
X062747D01*
X062774Y037530D01*
D02*
G37*
G36*
X063810Y040207D02*
X063789Y040202D01*
X063746Y040174D01*
X063556Y039984D01*
X063528Y039941D01*
X063519Y039898D01*
X063480Y039840D01*
X063466Y039770D01*
X063480Y039700D01*
X063520Y039640D01*
X063580Y039600D01*
X063650Y039586D01*
X063720Y039600D01*
X063740Y039614D01*
X063790Y039587D01*
Y039550D01*
X063810D01*
Y039260D01*
X063718D01*
X063667Y039250D01*
X063624Y039221D01*
X063436Y039034D01*
X063400Y039034D01*
X063366Y039079D01*
X063373Y039112D01*
Y040040D01*
X063423Y040068D01*
X063480Y040056D01*
X063550Y040070D01*
X063610Y040110D01*
X063650Y040170D01*
X063663Y040235D01*
X063685Y040257D01*
X063810D01*
Y040207D01*
D02*
G37*
G36*
X061158Y037580D02*
X061718D01*
X061737Y037534D01*
X061538Y037335D01*
X061500Y037360D01*
X061430Y037374D01*
X061360Y037360D01*
X061300Y037320D01*
X061273Y037280D01*
X061215Y037267D01*
X061208Y037274D01*
X061165Y037302D01*
X061115Y037313D01*
X060160D01*
X060109Y037302D01*
X060066Y037274D01*
X059946Y037154D01*
X059918Y037111D01*
X059907Y037060D01*
Y036819D01*
X059897Y036811D01*
X059847Y036835D01*
Y037229D01*
X060395Y037777D01*
X061158D01*
Y037580D01*
D02*
G37*
G36*
X067817Y039795D02*
Y039145D01*
X067828Y039094D01*
X067856Y039051D01*
X067915Y038992D01*
X067896Y038946D01*
X067878D01*
Y038733D01*
X067326D01*
X067270Y038770D01*
X067200Y038784D01*
X067130Y038770D01*
X067127Y038768D01*
X067082Y038798D01*
X067083Y038800D01*
Y040300D01*
X067072Y040351D01*
X067044Y040394D01*
X066634Y040804D01*
X066591Y040832D01*
X066540Y040843D01*
X064470D01*
Y040900D01*
X063810D01*
Y040523D01*
X063630D01*
X063579Y040512D01*
X063536Y040484D01*
X063475Y040423D01*
X063423Y040412D01*
X063373Y040440D01*
Y040960D01*
X063750D01*
Y041127D01*
X066485D01*
X067817Y039795D01*
D02*
G37*
G36*
X062477Y039856D02*
X062440Y039800D01*
X062426Y039730D01*
X062440Y039660D01*
X062480Y039600D01*
X062540Y039560D01*
X062610Y039546D01*
X062680Y039560D01*
X062740Y039600D01*
X062747Y039612D01*
X062797Y039597D01*
Y039169D01*
X062760Y039113D01*
X062746Y039043D01*
X062760Y038973D01*
X062800Y038913D01*
X062860Y038874D01*
X062930Y038860D01*
X063000Y038874D01*
X063017Y038885D01*
X063067Y038858D01*
Y038720D01*
X063077Y038669D01*
X063105Y038626D01*
X063266Y038465D01*
X063309Y038437D01*
X063360Y038427D01*
X063476D01*
X063616Y038286D01*
X063597Y038240D01*
X062815D01*
X062784Y038290D01*
X062794Y038340D01*
X062791Y038354D01*
X062826Y038389D01*
X062840Y038386D01*
X062910Y038400D01*
X062970Y038440D01*
X063010Y038500D01*
X063024Y038570D01*
X063010Y038640D01*
X062970Y038700D01*
X062910Y038740D01*
X062840Y038754D01*
X062770Y038740D01*
X062714Y038703D01*
X062463D01*
X062412Y038692D01*
X062369Y038664D01*
X062199Y038494D01*
X062170Y038451D01*
X062160Y038400D01*
Y038240D01*
X061795D01*
Y038717D01*
X061845Y038744D01*
X061880Y038720D01*
X061950Y038706D01*
X062020Y038720D01*
X062080Y038760D01*
X062120Y038820D01*
X062134Y038890D01*
X062122Y038949D01*
X062135Y038968D01*
X062142Y038975D01*
X062161Y038988D01*
X062220Y038976D01*
X062290Y038990D01*
X062350Y039030D01*
X062390Y039090D01*
X062404Y039160D01*
X062390Y039230D01*
X062350Y039290D01*
X062290Y039330D01*
X062225Y039343D01*
X062110Y039457D01*
Y040960D01*
X062477D01*
Y039856D01*
D02*
G37*
G36*
X059402Y039744D02*
Y034129D01*
X059352Y034116D01*
X059269Y034179D01*
X059163Y034223D01*
X059050Y034238D01*
X058937Y034223D01*
X058850Y034187D01*
X057203Y035835D01*
Y036926D01*
X057252Y036950D01*
X057280Y036932D01*
X057290Y036880D01*
X057330Y036820D01*
X057390Y036780D01*
X057460Y036766D01*
X057530Y036780D01*
X057588Y036819D01*
X057599Y036817D01*
X057638Y036802D01*
Y036430D01*
X057646Y036389D01*
X057670Y036354D01*
X057704Y036331D01*
X057746Y036323D01*
X058206D01*
X058247Y036331D01*
X058282Y036354D01*
X058306Y036389D01*
X058314Y036430D01*
Y036970D01*
X058306Y037011D01*
X058282Y037046D01*
X058247Y037069D01*
X058206Y037077D01*
X058109D01*
Y038434D01*
X058150Y038462D01*
X058215Y038435D01*
X058350Y038417D01*
X058485Y038435D01*
X058611Y038487D01*
X058719Y038570D01*
X058802Y038678D01*
X058854Y038804D01*
X058872Y038939D01*
X058854Y039074D01*
X058802Y039200D01*
X058719Y039308D01*
X058611Y039391D01*
X058485Y039444D01*
X058350Y039461D01*
X058215Y039444D01*
X058089Y039391D01*
X057981Y039308D01*
X057898Y039200D01*
X057846Y039074D01*
X057828Y038939D01*
X057846Y038804D01*
X057898Y038678D01*
X057900Y038676D01*
X057882Y038659D01*
X057854Y038616D01*
X057843Y038565D01*
Y037077D01*
X057746D01*
X057704Y037069D01*
X057671Y037047D01*
X057669Y037046D01*
X057611Y037048D01*
X057590Y037080D01*
X057530Y037120D01*
X057465Y037133D01*
X057374Y037224D01*
X057331Y037252D01*
X057280Y037263D01*
X057196D01*
X057140Y037300D01*
X057070Y037314D01*
X057000Y037300D01*
X056940Y037260D01*
X056900Y037200D01*
X056886Y037130D01*
X056900Y037060D01*
X056937Y037004D01*
Y035780D01*
X056948Y035729D01*
X056976Y035686D01*
X058663Y034000D01*
X058627Y033913D01*
X058612Y033800D01*
X058627Y033687D01*
X058671Y033581D01*
X058740Y033490D01*
X058831Y033421D01*
X058937Y033377D01*
X059050Y033362D01*
X059163Y033377D01*
X059269Y033421D01*
X059352Y033484D01*
X059402Y033471D01*
Y033129D01*
X059352Y033116D01*
X059269Y033179D01*
X059163Y033223D01*
X059050Y033238D01*
X058937Y033223D01*
X058850Y033187D01*
X056633Y035405D01*
Y036550D01*
X056622Y036601D01*
X056594Y036644D01*
X056244Y036994D01*
X056201Y037022D01*
X056150Y037033D01*
X055765D01*
X055729Y037119D01*
X055660Y037210D01*
X055646Y037220D01*
X055662Y037267D01*
X055670D01*
X055721Y037278D01*
X055764Y037306D01*
X057975Y039517D01*
X059050D01*
X059101Y039528D01*
X059144Y039556D01*
X059352Y039764D01*
X059402Y039744D01*
D02*
G37*
%LPC*%
G36*
X061420Y041940D02*
X061276D01*
X061282Y041912D01*
X061326Y041846D01*
X061392Y041802D01*
X061420Y041796D01*
Y041940D01*
D02*
G37*
G36*
Y042184D02*
X061392Y042178D01*
X061326Y042134D01*
X061282Y042068D01*
X061276Y042040D01*
X061420D01*
Y042184D01*
D02*
G37*
G36*
X063370Y042114D02*
Y041970D01*
X063514D01*
X063508Y041998D01*
X063464Y042064D01*
X063398Y042108D01*
X063370Y042114D01*
D02*
G37*
G36*
X061664Y041940D02*
X061520D01*
Y041796D01*
X061548Y041802D01*
X061614Y041846D01*
X061658Y041912D01*
X061664Y041940D01*
D02*
G37*
G36*
X060340Y042114D02*
X060312Y042108D01*
X060246Y042064D01*
X060202Y041998D01*
X060196Y041970D01*
X060340D01*
Y042114D01*
D02*
G37*
G36*
X063270Y041870D02*
X063126D01*
X063132Y041842D01*
X063176Y041776D01*
X063242Y041732D01*
X063270Y041726D01*
Y041870D01*
D02*
G37*
G36*
X063514D02*
X063370D01*
Y041726D01*
X063398Y041732D01*
X063464Y041776D01*
X063508Y041842D01*
X063514Y041870D01*
D02*
G37*
G36*
X063270Y042114D02*
X063242Y042108D01*
X063176Y042064D01*
X063132Y041998D01*
X063126Y041970D01*
X063270D01*
Y042114D01*
D02*
G37*
G36*
X060440D02*
Y041970D01*
X060584D01*
X060578Y041998D01*
X060534Y042064D01*
X060468Y042108D01*
X060440Y042114D01*
D02*
G37*
G36*
X064990Y044220D02*
X064846D01*
X064852Y044192D01*
X064896Y044126D01*
X064962Y044082D01*
X064990Y044076D01*
Y044220D01*
D02*
G37*
G36*
X065234D02*
X065090D01*
Y044076D01*
X065118Y044082D01*
X065184Y044126D01*
X065228Y044192D01*
X065234Y044220D01*
D02*
G37*
G36*
X064174Y044250D02*
X063866D01*
Y044030D01*
X063875Y043981D01*
X063903Y043940D01*
X063945Y043912D01*
X063994Y043902D01*
X064174D01*
Y044250D01*
D02*
G37*
G36*
X064582D02*
X064274D01*
Y043902D01*
X064454D01*
X064503Y043912D01*
X064545Y043940D01*
X064573Y043981D01*
X064582Y044030D01*
Y044250D01*
D02*
G37*
G36*
X064174Y044698D02*
X063994D01*
X063945Y044688D01*
X063903Y044660D01*
X063875Y044619D01*
X063866Y044570D01*
Y044350D01*
X064174D01*
Y044698D01*
D02*
G37*
G36*
X064454D02*
X064274D01*
Y044350D01*
X064582D01*
Y044570D01*
X064573Y044619D01*
X064545Y044660D01*
X064503Y044688D01*
X064454Y044698D01*
D02*
G37*
G36*
X064990Y044464D02*
X064962Y044458D01*
X064896Y044414D01*
X064852Y044348D01*
X064846Y044320D01*
X064990D01*
Y044464D01*
D02*
G37*
G36*
X065090D02*
Y044320D01*
X065234D01*
X065228Y044348D01*
X065184Y044414D01*
X065118Y044458D01*
X065090Y044464D01*
D02*
G37*
G36*
X064454Y043498D02*
X064274D01*
Y043150D01*
X064582D01*
Y043370D01*
X064573Y043419D01*
X064545Y043460D01*
X064503Y043488D01*
X064454Y043498D01*
D02*
G37*
G36*
X064582Y043050D02*
X064274D01*
Y042702D01*
X064454D01*
X064503Y042712D01*
X064545Y042740D01*
X064573Y042781D01*
X064582Y042830D01*
Y043050D01*
D02*
G37*
G36*
X065030Y042990D02*
X064886D01*
X064892Y042962D01*
X064936Y042896D01*
X065002Y042852D01*
X065030Y042846D01*
Y042990D01*
D02*
G37*
G36*
X061520Y042184D02*
Y042040D01*
X061664D01*
X061658Y042068D01*
X061614Y042134D01*
X061548Y042178D01*
X061520Y042184D01*
D02*
G37*
G36*
X064174Y043050D02*
X063866D01*
Y042830D01*
X063875Y042781D01*
X063903Y042740D01*
X063945Y042712D01*
X063994Y042702D01*
X064174D01*
Y043050D01*
D02*
G37*
G36*
X065130Y043234D02*
Y043090D01*
X065274D01*
X065268Y043118D01*
X065224Y043184D01*
X065158Y043228D01*
X065130Y043234D01*
D02*
G37*
G36*
X064174Y043498D02*
X063994D01*
X063945Y043488D01*
X063903Y043460D01*
X063875Y043419D01*
X063866Y043370D01*
Y043150D01*
X064174D01*
Y043498D01*
D02*
G37*
G36*
X065274Y042990D02*
X065130D01*
Y042846D01*
X065158Y042852D01*
X065224Y042896D01*
X065268Y042962D01*
X065274Y042990D01*
D02*
G37*
G36*
X065030Y043234D02*
X065002Y043228D01*
X064936Y043184D01*
X064892Y043118D01*
X064886Y043090D01*
X065030D01*
Y043234D01*
D02*
G37*
G36*
X060584Y041870D02*
X060440D01*
Y041726D01*
X060468Y041732D01*
X060534Y041776D01*
X060578Y041842D01*
X060584Y041870D01*
D02*
G37*
G36*
X059314Y035950D02*
X059170D01*
Y035806D01*
X059198Y035812D01*
X059264Y035856D01*
X059308Y035922D01*
X059314Y035950D01*
D02*
G37*
G36*
X055400Y036352D02*
Y035950D01*
X055802D01*
X055793Y036019D01*
X055747Y036129D01*
X055674Y036224D01*
X055579Y036297D01*
X055469Y036343D01*
X055400Y036352D01*
D02*
G37*
G36*
X059070Y036194D02*
X059042Y036188D01*
X058976Y036144D01*
X058932Y036078D01*
X058926Y036050D01*
X059070D01*
Y036194D01*
D02*
G37*
G36*
X064800Y035794D02*
X064772Y035788D01*
X064706Y035744D01*
X064662Y035678D01*
X064656Y035650D01*
X064800D01*
Y035794D01*
D02*
G37*
G36*
X064900D02*
Y035650D01*
X065044D01*
X065038Y035678D01*
X064994Y035744D01*
X064928Y035788D01*
X064900Y035794D01*
D02*
G37*
G36*
X059070Y035950D02*
X058926D01*
X058932Y035922D01*
X058976Y035856D01*
X059042Y035812D01*
X059070Y035806D01*
Y035950D01*
D02*
G37*
G36*
X059170Y036194D02*
Y036050D01*
X059314D01*
X059308Y036078D01*
X059264Y036144D01*
X059198Y036188D01*
X059170Y036194D01*
D02*
G37*
G36*
X058954Y037098D02*
X058774D01*
Y036750D01*
X059082D01*
Y036970D01*
X059073Y037019D01*
X059045Y037060D01*
X059003Y037088D01*
X058954Y037098D01*
D02*
G37*
G36*
X058670Y037564D02*
X058526D01*
X058531Y037536D01*
X058576Y037470D01*
X058642Y037426D01*
X058670Y037420D01*
Y037564D01*
D02*
G37*
G36*
X058914D02*
X058770D01*
Y037420D01*
X058798Y037426D01*
X058864Y037470D01*
X058908Y037536D01*
X058914Y037564D01*
D02*
G37*
G36*
X058674Y036650D02*
X058366D01*
Y036430D01*
X058375Y036381D01*
X058403Y036340D01*
X058445Y036312D01*
X058494Y036302D01*
X058674D01*
Y036650D01*
D02*
G37*
G36*
X059082D02*
X058774D01*
Y036302D01*
X058954D01*
X059003Y036312D01*
X059045Y036340D01*
X059073Y036381D01*
X059082Y036430D01*
Y036650D01*
D02*
G37*
G36*
X058674Y037098D02*
X058494D01*
X058445Y037088D01*
X058403Y037060D01*
X058375Y037019D01*
X058366Y036970D01*
Y036750D01*
X058674D01*
Y037098D01*
D02*
G37*
G36*
X063656Y035998D02*
X063476D01*
Y035650D01*
X063784D01*
Y035870D01*
X063775Y035919D01*
X063747Y035960D01*
X063705Y035988D01*
X063656Y035998D01*
D02*
G37*
G36*
X069112Y035146D02*
X068578D01*
Y034454D01*
X068712D01*
Y033649D01*
X068661Y033628D01*
X068582Y033568D01*
X068522Y033489D01*
X068484Y033398D01*
X068471Y033300D01*
X068484Y033202D01*
X068522Y033111D01*
X068582Y033032D01*
X068661Y032972D01*
X068752Y032934D01*
X068850Y032921D01*
X068948Y032934D01*
X069039Y032972D01*
X069118Y033032D01*
X069178Y033111D01*
X069216Y033202D01*
X069229Y033300D01*
X069216Y033398D01*
X069178Y033489D01*
X069118Y033568D01*
X069039Y033628D01*
X068977Y033653D01*
Y034454D01*
X069112D01*
Y035146D01*
D02*
G37*
G36*
X069784Y033695D02*
X069439D01*
Y033350D01*
X069784D01*
Y033695D01*
D02*
G37*
G36*
X070230D02*
X069884D01*
Y033350D01*
X070230D01*
Y033695D01*
D02*
G37*
G36*
X069784Y033250D02*
X069439D01*
Y032905D01*
X069784D01*
Y033250D01*
D02*
G37*
G36*
X070230D02*
X069884D01*
Y032905D01*
X070230D01*
Y033250D01*
D02*
G37*
G36*
X067866Y033679D02*
X067768Y033666D01*
X067676Y033628D01*
X067598Y033568D01*
X067538Y033489D01*
X067500Y033398D01*
X067487Y033300D01*
X067500Y033202D01*
X067538Y033111D01*
X067598Y033032D01*
X067676Y032972D01*
X067768Y032934D01*
X067866Y032921D01*
X067964Y032934D01*
X068055Y032972D01*
X068133Y033032D01*
X068194Y033111D01*
X068231Y033202D01*
X068244Y033300D01*
X068231Y033398D01*
X068194Y033489D01*
X068133Y033568D01*
X068055Y033628D01*
X067964Y033666D01*
X067866Y033679D01*
D02*
G37*
G36*
X061584Y035550D02*
X061276D01*
Y035202D01*
X061456D01*
X061505Y035212D01*
X061547Y035240D01*
X061575Y035281D01*
X061584Y035330D01*
Y035550D01*
D02*
G37*
G36*
X061176Y035998D02*
X060996D01*
X060947Y035988D01*
X060905Y035960D01*
X060877Y035919D01*
X060868Y035870D01*
Y035650D01*
X061176D01*
Y035998D01*
D02*
G37*
G36*
X061456D02*
X061276D01*
Y035650D01*
X061584D01*
Y035870D01*
X061575Y035919D01*
X061547Y035960D01*
X061505Y035988D01*
X061456Y035998D01*
D02*
G37*
G36*
X063376D02*
X063196D01*
X063147Y035988D01*
X063105Y035960D01*
X063077Y035919D01*
X063068Y035870D01*
Y035650D01*
X063376D01*
Y035998D01*
D02*
G37*
G36*
X064800Y035550D02*
X064656D01*
X064662Y035522D01*
X064706Y035456D01*
X064772Y035412D01*
X064800Y035406D01*
Y035550D01*
D02*
G37*
G36*
X065044D02*
X064900D01*
Y035406D01*
X064928Y035412D01*
X064994Y035456D01*
X065038Y035522D01*
X065044Y035550D01*
D02*
G37*
G36*
X055802Y035850D02*
X055400D01*
Y035448D01*
X055469Y035457D01*
X055579Y035503D01*
X055674Y035576D01*
X055747Y035671D01*
X055793Y035781D01*
X055802Y035850D01*
D02*
G37*
G36*
X065524Y040270D02*
X065380D01*
Y040126D01*
X065408Y040132D01*
X065474Y040176D01*
X065518Y040242D01*
X065524Y040270D01*
D02*
G37*
G36*
X064740Y040514D02*
X064712Y040508D01*
X064646Y040464D01*
X064602Y040398D01*
X064596Y040370D01*
X064740D01*
Y040514D01*
D02*
G37*
G36*
X064840D02*
Y040370D01*
X064984D01*
X064978Y040398D01*
X064934Y040464D01*
X064868Y040508D01*
X064840Y040514D01*
D02*
G37*
G36*
X064740Y040270D02*
X064596D01*
X064602Y040242D01*
X064646Y040176D01*
X064712Y040132D01*
X064740Y040126D01*
Y040270D01*
D02*
G37*
G36*
X064984D02*
X064840D01*
Y040126D01*
X064868Y040132D01*
X064934Y040176D01*
X064978Y040242D01*
X064984Y040270D01*
D02*
G37*
G36*
X065280D02*
X065136D01*
X065142Y040242D01*
X065186Y040176D01*
X065252Y040132D01*
X065280Y040126D01*
Y040270D01*
D02*
G37*
G36*
Y040514D02*
X065252Y040508D01*
X065186Y040464D01*
X065142Y040398D01*
X065136Y040370D01*
X065280D01*
Y040514D01*
D02*
G37*
G36*
X068700Y041812D02*
X068642Y041804D01*
X068541Y041762D01*
X068454Y041696D01*
X068388Y041609D01*
X068346Y041508D01*
X068338Y041450D01*
X068700D01*
Y041812D01*
D02*
G37*
G36*
X068800D02*
Y041450D01*
X069162D01*
X069154Y041508D01*
X069112Y041609D01*
X069046Y041696D01*
X068959Y041762D01*
X068858Y041804D01*
X068800Y041812D01*
D02*
G37*
G36*
X060340Y041870D02*
X060196D01*
X060202Y041842D01*
X060246Y041776D01*
X060312Y041732D01*
X060340Y041726D01*
Y041870D01*
D02*
G37*
G36*
X065380Y040514D02*
Y040370D01*
X065524D01*
X065518Y040398D01*
X065474Y040464D01*
X065408Y040508D01*
X065380Y040514D01*
D02*
G37*
G36*
X068700Y041350D02*
X068338D01*
X068346Y041292D01*
X068388Y041191D01*
X068454Y041104D01*
X068541Y041038D01*
X068642Y040996D01*
X068700Y040988D01*
Y041350D01*
D02*
G37*
G36*
X069162D02*
X068800D01*
Y040988D01*
X068858Y040996D01*
X068959Y041038D01*
X069046Y041104D01*
X069112Y041191D01*
X069154Y041292D01*
X069162Y041350D01*
D02*
G37*
G36*
X066520Y040232D02*
X066300D01*
Y039924D01*
X066648D01*
Y040104D01*
X066638Y040153D01*
X066610Y040195D01*
X066569Y040223D01*
X066520Y040232D01*
D02*
G37*
G36*
X058770Y037808D02*
Y037664D01*
X058914D01*
X058908Y037692D01*
X058864Y037759D01*
X058798Y037803D01*
X058770Y037808D01*
D02*
G37*
G36*
X064737Y038004D02*
X064709Y037998D01*
X064643Y037954D01*
X064599Y037888D01*
X064593Y037860D01*
X064737D01*
Y038004D01*
D02*
G37*
G36*
X064837D02*
Y037860D01*
X064981D01*
X064976Y037888D01*
X064932Y037954D01*
X064865Y037998D01*
X064837Y038004D01*
D02*
G37*
G36*
X064737Y037760D02*
X064593D01*
X064599Y037732D01*
X064643Y037666D01*
X064709Y037622D01*
X064737Y037616D01*
Y037760D01*
D02*
G37*
G36*
X064981D02*
X064837D01*
Y037616D01*
X064865Y037622D01*
X064932Y037666D01*
X064976Y037732D01*
X064981Y037760D01*
D02*
G37*
G36*
X058670Y037808D02*
X058642Y037803D01*
X058576Y037759D01*
X058531Y037692D01*
X058526Y037664D01*
X058670D01*
Y037808D01*
D02*
G37*
G36*
X059880Y038130D02*
X059736D01*
X059742Y038102D01*
X059786Y038036D01*
X059852Y037992D01*
X059880Y037986D01*
Y038130D01*
D02*
G37*
G36*
X066200Y039824D02*
X065852D01*
Y039644D01*
X065862Y039595D01*
X065890Y039553D01*
X065931Y039525D01*
X065980Y039516D01*
X066200D01*
Y039824D01*
D02*
G37*
G36*
X066648D02*
X066300D01*
Y039516D01*
X066520D01*
X066569Y039525D01*
X066610Y039553D01*
X066638Y039595D01*
X066648Y039644D01*
Y039824D01*
D02*
G37*
G36*
X066200Y040232D02*
X065980D01*
X065931Y040223D01*
X065890Y040195D01*
X065862Y040153D01*
X065852Y040104D01*
Y039924D01*
X066200D01*
Y040232D01*
D02*
G37*
G36*
X060124Y038130D02*
X059980D01*
Y037986D01*
X060008Y037992D01*
X060074Y038036D01*
X060118Y038102D01*
X060124Y038130D01*
D02*
G37*
G36*
X059880Y038374D02*
X059852Y038368D01*
X059786Y038324D01*
X059742Y038258D01*
X059736Y038230D01*
X059880D01*
Y038374D01*
D02*
G37*
G36*
X059980D02*
Y038230D01*
X060124D01*
X060118Y038258D01*
X060074Y038324D01*
X060008Y038368D01*
X059980Y038374D01*
D02*
G37*
%LPD*%
D10*
X066250Y010095D02*
D03*
Y010705D02*
D03*
X083200Y019205D02*
D03*
Y018595D02*
D03*
X066250Y045805D02*
D03*
Y045195D02*
D03*
X071750Y040505D02*
D03*
Y039895D02*
D03*
X072850D02*
D03*
Y040505D02*
D03*
X073150Y018995D02*
D03*
Y019605D02*
D03*
X079650Y028005D02*
D03*
Y027395D02*
D03*
X057550Y012895D02*
D03*
Y013505D02*
D03*
X058750Y012895D02*
D03*
Y013505D02*
D03*
X076350Y028795D02*
D03*
Y029405D02*
D03*
X071350Y028795D02*
D03*
Y029405D02*
D03*
X066350Y028795D02*
D03*
Y029405D02*
D03*
X051400Y034545D02*
D03*
Y035155D02*
D03*
D11*
X076650Y033474D02*
D03*
Y032726D02*
D03*
X079400Y041526D02*
D03*
Y042274D02*
D03*
Y040374D02*
D03*
Y039626D02*
D03*
X078300Y040374D02*
D03*
Y039626D02*
D03*
Y041526D02*
D03*
Y042274D02*
D03*
X072650Y042374D02*
D03*
Y041626D02*
D03*
X075450Y033474D02*
D03*
Y032726D02*
D03*
X071750Y019774D02*
D03*
Y019026D02*
D03*
X083200Y025674D02*
D03*
Y024926D02*
D03*
X066250Y039874D02*
D03*
Y039126D02*
D03*
X059950Y014526D02*
D03*
Y015274D02*
D03*
X065350Y013726D02*
D03*
Y014474D02*
D03*
X058750Y015274D02*
D03*
Y014526D02*
D03*
X057550Y015274D02*
D03*
Y014526D02*
D03*
X069550Y021674D02*
D03*
Y020926D02*
D03*
X073150Y021674D02*
D03*
Y020926D02*
D03*
X074350Y021674D02*
D03*
Y020926D02*
D03*
D12*
X075950Y021700D02*
D03*
Y019700D02*
D03*
D13*
X083287Y033870D02*
D03*
Y034815D02*
D03*
Y035130D02*
D03*
Y034185D02*
D03*
Y034500D02*
D03*
D14*
X083366Y032787D02*
D03*
Y036213D02*
D03*
X085531Y032787D02*
D03*
Y036213D02*
D03*
D15*
X082855Y038700D02*
D03*
X082245D02*
D03*
X082855Y037600D02*
D03*
X082245D02*
D03*
X068845Y017800D02*
D03*
X069455D02*
D03*
X081155Y034700D02*
D03*
X080545D02*
D03*
X081155Y036000D02*
D03*
X080545D02*
D03*
X068755Y038600D02*
D03*
X068145D02*
D03*
X062955Y012000D02*
D03*
X062345D02*
D03*
X068845Y034800D02*
D03*
X069455D02*
D03*
X061645Y043100D02*
D03*
X062255D02*
D03*
X050945Y025500D02*
D03*
X051555D02*
D03*
X085945D02*
D03*
X086555D02*
D03*
X055955Y026000D02*
D03*
X055345D02*
D03*
D16*
X080820Y033000D02*
D03*
X079282D02*
D03*
D17*
X083733Y037600D02*
D03*
X084567D02*
D03*
X083733Y038700D02*
D03*
X084567D02*
D03*
D18*
X076405Y041425D02*
D03*
Y041175D02*
D03*
Y040925D02*
D03*
Y040675D02*
D03*
Y040425D02*
D03*
Y040175D02*
D03*
Y041675D02*
D03*
Y041925D02*
D03*
Y042175D02*
D03*
Y042425D02*
D03*
X074295Y041175D02*
D03*
Y041425D02*
D03*
Y041675D02*
D03*
Y041925D02*
D03*
Y042175D02*
D03*
Y042425D02*
D03*
Y040925D02*
D03*
Y040675D02*
D03*
Y040425D02*
D03*
Y040175D02*
D03*
D19*
X055524Y039600D02*
D03*
X054776D02*
D03*
X063476Y043100D02*
D03*
X064224D02*
D03*
X058824D02*
D03*
X058076D02*
D03*
X058724Y036700D02*
D03*
X057976D02*
D03*
X061974Y035600D02*
D03*
X061226D02*
D03*
X064174D02*
D03*
X063426D02*
D03*
X063476Y044300D02*
D03*
X064224D02*
D03*
D20*
X074350Y018883D02*
D03*
Y019717D02*
D03*
X051400Y033767D02*
D03*
Y032933D02*
D03*
D21*
X079825Y025650D02*
D03*
Y025150D02*
D03*
Y024650D02*
D03*
Y024150D02*
D03*
Y023650D02*
D03*
Y023150D02*
D03*
Y022650D02*
D03*
Y022150D02*
D03*
X081675Y025650D02*
D03*
Y025150D02*
D03*
Y024650D02*
D03*
Y024150D02*
D03*
Y023650D02*
D03*
Y023150D02*
D03*
Y022650D02*
D03*
Y022150D02*
D03*
D22*
X063595Y013250D02*
D03*
Y013750D02*
D03*
Y014250D02*
D03*
Y014750D02*
D03*
X061705Y013250D02*
D03*
Y013750D02*
D03*
Y014250D02*
D03*
Y014750D02*
D03*
D23*
X068050Y021524D02*
D03*
Y019476D02*
D03*
X073850Y032776D02*
D03*
Y034824D02*
D03*
D24*
X070738Y021674D02*
D03*
Y021300D02*
D03*
Y020920D02*
D03*
X071770D02*
D03*
Y021674D02*
D03*
D25*
X077750Y033512D02*
D03*
Y032488D02*
D03*
D26*
X061348Y041290D02*
D03*
X061663D02*
D03*
X061978D02*
D03*
X062293D02*
D03*
X062610D02*
D03*
X062930D02*
D03*
X063240D02*
D03*
X063560D02*
D03*
Y037910D02*
D03*
X063240D02*
D03*
X062930D02*
D03*
X062610D02*
D03*
X062293D02*
D03*
X061978D02*
D03*
X061663D02*
D03*
X061348D02*
D03*
D27*
X064140Y040710D02*
D03*
Y040390D02*
D03*
Y040080D02*
D03*
Y039760D02*
D03*
Y039443D02*
D03*
Y039128D02*
D03*
Y038813D02*
D03*
Y038498D02*
D03*
X060760D02*
D03*
Y038813D02*
D03*
Y039128D02*
D03*
Y039443D02*
D03*
Y039760D02*
D03*
Y040080D02*
D03*
Y040390D02*
D03*
Y040710D02*
D03*
D28*
X062362Y044200D02*
D03*
X061338D02*
D03*
D29*
X062255Y041327D02*
Y042440D01*
Y041327D02*
X062293Y041290D01*
X063850Y036500D02*
X064984D01*
X063583Y036233D02*
X063850Y036500D01*
X060833Y036233D02*
X063583D01*
X068845Y016995D02*
Y017800D01*
X068750Y016900D02*
X068845Y016995D01*
X068750Y016100D02*
Y016900D01*
X057280Y037130D02*
X057460Y036950D01*
X057070Y037130D02*
X057280D01*
X057070Y035780D02*
Y037130D01*
X082560Y022650D02*
X083200Y022010D01*
Y019205D02*
Y022010D01*
X085945Y025500D02*
Y026055D01*
X085266Y026734D02*
X085945Y026055D01*
X085266Y026734D02*
Y028000D01*
X074500Y027300D02*
X076750Y025050D01*
X061390Y029420D02*
Y034530D01*
X061620Y029060D02*
Y034900D01*
X076750Y024400D02*
Y025050D01*
X079600Y022650D02*
X079662Y022712D01*
X078500Y022650D02*
X079600D01*
X076750Y024400D02*
X078500Y022650D01*
X079662Y022712D02*
X079762D01*
X079825Y022650D01*
X082900Y027700D02*
Y031200D01*
X082700Y031400D02*
X082900Y031200D01*
X084567Y038700D02*
Y039083D01*
X080650Y043000D02*
X084567Y039083D01*
X085100Y037800D02*
Y039020D01*
X084900Y037600D02*
X085100Y037800D01*
X084567Y037600D02*
X084900D01*
X080100Y036000D02*
X080545D01*
X065945Y028795D02*
X066350D01*
X065600Y028450D02*
X065945Y028795D01*
X063616Y028450D02*
X065600D01*
X062966Y029100D02*
X063616Y028450D01*
X080050Y029650D02*
Y033850D01*
X079660Y034240D02*
X080050Y033850D01*
X082565Y034185D02*
X083287D01*
X082050Y034700D02*
X082565Y034185D01*
X081155Y034700D02*
X082050D01*
X082900Y034500D02*
X083287D01*
X081400Y036000D02*
X082900Y034500D01*
X081155Y036000D02*
X081400D01*
X064400Y012940D02*
X065966D01*
X064090Y013250D02*
X064400Y012940D01*
X063595Y013250D02*
X064090D01*
X065966Y012940D02*
X066206Y012700D01*
X066200Y014150D02*
Y014780D01*
X065780Y015200D02*
X066200Y014780D01*
X064730Y015200D02*
X065780D01*
X064280Y014750D02*
X064730Y015200D01*
X066200Y014150D02*
X066650Y013700D01*
X057025Y012895D02*
X057550D01*
X056810Y013110D02*
X057025Y012895D01*
X056810Y013110D02*
Y016050D01*
X058560Y017800D01*
X054767Y030187D02*
X056000Y031420D01*
X054767Y026977D02*
Y030187D01*
Y026977D02*
X055345Y026400D01*
X079820Y025650D02*
Y026660D01*
X068115Y038816D02*
X068145D01*
X061978Y039402D02*
Y041290D01*
Y038918D02*
Y039402D01*
X062255Y043030D02*
X062640D01*
X062255D02*
Y043100D01*
Y042440D02*
Y043030D01*
X081675Y023650D02*
X082080D01*
X082180Y023750D01*
Y024800D01*
X082080Y024900D02*
X082180Y024800D01*
X081280Y024900D02*
X082080D01*
X080960Y025220D02*
X081280Y024900D01*
X080960Y025220D02*
Y027210D01*
X080240Y023900D02*
X080329Y023989D01*
Y025061D01*
X080240Y025150D02*
X080329Y025061D01*
X079825Y025150D02*
X080240D01*
X050945Y025500D02*
Y027221D01*
X050266Y027900D02*
X050945Y027221D01*
X078361Y024150D02*
X079825D01*
X078273Y024062D02*
X078361Y024150D01*
X077920Y024062D02*
X078273D01*
X077744Y024238D02*
X077920Y024062D01*
X077744Y024238D02*
Y029246D01*
X066250Y045805D02*
X068655D01*
X076095Y040425D02*
X076405D01*
X076050Y040380D02*
X076095Y040425D01*
X080545Y034700D02*
Y034720D01*
X063630Y040390D02*
X064140D01*
X063480Y040240D02*
X063630Y040390D01*
X060560Y035000D02*
X061034Y034526D01*
Y031284D02*
Y034526D01*
X060550Y030800D02*
X061034Y031284D01*
X068145Y038600D02*
Y038816D01*
X063560Y041260D02*
Y041290D01*
X062930Y039043D02*
Y041290D01*
X062310Y034590D02*
X062380Y034660D01*
X062310Y027020D02*
Y034590D01*
Y027020D02*
X062530Y026800D01*
X063430Y038840D02*
X063718Y039128D01*
X064140D01*
X063840Y040080D02*
X064140D01*
X063650Y039890D02*
X063840Y040080D01*
X063650Y039770D02*
Y039890D01*
X060430Y036950D02*
X060607Y036773D01*
X057070Y035780D02*
X059050Y033800D01*
X062930Y037440D02*
Y037910D01*
X061430Y037190D02*
X061580D01*
X061663Y037910D02*
Y039193D01*
X080700Y023010D02*
Y027300D01*
X080340Y022650D02*
X080700Y023010D01*
X079825Y022650D02*
X080340D01*
X060760Y040390D02*
X061050D01*
X061140Y040480D01*
Y040950D01*
X055040Y037400D02*
X055670D01*
X054860Y037220D02*
X055040Y037400D01*
X054860Y035590D02*
Y037220D01*
Y035590D02*
X058206Y032244D01*
Y025884D02*
Y032244D01*
Y025884D02*
X058290Y025800D01*
X060650Y041290D02*
X061348D01*
X061978Y039402D02*
X062220Y039160D01*
X072300Y040505D02*
X072850D01*
X058010Y022840D02*
Y031883D01*
X054350Y035543D02*
X058010Y031883D01*
X054350Y035543D02*
Y035900D01*
X066250Y031420D02*
Y039126D01*
X057976Y036700D02*
Y038565D01*
X058350Y038939D01*
X081280Y022150D02*
X081675D01*
X080950Y022480D02*
X081280Y022150D01*
X080950Y022480D02*
Y024840D01*
X050945Y023670D02*
Y025500D01*
Y023670D02*
X054385Y020230D01*
X079270Y024650D02*
X079825D01*
X066250Y010095D02*
X067361D01*
X067766Y010500D01*
X070565Y028795D02*
X071350D01*
X058386Y030136D02*
X059050Y030800D01*
X058386Y026136D02*
Y030136D01*
Y026136D02*
X058560Y025961D01*
Y017800D02*
Y025961D01*
X060340Y037910D02*
X061348D01*
X059714Y037284D02*
X060340Y037910D01*
X060480Y040710D02*
X060760D01*
X059771Y040001D02*
X060244Y040474D01*
X059360Y027300D02*
X059534Y027474D01*
X058750Y027300D02*
X059360D01*
X058566Y027116D02*
X058750Y027300D01*
X058566Y026560D02*
Y027116D01*
Y026560D02*
X058810Y026316D01*
X059360D01*
X059540Y026136D01*
Y025290D02*
Y026136D01*
X059050Y024800D02*
X059540Y025290D01*
X061370Y040570D02*
X061420Y040520D01*
Y039040D02*
Y040520D01*
X061193Y038813D02*
X061420Y039040D01*
X060760Y038813D02*
X061193D01*
X062610Y039730D02*
Y041290D01*
X060550Y028800D02*
X061360D01*
X061620Y029060D01*
X061520Y035000D02*
X061620Y034900D01*
X063240Y039112D02*
Y041290D01*
X063199Y039071D02*
X063240Y039112D01*
X055345Y026000D02*
Y026400D01*
X063531Y038559D02*
X063800Y038290D01*
X063360Y038559D02*
X063531D01*
X063199Y038720D02*
X063360Y038559D01*
X063199Y038720D02*
Y039071D01*
X062130Y021280D02*
Y034810D01*
X061950Y038890D02*
X061978Y038918D01*
X081380Y024150D02*
X081675D01*
X081180Y023950D02*
X081380Y024150D01*
X062463Y038570D02*
X062840D01*
X062293Y038400D02*
X062463Y038570D01*
X062293Y037910D02*
Y038400D01*
X062610Y037910D02*
Y038340D01*
X061663Y040880D02*
Y041290D01*
X071354Y039981D02*
X071440Y039895D01*
X071750D01*
X060380Y038498D02*
X060760D01*
X059938Y038939D02*
X060380Y038498D01*
X060040Y036660D02*
Y037060D01*
X060160Y037180D01*
X081675Y023150D02*
X082190D01*
X082280Y023240D01*
X079825Y023150D02*
X080240D01*
X080509Y023419D01*
Y027251D01*
X080170Y027590D02*
X080509Y027251D01*
X079820Y025650D02*
X079825D01*
X079820Y026660D02*
X080100Y026940D01*
X063595Y014750D02*
X064280D01*
X078450Y027395D02*
X079650D01*
X069455Y017800D02*
Y019992D01*
X062640Y043030D02*
X063230Y042440D01*
X071864Y041626D02*
X072650D01*
X061705Y013250D02*
X062240D01*
X062345Y013145D01*
Y012000D02*
Y013145D01*
X063040Y013250D02*
X063595D01*
X062955Y013165D02*
X063040Y013250D01*
X062955Y012000D02*
Y013165D01*
X071750Y040505D02*
X072115Y040870D01*
X081675Y022650D02*
X082560D01*
X066206Y012700D02*
X066650D01*
X075615Y028795D02*
X076350D01*
X051400Y033767D02*
Y034545D01*
X060405Y013250D02*
X061705D01*
X060050Y012895D02*
X060405Y013250D01*
X058750Y012895D02*
X060050D01*
X068750Y039495D02*
Y040400D01*
Y039495D02*
X068755Y039490D01*
Y038600D02*
Y039490D01*
X056450Y027195D02*
Y027900D01*
X055955Y026700D02*
X056450Y027195D01*
X055955Y026000D02*
Y026700D01*
X080445Y028000D02*
X081250D01*
X080440Y028005D02*
X080445Y028000D01*
X079650Y028005D02*
X080440D01*
X082855Y038700D02*
X083733D01*
X082855Y037600D02*
X083733D01*
X073802Y018883D02*
X074350D01*
X073690Y018995D02*
X073802Y018883D01*
X073150Y018995D02*
X073690D01*
X068845Y033305D02*
Y034800D01*
X060956Y014250D02*
X061705D01*
X060680Y014526D02*
X060956Y014250D01*
X059950Y014526D02*
X060680D01*
X061705Y013750D02*
Y014250D01*
X058518Y015274D02*
X058750D01*
X057770Y014526D02*
X058518Y015274D01*
X057550Y014526D02*
X057770D01*
X057550Y013505D02*
Y014526D01*
X058750Y013505D02*
Y014526D01*
X058076Y042114D02*
Y043100D01*
Y042114D02*
X058350Y041840D01*
Y040861D02*
Y041840D01*
X071770Y020350D02*
Y020920D01*
X071750Y020330D02*
X071770Y020350D01*
X071750Y019774D02*
Y020330D01*
X062536Y033536D02*
X063170Y034170D01*
X063820D01*
X063920Y034270D01*
X078450Y026872D02*
Y028050D01*
X080050Y029650D01*
X078090Y024300D02*
X078420Y024630D01*
Y026880D01*
X073560Y033530D02*
X074520D01*
X074700Y032290D02*
X077744Y029246D01*
X074700Y032290D02*
Y033350D01*
X074520Y033530D02*
X074700Y033350D01*
X082645Y019205D02*
X083200D01*
X079550Y018900D02*
X080150Y019500D01*
X082350D01*
X082645Y019205D01*
X071300Y025190D02*
X072850Y023640D01*
X071300Y025190D02*
Y028650D01*
X071445Y028795D01*
X071350D02*
X071445D01*
X067766Y029200D02*
X068366Y028600D01*
X070370D01*
X070565Y028795D01*
X068650Y045810D02*
X068655Y045805D01*
X068650Y045810D02*
Y046484D01*
X064140Y040710D02*
X066540D01*
X066950Y040300D01*
X065724Y039126D02*
X066250D01*
X065400Y039450D02*
X065724Y039126D01*
X065400Y039443D02*
Y039450D01*
X064140Y039443D02*
X065400D01*
X072866Y029200D02*
X073566Y028500D01*
X075320D01*
X075615Y028795D01*
X076405Y040175D02*
X076725D01*
X076900Y040000D01*
Y035350D02*
Y040000D01*
X069100Y020347D02*
X069455Y019992D01*
X064140Y037140D02*
Y038498D01*
X063800Y037070D02*
Y038290D01*
X061978Y037587D02*
Y037910D01*
X061580Y037190D02*
X061978Y037587D01*
X063560Y037090D02*
Y037910D01*
X060607Y036773D02*
X060910D01*
X061065Y036420D02*
X063420D01*
X064140Y037140D01*
X060984Y036593D02*
X060991Y036600D01*
X063330D01*
X063800Y037070D01*
X060910Y036773D02*
X060916Y036780D01*
X063250D01*
X063560Y037090D01*
X063240Y037425D02*
Y037910D01*
X061115Y037180D02*
X061335Y036960D01*
X062775D01*
X063240Y037425D01*
X060160Y037180D02*
X061115D01*
X063920Y034270D02*
Y034760D01*
X061059Y036413D02*
X061065Y036420D01*
X060950Y035000D02*
X061520D01*
X068749Y020699D02*
X069100Y020347D01*
X068744Y020694D02*
X068749Y020699D01*
X068744Y020694D02*
Y022120D01*
X067000Y020900D02*
X067250Y020650D01*
X068797D01*
X069100Y020347D01*
X055670Y037400D02*
X057920Y039650D01*
X056500Y035350D02*
X059050Y032800D01*
X055350Y036900D02*
X056150D01*
X056500Y036550D01*
Y035350D02*
Y036550D01*
X075870Y035130D02*
Y040640D01*
Y035130D02*
X076760Y034240D01*
X079660D01*
X076050Y035400D02*
Y040380D01*
Y035400D02*
X076730Y034720D01*
X080545D01*
X076900Y035350D02*
X077150Y035100D01*
X079200D01*
X080100Y036000D01*
X051400Y035155D02*
Y035500D01*
X052800Y036900D01*
X054350D01*
X059534Y027474D02*
Y039764D01*
X059714Y026800D02*
Y037284D01*
X060550Y033800D02*
Y034000D01*
Y033800D02*
Y034600D01*
X059894Y028456D02*
X060550Y027800D01*
X059894Y033394D02*
X059950Y033450D01*
X059894Y028456D02*
Y033394D01*
X059950Y033450D02*
Y033850D01*
X060200Y034950D02*
X060550Y034600D01*
X059950Y033850D02*
Y036100D01*
X060443Y036593D01*
X060984D01*
X060200Y034950D02*
Y035950D01*
X060663Y036413D01*
X061059D01*
X060500Y035450D02*
X060950Y035000D01*
X060500Y035450D02*
Y035900D01*
X060833Y036233D01*
X068845Y033305D02*
X068850Y033300D01*
X082500Y027300D02*
X082900Y027700D01*
X080700Y027300D02*
X080730D01*
Y027305D01*
X080865Y027440D01*
X081055D01*
X081190Y027305D01*
Y027300D02*
Y027305D01*
Y027300D02*
X082500D01*
X073491Y042425D02*
X074295D01*
X072650Y042374D02*
X073440D01*
X073491Y042425D01*
X078020Y043000D02*
X080650D01*
X076405Y041675D02*
X076695D01*
X078020Y043000D01*
X078700Y023400D02*
Y023600D01*
X079000Y023900D01*
X080240D01*
X067200Y038600D02*
X068145D01*
X066950Y038800D02*
Y040300D01*
X066580Y030430D02*
X066800Y030650D01*
Y038650D01*
X066950Y038800D01*
X071500Y042950D02*
X075300D01*
X075825Y042425D01*
X076405D01*
X070850Y042300D02*
X071500Y042950D01*
X070850Y039850D02*
Y042300D01*
X072850Y039600D02*
Y039895D01*
X070850Y039850D02*
X071350Y039350D01*
X072600D01*
X072850Y039600D01*
X071354Y039981D02*
Y040750D01*
X071358D01*
X071488Y040880D02*
X071580D01*
X071358Y040750D02*
X071488Y040880D01*
X080770Y043350D02*
X085100Y039020D01*
X071050Y043350D02*
X080770D01*
X073475Y041675D02*
X074295D01*
X073360Y041560D02*
X073475Y041675D01*
X073360Y041130D02*
Y041560D01*
X073100Y040870D02*
X073360Y041130D01*
X072115Y040870D02*
X073100D01*
X070050Y037040D02*
X073560Y033530D01*
X070050Y037040D02*
Y044410D01*
X068655Y045805D02*
X070050Y044410D01*
X073775Y040175D02*
X074295D01*
X073650Y040050D02*
X073775Y040175D01*
X073650Y039400D02*
Y040050D01*
X073150Y038900D02*
X073650Y039400D01*
X071250Y038900D02*
X073150D01*
X070450Y039700D02*
X071250Y038900D01*
X070450Y039700D02*
Y042750D01*
X071050Y043350D01*
X068115Y038816D02*
Y038980D01*
X063560Y041260D02*
X066540D01*
X067950Y039145D02*
X068115Y038980D01*
X067950Y039145D02*
Y039850D01*
X066540Y041260D02*
X067950Y039850D01*
X059534Y039764D02*
X059771Y040001D01*
X060244Y040474D02*
X060480Y040710D01*
X057920Y039650D02*
X059050D01*
X060350Y040950D01*
X061140D01*
X064840Y039760D02*
X064850Y039750D01*
X060300Y040100D02*
X060320Y040080D01*
X060250Y039450D02*
X060257Y039443D01*
X062536Y028464D02*
Y033536D01*
Y028464D02*
X067000Y024000D01*
Y020900D02*
Y024000D01*
D30*
X063476Y043750D02*
Y044300D01*
Y043100D02*
Y043750D01*
X061338Y043812D02*
Y044200D01*
Y043812D02*
X061400Y043750D01*
X063476D01*
X050630Y035430D02*
X053540Y038340D01*
X050630Y031380D02*
Y035430D01*
X053540Y038340D02*
Y039060D01*
X082845Y018595D02*
X084145D01*
X081950Y017700D02*
X082845Y018595D01*
X084600Y019050D02*
Y024350D01*
X084145Y018595D02*
X084600Y019050D01*
Y024350D02*
Y027950D01*
Y024350D02*
X086250D01*
X086555Y024655D01*
X061850Y024100D02*
Y034966D01*
X082245Y037120D02*
X082465Y036900D01*
X065720Y029405D02*
X066350D01*
X078600Y033000D02*
X079282D01*
X078088Y032488D02*
X078600Y033000D01*
X077750Y032488D02*
X078088D01*
X062494Y013866D02*
Y014656D01*
X062610Y013750D02*
X063595D01*
X061705Y014750D02*
X062400D01*
X062494Y013866D02*
X062610Y013750D01*
X062400Y014750D02*
X062494Y014656D01*
X071775Y029405D02*
X073850Y031480D01*
X086555Y024655D02*
Y025500D01*
X066360Y029405D02*
Y029780D01*
X061974Y035090D02*
Y035600D01*
X061850Y034966D02*
X061974Y035090D01*
X060550Y022800D02*
X061850Y024100D01*
X059840Y043100D02*
X061645D01*
X059450Y042710D02*
X059840Y043100D01*
X059450Y040720D02*
Y042710D01*
X062570Y034400D02*
X063545D01*
X060550Y019800D02*
X064300D01*
X062362Y045195D02*
X066250D01*
X054776Y038474D02*
Y039600D01*
Y038474D02*
X055350Y037900D01*
X062274Y035600D02*
X062834Y035041D01*
X061974Y035600D02*
X062274D01*
X068050Y021327D02*
Y024400D01*
X068850Y025200D01*
X082245Y037120D02*
Y037600D01*
X060210Y039128D02*
X060760D01*
X062280Y044200D02*
X062362D01*
X051555Y025500D02*
Y030455D01*
X050630Y031380D02*
X051555Y030455D01*
X053540Y039060D02*
X054080Y039600D01*
X054776D01*
X075450Y033474D02*
Y034240D01*
X071350Y029405D02*
X071775D01*
X073850Y031480D02*
Y032973D01*
X080930Y033870D02*
X083287D01*
X080820Y033760D02*
X080930Y033870D01*
X080820Y033000D02*
Y033760D01*
X065884Y013726D02*
X066400Y013210D01*
X065350Y013726D02*
X065884D01*
X061120Y014750D02*
X061705D01*
X066350Y029405D02*
X066360D01*
X072695Y019605D02*
X073150D01*
X072486Y021674D02*
X073150D01*
X070400D02*
X070738D01*
X069550D02*
X070400D01*
Y020920D02*
X070738D01*
X070310Y021010D02*
X070400Y020920D01*
X070310Y021010D02*
Y021584D01*
X070400Y021674D01*
X060760Y039128D02*
X060782Y039150D01*
X061190D01*
Y039680D01*
X061110Y039760D02*
X061190Y039680D01*
X060760Y039760D02*
X061110D01*
X069834Y023574D02*
Y025200D01*
X069550Y023290D02*
X069834Y023574D01*
X069550Y021674D02*
Y023290D01*
X075450Y033474D02*
X076650D01*
X077218Y033512D02*
X077750D01*
X077180Y033474D02*
X077218Y033512D01*
X076650Y033474D02*
X077180D01*
X082245Y037600D02*
Y038700D01*
X078300Y041526D02*
X079400D01*
X064484Y013726D02*
X065350D01*
X064460Y013750D02*
X064484Y013726D01*
X063595Y013750D02*
X064460D01*
X074350Y021674D02*
X075924D01*
X073150D02*
X074350D01*
X078300Y040374D02*
X079400D01*
X075924Y021674D02*
X075950Y021700D01*
X071770Y021674D02*
X072486D01*
Y019814D02*
Y021674D01*
Y019814D02*
X072695Y019605D01*
X075864Y029405D02*
X076350D01*
X073820Y031450D02*
X075864Y029405D01*
X083176Y025650D02*
X083200Y025674D01*
X081675Y025650D02*
X083200D01*
Y026550D01*
X084600Y027950D01*
X059800Y019196D02*
Y022050D01*
X060550Y022800D01*
X066250Y045195D02*
X066905D01*
X077670Y040374D02*
X078300D01*
X077486Y040190D02*
X077670Y040374D01*
X077486Y035580D02*
Y040190D01*
X069455Y034800D02*
X070100D01*
X071927Y032973D01*
X073850D01*
X060650Y015220D02*
X061120Y014750D01*
X060650Y015220D02*
Y018346D01*
X059800Y019196D02*
X060650Y018346D01*
X060500Y044400D02*
X061300Y045200D01*
X060500Y043100D02*
Y044400D01*
Y043100D02*
X061645D01*
X061300Y045200D02*
X062362D01*
Y044200D02*
Y045200D01*
X060550Y019800D02*
X061850D01*
Y017800D02*
Y019800D01*
X071350Y029405D02*
Y029700D01*
X064174Y035600D02*
X064200Y035574D01*
X062834Y035041D02*
X064200D01*
Y034900D02*
Y035574D01*
Y034900D02*
X065720Y033380D01*
Y029405D02*
Y033380D01*
X055350Y037900D02*
X057550Y040100D01*
X058830D01*
X059450Y040720D01*
X067800Y043800D02*
Y044300D01*
X069500Y034845D02*
Y042100D01*
X067800Y043800D02*
X069500Y042100D01*
X069455Y034800D02*
X069500Y034845D01*
X073850Y034627D02*
X074023Y034800D01*
X074890D01*
X075450Y034240D01*
X079400Y041526D02*
X080174D01*
X082245Y039455D01*
Y038700D02*
Y039455D01*
X066905Y045195D02*
X067800Y044300D01*
X066360Y029780D02*
X066530Y029950D01*
X071100D01*
X071350Y029700D01*
X082465Y036900D02*
X084040D01*
X084600Y036340D01*
X084747Y033470D02*
Y033798D01*
X084600Y033323D02*
X084747Y033470D01*
X084600Y027950D02*
Y033323D01*
Y035677D02*
Y036340D01*
Y035677D02*
X084747Y035530D01*
Y035202D02*
Y035530D01*
X084600Y035055D02*
X084747Y035202D01*
X084600Y033945D02*
X084747Y033798D01*
X084600Y033945D02*
Y035055D01*
X063510Y042540D02*
X063920Y042130D01*
X063476Y043100D02*
X063510Y043066D01*
Y042540D02*
Y043066D01*
X063920Y042130D02*
X066270D01*
X068305Y040095D01*
Y039115D02*
X068380Y039040D01*
X068305Y039115D02*
Y040095D01*
X064140Y039760D02*
X064840D01*
X060320Y040080D02*
X060760D01*
X060257Y039443D02*
X060760D01*
X072131Y028100D02*
Y029750D01*
X074025Y024325D02*
X075950Y022400D01*
Y021700D02*
Y022400D01*
X072131Y028100D02*
X074025Y026206D01*
Y024325D02*
Y026206D01*
X075950Y021700D02*
X077100D01*
X079700Y017700D02*
X081950D01*
X078500Y018900D02*
X079700Y017700D01*
X078500Y018900D02*
Y020300D01*
X077100Y021700D02*
X078500Y020300D01*
X064300Y019800D02*
X064600Y019500D01*
X067877D01*
X068050Y019673D01*
X066400Y013210D02*
X067310D01*
X067550Y012970D01*
X066250Y010705D02*
Y011050D01*
X067550Y012350D01*
Y012970D01*
D31*
X064140Y038813D02*
X064520D01*
X076405Y040925D02*
Y041175D01*
Y040675D02*
X077369D01*
X077670Y040374D01*
X074295Y041925D02*
X074875D01*
X076405Y041175D02*
X077425D01*
X077776Y041526D01*
X078250Y040950D02*
Y041476D01*
X077776Y041526D02*
X078300D01*
X064520Y038813D02*
X064757Y039050D01*
X064900D01*
D32*
X084350Y035366D02*
D03*
Y033634D02*
D03*
D33*
X054350Y035900D02*
D03*
X055350D02*
D03*
X054350Y037900D02*
D03*
X055350D02*
D03*
Y036900D02*
D03*
X054350D02*
D03*
X059050Y033800D02*
D03*
Y032800D02*
D03*
Y031800D02*
D03*
Y030800D02*
D03*
Y029800D02*
D03*
Y028800D02*
D03*
Y027800D02*
D03*
Y026800D02*
D03*
Y025800D02*
D03*
Y024800D02*
D03*
Y023800D02*
D03*
Y022800D02*
D03*
Y021800D02*
D03*
Y020800D02*
D03*
Y019800D02*
D03*
X060550Y033800D02*
D03*
Y032800D02*
D03*
Y031800D02*
D03*
Y030800D02*
D03*
Y029800D02*
D03*
Y028800D02*
D03*
Y027800D02*
D03*
Y026800D02*
D03*
Y025800D02*
D03*
Y024800D02*
D03*
Y023800D02*
D03*
Y022800D02*
D03*
Y021800D02*
D03*
Y020800D02*
D03*
Y019800D02*
D03*
D34*
X068650Y046484D02*
D03*
Y044516D02*
D03*
X050266Y027900D02*
D03*
X052234D02*
D03*
X085266Y028000D02*
D03*
X087234D02*
D03*
X067766Y010500D02*
D03*
X069734D02*
D03*
X074934Y025200D02*
D03*
X072966D02*
D03*
X062966Y029100D02*
D03*
X064934D02*
D03*
X067766Y029200D02*
D03*
X069734D02*
D03*
X072866D02*
D03*
X074834D02*
D03*
X079666Y018900D02*
D03*
X081634D02*
D03*
X073750Y015500D02*
D03*
X075000D02*
D03*
X076250D02*
D03*
X077500D02*
D03*
X078750D02*
D03*
Y014250D02*
D03*
X077500D02*
D03*
X076250D02*
D03*
X075000D02*
D03*
X073750D02*
D03*
X078750Y013000D02*
D03*
X077500D02*
D03*
X076250D02*
D03*
X075000D02*
D03*
X073750D02*
D03*
X077500Y011750D02*
D03*
X076250D02*
D03*
X075000D02*
D03*
X077500Y016750D02*
D03*
X076250D02*
D03*
X075000D02*
D03*
D35*
X068750Y041400D02*
D03*
Y040400D02*
D03*
Y015100D02*
D03*
Y016100D02*
D03*
X082250Y028000D02*
D03*
X081250D02*
D03*
X055450Y027900D02*
D03*
X056450D02*
D03*
D36*
X056850Y017800D02*
D03*
X061850D02*
D03*
D37*
X064041Y023800D02*
D03*
X054659D02*
D03*
Y032552D02*
D03*
X064041D02*
D03*
D38*
X069834Y033300D02*
D03*
Y025200D02*
D03*
D39*
X068850Y033300D02*
D03*
X067866D02*
D03*
X068850Y025200D02*
D03*
X067866D02*
D03*
D40*
X066650Y013700D02*
D03*
D41*
Y012700D02*
D03*
D42*
X058350Y038939D02*
D03*
Y040861D02*
D03*
D43*
X074500Y027300D02*
D03*
X061390Y029420D02*
D03*
X067130Y014340D02*
D03*
X056130Y014290D02*
D03*
X065200Y016000D02*
D03*
X058140Y012420D02*
D03*
X059930Y012440D02*
D03*
X061700Y012450D02*
D03*
X063650Y012500D02*
D03*
X063550Y015980D02*
D03*
X061740Y015960D02*
D03*
X064540Y014310D02*
D03*
X057560Y015940D02*
D03*
X059960D02*
D03*
X059120Y036000D02*
D03*
X058720Y037614D02*
D03*
X059930Y038180D02*
D03*
X060150Y039800D02*
D03*
X065330Y040320D02*
D03*
X064790D02*
D03*
X061470Y041990D02*
D03*
X063545Y034400D02*
D03*
X062570D02*
D03*
X080960Y027210D02*
D03*
X063480Y040240D02*
D03*
X060560Y035000D02*
D03*
X062930Y039043D02*
D03*
X062380Y034660D02*
D03*
X062530Y026800D02*
D03*
X063430Y038840D02*
D03*
X063650Y039770D02*
D03*
X075870Y040640D02*
D03*
X060430Y036950D02*
D03*
X057460D02*
D03*
X062930Y037440D02*
D03*
X061430Y037190D02*
D03*
X061390Y034530D02*
D03*
X061663Y039193D02*
D03*
X082700Y031400D02*
D03*
X058290Y025800D02*
D03*
X060650Y041290D02*
D03*
X062220Y039160D02*
D03*
X072300Y040505D02*
D03*
X061663Y040880D02*
D03*
X058010Y022840D02*
D03*
X066250Y031420D02*
D03*
X080950Y024840D02*
D03*
X054385Y020230D02*
D03*
X079270Y024650D02*
D03*
X059714Y026800D02*
D03*
X062255Y042440D02*
D03*
X061370Y040570D02*
D03*
X062610Y039730D02*
D03*
X056000Y031420D02*
D03*
X062130Y021280D02*
D03*
Y034810D02*
D03*
X061950Y038890D02*
D03*
X081180Y023950D02*
D03*
X072850Y023640D02*
D03*
X066580Y030430D02*
D03*
X062840Y038570D02*
D03*
X062610Y038340D02*
D03*
X071580Y040880D02*
D03*
X059938Y038939D02*
D03*
X060040Y036660D02*
D03*
X082280Y023240D02*
D03*
X057070Y037130D02*
D03*
X080170Y027590D02*
D03*
X080100Y026940D02*
D03*
X078090Y024300D02*
D03*
X063230Y042440D02*
D03*
X071864Y041626D02*
D03*
X060210Y039128D02*
D03*
X069900Y020250D02*
D03*
X070650D02*
D03*
Y019050D02*
D03*
X071750Y018100D02*
D03*
X073150Y020284D02*
D03*
X074350Y020300D02*
D03*
X072450Y022250D02*
D03*
X073700D02*
D03*
X071050D02*
D03*
X075950Y018750D02*
D03*
X075250Y020900D02*
D03*
X075050Y022250D02*
D03*
X073700Y018100D02*
D03*
X084000Y034750D02*
D03*
Y034250D02*
D03*
X082600Y035550D02*
D03*
X063320Y041920D02*
D03*
X064787Y037810D02*
D03*
X060390Y041920D02*
D03*
X065040Y044270D02*
D03*
X065080Y043040D02*
D03*
X058814Y042268D02*
D03*
X077486Y035580D02*
D03*
X064984Y036500D02*
D03*
X063920Y034760D02*
D03*
X064850Y035600D02*
D03*
X055533Y017850D02*
D03*
X056850Y019150D02*
D03*
X057850Y018600D02*
D03*
X055900Y018700D02*
D03*
X055850Y016900D02*
D03*
X068744Y022120D02*
D03*
X059950Y033850D02*
D03*
X072050Y045300D02*
D03*
X074900Y041900D02*
D03*
X078250Y040950D02*
D03*
X078700Y023400D02*
D03*
X064900Y039050D02*
D03*
X067200Y038600D02*
D03*
X068380Y039040D02*
D03*
M02*
