G04 Layer_Color=13813960*
%FSAX24Y24*%
%MOIN*%
G70*
G01*
G75*
%ADD29C,0.0100*%
%ADD45C,0.0079*%
%ADD83C,0.0600*%
%ADD84C,0.0400*%
D29*
X058169Y017377D02*
X060531D01*
X053051D02*
X055413D01*
X063287D02*
X065649D01*
X053051D02*
Y039423D01*
X065649D01*
Y017377D02*
Y039423D01*
X065600Y040170D02*
Y039770D01*
X065400D01*
X065333Y039837D01*
Y039903D01*
X065400Y039970D01*
X065600D01*
X065400D01*
X065333Y040037D01*
Y040103D01*
X065400Y040170D01*
X065600D01*
X065200D02*
X064934D01*
X065067D01*
Y039770D01*
X064800D02*
X064667D01*
X064734D01*
Y040170D01*
X064800Y040103D01*
X072083Y013333D02*
X072150Y013400D01*
X072283D01*
X072350Y013333D01*
Y013267D01*
X072283Y013200D01*
X072150D01*
X072083Y013133D01*
Y013067D01*
X072150Y013000D01*
X072283D01*
X072350Y013067D01*
X071950Y013000D02*
Y013400D01*
X071750D01*
X071684Y013333D01*
Y013200D01*
X071750Y013133D01*
X071950D01*
X071550Y013400D02*
Y013000D01*
Y013133D01*
X071284Y013400D01*
X071484Y013200D01*
X071284Y013000D01*
X071150D02*
X071017D01*
X071084D01*
Y013400D01*
X071150Y013333D01*
D45*
X068248Y012125D02*
Y014275D01*
X067248Y012125D02*
X068248D01*
X067248D02*
Y014275D01*
X068248D01*
D83*
X078584Y016733D02*
X079000Y017149D01*
X079833D01*
X080250Y016733D01*
Y016316D01*
X079833Y015900D01*
X079000D01*
X078584Y015483D01*
Y015067D01*
X079000Y014650D01*
X079833D01*
X080250Y015067D01*
X077751Y014650D02*
X076918D01*
X077334D01*
Y016316D01*
X077751D01*
X075668Y014650D02*
Y016316D01*
X075252D01*
X074835Y015900D01*
Y014650D01*
Y015900D01*
X074419Y016316D01*
X074002Y015900D01*
Y014650D01*
X072752D02*
X071919D01*
X071503Y015067D01*
Y015900D01*
X071919Y016316D01*
X072752D01*
X073169Y015900D01*
Y015067D01*
X072752Y014650D01*
X070670D02*
Y016316D01*
X069420D01*
X069004Y015900D01*
Y014650D01*
X066504Y017149D02*
Y014650D01*
X067754D01*
X068171Y015067D01*
Y015900D01*
X067754Y016316D01*
X066504D01*
X065671D02*
Y015067D01*
X065255Y014650D01*
X064005D01*
Y016316D01*
X063172Y014650D02*
X062339D01*
X062756D01*
Y016316D01*
X063172D01*
X061090Y014650D02*
Y016316D01*
X059840D01*
X059423Y015900D01*
Y014650D01*
X058174D02*
X057341D01*
X056924Y015067D01*
Y015900D01*
X057341Y016316D01*
X058174D01*
X058590Y015900D01*
Y015067D01*
X058174Y014650D01*
X078017Y044016D02*
X078350Y044349D01*
X079017D01*
X079350Y044016D01*
Y042683D01*
X079017Y042350D01*
X078350D01*
X078017Y042683D01*
X077351Y042350D02*
Y044349D01*
X076351D01*
X076018Y044016D01*
Y043350D01*
X076351Y043016D01*
X077351D01*
X076684D02*
X076018Y042350D01*
X075351D02*
Y043683D01*
X074685Y044349D01*
X074018Y043683D01*
Y042350D01*
Y043350D01*
X075351D01*
X072019Y044016D02*
X072352Y044349D01*
X073019D01*
X073352Y044016D01*
Y043683D01*
X073019Y043350D01*
X072352D01*
X072019Y043016D01*
Y042683D01*
X072352Y042350D01*
X073019D01*
X073352Y042683D01*
X071353Y044349D02*
Y042350D01*
Y043350D01*
X070020D01*
Y044349D01*
Y042350D01*
X068020Y044016D02*
X068354Y044349D01*
X069020D01*
X069353Y044016D01*
Y042683D01*
X069020Y042350D01*
X068354D01*
X068020Y042683D01*
X066354Y044349D02*
X067021D01*
X067354Y044016D01*
Y042683D01*
X067021Y042350D01*
X066354D01*
X066021Y042683D01*
Y044016D01*
X066354Y044349D01*
X065355D02*
Y042683D01*
X065021Y042350D01*
X064355D01*
X064022Y042683D01*
Y044349D01*
X063355Y042350D02*
Y044349D01*
X062355D01*
X062022Y044016D01*
Y043350D01*
X062355Y043016D01*
X063355D01*
X062689D02*
X062022Y042350D01*
X060023Y044016D02*
X060356Y044349D01*
X061023D01*
X061356Y044016D01*
Y043683D01*
X061023Y043350D01*
X060356D01*
X060023Y043016D01*
Y042683D01*
X060356Y042350D01*
X061023D01*
X061356Y042683D01*
X058024Y044349D02*
X059356D01*
Y042350D01*
X058024D01*
X059356Y043350D02*
X058690D01*
D84*
X075100Y041400D02*
X076100D01*
Y039900D01*
X075100D01*
X076100Y040650D02*
X075600D01*
X074600Y039900D02*
X074101D01*
X074351D01*
Y041400D01*
X074600D01*
X072601Y039900D02*
X073101D01*
X073351Y040150D01*
Y040650D01*
X073101Y040900D01*
X072601D01*
X072351Y040650D01*
Y040400D01*
X073351D01*
X070852Y040900D02*
X071601D01*
X071851Y040650D01*
Y040150D01*
X071601Y039900D01*
X070852D01*
X070102Y041150D02*
Y040900D01*
X070352D01*
X069852D01*
X070102D01*
Y040150D01*
X069852Y039900D01*
X069102Y040900D02*
Y039900D01*
Y040400D01*
X068852Y040650D01*
X068602Y040900D01*
X068353D01*
X067353Y039900D02*
X066853D01*
X066603Y040150D01*
Y040650D01*
X066853Y040900D01*
X067353D01*
X067603Y040650D01*
Y040150D01*
X067353Y039900D01*
X066103D02*
Y040900D01*
X065353D01*
X065104Y040650D01*
Y039900D01*
X064604D02*
X064104D01*
X064354D01*
Y040900D01*
X064604D01*
X062354D02*
X063104D01*
X063354Y040650D01*
Y040150D01*
X063104Y039900D01*
X062354D01*
X061855D02*
X061105D01*
X060855Y040150D01*
X061105Y040400D01*
X061605D01*
X061855Y040650D01*
X061605Y040900D01*
X060855D01*
M02*
