G04 Layer_Physical_Order=2*
G04 Layer_Color=11436288*
%FSAX24Y24*%
%MOIN*%
G70*
G01*
G75*
%ADD29C,0.0100*%
%ADD30C,0.0200*%
%ADD31C,0.0150*%
%ADD32C,0.0454*%
%ADD33C,0.0709*%
%ADD34C,0.0600*%
%ADD35C,0.0630*%
%ADD36C,0.1575*%
%ADD37C,0.2362*%
%ADD38R,0.0591X0.0591*%
%ADD39C,0.0591*%
%ADD40C,0.0610*%
%ADD41R,0.0610X0.0610*%
%ADD42C,0.0875*%
%ADD43C,0.0200*%
G36*
X088750Y008000D02*
X048750D01*
Y048000D01*
X088750D01*
Y008000D01*
D02*
G37*
%LPC*%
G36*
X081584Y018850D02*
X081237D01*
X081245Y018796D01*
X081285Y018698D01*
X081349Y018615D01*
X081433Y018551D01*
X081530Y018510D01*
X081584Y018503D01*
Y018850D01*
D02*
G37*
G36*
X058044Y018550D02*
X057900D01*
Y018406D01*
X057928Y018412D01*
X057994Y018456D01*
X058038Y018522D01*
X058044Y018550D01*
D02*
G37*
G36*
X055850Y018650D02*
X055706D01*
X055712Y018622D01*
X055756Y018556D01*
X055822Y018512D01*
X055850Y018506D01*
Y018650D01*
D02*
G37*
G36*
X082031Y018850D02*
X081684D01*
Y018503D01*
X081739Y018510D01*
X081836Y018551D01*
X081920Y018615D01*
X081984Y018698D01*
X082024Y018796D01*
X082031Y018850D01*
D02*
G37*
G36*
X057800Y018550D02*
X057656D01*
X057662Y018522D01*
X057706Y018456D01*
X057772Y018412D01*
X057800Y018406D01*
Y018550D01*
D02*
G37*
G36*
X071800Y018294D02*
Y018150D01*
X071944D01*
X071938Y018178D01*
X071894Y018244D01*
X071828Y018288D01*
X071800Y018294D01*
D02*
G37*
G36*
X071700D02*
X071672Y018288D01*
X071606Y018244D01*
X071562Y018178D01*
X071556Y018150D01*
X071700D01*
Y018294D01*
D02*
G37*
G36*
X073750D02*
Y018150D01*
X073894D01*
X073888Y018178D01*
X073844Y018244D01*
X073778Y018288D01*
X073750Y018294D01*
D02*
G37*
G36*
X073650D02*
X073622Y018288D01*
X073556Y018244D01*
X073512Y018178D01*
X073506Y018150D01*
X073650D01*
Y018294D01*
D02*
G37*
G36*
X056094Y018650D02*
X055950D01*
Y018506D01*
X055978Y018512D01*
X056044Y018556D01*
X056088Y018622D01*
X056094Y018650D01*
D02*
G37*
G36*
X055950Y018894D02*
Y018750D01*
X056094D01*
X056088Y018778D01*
X056044Y018844D01*
X055978Y018888D01*
X055950Y018894D01*
D02*
G37*
G36*
X055850D02*
X055822Y018888D01*
X055756Y018844D01*
X055712Y018778D01*
X055706Y018750D01*
X055850D01*
Y018894D01*
D02*
G37*
G36*
X076000Y018944D02*
Y018800D01*
X076144D01*
X076138Y018828D01*
X076094Y018894D01*
X076028Y018938D01*
X076000Y018944D01*
D02*
G37*
G36*
X075900D02*
X075872Y018938D01*
X075806Y018894D01*
X075762Y018828D01*
X075756Y018800D01*
X075900D01*
Y018944D01*
D02*
G37*
G36*
X057900Y018794D02*
Y018650D01*
X058044D01*
X058038Y018678D01*
X057994Y018744D01*
X057928Y018788D01*
X057900Y018794D01*
D02*
G37*
G36*
X075900Y018700D02*
X075756D01*
X075762Y018672D01*
X075806Y018606D01*
X075872Y018562D01*
X075900Y018556D01*
Y018700D01*
D02*
G37*
G36*
X079666Y019283D02*
X079567Y019270D01*
X079474Y019232D01*
X079395Y019171D01*
X079334Y019092D01*
X079296Y018999D01*
X079282Y018900D01*
X079296Y018801D01*
X079334Y018708D01*
X079395Y018629D01*
X079474Y018568D01*
X079567Y018530D01*
X079666Y018517D01*
X079765Y018530D01*
X079857Y018568D01*
X079937Y018629D01*
X079998Y018708D01*
X080036Y018801D01*
X080049Y018900D01*
X080036Y018999D01*
X079998Y019092D01*
X079937Y019171D01*
X079857Y019232D01*
X079765Y019270D01*
X079666Y019283D01*
D02*
G37*
G36*
X057800Y018794D02*
X057772Y018788D01*
X057706Y018744D01*
X057662Y018678D01*
X057656Y018650D01*
X057800D01*
Y018794D01*
D02*
G37*
G36*
X076144Y018700D02*
X076000D01*
Y018556D01*
X076028Y018562D01*
X076094Y018606D01*
X076138Y018672D01*
X076144Y018700D01*
D02*
G37*
G36*
X061850Y018671D02*
X061680Y018654D01*
X061516Y018605D01*
X061366Y018524D01*
X061234Y018416D01*
X061125Y018284D01*
X061045Y018133D01*
X060995Y017970D01*
X060978Y017800D01*
X060995Y017630D01*
X061045Y017466D01*
X061125Y017315D01*
X061234Y017183D01*
X061366Y017075D01*
X061516Y016994D01*
X061680Y016945D01*
X061850Y016928D01*
X062020Y016945D01*
X062184Y016994D01*
X062334Y017075D01*
X062466Y017183D01*
X062575Y017315D01*
X062655Y017466D01*
X062705Y017630D01*
X062722Y017800D01*
X062705Y017970D01*
X062655Y018133D01*
X062575Y018284D01*
X062466Y018416D01*
X062334Y018524D01*
X062184Y018605D01*
X062020Y018654D01*
X061850Y018671D01*
D02*
G37*
G36*
X057737Y017750D02*
X056900D01*
Y016913D01*
X057024Y016925D01*
X057191Y016976D01*
X057345Y017058D01*
X057481Y017169D01*
X057591Y017304D01*
X057674Y017458D01*
X057725Y017626D01*
X057737Y017750D01*
D02*
G37*
G36*
X055900Y017094D02*
Y016950D01*
X056044D01*
X056038Y016978D01*
X055994Y017044D01*
X055928Y017088D01*
X055900Y017094D01*
D02*
G37*
G36*
X055800D02*
X055772Y017088D01*
X055706Y017044D01*
X055662Y016978D01*
X055656Y016950D01*
X055800D01*
Y017094D01*
D02*
G37*
G36*
X056800Y017750D02*
X055963D01*
X055975Y017626D01*
X056026Y017458D01*
X056109Y017304D01*
X056219Y017169D01*
X056355Y017058D01*
X056509Y016976D01*
X056676Y016925D01*
X056800Y016913D01*
Y017750D01*
D02*
G37*
G36*
X077500Y017133D02*
X077401Y017120D01*
X077308Y017082D01*
X077229Y017021D01*
X077168Y016942D01*
X077130Y016849D01*
X077117Y016750D01*
X077130Y016651D01*
X077168Y016558D01*
X077229Y016479D01*
X077308Y016418D01*
X077401Y016380D01*
X077500Y016367D01*
X077599Y016380D01*
X077692Y016418D01*
X077771Y016479D01*
X077832Y016558D01*
X077870Y016651D01*
X077883Y016750D01*
X077870Y016849D01*
X077832Y016942D01*
X077771Y017021D01*
X077692Y017082D01*
X077599Y017120D01*
X077500Y017133D01*
D02*
G37*
G36*
X076250D02*
X076151Y017120D01*
X076058Y017082D01*
X075979Y017021D01*
X075918Y016942D01*
X075880Y016849D01*
X075867Y016750D01*
X075880Y016651D01*
X075918Y016558D01*
X075979Y016479D01*
X076058Y016418D01*
X076151Y016380D01*
X076250Y016367D01*
X076349Y016380D01*
X076442Y016418D01*
X076521Y016479D01*
X076582Y016558D01*
X076620Y016651D01*
X076633Y016750D01*
X076620Y016849D01*
X076582Y016942D01*
X076521Y017021D01*
X076442Y017082D01*
X076349Y017120D01*
X076250Y017133D01*
D02*
G37*
G36*
X056044Y016850D02*
X055900D01*
Y016706D01*
X055928Y016712D01*
X055994Y016756D01*
X056038Y016822D01*
X056044Y016850D01*
D02*
G37*
G36*
X055800D02*
X055656D01*
X055662Y016822D01*
X055706Y016756D01*
X055772Y016712D01*
X055800Y016706D01*
Y016850D01*
D02*
G37*
G36*
X055483Y017800D02*
X055339D01*
X055345Y017772D01*
X055389Y017705D01*
X055455Y017661D01*
X055483Y017656D01*
Y017800D01*
D02*
G37*
G36*
X071944Y018050D02*
X071800D01*
Y017906D01*
X071828Y017912D01*
X071894Y017956D01*
X071938Y018022D01*
X071944Y018050D01*
D02*
G37*
G36*
X071700D02*
X071556D01*
X071562Y018022D01*
X071606Y017956D01*
X071672Y017912D01*
X071700Y017906D01*
Y018050D01*
D02*
G37*
G36*
X073894D02*
X073750D01*
Y017906D01*
X073778Y017912D01*
X073844Y017956D01*
X073888Y018022D01*
X073894Y018050D01*
D02*
G37*
G36*
X073650D02*
X073506D01*
X073512Y018022D01*
X073556Y017956D01*
X073622Y017912D01*
X073650Y017906D01*
Y018050D01*
D02*
G37*
G36*
X055583Y018044D02*
Y017900D01*
X055727D01*
X055722Y017928D01*
X055678Y017994D01*
X055611Y018038D01*
X055583Y018044D01*
D02*
G37*
G36*
X056800Y018686D02*
X056676Y018674D01*
X056509Y018623D01*
X056355Y018541D01*
X056219Y018430D01*
X056109Y018295D01*
X056026Y018141D01*
X055975Y017974D01*
X055963Y017850D01*
X056800D01*
Y018686D01*
D02*
G37*
G36*
X055727Y017800D02*
X055583D01*
Y017656D01*
X055611Y017661D01*
X055678Y017705D01*
X055722Y017772D01*
X055727Y017800D01*
D02*
G37*
G36*
X055483Y018044D02*
X055455Y018038D01*
X055389Y017994D01*
X055345Y017928D01*
X055339Y017900D01*
X055483D01*
Y018044D01*
D02*
G37*
G36*
X056900Y018686D02*
Y017850D01*
X057737D01*
X057725Y017974D01*
X057674Y018141D01*
X057591Y018295D01*
X057481Y018430D01*
X057345Y018541D01*
X057191Y018623D01*
X057024Y018674D01*
X056900Y018686D01*
D02*
G37*
G36*
X070600Y019000D02*
X070456D01*
X070462Y018972D01*
X070506Y018906D01*
X070572Y018862D01*
X070600Y018856D01*
Y019000D01*
D02*
G37*
G36*
X075200Y020850D02*
X075056D01*
X075062Y020822D01*
X075106Y020756D01*
X075172Y020712D01*
X075200Y020706D01*
Y020850D01*
D02*
G37*
G36*
X074400Y020494D02*
Y020350D01*
X074544D01*
X074538Y020378D01*
X074494Y020444D01*
X074428Y020488D01*
X074400Y020494D01*
D02*
G37*
G36*
X075200Y021094D02*
X075172Y021088D01*
X075106Y021044D01*
X075062Y020978D01*
X075056Y020950D01*
X075200D01*
Y021094D01*
D02*
G37*
G36*
X075444Y020850D02*
X075300D01*
Y020706D01*
X075328Y020712D01*
X075394Y020756D01*
X075438Y020822D01*
X075444Y020850D01*
D02*
G37*
G36*
X074300Y020494D02*
X074272Y020488D01*
X074206Y020444D01*
X074162Y020378D01*
X074156Y020350D01*
X074300D01*
Y020494D01*
D02*
G37*
G36*
X070700Y020444D02*
Y020300D01*
X070844D01*
X070838Y020328D01*
X070794Y020394D01*
X070728Y020438D01*
X070700Y020444D01*
D02*
G37*
G36*
X070600D02*
X070572Y020438D01*
X070506Y020394D01*
X070462Y020328D01*
X070456Y020300D01*
X070600D01*
Y020444D01*
D02*
G37*
G36*
X073200Y020477D02*
Y020334D01*
X073344D01*
X073338Y020362D01*
X073294Y020428D01*
X073228Y020472D01*
X073200Y020477D01*
D02*
G37*
G36*
X073100D02*
X073072Y020472D01*
X073006Y020428D01*
X072962Y020362D01*
X072956Y020334D01*
X073100D01*
Y020477D01*
D02*
G37*
G36*
X075300Y021094D02*
Y020950D01*
X075444D01*
X075438Y020978D01*
X075394Y021044D01*
X075328Y021088D01*
X075300Y021094D01*
D02*
G37*
G36*
X075000Y022200D02*
X074856D01*
X074862Y022172D01*
X074906Y022106D01*
X074972Y022062D01*
X075000Y022056D01*
Y022200D01*
D02*
G37*
G36*
X073894D02*
X073750D01*
Y022056D01*
X073778Y022062D01*
X073844Y022106D01*
X073888Y022172D01*
X073894Y022200D01*
D02*
G37*
G36*
X071000Y022444D02*
X070972Y022438D01*
X070906Y022394D01*
X070862Y022328D01*
X070856Y022300D01*
X071000D01*
Y022444D01*
D02*
G37*
G36*
X075244Y022200D02*
X075100D01*
Y022056D01*
X075128Y022062D01*
X075194Y022106D01*
X075238Y022172D01*
X075244Y022200D01*
D02*
G37*
G36*
X073650D02*
X073506D01*
X073512Y022172D01*
X073556Y022106D01*
X073622Y022062D01*
X073650Y022056D01*
Y022200D01*
D02*
G37*
G36*
X071244D02*
X071100D01*
Y022056D01*
X071128Y022062D01*
X071194Y022106D01*
X071238Y022172D01*
X071244Y022200D01*
D02*
G37*
G36*
X071000D02*
X070856D01*
X070862Y022172D01*
X070906Y022106D01*
X070972Y022062D01*
X071000Y022056D01*
Y022200D01*
D02*
G37*
G36*
X072644D02*
X072500D01*
Y022056D01*
X072528Y022062D01*
X072594Y022106D01*
X072638Y022172D01*
X072644Y022200D01*
D02*
G37*
G36*
X072400D02*
X072256D01*
X072262Y022172D01*
X072306Y022106D01*
X072372Y022062D01*
X072400Y022056D01*
Y022200D01*
D02*
G37*
G36*
X070700Y019244D02*
Y019100D01*
X070844D01*
X070838Y019128D01*
X070794Y019194D01*
X070728Y019238D01*
X070700Y019244D01*
D02*
G37*
G36*
X070600D02*
X070572Y019238D01*
X070506Y019194D01*
X070462Y019128D01*
X070456Y019100D01*
X070600D01*
Y019244D01*
D02*
G37*
G36*
X056900Y019344D02*
Y019200D01*
X057044D01*
X057038Y019228D01*
X056994Y019294D01*
X056928Y019338D01*
X056900Y019344D01*
D02*
G37*
G36*
X056800D02*
X056772Y019338D01*
X056706Y019294D01*
X056662Y019228D01*
X056656Y019200D01*
X056800D01*
Y019344D01*
D02*
G37*
G36*
X057044Y019100D02*
X056900D01*
Y018956D01*
X056928Y018962D01*
X056994Y019006D01*
X057038Y019072D01*
X057044Y019100D01*
D02*
G37*
G36*
X081584Y019297D02*
X081530Y019290D01*
X081433Y019249D01*
X081349Y019185D01*
X081285Y019102D01*
X081245Y019004D01*
X081237Y018950D01*
X081584D01*
Y019297D01*
D02*
G37*
G36*
X070844Y019000D02*
X070700D01*
Y018856D01*
X070728Y018862D01*
X070794Y018906D01*
X070838Y018972D01*
X070844Y019000D01*
D02*
G37*
G36*
X056800Y019100D02*
X056656D01*
X056662Y019072D01*
X056706Y019006D01*
X056772Y018962D01*
X056800Y018956D01*
Y019100D01*
D02*
G37*
G36*
X081684Y019297D02*
Y018950D01*
X082031D01*
X082024Y019004D01*
X081984Y019102D01*
X081920Y019185D01*
X081836Y019249D01*
X081739Y019290D01*
X081684Y019297D01*
D02*
G37*
G36*
X069850Y020200D02*
X069706D01*
X069712Y020172D01*
X069756Y020106D01*
X069822Y020062D01*
X069850Y020056D01*
Y020200D01*
D02*
G37*
G36*
X074544Y020250D02*
X074400D01*
Y020106D01*
X074428Y020112D01*
X074494Y020156D01*
X074538Y020222D01*
X074544Y020250D01*
D02*
G37*
G36*
X074300D02*
X074156D01*
X074162Y020222D01*
X074206Y020156D01*
X074272Y020112D01*
X074300Y020106D01*
Y020250D01*
D02*
G37*
G36*
X069950Y020444D02*
Y020300D01*
X070094D01*
X070088Y020328D01*
X070044Y020394D01*
X069978Y020438D01*
X069950Y020444D01*
D02*
G37*
G36*
X069850D02*
X069822Y020438D01*
X069756Y020394D01*
X069712Y020328D01*
X069706Y020300D01*
X069850D01*
Y020444D01*
D02*
G37*
G36*
X073344Y020234D02*
X073200D01*
Y020090D01*
X073228Y020095D01*
X073294Y020139D01*
X073338Y020205D01*
X073344Y020234D01*
D02*
G37*
G36*
X070600Y020200D02*
X070456D01*
X070462Y020172D01*
X070506Y020106D01*
X070572Y020062D01*
X070600Y020056D01*
Y020200D01*
D02*
G37*
G36*
X070094D02*
X069950D01*
Y020056D01*
X069978Y020062D01*
X070044Y020106D01*
X070088Y020172D01*
X070094Y020200D01*
D02*
G37*
G36*
X073100Y020234D02*
X072956D01*
X072962Y020205D01*
X073006Y020139D01*
X073072Y020095D01*
X073100Y020090D01*
Y020234D01*
D02*
G37*
G36*
X070844Y020200D02*
X070700D01*
Y020056D01*
X070728Y020062D01*
X070794Y020106D01*
X070838Y020172D01*
X070844Y020200D01*
D02*
G37*
G36*
X075000Y017133D02*
X074901Y017120D01*
X074808Y017082D01*
X074729Y017021D01*
X074668Y016942D01*
X074630Y016849D01*
X074617Y016750D01*
X074630Y016651D01*
X074668Y016558D01*
X074729Y016479D01*
X074808Y016418D01*
X074901Y016380D01*
X075000Y016367D01*
X075099Y016380D01*
X075192Y016418D01*
X075271Y016479D01*
X075332Y016558D01*
X075370Y016651D01*
X075383Y016750D01*
X075370Y016849D01*
X075332Y016942D01*
X075271Y017021D01*
X075192Y017082D01*
X075099Y017120D01*
X075000Y017133D01*
D02*
G37*
G36*
Y013383D02*
X074901Y013370D01*
X074808Y013332D01*
X074729Y013271D01*
X074668Y013192D01*
X074630Y013099D01*
X074617Y013000D01*
X074630Y012901D01*
X074668Y012808D01*
X074729Y012729D01*
X074808Y012668D01*
X074901Y012630D01*
X075000Y012617D01*
X075099Y012630D01*
X075192Y012668D01*
X075271Y012729D01*
X075332Y012808D01*
X075370Y012901D01*
X075383Y013000D01*
X075370Y013099D01*
X075332Y013192D01*
X075271Y013271D01*
X075192Y013332D01*
X075099Y013370D01*
X075000Y013383D01*
D02*
G37*
G36*
X073750D02*
X073651Y013370D01*
X073558Y013332D01*
X073479Y013271D01*
X073418Y013192D01*
X073380Y013099D01*
X073367Y013000D01*
X073380Y012901D01*
X073418Y012808D01*
X073479Y012729D01*
X073558Y012668D01*
X073651Y012630D01*
X073750Y012617D01*
X073849Y012630D01*
X073942Y012668D01*
X074021Y012729D01*
X074082Y012808D01*
X074120Y012901D01*
X074133Y013000D01*
X074120Y013099D01*
X074082Y013192D01*
X074021Y013271D01*
X073942Y013332D01*
X073849Y013370D01*
X073750Y013383D01*
D02*
G37*
G36*
X077500D02*
X077401Y013370D01*
X077308Y013332D01*
X077229Y013271D01*
X077168Y013192D01*
X077130Y013099D01*
X077117Y013000D01*
X077130Y012901D01*
X077168Y012808D01*
X077229Y012729D01*
X077308Y012668D01*
X077401Y012630D01*
X077500Y012617D01*
X077599Y012630D01*
X077692Y012668D01*
X077771Y012729D01*
X077832Y012808D01*
X077870Y012901D01*
X077883Y013000D01*
X077870Y013099D01*
X077832Y013192D01*
X077771Y013271D01*
X077692Y013332D01*
X077599Y013370D01*
X077500Y013383D01*
D02*
G37*
G36*
X076250D02*
X076151Y013370D01*
X076058Y013332D01*
X075979Y013271D01*
X075918Y013192D01*
X075880Y013099D01*
X075867Y013000D01*
X075880Y012901D01*
X075918Y012808D01*
X075979Y012729D01*
X076058Y012668D01*
X076151Y012630D01*
X076250Y012617D01*
X076349Y012630D01*
X076442Y012668D01*
X076521Y012729D01*
X076582Y012808D01*
X076620Y012901D01*
X076633Y013000D01*
X076620Y013099D01*
X076582Y013192D01*
X076521Y013271D01*
X076442Y013332D01*
X076349Y013370D01*
X076250Y013383D01*
D02*
G37*
G36*
X063700Y012694D02*
Y012550D01*
X063844D01*
X063838Y012578D01*
X063794Y012644D01*
X063728Y012688D01*
X063700Y012694D01*
D02*
G37*
G36*
X061650Y012644D02*
X061622Y012638D01*
X061556Y012594D01*
X061512Y012528D01*
X061506Y012500D01*
X061650D01*
Y012644D01*
D02*
G37*
G36*
X059980Y012634D02*
Y012490D01*
X060124D01*
X060118Y012518D01*
X060074Y012584D01*
X060008Y012628D01*
X059980Y012634D01*
D02*
G37*
G36*
X063600Y012694D02*
X063572Y012688D01*
X063506Y012644D01*
X063462Y012578D01*
X063456Y012550D01*
X063600D01*
Y012694D01*
D02*
G37*
G36*
X061750Y012644D02*
Y012500D01*
X061894D01*
X061888Y012528D01*
X061844Y012594D01*
X061778Y012638D01*
X061750Y012644D01*
D02*
G37*
G36*
X078750Y013383D02*
X078651Y013370D01*
X078558Y013332D01*
X078479Y013271D01*
X078418Y013192D01*
X078380Y013099D01*
X078367Y013000D01*
X078380Y012901D01*
X078418Y012808D01*
X078479Y012729D01*
X078558Y012668D01*
X078651Y012630D01*
X078750Y012617D01*
X078849Y012630D01*
X078942Y012668D01*
X079021Y012729D01*
X079082Y012808D01*
X079120Y012901D01*
X079133Y013000D01*
X079120Y013099D01*
X079082Y013192D01*
X079021Y013271D01*
X078942Y013332D01*
X078849Y013370D01*
X078750Y013383D01*
D02*
G37*
G36*
X056080Y014240D02*
X055936D01*
X055942Y014212D01*
X055986Y014146D01*
X056052Y014102D01*
X056080Y014096D01*
Y014240D01*
D02*
G37*
G36*
X078750Y014633D02*
X078651Y014620D01*
X078558Y014582D01*
X078479Y014521D01*
X078418Y014442D01*
X078380Y014349D01*
X078367Y014250D01*
X078380Y014151D01*
X078418Y014058D01*
X078479Y013979D01*
X078558Y013918D01*
X078651Y013880D01*
X078750Y013867D01*
X078849Y013880D01*
X078942Y013918D01*
X079021Y013979D01*
X079082Y014058D01*
X079120Y014151D01*
X079133Y014250D01*
X079120Y014349D01*
X079082Y014442D01*
X079021Y014521D01*
X078942Y014582D01*
X078849Y014620D01*
X078750Y014633D01*
D02*
G37*
G36*
X064490Y014260D02*
X064346D01*
X064352Y014232D01*
X064396Y014166D01*
X064462Y014122D01*
X064490Y014116D01*
Y014260D01*
D02*
G37*
G36*
X056324Y014240D02*
X056180D01*
Y014096D01*
X056208Y014102D01*
X056274Y014146D01*
X056318Y014212D01*
X056324Y014240D01*
D02*
G37*
G36*
X077500Y014633D02*
X077401Y014620D01*
X077308Y014582D01*
X077229Y014521D01*
X077168Y014442D01*
X077130Y014349D01*
X077117Y014250D01*
X077130Y014151D01*
X077168Y014058D01*
X077229Y013979D01*
X077308Y013918D01*
X077401Y013880D01*
X077500Y013867D01*
X077599Y013880D01*
X077692Y013918D01*
X077771Y013979D01*
X077832Y014058D01*
X077870Y014151D01*
X077883Y014250D01*
X077870Y014349D01*
X077832Y014442D01*
X077771Y014521D01*
X077692Y014582D01*
X077599Y014620D01*
X077500Y014633D01*
D02*
G37*
G36*
X073750D02*
X073651Y014620D01*
X073558Y014582D01*
X073479Y014521D01*
X073418Y014442D01*
X073380Y014349D01*
X073367Y014250D01*
X073380Y014151D01*
X073418Y014058D01*
X073479Y013979D01*
X073558Y013918D01*
X073651Y013880D01*
X073750Y013867D01*
X073849Y013880D01*
X073942Y013918D01*
X074021Y013979D01*
X074082Y014058D01*
X074120Y014151D01*
X074133Y014250D01*
X074120Y014349D01*
X074082Y014442D01*
X074021Y014521D01*
X073942Y014582D01*
X073849Y014620D01*
X073750Y014633D01*
D02*
G37*
G36*
X066650Y014088D02*
X066549Y014075D01*
X066456Y014036D01*
X066375Y013975D01*
X066314Y013894D01*
X066275Y013801D01*
X066262Y013700D01*
X066275Y013599D01*
X066314Y013506D01*
X066375Y013425D01*
X066456Y013364D01*
X066549Y013325D01*
X066650Y013312D01*
X066751Y013325D01*
X066844Y013364D01*
X066925Y013425D01*
X066986Y013506D01*
X067025Y013599D01*
X067038Y013700D01*
X067025Y013801D01*
X066986Y013894D01*
X066925Y013975D01*
X066844Y014036D01*
X066751Y014075D01*
X066650Y014088D01*
D02*
G37*
G36*
X076250Y014633D02*
X076151Y014620D01*
X076058Y014582D01*
X075979Y014521D01*
X075918Y014442D01*
X075880Y014349D01*
X075867Y014250D01*
X075880Y014151D01*
X075918Y014058D01*
X075979Y013979D01*
X076058Y013918D01*
X076151Y013880D01*
X076250Y013867D01*
X076349Y013880D01*
X076442Y013918D01*
X076521Y013979D01*
X076582Y014058D01*
X076620Y014151D01*
X076633Y014250D01*
X076620Y014349D01*
X076582Y014442D01*
X076521Y014521D01*
X076442Y014582D01*
X076349Y014620D01*
X076250Y014633D01*
D02*
G37*
G36*
X075000D02*
X074901Y014620D01*
X074808Y014582D01*
X074729Y014521D01*
X074668Y014442D01*
X074630Y014349D01*
X074617Y014250D01*
X074630Y014151D01*
X074668Y014058D01*
X074729Y013979D01*
X074808Y013918D01*
X074901Y013880D01*
X075000Y013867D01*
X075099Y013880D01*
X075192Y013918D01*
X075271Y013979D01*
X075332Y014058D01*
X075370Y014151D01*
X075383Y014250D01*
X075370Y014349D01*
X075332Y014442D01*
X075271Y014521D01*
X075192Y014582D01*
X075099Y014620D01*
X075000Y014633D01*
D02*
G37*
G36*
X077500Y012133D02*
X077401Y012120D01*
X077308Y012082D01*
X077229Y012021D01*
X077168Y011942D01*
X077130Y011849D01*
X077117Y011750D01*
X077130Y011651D01*
X077168Y011558D01*
X077229Y011479D01*
X077308Y011418D01*
X077401Y011380D01*
X077500Y011367D01*
X077599Y011380D01*
X077692Y011418D01*
X077771Y011479D01*
X077832Y011558D01*
X077870Y011651D01*
X077883Y011750D01*
X077870Y011849D01*
X077832Y011942D01*
X077771Y012021D01*
X077692Y012082D01*
X077599Y012120D01*
X077500Y012133D01*
D02*
G37*
G36*
X076250D02*
X076151Y012120D01*
X076058Y012082D01*
X075979Y012021D01*
X075918Y011942D01*
X075880Y011849D01*
X075867Y011750D01*
X075880Y011651D01*
X075918Y011558D01*
X075979Y011479D01*
X076058Y011418D01*
X076151Y011380D01*
X076250Y011367D01*
X076349Y011380D01*
X076442Y011418D01*
X076521Y011479D01*
X076582Y011558D01*
X076620Y011651D01*
X076633Y011750D01*
X076620Y011849D01*
X076582Y011942D01*
X076521Y012021D01*
X076442Y012082D01*
X076349Y012120D01*
X076250Y012133D01*
D02*
G37*
G36*
X058334Y012370D02*
X058190D01*
Y012226D01*
X058218Y012232D01*
X058284Y012276D01*
X058328Y012342D01*
X058334Y012370D01*
D02*
G37*
G36*
X058090D02*
X057946D01*
X057952Y012342D01*
X057996Y012276D01*
X058062Y012232D01*
X058090Y012226D01*
Y012370D01*
D02*
G37*
G36*
X075000Y012133D02*
X074901Y012120D01*
X074808Y012082D01*
X074729Y012021D01*
X074668Y011942D01*
X074630Y011849D01*
X074617Y011750D01*
X074630Y011651D01*
X074668Y011558D01*
X074729Y011479D01*
X074808Y011418D01*
X074901Y011380D01*
X075000Y011367D01*
X075099Y011380D01*
X075192Y011418D01*
X075271Y011479D01*
X075332Y011558D01*
X075370Y011651D01*
X075383Y011750D01*
X075370Y011849D01*
X075332Y011942D01*
X075271Y012021D01*
X075192Y012082D01*
X075099Y012120D01*
X075000Y012133D01*
D02*
G37*
G36*
X070131Y010450D02*
X069784D01*
Y010103D01*
X069839Y010110D01*
X069936Y010151D01*
X070020Y010215D01*
X070084Y010298D01*
X070124Y010396D01*
X070131Y010450D01*
D02*
G37*
G36*
X069684D02*
X069337D01*
X069345Y010396D01*
X069385Y010298D01*
X069449Y010215D01*
X069533Y010151D01*
X069630Y010110D01*
X069684Y010103D01*
Y010450D01*
D02*
G37*
G36*
X069784Y010897D02*
Y010550D01*
X070131D01*
X070124Y010604D01*
X070084Y010702D01*
X070020Y010785D01*
X069936Y010849D01*
X069839Y010890D01*
X069784Y010897D01*
D02*
G37*
G36*
X069684D02*
X069630Y010890D01*
X069533Y010849D01*
X069449Y010785D01*
X069385Y010702D01*
X069345Y010604D01*
X069337Y010550D01*
X069684D01*
Y010897D01*
D02*
G37*
G36*
X059880Y012390D02*
X059736D01*
X059742Y012362D01*
X059786Y012296D01*
X059852Y012252D01*
X059880Y012246D01*
Y012390D01*
D02*
G37*
G36*
X058090Y012614D02*
X058062Y012608D01*
X057996Y012564D01*
X057952Y012498D01*
X057946Y012470D01*
X058090D01*
Y012614D01*
D02*
G37*
G36*
X067035Y013085D02*
X066265D01*
Y012315D01*
X067035D01*
Y013085D01*
D02*
G37*
G36*
X059880Y012634D02*
X059852Y012628D01*
X059786Y012584D01*
X059742Y012518D01*
X059736Y012490D01*
X059880D01*
Y012634D01*
D02*
G37*
G36*
X058190Y012614D02*
Y012470D01*
X058334D01*
X058328Y012498D01*
X058284Y012564D01*
X058218Y012608D01*
X058190Y012614D01*
D02*
G37*
G36*
X063844Y012450D02*
X063700D01*
Y012306D01*
X063728Y012312D01*
X063794Y012356D01*
X063838Y012422D01*
X063844Y012450D01*
D02*
G37*
G36*
X061650Y012400D02*
X061506D01*
X061512Y012372D01*
X061556Y012306D01*
X061622Y012262D01*
X061650Y012256D01*
Y012400D01*
D02*
G37*
G36*
X060124Y012390D02*
X059980D01*
Y012246D01*
X060008Y012252D01*
X060074Y012296D01*
X060118Y012362D01*
X060124Y012390D01*
D02*
G37*
G36*
X063600Y012450D02*
X063456D01*
X063462Y012422D01*
X063506Y012356D01*
X063572Y012312D01*
X063600Y012306D01*
Y012450D01*
D02*
G37*
G36*
X061894Y012400D02*
X061750D01*
Y012256D01*
X061778Y012262D01*
X061844Y012306D01*
X061888Y012372D01*
X061894Y012400D01*
D02*
G37*
G36*
X064734Y014260D02*
X064590D01*
Y014116D01*
X064618Y014122D01*
X064684Y014166D01*
X064728Y014232D01*
X064734Y014260D01*
D02*
G37*
G36*
X063744Y015930D02*
X063600D01*
Y015786D01*
X063628Y015792D01*
X063694Y015836D01*
X063738Y015902D01*
X063744Y015930D01*
D02*
G37*
G36*
X063500D02*
X063356D01*
X063362Y015902D01*
X063406Y015836D01*
X063472Y015792D01*
X063500Y015786D01*
Y015930D01*
D02*
G37*
G36*
X065394Y015950D02*
X065250D01*
Y015806D01*
X065278Y015812D01*
X065344Y015856D01*
X065388Y015922D01*
X065394Y015950D01*
D02*
G37*
G36*
X065150D02*
X065006D01*
X065012Y015922D01*
X065056Y015856D01*
X065122Y015812D01*
X065150Y015806D01*
Y015950D01*
D02*
G37*
G36*
X061934Y015910D02*
X061790D01*
Y015766D01*
X061818Y015772D01*
X061884Y015816D01*
X061928Y015882D01*
X061934Y015910D01*
D02*
G37*
G36*
X059910Y015890D02*
X059766D01*
X059772Y015862D01*
X059816Y015796D01*
X059882Y015752D01*
X059910Y015746D01*
Y015890D01*
D02*
G37*
G36*
X057754D02*
X057610D01*
Y015746D01*
X057638Y015752D01*
X057704Y015796D01*
X057748Y015862D01*
X057754Y015890D01*
D02*
G37*
G36*
X061690Y015910D02*
X061546D01*
X061552Y015882D01*
X061596Y015816D01*
X061662Y015772D01*
X061690Y015766D01*
Y015910D01*
D02*
G37*
G36*
X060154Y015890D02*
X060010D01*
Y015746D01*
X060038Y015752D01*
X060104Y015796D01*
X060148Y015862D01*
X060154Y015890D01*
D02*
G37*
G36*
X057510Y016134D02*
X057482Y016128D01*
X057416Y016084D01*
X057372Y016018D01*
X057366Y015990D01*
X057510D01*
Y016134D01*
D02*
G37*
G36*
X063600Y016174D02*
Y016030D01*
X063744D01*
X063738Y016058D01*
X063694Y016124D01*
X063628Y016168D01*
X063600Y016174D01*
D02*
G37*
G36*
X063500D02*
X063472Y016168D01*
X063406Y016124D01*
X063362Y016058D01*
X063356Y016030D01*
X063500D01*
Y016174D01*
D02*
G37*
G36*
X065250Y016194D02*
Y016050D01*
X065394D01*
X065388Y016078D01*
X065344Y016144D01*
X065278Y016188D01*
X065250Y016194D01*
D02*
G37*
G36*
X065150D02*
X065122Y016188D01*
X065056Y016144D01*
X065012Y016078D01*
X065006Y016050D01*
X065150D01*
Y016194D01*
D02*
G37*
G36*
X061790Y016154D02*
Y016010D01*
X061934D01*
X061928Y016038D01*
X061884Y016104D01*
X061818Y016148D01*
X061790Y016154D01*
D02*
G37*
G36*
X059910Y016134D02*
X059882Y016128D01*
X059816Y016084D01*
X059772Y016018D01*
X059766Y015990D01*
X059910D01*
Y016134D01*
D02*
G37*
G36*
X057610D02*
Y015990D01*
X057754D01*
X057748Y016018D01*
X057704Y016084D01*
X057638Y016128D01*
X057610Y016134D01*
D02*
G37*
G36*
X061690Y016154D02*
X061662Y016148D01*
X061596Y016104D01*
X061552Y016038D01*
X061546Y016010D01*
X061690D01*
Y016154D01*
D02*
G37*
G36*
X060010Y016134D02*
Y015990D01*
X060154D01*
X060148Y016018D01*
X060104Y016084D01*
X060038Y016128D01*
X060010Y016134D01*
D02*
G37*
G36*
X067080Y014534D02*
X067052Y014528D01*
X066986Y014484D01*
X066942Y014418D01*
X066936Y014390D01*
X067080D01*
Y014534D01*
D02*
G37*
G36*
X064590Y014504D02*
Y014360D01*
X064734D01*
X064728Y014388D01*
X064684Y014454D01*
X064618Y014498D01*
X064590Y014504D01*
D02*
G37*
G36*
X068700Y015050D02*
X068338D01*
X068346Y014992D01*
X068388Y014891D01*
X068454Y014804D01*
X068541Y014738D01*
X068642Y014696D01*
X068700Y014688D01*
Y015050D01*
D02*
G37*
G36*
X067180Y014534D02*
Y014390D01*
X067324D01*
X067318Y014418D01*
X067274Y014484D01*
X067208Y014528D01*
X067180Y014534D01*
D02*
G37*
G36*
X064490Y014504D02*
X064462Y014498D01*
X064396Y014454D01*
X064352Y014388D01*
X064346Y014360D01*
X064490D01*
Y014504D01*
D02*
G37*
G36*
X067324Y014290D02*
X067180D01*
Y014146D01*
X067208Y014152D01*
X067274Y014196D01*
X067318Y014262D01*
X067324Y014290D01*
D02*
G37*
G36*
X067080D02*
X066936D01*
X066942Y014262D01*
X066986Y014196D01*
X067052Y014152D01*
X067080Y014146D01*
Y014290D01*
D02*
G37*
G36*
X056180Y014484D02*
Y014340D01*
X056324D01*
X056318Y014368D01*
X056274Y014434D01*
X056208Y014478D01*
X056180Y014484D01*
D02*
G37*
G36*
X056080D02*
X056052Y014478D01*
X055986Y014434D01*
X055942Y014368D01*
X055936Y014340D01*
X056080D01*
Y014484D01*
D02*
G37*
G36*
X069162Y015050D02*
X068800D01*
Y014688D01*
X068858Y014696D01*
X068959Y014738D01*
X069046Y014804D01*
X069112Y014891D01*
X069154Y014992D01*
X069162Y015050D01*
D02*
G37*
G36*
X068800Y015512D02*
Y015150D01*
X069162D01*
X069154Y015208D01*
X069112Y015309D01*
X069046Y015396D01*
X068959Y015462D01*
X068858Y015504D01*
X068800Y015512D01*
D02*
G37*
G36*
X068700D02*
X068642Y015504D01*
X068541Y015462D01*
X068454Y015396D01*
X068388Y015309D01*
X068346Y015208D01*
X068338Y015150D01*
X068700D01*
Y015512D01*
D02*
G37*
G36*
X057510Y015890D02*
X057366D01*
X057372Y015862D01*
X057416Y015796D01*
X057482Y015752D01*
X057510Y015746D01*
Y015890D01*
D02*
G37*
G36*
X068750Y016498D02*
X068647Y016485D01*
X068551Y016445D01*
X068468Y016382D01*
X068405Y016299D01*
X068365Y016203D01*
X068352Y016100D01*
X068365Y015997D01*
X068405Y015901D01*
X068468Y015818D01*
X068551Y015755D01*
X068647Y015715D01*
X068750Y015702D01*
X068853Y015715D01*
X068949Y015755D01*
X069032Y015818D01*
X069095Y015901D01*
X069135Y015997D01*
X069148Y016100D01*
X069135Y016203D01*
X069095Y016299D01*
X069032Y016382D01*
X068949Y016445D01*
X068853Y016485D01*
X068750Y016498D01*
D02*
G37*
G36*
X078750Y015883D02*
X078651Y015870D01*
X078558Y015832D01*
X078479Y015771D01*
X078418Y015692D01*
X078380Y015599D01*
X078367Y015500D01*
X078380Y015401D01*
X078418Y015308D01*
X078479Y015229D01*
X078558Y015168D01*
X078651Y015130D01*
X078750Y015117D01*
X078849Y015130D01*
X078942Y015168D01*
X079021Y015229D01*
X079082Y015308D01*
X079120Y015401D01*
X079133Y015500D01*
X079120Y015599D01*
X079082Y015692D01*
X079021Y015771D01*
X078942Y015832D01*
X078849Y015870D01*
X078750Y015883D01*
D02*
G37*
G36*
X075000D02*
X074901Y015870D01*
X074808Y015832D01*
X074729Y015771D01*
X074668Y015692D01*
X074630Y015599D01*
X074617Y015500D01*
X074630Y015401D01*
X074668Y015308D01*
X074729Y015229D01*
X074808Y015168D01*
X074901Y015130D01*
X075000Y015117D01*
X075099Y015130D01*
X075192Y015168D01*
X075271Y015229D01*
X075332Y015308D01*
X075370Y015401D01*
X075383Y015500D01*
X075370Y015599D01*
X075332Y015692D01*
X075271Y015771D01*
X075192Y015832D01*
X075099Y015870D01*
X075000Y015883D01*
D02*
G37*
G36*
X073750D02*
X073651Y015870D01*
X073558Y015832D01*
X073479Y015771D01*
X073418Y015692D01*
X073380Y015599D01*
X073367Y015500D01*
X073380Y015401D01*
X073418Y015308D01*
X073479Y015229D01*
X073558Y015168D01*
X073651Y015130D01*
X073750Y015117D01*
X073849Y015130D01*
X073942Y015168D01*
X074021Y015229D01*
X074082Y015308D01*
X074120Y015401D01*
X074133Y015500D01*
X074120Y015599D01*
X074082Y015692D01*
X074021Y015771D01*
X073942Y015832D01*
X073849Y015870D01*
X073750Y015883D01*
D02*
G37*
G36*
X077500D02*
X077401Y015870D01*
X077308Y015832D01*
X077229Y015771D01*
X077168Y015692D01*
X077130Y015599D01*
X077117Y015500D01*
X077130Y015401D01*
X077168Y015308D01*
X077229Y015229D01*
X077308Y015168D01*
X077401Y015130D01*
X077500Y015117D01*
X077599Y015130D01*
X077692Y015168D01*
X077771Y015229D01*
X077832Y015308D01*
X077870Y015401D01*
X077883Y015500D01*
X077870Y015599D01*
X077832Y015692D01*
X077771Y015771D01*
X077692Y015832D01*
X077599Y015870D01*
X077500Y015883D01*
D02*
G37*
G36*
X076250D02*
X076151Y015870D01*
X076058Y015832D01*
X075979Y015771D01*
X075918Y015692D01*
X075880Y015599D01*
X075867Y015500D01*
X075880Y015401D01*
X075918Y015308D01*
X075979Y015229D01*
X076058Y015168D01*
X076151Y015130D01*
X076250Y015117D01*
X076349Y015130D01*
X076442Y015168D01*
X076521Y015229D01*
X076582Y015308D01*
X076620Y015401D01*
X076633Y015500D01*
X076620Y015599D01*
X076582Y015692D01*
X076521Y015771D01*
X076442Y015832D01*
X076349Y015870D01*
X076250Y015883D01*
D02*
G37*
G36*
X071100Y022444D02*
Y022300D01*
X071244D01*
X071238Y022328D01*
X071194Y022394D01*
X071128Y022438D01*
X071100Y022444D01*
D02*
G37*
G36*
X064800Y035794D02*
X064772Y035788D01*
X064706Y035744D01*
X064662Y035678D01*
X064656Y035650D01*
X064800D01*
Y035794D01*
D02*
G37*
G36*
X064900D02*
Y035650D01*
X065044D01*
X065038Y035678D01*
X064994Y035744D01*
X064928Y035788D01*
X064900Y035794D01*
D02*
G37*
G36*
X064737Y037760D02*
X064593D01*
X064599Y037732D01*
X064643Y037666D01*
X064709Y037622D01*
X064737Y037616D01*
Y037760D01*
D02*
G37*
G36*
X082650Y035744D02*
Y035600D01*
X082794D01*
X082788Y035628D01*
X082744Y035694D01*
X082678Y035738D01*
X082650Y035744D01*
D02*
G37*
G36*
X064800Y035550D02*
X064656D01*
X064662Y035522D01*
X064706Y035456D01*
X064772Y035412D01*
X064800Y035406D01*
Y035550D01*
D02*
G37*
G36*
X065044D02*
X064900D01*
Y035406D01*
X064928Y035412D01*
X064994Y035456D01*
X065038Y035522D01*
X065044Y035550D01*
D02*
G37*
G36*
X082550Y035744D02*
X082522Y035738D01*
X082456Y035694D01*
X082412Y035628D01*
X082406Y035600D01*
X082550D01*
Y035744D01*
D02*
G37*
G36*
X074900Y042084D02*
X074830Y042070D01*
X074770Y042030D01*
X074730Y041970D01*
X074716Y041900D01*
X074730Y041830D01*
X074770Y041770D01*
X074830Y041730D01*
X074900Y041716D01*
X074970Y041730D01*
X074987Y041742D01*
X075335D01*
X076238Y040838D01*
X076290Y040804D01*
X076350Y040792D01*
X078163D01*
X078180Y040780D01*
X078250Y040766D01*
X078320Y040780D01*
X078380Y040820D01*
X078420Y040880D01*
X078434Y040950D01*
X078420Y041020D01*
X078380Y041080D01*
X078320Y041120D01*
X078250Y041134D01*
X078180Y041120D01*
X078163Y041108D01*
X076415D01*
X075512Y042012D01*
X075460Y042046D01*
X075400Y042058D01*
X074987D01*
X074970Y042070D01*
X074900Y042084D01*
D02*
G37*
G36*
X062450Y043583D02*
X057050D01*
X056999Y043572D01*
X056956Y043544D01*
X052556Y039144D01*
X052528Y039101D01*
X052517Y039050D01*
Y035905D01*
X050806Y034194D01*
X050778Y034151D01*
X050767Y034100D01*
Y022990D01*
X050778Y022939D01*
X050806Y022896D01*
X053836Y019866D01*
X053879Y019838D01*
X053930Y019827D01*
X058643D01*
X058667Y019800D01*
X058680Y019701D01*
X058718Y019608D01*
X058779Y019529D01*
X058858Y019468D01*
X058951Y019430D01*
X059050Y019417D01*
X059149Y019430D01*
X059242Y019468D01*
X059321Y019529D01*
X059382Y019608D01*
X059420Y019701D01*
X059433Y019800D01*
X059420Y019899D01*
X059382Y019992D01*
X059339Y020047D01*
X059364Y020097D01*
X060236D01*
X060261Y020047D01*
X060218Y019992D01*
X060180Y019899D01*
X060167Y019800D01*
X060180Y019701D01*
X060218Y019608D01*
X060279Y019529D01*
X060358Y019468D01*
X060451Y019430D01*
X060550Y019417D01*
X060649Y019430D01*
X060742Y019468D01*
X060821Y019529D01*
X060882Y019608D01*
X060920Y019701D01*
X060933Y019800D01*
X060920Y019899D01*
X060882Y019992D01*
X060839Y020047D01*
X060864Y020097D01*
X068460D01*
X068511Y020108D01*
X068554Y020136D01*
X072185Y023767D01*
X072666D01*
X072689Y023723D01*
X072680Y023710D01*
X072666Y023640D01*
X072680Y023570D01*
X072720Y023510D01*
X072780Y023470D01*
X072850Y023456D01*
X072920Y023470D01*
X072976Y023507D01*
X078500D01*
X078528Y023457D01*
X078516Y023400D01*
X078530Y023330D01*
X078567Y023274D01*
Y022355D01*
X067672Y011459D01*
X067643Y011416D01*
X067633Y011366D01*
Y010856D01*
X067574Y010832D01*
X067495Y010771D01*
X067434Y010692D01*
X067396Y010599D01*
X067382Y010500D01*
X067396Y010401D01*
X067434Y010308D01*
X067495Y010229D01*
X067574Y010168D01*
X067667Y010130D01*
X067766Y010117D01*
X067865Y010130D01*
X067957Y010168D01*
X068037Y010229D01*
X068098Y010308D01*
X068136Y010401D01*
X068149Y010500D01*
X068136Y010599D01*
X068098Y010692D01*
X068037Y010771D01*
X067957Y010832D01*
X067898Y010856D01*
Y011311D01*
X078794Y022206D01*
X078822Y022249D01*
X078833Y022300D01*
Y023274D01*
X078870Y023330D01*
X078884Y023400D01*
X078872Y023457D01*
X078900Y023507D01*
X080960D01*
X081011Y023518D01*
X081054Y023546D01*
X081214Y023706D01*
X081242Y023749D01*
X081249Y023780D01*
X081250Y023780D01*
X081310Y023820D01*
X081350Y023880D01*
X081364Y023950D01*
X081350Y024020D01*
X081310Y024080D01*
X081250Y024120D01*
X081180Y024134D01*
X081110Y024120D01*
X081050Y024080D01*
X081010Y024020D01*
X081010Y024020D01*
X080998Y024001D01*
X080987Y023950D01*
Y023855D01*
X080905Y023773D01*
X078651D01*
X078630Y023823D01*
X079275Y024467D01*
X079340Y024480D01*
X079400Y024520D01*
X079440Y024580D01*
X079454Y024650D01*
X079440Y024720D01*
X079400Y024780D01*
X079340Y024820D01*
X079270Y024834D01*
X079200Y024820D01*
X079140Y024780D01*
X079100Y024720D01*
X079087Y024655D01*
X078465Y024033D01*
X072130D01*
X072079Y024022D01*
X072036Y023994D01*
X068405Y020363D01*
X060664D01*
X060654Y020410D01*
X060752Y020451D01*
X060835Y020515D01*
X060899Y020598D01*
X060940Y020696D01*
X060947Y020750D01*
X060153D01*
X060160Y020696D01*
X060201Y020598D01*
X060265Y020515D01*
X060348Y020451D01*
X060446Y020410D01*
X060436Y020363D01*
X054510D01*
X054455Y020400D01*
X054385Y020414D01*
X054315Y020400D01*
X054255Y020360D01*
X054215Y020300D01*
X054201Y020230D01*
X054215Y020160D01*
X054227Y020143D01*
X054200Y020093D01*
X053985D01*
X051033Y023045D01*
Y034045D01*
X052744Y035756D01*
X052772Y035799D01*
X052783Y035850D01*
Y038995D01*
X057105Y043317D01*
X062395D01*
X062750Y042963D01*
Y041013D01*
X061788D01*
X061733Y041050D01*
X061663Y041064D01*
X061592Y041050D01*
X061553Y041023D01*
X061503Y041048D01*
Y041153D01*
X062606Y042256D01*
X062635Y042299D01*
X062645Y042350D01*
Y042783D01*
X062635Y042834D01*
X062606Y042877D01*
X062369Y043114D01*
X062326Y043142D01*
X062275Y043153D01*
X060509D01*
X060459Y043142D01*
X060416Y043114D01*
X058613Y041311D01*
X058611Y041313D01*
X058485Y041365D01*
X058350Y041383D01*
X058215Y041365D01*
X058089Y041313D01*
X057981Y041230D01*
X057898Y041122D01*
X057846Y040996D01*
X057828Y040861D01*
X057846Y040726D01*
X057898Y040600D01*
X057981Y040492D01*
X058089Y040409D01*
X058215Y040356D01*
X058350Y040339D01*
X058485Y040356D01*
X058611Y040409D01*
X058719Y040492D01*
X058802Y040600D01*
X058854Y040726D01*
X058872Y040861D01*
X058854Y040996D01*
X058802Y041122D01*
X058800Y041124D01*
X060564Y042887D01*
X062221D01*
X062380Y042728D01*
Y042626D01*
X062336Y042603D01*
X062325Y042610D01*
X062255Y042624D01*
X062185Y042610D01*
X062130Y042573D01*
X061190D01*
X061139Y042562D01*
X061096Y042534D01*
X060786Y042224D01*
X060758Y042181D01*
X060747Y042130D01*
Y041497D01*
X060697Y041464D01*
X060650Y041474D01*
X060580Y041460D01*
X060520Y041420D01*
X060480Y041360D01*
X060467Y041295D01*
X059355Y040183D01*
X054300D01*
X054249Y040172D01*
X054206Y040144D01*
X053156Y039094D01*
X053128Y039051D01*
X053117Y039000D01*
Y035655D01*
X051339Y033876D01*
X051310Y033833D01*
X051300Y033783D01*
Y025917D01*
X051310Y025867D01*
X051339Y025824D01*
X051706Y025456D01*
X051749Y025428D01*
X051800Y025417D01*
X057645D01*
X057786Y025276D01*
X057829Y025248D01*
X057880Y025237D01*
X059175D01*
X059216Y025197D01*
X059187Y025154D01*
X059149Y025170D01*
X059050Y025183D01*
X058951Y025170D01*
X058858Y025132D01*
X058779Y025071D01*
X058718Y024992D01*
X058680Y024899D01*
X058667Y024800D01*
X058680Y024701D01*
X058718Y024608D01*
X058779Y024529D01*
X058858Y024468D01*
X058951Y024430D01*
X059050Y024417D01*
X059149Y024430D01*
X059242Y024468D01*
X059321Y024529D01*
X059382Y024608D01*
X059420Y024701D01*
X059467Y024690D01*
Y024495D01*
X059144Y024171D01*
X059050Y024183D01*
X058951Y024170D01*
X058858Y024132D01*
X058779Y024071D01*
X058718Y023992D01*
X058680Y023899D01*
X058667Y023800D01*
X058680Y023701D01*
X058718Y023608D01*
X058779Y023529D01*
X058858Y023468D01*
X058951Y023430D01*
X059050Y023417D01*
X059149Y023430D01*
X059242Y023468D01*
X059321Y023529D01*
X059382Y023608D01*
X059420Y023701D01*
X059433Y023800D01*
X059420Y023899D01*
X059382Y023992D01*
X059363Y024016D01*
X059694Y024346D01*
X059722Y024389D01*
X059733Y024440D01*
Y025000D01*
X059722Y025051D01*
X059694Y025094D01*
X059323Y025465D01*
X059321Y025466D01*
X059319Y025527D01*
X059321Y025529D01*
X059382Y025608D01*
X059420Y025701D01*
X059433Y025800D01*
X059420Y025899D01*
X059382Y025992D01*
X059339Y026047D01*
X059364Y026097D01*
X059845D01*
X060170Y025772D01*
X060180Y025701D01*
X060218Y025608D01*
X060279Y025529D01*
X060339Y025483D01*
X060323Y025433D01*
X060300D01*
X060249Y025422D01*
X060206Y025394D01*
X059906Y025094D01*
X059878Y025051D01*
X059867Y025000D01*
Y024350D01*
X059878Y024299D01*
X059906Y024256D01*
X060204Y023958D01*
X060180Y023899D01*
X060167Y023800D01*
X060180Y023701D01*
X060218Y023608D01*
X060279Y023529D01*
X060358Y023468D01*
X060451Y023430D01*
X060550Y023417D01*
X060649Y023430D01*
X060742Y023468D01*
X060821Y023529D01*
X060882Y023608D01*
X060920Y023701D01*
X060933Y023800D01*
X060920Y023899D01*
X060882Y023992D01*
X060821Y024071D01*
X060742Y024132D01*
X060649Y024170D01*
X060550Y024183D01*
X060451Y024170D01*
X060392Y024146D01*
X060133Y024405D01*
Y024690D01*
X060180Y024701D01*
X060218Y024608D01*
X060279Y024529D01*
X060358Y024468D01*
X060451Y024430D01*
X060550Y024417D01*
X060649Y024430D01*
X060742Y024468D01*
X060821Y024529D01*
X060882Y024608D01*
X060920Y024701D01*
X060933Y024800D01*
X060920Y024899D01*
X060896Y024958D01*
X061255Y025317D01*
X065445D01*
X068574Y022189D01*
X068560Y022120D01*
X068574Y022050D01*
X068614Y021990D01*
X068625Y021983D01*
X068610Y021933D01*
X060906D01*
X060882Y021992D01*
X060821Y022071D01*
X060742Y022132D01*
X060649Y022170D01*
X060550Y022183D01*
X060451Y022170D01*
X060358Y022132D01*
X060279Y022071D01*
X060218Y021992D01*
X060194Y021933D01*
X059406D01*
X059382Y021992D01*
X059321Y022071D01*
X059242Y022132D01*
X059149Y022170D01*
X059050Y022183D01*
X058951Y022170D01*
X058892Y022146D01*
X058193Y022845D01*
X058180Y022910D01*
X058140Y022970D01*
X058080Y023010D01*
X058010Y023024D01*
X057940Y023010D01*
X057880Y022970D01*
X057840Y022910D01*
X057826Y022840D01*
X057840Y022770D01*
X057880Y022710D01*
X057940Y022670D01*
X058005Y022657D01*
X058704Y021958D01*
X058680Y021899D01*
X058667Y021800D01*
X058680Y021701D01*
X058718Y021608D01*
X058779Y021529D01*
X058858Y021468D01*
X058951Y021430D01*
X059050Y021417D01*
X059149Y021430D01*
X059242Y021468D01*
X059321Y021529D01*
X059382Y021608D01*
X059406Y021667D01*
X060194D01*
X060218Y021608D01*
X060279Y021529D01*
X060358Y021468D01*
X060372Y021463D01*
X060362Y021413D01*
X059530D01*
X059530Y021413D01*
X059479Y021402D01*
X059436Y021374D01*
X059208Y021146D01*
X059149Y021170D01*
X059050Y021183D01*
X058951Y021170D01*
X058858Y021132D01*
X058779Y021071D01*
X058718Y020992D01*
X058680Y020899D01*
X058667Y020800D01*
X058680Y020701D01*
X058718Y020608D01*
X058779Y020529D01*
X058858Y020468D01*
X058951Y020430D01*
X059050Y020417D01*
X059149Y020430D01*
X059242Y020468D01*
X059321Y020529D01*
X059382Y020608D01*
X059420Y020701D01*
X059433Y020800D01*
X059420Y020899D01*
X059396Y020958D01*
X059585Y021147D01*
X060268D01*
X060284Y021100D01*
X060265Y021085D01*
X060201Y021002D01*
X060160Y020904D01*
X060153Y020850D01*
X060947D01*
X060940Y020904D01*
X060899Y021002D01*
X060835Y021085D01*
X060816Y021100D01*
X060832Y021147D01*
X062004D01*
X062060Y021110D01*
X062130Y021096D01*
X062200Y021110D01*
X062260Y021150D01*
X062300Y021210D01*
X062314Y021280D01*
X062300Y021350D01*
X062260Y021410D01*
X062200Y021450D01*
X062130Y021464D01*
X062060Y021450D01*
X062004Y021413D01*
X060738D01*
X060728Y021463D01*
X060742Y021468D01*
X060821Y021529D01*
X060882Y021608D01*
X060906Y021667D01*
X068950D01*
X069001Y021678D01*
X069044Y021706D01*
X072405Y025067D01*
X072609D01*
X072634Y025008D01*
X072695Y024929D01*
X072774Y024868D01*
X072867Y024830D01*
X072966Y024817D01*
X073065Y024830D01*
X073157Y024868D01*
X073237Y024929D01*
X073298Y025008D01*
X073336Y025101D01*
X073349Y025200D01*
X073336Y025299D01*
X073298Y025392D01*
X073237Y025471D01*
X073157Y025532D01*
X073065Y025570D01*
X072966Y025583D01*
X072867Y025570D01*
X072774Y025532D01*
X072695Y025471D01*
X072634Y025392D01*
X072609Y025333D01*
X072350D01*
X072299Y025322D01*
X072256Y025294D01*
X068921Y021959D01*
X068913Y021961D01*
X068892Y022018D01*
X068913Y022050D01*
X068927Y022120D01*
X068913Y022190D01*
X068873Y022250D01*
X068867Y022254D01*
X068866Y022257D01*
X068837Y022300D01*
X065594Y025544D01*
X065551Y025572D01*
X065500Y025583D01*
X061261D01*
X061240Y025633D01*
X061375Y025767D01*
X073071D01*
X074632Y024206D01*
X074675Y024178D01*
X074726Y024167D01*
X077964D01*
X078020Y024130D01*
X078090Y024116D01*
X078160Y024130D01*
X078220Y024170D01*
X078260Y024230D01*
X078274Y024300D01*
X078260Y024370D01*
X078220Y024430D01*
X078160Y024470D01*
X078090Y024484D01*
X078020Y024470D01*
X077964Y024433D01*
X074781D01*
X073219Y025994D01*
X073176Y026022D01*
X073126Y026033D01*
X061320D01*
X061269Y026022D01*
X061226Y025994D01*
X060976Y025744D01*
X060929Y025767D01*
X060933Y025800D01*
X060920Y025899D01*
X060882Y025992D01*
X060821Y026071D01*
X060742Y026132D01*
X060649Y026170D01*
X060550Y026183D01*
X060451Y026170D01*
X060358Y026132D01*
X060279Y026071D01*
X060248Y026069D01*
X060128Y026190D01*
X060139Y026222D01*
X060151Y026237D01*
X074565D01*
X075616Y025186D01*
X075659Y025158D01*
X075710Y025147D01*
X080455D01*
X080767Y024835D01*
X080780Y024770D01*
X080820Y024710D01*
X080880Y024670D01*
X080950Y024656D01*
X081020Y024670D01*
X081080Y024710D01*
X081120Y024770D01*
X081134Y024840D01*
X081120Y024910D01*
X081080Y024970D01*
X081020Y025010D01*
X080955Y025023D01*
X080604Y025374D01*
X080561Y025402D01*
X080510Y025413D01*
X075765D01*
X074714Y026464D01*
X074671Y026492D01*
X074620Y026503D01*
X060864D01*
X060839Y026553D01*
X060882Y026608D01*
X060906Y026667D01*
X062404D01*
X062460Y026630D01*
X062530Y026616D01*
X062600Y026630D01*
X062660Y026670D01*
X062700Y026730D01*
X062714Y026800D01*
X062700Y026870D01*
X062660Y026930D01*
X062600Y026970D01*
X062530Y026984D01*
X062460Y026970D01*
X062404Y026933D01*
X060906D01*
X060882Y026992D01*
X060821Y027071D01*
X060761Y027117D01*
X060777Y027167D01*
X074374D01*
X074430Y027130D01*
X074500Y027116D01*
X074570Y027130D01*
X074630Y027170D01*
X074670Y027230D01*
X074684Y027300D01*
X074670Y027370D01*
X074645Y027407D01*
X074671Y027457D01*
X079945D01*
X079950Y027407D01*
X079943Y027406D01*
X079900Y027377D01*
X079746Y027224D01*
X079718Y027181D01*
X079707Y027130D01*
Y026701D01*
X079718Y026650D01*
X079746Y026607D01*
X082147Y024206D01*
Y023366D01*
X082110Y023310D01*
X082096Y023240D01*
X082110Y023170D01*
X082150Y023110D01*
X082210Y023070D01*
X082280Y023056D01*
X082350Y023070D01*
X082410Y023110D01*
X082450Y023170D01*
X082464Y023240D01*
X082450Y023310D01*
X082413Y023366D01*
Y024261D01*
X082402Y024311D01*
X082374Y024354D01*
X079994Y026734D01*
X080026Y026773D01*
X080030Y026770D01*
X080100Y026756D01*
X080170Y026770D01*
X080226Y026807D01*
X084206D01*
X084256Y026818D01*
X084299Y026846D01*
X085107Y027654D01*
X085167Y027630D01*
X085266Y027617D01*
X085365Y027630D01*
X085457Y027668D01*
X085537Y027729D01*
X085598Y027808D01*
X085636Y027901D01*
X085649Y028000D01*
X085636Y028099D01*
X085598Y028192D01*
X085537Y028271D01*
X085457Y028332D01*
X085365Y028370D01*
X085266Y028383D01*
X085167Y028370D01*
X085074Y028332D01*
X084995Y028271D01*
X084934Y028192D01*
X084896Y028099D01*
X084882Y028000D01*
X084896Y027901D01*
X084920Y027842D01*
X084151Y027073D01*
X081145D01*
X081118Y027123D01*
X081130Y027140D01*
X081144Y027210D01*
X081130Y027280D01*
X081090Y027340D01*
X081030Y027380D01*
X080965Y027393D01*
X080748Y027609D01*
Y027860D01*
X080738Y027911D01*
X080709Y027954D01*
X078719Y029944D01*
X078676Y029972D01*
X078625Y029983D01*
X066385D01*
X066366Y030029D01*
X066585Y030247D01*
X066650Y030260D01*
X066710Y030300D01*
X066750Y030360D01*
X066764Y030430D01*
X066750Y030500D01*
X066710Y030560D01*
X066650Y030600D01*
X066580Y030614D01*
X066510Y030600D01*
X066450Y030560D01*
X066410Y030500D01*
X066397Y030435D01*
X066145Y030183D01*
X065967D01*
X065960Y030201D01*
X065958Y030233D01*
X065994Y030256D01*
X068695Y032958D01*
X068752Y032934D01*
X068850Y032921D01*
X068948Y032934D01*
X069039Y032972D01*
X069118Y033032D01*
X069178Y033111D01*
X069216Y033202D01*
X069229Y033300D01*
X069216Y033398D01*
X069178Y033489D01*
X069118Y033568D01*
X069039Y033628D01*
X068948Y033666D01*
X068850Y033679D01*
X068752Y033666D01*
X068695Y033642D01*
X068274Y034064D01*
X068231Y034092D01*
X068180Y034103D01*
X063575D01*
X063504Y034174D01*
X063528Y034220D01*
X063545Y034216D01*
X076590D01*
X076649Y034228D01*
X076660Y034230D01*
X076720Y034270D01*
X077616Y035167D01*
X077656Y035226D01*
X077670Y035296D01*
Y035580D01*
X077656Y035650D01*
X077616Y035710D01*
X077557Y035750D01*
X077486Y035764D01*
X077416Y035750D01*
X077357Y035710D01*
X077317Y035650D01*
X077303Y035580D01*
Y035372D01*
X076514Y034584D01*
X064070D01*
X064056Y034616D01*
X064052Y034634D01*
X064090Y034690D01*
X064104Y034760D01*
X064090Y034830D01*
X064053Y034886D01*
Y038350D01*
X064042Y038401D01*
X064014Y038444D01*
X063613Y038845D01*
X063600Y038910D01*
X063560Y038970D01*
X063500Y039010D01*
X063430Y039024D01*
X063360Y039010D01*
X063300Y038970D01*
X063260Y038910D01*
X063246Y038840D01*
X063260Y038770D01*
X063300Y038710D01*
X063360Y038670D01*
X063425Y038657D01*
X063787Y038295D01*
Y034886D01*
X063750Y034830D01*
X063736Y034760D01*
X063750Y034690D01*
X063788Y034634D01*
X063784Y034616D01*
X063770Y034584D01*
X063545D01*
X063516Y034578D01*
X063468Y034612D01*
X063464Y034647D01*
X063514Y034696D01*
X063542Y034739D01*
X063553Y034790D01*
Y037990D01*
X063542Y038041D01*
X063514Y038084D01*
X063023Y038575D01*
X063010Y038640D01*
X062970Y038700D01*
X062910Y038740D01*
X062889Y038744D01*
X062872Y038798D01*
X062935Y038861D01*
X063000Y038874D01*
X063060Y038913D01*
X063100Y038973D01*
X063114Y039043D01*
X063103Y039097D01*
X063132Y039147D01*
X064693D01*
X064726Y039097D01*
X064716Y039050D01*
X064730Y038980D01*
X064770Y038920D01*
X064830Y038880D01*
X064900Y038866D01*
X068330D01*
X068380Y038856D01*
X068450Y038870D01*
X068510Y038910D01*
X068550Y038970D01*
X068564Y039040D01*
X068553Y039093D01*
X068583Y039143D01*
X071261D01*
X071311Y039153D01*
X071354Y039182D01*
X072394Y040221D01*
X072422Y040264D01*
X072433Y040315D01*
Y040380D01*
X072470Y040435D01*
X072484Y040505D01*
X072471Y040567D01*
X072495Y040617D01*
X073295D01*
X082517Y031395D01*
X082530Y031330D01*
X082570Y031270D01*
X082630Y031230D01*
X082700Y031216D01*
X082770Y031230D01*
X082830Y031270D01*
X082870Y031330D01*
X082884Y031400D01*
X082870Y031470D01*
X082830Y031530D01*
X082770Y031570D01*
X082705Y031583D01*
X073450Y040837D01*
X073455Y040863D01*
X073468Y040887D01*
X075435D01*
X075687Y040635D01*
X075700Y040570D01*
X075740Y040510D01*
X075800Y040470D01*
X075870Y040456D01*
X075940Y040470D01*
X076000Y040510D01*
X076040Y040570D01*
X076054Y040640D01*
X076040Y040710D01*
X076000Y040770D01*
X075940Y040810D01*
X075875Y040823D01*
X075584Y041114D01*
X075541Y041142D01*
X075490Y041153D01*
X072148D01*
X072098Y041142D01*
X072055Y041114D01*
X071812Y040871D01*
X071793Y040875D01*
X071761Y040891D01*
X071750Y040950D01*
X071710Y041010D01*
X071650Y041050D01*
X071580Y041064D01*
X071510Y041050D01*
X071454Y041013D01*
X069009D01*
X068992Y041063D01*
X069046Y041104D01*
X069112Y041191D01*
X069154Y041292D01*
X069162Y041350D01*
X068338D01*
X068346Y041292D01*
X068388Y041191D01*
X068454Y041104D01*
X068508Y041063D01*
X068491Y041013D01*
X063015D01*
Y042354D01*
X063037Y042362D01*
X063065Y042363D01*
X063100Y042310D01*
X063160Y042270D01*
X063230Y042256D01*
X063300Y042270D01*
X063356Y042307D01*
X070995D01*
X071681Y041621D01*
X071694Y041556D01*
X071734Y041496D01*
X071794Y041456D01*
X071864Y041442D01*
X071934Y041456D01*
X071994Y041496D01*
X072034Y041556D01*
X072048Y041626D01*
X072034Y041696D01*
X071994Y041756D01*
X071934Y041796D01*
X071869Y041809D01*
X071144Y042534D01*
X071101Y042562D01*
X071050Y042573D01*
X063356D01*
X063300Y042610D01*
X063230Y042624D01*
X063160Y042610D01*
X063100Y042570D01*
X063065Y042517D01*
X063037Y042518D01*
X063015Y042526D01*
Y043017D01*
X063005Y043068D01*
X062976Y043111D01*
X062544Y043544D01*
X062501Y043572D01*
X062450Y043583D01*
D02*
G37*
G36*
X068700Y041812D02*
X068642Y041804D01*
X068541Y041762D01*
X068454Y041696D01*
X068388Y041609D01*
X068346Y041508D01*
X068338Y041450D01*
X068700D01*
Y041812D01*
D02*
G37*
G36*
X067200Y038784D02*
X067130Y038770D01*
X067070Y038730D01*
X067066Y038724D01*
X067059Y038722D01*
X067016Y038694D01*
X065002Y036680D01*
X064984Y036684D01*
X064913Y036670D01*
X064854Y036630D01*
X064814Y036570D01*
X064800Y036500D01*
X064814Y036430D01*
X064854Y036370D01*
X064913Y036330D01*
X064984Y036316D01*
X065054Y036330D01*
X065113Y036370D01*
X065153Y036430D01*
X065160Y036462D01*
X067129Y038431D01*
X067130Y038430D01*
X067200Y038416D01*
X067270Y038430D01*
X067330Y038470D01*
X067370Y038530D01*
X067384Y038600D01*
X067370Y038670D01*
X067330Y038730D01*
X067270Y038770D01*
X067200Y038784D01*
D02*
G37*
G36*
X064981Y037760D02*
X064837D01*
Y037616D01*
X064865Y037622D01*
X064932Y037666D01*
X064976Y037732D01*
X064981Y037760D01*
D02*
G37*
G36*
X064737Y038004D02*
X064709Y037998D01*
X064643Y037954D01*
X064599Y037888D01*
X064593Y037860D01*
X064737D01*
Y038004D01*
D02*
G37*
G36*
X064837D02*
Y037860D01*
X064981D01*
X064976Y037888D01*
X064932Y037954D01*
X064865Y037998D01*
X064837Y038004D01*
D02*
G37*
G36*
X082794Y035500D02*
X082650D01*
Y035356D01*
X082678Y035362D01*
X082744Y035406D01*
X082788Y035472D01*
X082794Y035500D01*
D02*
G37*
G36*
X083950Y034200D02*
X083806D01*
X083812Y034172D01*
X083856Y034106D01*
X083922Y034062D01*
X083950Y034056D01*
Y034200D01*
D02*
G37*
G36*
X084194D02*
X084050D01*
Y034056D01*
X084078Y034062D01*
X084144Y034106D01*
X084188Y034172D01*
X084194Y034200D01*
D02*
G37*
G36*
X083950Y034444D02*
X083922Y034438D01*
X083856Y034394D01*
X083812Y034328D01*
X083806Y034300D01*
X083950D01*
Y034444D01*
D02*
G37*
G36*
X070230Y033695D02*
X069884D01*
Y033350D01*
X070230D01*
Y033695D01*
D02*
G37*
G36*
Y033250D02*
X069884D01*
Y032905D01*
X070230D01*
Y033250D01*
D02*
G37*
G36*
X084350Y033944D02*
X084270Y033933D01*
X084195Y033902D01*
X084131Y033853D01*
X084082Y033789D01*
X084051Y033714D01*
X084040Y033634D01*
X084051Y033554D01*
X084082Y033479D01*
X084131Y033415D01*
X084195Y033366D01*
X084270Y033335D01*
X084350Y033324D01*
X084430Y033335D01*
X084505Y033366D01*
X084569Y033415D01*
X084618Y033479D01*
X084649Y033554D01*
X084660Y033634D01*
X084649Y033714D01*
X084618Y033789D01*
X084569Y033853D01*
X084505Y033902D01*
X084430Y033933D01*
X084350Y033944D01*
D02*
G37*
G36*
X069784Y033695D02*
X069439D01*
Y033350D01*
X069784D01*
Y033695D01*
D02*
G37*
G36*
X084050Y034944D02*
Y034800D01*
X084194D01*
X084188Y034828D01*
X084144Y034894D01*
X084078Y034938D01*
X084050Y034944D01*
D02*
G37*
G36*
X084350Y035676D02*
X084270Y035665D01*
X084195Y035634D01*
X084131Y035585D01*
X084082Y035521D01*
X084051Y035446D01*
X084040Y035366D01*
X084051Y035286D01*
X084082Y035211D01*
X084131Y035147D01*
X084195Y035098D01*
X084270Y035067D01*
X084350Y035056D01*
X084430Y035067D01*
X084505Y035098D01*
X084569Y035147D01*
X084618Y035211D01*
X084649Y035286D01*
X084660Y035366D01*
X084649Y035446D01*
X084618Y035521D01*
X084569Y035585D01*
X084505Y035634D01*
X084430Y035665D01*
X084350Y035676D01*
D02*
G37*
G36*
X082550Y035500D02*
X082406D01*
X082412Y035472D01*
X082456Y035406D01*
X082522Y035362D01*
X082550Y035356D01*
Y035500D01*
D02*
G37*
G36*
X083950Y034944D02*
X083922Y034938D01*
X083856Y034894D01*
X083812Y034828D01*
X083806Y034800D01*
X083950D01*
Y034944D01*
D02*
G37*
G36*
X084050Y034444D02*
Y034300D01*
X084194D01*
X084188Y034328D01*
X084144Y034394D01*
X084078Y034438D01*
X084050Y034444D01*
D02*
G37*
G36*
X083950Y034700D02*
X083806D01*
X083812Y034672D01*
X083856Y034606D01*
X083922Y034562D01*
X083950Y034556D01*
Y034700D01*
D02*
G37*
G36*
X084194D02*
X084050D01*
Y034556D01*
X084078Y034562D01*
X084144Y034606D01*
X084188Y034672D01*
X084194Y034700D01*
D02*
G37*
G36*
X068800Y041812D02*
Y041450D01*
X069162D01*
X069154Y041508D01*
X069112Y041609D01*
X069046Y041696D01*
X068959Y041762D01*
X068858Y041804D01*
X068800Y041812D01*
D02*
G37*
G36*
X069047Y044466D02*
X068700D01*
Y044119D01*
X068754Y044126D01*
X068852Y044166D01*
X068935Y044230D01*
X068999Y044314D01*
X069040Y044411D01*
X069047Y044466D01*
D02*
G37*
G36*
X064990Y044464D02*
X064962Y044458D01*
X064896Y044414D01*
X064852Y044348D01*
X064846Y044320D01*
X064990D01*
Y044464D01*
D02*
G37*
G36*
X065090D02*
Y044320D01*
X065234D01*
X065228Y044348D01*
X065184Y044414D01*
X065118Y044458D01*
X065090Y044464D01*
D02*
G37*
G36*
X068600Y044466D02*
X068253D01*
X068260Y044411D01*
X068301Y044314D01*
X068365Y044230D01*
X068448Y044166D01*
X068546Y044126D01*
X068600Y044119D01*
Y044466D01*
D02*
G37*
G36*
X065130Y043234D02*
Y043090D01*
X065274D01*
X065268Y043118D01*
X065224Y043184D01*
X065158Y043228D01*
X065130Y043234D01*
D02*
G37*
G36*
X064990Y044220D02*
X064846D01*
X064852Y044192D01*
X064896Y044126D01*
X064962Y044082D01*
X064990Y044076D01*
Y044220D01*
D02*
G37*
G36*
X065234D02*
X065090D01*
Y044076D01*
X065118Y044082D01*
X065184Y044126D01*
X065228Y044192D01*
X065234Y044220D01*
D02*
G37*
G36*
X072000Y045494D02*
X071972Y045488D01*
X071906Y045444D01*
X071862Y045378D01*
X071856Y045350D01*
X072000D01*
Y045494D01*
D02*
G37*
G36*
X072100D02*
Y045350D01*
X072244D01*
X072238Y045378D01*
X072194Y045444D01*
X072128Y045488D01*
X072100Y045494D01*
D02*
G37*
G36*
X068650Y046868D02*
X068551Y046854D01*
X068458Y046816D01*
X068379Y046755D01*
X068318Y046676D01*
X068280Y046583D01*
X068267Y046484D01*
X068280Y046385D01*
X068318Y046293D01*
X068379Y046213D01*
X068458Y046152D01*
X068551Y046114D01*
X068650Y046101D01*
X068749Y046114D01*
X068842Y046152D01*
X068921Y046213D01*
X068982Y046293D01*
X069020Y046385D01*
X069033Y046484D01*
X069020Y046583D01*
X068982Y046676D01*
X068921Y046755D01*
X068842Y046816D01*
X068749Y046854D01*
X068650Y046868D01*
D02*
G37*
G36*
X072244Y045250D02*
X072100D01*
Y045106D01*
X072128Y045112D01*
X072194Y045156D01*
X072238Y045222D01*
X072244Y045250D01*
D02*
G37*
G36*
X068600Y044913D02*
X068546Y044905D01*
X068448Y044865D01*
X068365Y044801D01*
X068301Y044717D01*
X068260Y044620D01*
X068253Y044566D01*
X068600D01*
Y044913D01*
D02*
G37*
G36*
X068700D02*
Y044566D01*
X069047D01*
X069040Y044620D01*
X068999Y044717D01*
X068935Y044801D01*
X068852Y044865D01*
X068754Y044905D01*
X068700Y044913D01*
D02*
G37*
G36*
X072000Y045250D02*
X071856D01*
X071862Y045222D01*
X071906Y045156D01*
X071972Y045112D01*
X072000Y045106D01*
Y045250D01*
D02*
G37*
G36*
X065030Y043234D02*
X065002Y043228D01*
X064936Y043184D01*
X064892Y043118D01*
X064886Y043090D01*
X065030D01*
Y043234D01*
D02*
G37*
G36*
X060340Y042114D02*
X060312Y042108D01*
X060246Y042064D01*
X060202Y041998D01*
X060196Y041970D01*
X060340D01*
Y042114D01*
D02*
G37*
G36*
X060440D02*
Y041970D01*
X060584D01*
X060578Y041998D01*
X060534Y042064D01*
X060468Y042108D01*
X060440Y042114D01*
D02*
G37*
G36*
X063270D02*
X063242Y042108D01*
X063176Y042064D01*
X063132Y041998D01*
X063126Y041970D01*
X063270D01*
Y042114D01*
D02*
G37*
G36*
X063514Y041870D02*
X063370D01*
Y041726D01*
X063398Y041732D01*
X063464Y041776D01*
X063508Y041842D01*
X063514Y041870D01*
D02*
G37*
G36*
X060340D02*
X060196D01*
X060202Y041842D01*
X060246Y041776D01*
X060312Y041732D01*
X060340Y041726D01*
Y041870D01*
D02*
G37*
G36*
X060584D02*
X060440D01*
Y041726D01*
X060468Y041732D01*
X060534Y041776D01*
X060578Y041842D01*
X060584Y041870D01*
D02*
G37*
G36*
X063270D02*
X063126D01*
X063132Y041842D01*
X063176Y041776D01*
X063242Y041732D01*
X063270Y041726D01*
Y041870D01*
D02*
G37*
G36*
X058864Y042462D02*
Y042318D01*
X059008D01*
X059002Y042346D01*
X058958Y042412D01*
X058892Y042456D01*
X058864Y042462D01*
D02*
G37*
G36*
X065030Y042990D02*
X064886D01*
X064892Y042962D01*
X064936Y042896D01*
X065002Y042852D01*
X065030Y042846D01*
Y042990D01*
D02*
G37*
G36*
X065274D02*
X065130D01*
Y042846D01*
X065158Y042852D01*
X065224Y042896D01*
X065268Y042962D01*
X065274Y042990D01*
D02*
G37*
G36*
X058764Y042462D02*
X058736Y042456D01*
X058670Y042412D01*
X058626Y042346D01*
X058620Y042318D01*
X058764D01*
Y042462D01*
D02*
G37*
G36*
X063370Y042114D02*
Y041970D01*
X063514D01*
X063508Y041998D01*
X063464Y042064D01*
X063398Y042108D01*
X063370Y042114D01*
D02*
G37*
G36*
X058764Y042218D02*
X058620D01*
X058626Y042190D01*
X058670Y042124D01*
X058736Y042079D01*
X058764Y042074D01*
Y042218D01*
D02*
G37*
G36*
X059008D02*
X058864D01*
Y042074D01*
X058892Y042079D01*
X058958Y042124D01*
X059002Y042190D01*
X059008Y042218D01*
D02*
G37*
G36*
X069784Y033250D02*
X069439D01*
Y032905D01*
X069784D01*
Y033250D01*
D02*
G37*
G36*
X087184Y028397D02*
X087130Y028390D01*
X087033Y028349D01*
X086949Y028285D01*
X086885Y028202D01*
X086845Y028104D01*
X086837Y028050D01*
X087184D01*
Y028397D01*
D02*
G37*
G36*
X087284D02*
Y028050D01*
X087631D01*
X087624Y028104D01*
X087584Y028202D01*
X087520Y028285D01*
X087436Y028349D01*
X087339Y028390D01*
X087284Y028397D01*
D02*
G37*
G36*
X074884Y025597D02*
X074830Y025590D01*
X074733Y025549D01*
X074649Y025485D01*
X074585Y025402D01*
X074545Y025304D01*
X074537Y025250D01*
X074884D01*
Y025597D01*
D02*
G37*
G36*
X070210Y025575D02*
X069459D01*
Y024825D01*
X070210D01*
Y025575D01*
D02*
G37*
G36*
X075331Y025150D02*
X074984D01*
Y024803D01*
X075039Y024810D01*
X075136Y024851D01*
X075220Y024915D01*
X075284Y024998D01*
X075324Y025096D01*
X075331Y025150D01*
D02*
G37*
G36*
X074884D02*
X074537D01*
X074545Y025096D01*
X074585Y024998D01*
X074649Y024915D01*
X074733Y024851D01*
X074830Y024810D01*
X074884Y024803D01*
Y025150D01*
D02*
G37*
G36*
X068850Y025579D02*
X068752Y025566D01*
X068661Y025528D01*
X068582Y025468D01*
X068522Y025389D01*
X068484Y025298D01*
X068471Y025200D01*
X068484Y025102D01*
X068522Y025011D01*
X068582Y024932D01*
X068661Y024872D01*
X068752Y024834D01*
X068850Y024821D01*
X068948Y024834D01*
X069039Y024872D01*
X069118Y024932D01*
X069178Y025011D01*
X069216Y025102D01*
X069229Y025200D01*
X069216Y025298D01*
X069178Y025389D01*
X069118Y025468D01*
X069039Y025528D01*
X068948Y025566D01*
X068850Y025579D01*
D02*
G37*
G36*
X067866D02*
X067768Y025566D01*
X067676Y025528D01*
X067598Y025468D01*
X067538Y025389D01*
X067500Y025298D01*
X067487Y025200D01*
X067500Y025102D01*
X067538Y025011D01*
X067598Y024932D01*
X067676Y024872D01*
X067768Y024834D01*
X067866Y024821D01*
X067964Y024834D01*
X068055Y024872D01*
X068133Y024932D01*
X068194Y025011D01*
X068231Y025102D01*
X068244Y025200D01*
X068231Y025298D01*
X068194Y025389D01*
X068133Y025468D01*
X068055Y025528D01*
X067964Y025566D01*
X067866Y025579D01*
D02*
G37*
G36*
X074984Y025597D02*
Y025250D01*
X075331D01*
X075324Y025304D01*
X075284Y025402D01*
X075220Y025485D01*
X075136Y025549D01*
X075039Y025590D01*
X074984Y025597D01*
D02*
G37*
G36*
X050266Y028283D02*
X050167Y028270D01*
X050074Y028232D01*
X049995Y028171D01*
X049934Y028092D01*
X049896Y027999D01*
X049882Y027900D01*
X049896Y027801D01*
X049934Y027708D01*
X049995Y027629D01*
X050074Y027568D01*
X050167Y027530D01*
X050266Y027517D01*
X050365Y027530D01*
X050457Y027568D01*
X050537Y027629D01*
X050598Y027708D01*
X050636Y027801D01*
X050649Y027900D01*
X050636Y027999D01*
X050598Y028092D01*
X050537Y028171D01*
X050457Y028232D01*
X050365Y028270D01*
X050266Y028283D01*
D02*
G37*
G36*
X081250Y028398D02*
X081147Y028385D01*
X081051Y028345D01*
X080968Y028282D01*
X080905Y028199D01*
X080865Y028103D01*
X080852Y028000D01*
X080865Y027897D01*
X080905Y027801D01*
X080968Y027718D01*
X081051Y027655D01*
X081147Y027615D01*
X081250Y027602D01*
X081353Y027615D01*
X081449Y027655D01*
X081532Y027718D01*
X081595Y027801D01*
X081635Y027897D01*
X081648Y028000D01*
X081635Y028103D01*
X081595Y028199D01*
X081532Y028282D01*
X081449Y028345D01*
X081353Y028385D01*
X081250Y028398D01*
D02*
G37*
G36*
X082662Y027950D02*
X082300D01*
Y027588D01*
X082358Y027596D01*
X082459Y027638D01*
X082546Y027704D01*
X082612Y027791D01*
X082654Y027892D01*
X082662Y027950D01*
D02*
G37*
G36*
X082200D02*
X081838D01*
X081846Y027892D01*
X081888Y027791D01*
X081954Y027704D01*
X082041Y027638D01*
X082142Y027596D01*
X082200Y027588D01*
Y027950D01*
D02*
G37*
G36*
Y028412D02*
X082142Y028404D01*
X082041Y028362D01*
X081954Y028296D01*
X081888Y028209D01*
X081846Y028108D01*
X081838Y028050D01*
X082200D01*
Y028412D01*
D02*
G37*
G36*
X082300D02*
Y028050D01*
X082662D01*
X082654Y028108D01*
X082612Y028209D01*
X082546Y028296D01*
X082459Y028362D01*
X082358Y028404D01*
X082300Y028412D01*
D02*
G37*
G36*
X087184Y027950D02*
X086837D01*
X086845Y027896D01*
X086885Y027798D01*
X086949Y027715D01*
X087033Y027651D01*
X087130Y027610D01*
X087184Y027603D01*
Y027950D01*
D02*
G37*
G36*
X087631D02*
X087284D01*
Y027603D01*
X087339Y027610D01*
X087436Y027651D01*
X087520Y027715D01*
X087584Y027798D01*
X087624Y027896D01*
X087631Y027950D01*
D02*
G37*
G36*
X059100Y023197D02*
Y022850D01*
X059447D01*
X059440Y022904D01*
X059399Y023002D01*
X059335Y023085D01*
X059252Y023149D01*
X059154Y023190D01*
X059100Y023197D01*
D02*
G37*
G36*
X073750Y022444D02*
Y022300D01*
X073894D01*
X073888Y022328D01*
X073844Y022394D01*
X073778Y022438D01*
X073750Y022444D01*
D02*
G37*
G36*
X075000D02*
X074972Y022438D01*
X074906Y022394D01*
X074862Y022328D01*
X074856Y022300D01*
X075000D01*
Y022444D01*
D02*
G37*
G36*
X075100D02*
Y022300D01*
X075244D01*
X075238Y022328D01*
X075194Y022394D01*
X075128Y022438D01*
X075100Y022444D01*
D02*
G37*
G36*
X072500D02*
Y022300D01*
X072644D01*
X072638Y022328D01*
X072594Y022394D01*
X072528Y022438D01*
X072500Y022444D01*
D02*
G37*
G36*
X073650D02*
X073622Y022438D01*
X073556Y022394D01*
X073512Y022328D01*
X073506Y022300D01*
X073650D01*
Y022444D01*
D02*
G37*
G36*
X072400D02*
X072372Y022438D01*
X072306Y022394D01*
X072262Y022328D01*
X072256Y022300D01*
X072400D01*
Y022444D01*
D02*
G37*
G36*
X059000Y023197D02*
X058946Y023190D01*
X058848Y023149D01*
X058765Y023085D01*
X058701Y023002D01*
X058660Y022904D01*
X058653Y022850D01*
X059000D01*
Y023197D01*
D02*
G37*
G36*
X064041Y025065D02*
X063843Y025049D01*
X063650Y025003D01*
X063467Y024927D01*
X063297Y024823D01*
X063146Y024694D01*
X063018Y024543D01*
X062914Y024374D01*
X062838Y024191D01*
X062792Y023997D01*
X062776Y023800D01*
X062792Y023602D01*
X062838Y023409D01*
X062914Y023225D01*
X063018Y023056D01*
X063146Y022905D01*
X063297Y022776D01*
X063467Y022672D01*
X063650Y022597D01*
X063843Y022550D01*
X064041Y022535D01*
X064239Y022550D01*
X064432Y022597D01*
X064615Y022672D01*
X064784Y022776D01*
X064935Y022905D01*
X065064Y023056D01*
X065168Y023225D01*
X065244Y023409D01*
X065290Y023602D01*
X065306Y023800D01*
X065290Y023997D01*
X065244Y024191D01*
X065168Y024374D01*
X065064Y024543D01*
X064935Y024694D01*
X064784Y024823D01*
X064615Y024927D01*
X064432Y025003D01*
X064239Y025049D01*
X064041Y025065D01*
D02*
G37*
G36*
X054659D02*
X054461Y025049D01*
X054268Y025003D01*
X054085Y024927D01*
X053916Y024823D01*
X053765Y024694D01*
X053636Y024543D01*
X053532Y024374D01*
X053456Y024191D01*
X053410Y023997D01*
X053394Y023800D01*
X053410Y023602D01*
X053456Y023409D01*
X053532Y023225D01*
X053636Y023056D01*
X053765Y022905D01*
X053916Y022776D01*
X054085Y022672D01*
X054268Y022597D01*
X054461Y022550D01*
X054659Y022535D01*
X054857Y022550D01*
X055050Y022597D01*
X055233Y022672D01*
X055403Y022776D01*
X055554Y022905D01*
X055682Y023056D01*
X055786Y023225D01*
X055862Y023409D01*
X055908Y023602D01*
X055924Y023800D01*
X055908Y023997D01*
X055862Y024191D01*
X055786Y024374D01*
X055682Y024543D01*
X055554Y024694D01*
X055403Y024823D01*
X055233Y024927D01*
X055050Y025003D01*
X054857Y025049D01*
X054659Y025065D01*
D02*
G37*
G36*
X059000Y022750D02*
X058653D01*
X058660Y022696D01*
X058701Y022598D01*
X058765Y022515D01*
X058848Y022451D01*
X058946Y022410D01*
X059000Y022403D01*
Y022750D01*
D02*
G37*
G36*
X059447D02*
X059100D01*
Y022403D01*
X059154Y022410D01*
X059252Y022451D01*
X059335Y022515D01*
X059399Y022598D01*
X059440Y022696D01*
X059447Y022750D01*
D02*
G37*
G36*
X060550Y023183D02*
X060451Y023170D01*
X060358Y023132D01*
X060279Y023071D01*
X060218Y022992D01*
X060180Y022899D01*
X060167Y022800D01*
X060180Y022701D01*
X060218Y022608D01*
X060279Y022529D01*
X060358Y022468D01*
X060451Y022430D01*
X060550Y022417D01*
X060649Y022430D01*
X060742Y022468D01*
X060821Y022529D01*
X060882Y022608D01*
X060920Y022701D01*
X060933Y022800D01*
X060920Y022899D01*
X060882Y022992D01*
X060821Y023071D01*
X060742Y023132D01*
X060649Y023170D01*
X060550Y023183D01*
D02*
G37*
%LPD*%
G36*
X062179Y042274D02*
X062195Y042238D01*
X062199Y042224D01*
X061276Y041301D01*
X061248Y041258D01*
X061237Y041207D01*
Y040696D01*
X061200Y040640D01*
X061186Y040570D01*
X061200Y040500D01*
X061240Y040440D01*
X061300Y040400D01*
X061343Y040392D01*
X061354Y040339D01*
X061346Y040334D01*
X060724Y039711D01*
X060695Y039668D01*
X060685Y039617D01*
Y035312D01*
X060555Y035183D01*
X060490Y035170D01*
X060430Y035130D01*
X060390Y035070D01*
X060376Y035000D01*
X060390Y034930D01*
X060430Y034870D01*
X060490Y034830D01*
X060560Y034816D01*
X060630Y034830D01*
X060690Y034870D01*
X060730Y034930D01*
X060743Y034995D01*
X060911Y035164D01*
X060940Y035207D01*
X060950Y035257D01*
X060950Y035257D01*
Y039563D01*
X061495Y040107D01*
X063354D01*
X063410Y040070D01*
X063480Y040056D01*
X063550Y040070D01*
X063610Y040110D01*
X063650Y040170D01*
X063664Y040240D01*
X063650Y040310D01*
X063610Y040370D01*
X063550Y040410D01*
X063480Y040424D01*
X063410Y040410D01*
X063354Y040373D01*
X061488D01*
X061473Y040423D01*
X061500Y040440D01*
X061540Y040500D01*
X061554Y040570D01*
X061540Y040640D01*
X061521Y040667D01*
X061528Y040694D01*
X061584Y040716D01*
X061592Y040710D01*
X061663Y040696D01*
X061733Y040710D01*
X061788Y040747D01*
X068472D01*
X068489Y040697D01*
X068468Y040682D01*
X068405Y040599D01*
X068365Y040503D01*
X068352Y040400D01*
X068365Y040297D01*
X068405Y040201D01*
X068468Y040118D01*
X068551Y040055D01*
X068647Y040015D01*
X068750Y040002D01*
X068853Y040015D01*
X068949Y040055D01*
X069032Y040118D01*
X069095Y040201D01*
X069135Y040297D01*
X069148Y040400D01*
X069135Y040503D01*
X069095Y040599D01*
X069032Y040682D01*
X069011Y040697D01*
X069028Y040747D01*
X071454D01*
X071510Y040710D01*
X071569Y040699D01*
X071585Y040667D01*
X071589Y040648D01*
X070844Y039903D01*
X063776D01*
X063720Y039940D01*
X063650Y039954D01*
X063580Y039940D01*
X063520Y039900D01*
X063480Y039840D01*
X063466Y039770D01*
X063480Y039700D01*
X063505Y039663D01*
X063479Y039613D01*
X062806D01*
X062780Y039654D01*
X062780Y039663D01*
X062794Y039730D01*
X062780Y039800D01*
X062740Y039860D01*
X062680Y039900D01*
X062610Y039914D01*
X062540Y039900D01*
X062484Y039863D01*
X061830D01*
X061779Y039852D01*
X061736Y039824D01*
X061066Y039154D01*
X061038Y039111D01*
X061027Y039060D01*
Y033785D01*
X060975Y033732D01*
X060927Y033756D01*
X060933Y033800D01*
X060920Y033899D01*
X060882Y033992D01*
X060821Y034071D01*
X060742Y034132D01*
X060649Y034170D01*
X060550Y034183D01*
X060451Y034170D01*
X060392Y034146D01*
X058060Y036477D01*
X058081Y036527D01*
X059914D01*
X059970Y036490D01*
X060040Y036476D01*
X060110Y036490D01*
X060170Y036530D01*
X060210Y036590D01*
X060224Y036660D01*
X060210Y036730D01*
X060185Y036767D01*
X060211Y036817D01*
X060304D01*
X060360Y036780D01*
X060430Y036766D01*
X060500Y036780D01*
X060560Y036820D01*
X060600Y036880D01*
X060614Y036950D01*
X060600Y037020D01*
X060560Y037080D01*
X060500Y037120D01*
X060430Y037134D01*
X060360Y037120D01*
X060304Y037083D01*
X057586D01*
X057530Y037120D01*
X057460Y037134D01*
X057390Y037120D01*
X057330Y037080D01*
X057290Y037020D01*
X057276Y036950D01*
X057290Y036883D01*
X057290Y036878D01*
X057264Y036829D01*
X057250Y036827D01*
X057160Y036917D01*
X057169Y036979D01*
X057200Y037000D01*
X057240Y037060D01*
X057254Y037130D01*
X057240Y037200D01*
X057200Y037260D01*
X057140Y037300D01*
X057075Y037313D01*
X056894Y037494D01*
X056851Y037522D01*
X056800Y037533D01*
X055662D01*
X055646Y037580D01*
X055660Y037590D01*
X055729Y037681D01*
X055773Y037787D01*
X055788Y037900D01*
X055784Y037929D01*
X055817Y037966D01*
X058973D01*
X059031Y037978D01*
X059043Y037980D01*
X059103Y038020D01*
X059558Y038476D01*
X060054D01*
X060113Y038488D01*
X060124Y038490D01*
X060184Y038530D01*
X060348Y038694D01*
X060388Y038753D01*
X060402Y038823D01*
Y039055D01*
X060390Y039112D01*
X060394Y039128D01*
X060380Y039198D01*
X060340Y039257D01*
X060280Y039297D01*
X060210Y039311D01*
X060140Y039297D01*
X060120Y039284D01*
X060080Y039257D01*
X060048Y039225D01*
X060008Y039166D01*
X060007Y039160D01*
X059983Y039114D01*
X059938Y039123D01*
X059868Y039109D01*
X059813Y039072D01*
X058855D01*
X058854Y039074D01*
X058802Y039200D01*
X058719Y039308D01*
X058611Y039391D01*
X058485Y039444D01*
X058350Y039461D01*
X058215Y039444D01*
X058089Y039391D01*
X057981Y039308D01*
X057898Y039200D01*
X057846Y039074D01*
X057828Y038939D01*
X057846Y038804D01*
X057898Y038678D01*
X057981Y038570D01*
X058089Y038487D01*
X058215Y038435D01*
X058350Y038417D01*
X058485Y038435D01*
X058611Y038487D01*
X058719Y038570D01*
X058802Y038678D01*
X058854Y038804D01*
X058855Y038807D01*
X059299D01*
X059320Y038757D01*
X058897Y038334D01*
X055600D01*
X055530Y038320D01*
X055510Y038306D01*
X055508Y038305D01*
X055463Y038323D01*
X055350Y038338D01*
X055237Y038323D01*
X055131Y038279D01*
X055040Y038210D01*
X054971Y038119D01*
X054927Y038013D01*
X054912Y037900D01*
X054927Y037787D01*
X054971Y037681D01*
X055040Y037590D01*
X055054Y037580D01*
X055038Y037533D01*
X054905D01*
X054737Y037700D01*
X054773Y037787D01*
X054788Y037900D01*
X054773Y038013D01*
X054729Y038119D01*
X054660Y038210D01*
X054569Y038279D01*
X054463Y038323D01*
X054350Y038338D01*
X054237Y038323D01*
X054131Y038279D01*
X054040Y038210D01*
X053971Y038119D01*
X053927Y038013D01*
X053912Y037900D01*
X053927Y037787D01*
X053971Y037681D01*
X054040Y037590D01*
X054131Y037521D01*
X054237Y037477D01*
X054350Y037462D01*
X054463Y037477D01*
X054550Y037513D01*
X054756Y037306D01*
X054799Y037278D01*
X054850Y037267D01*
X055038D01*
X055054Y037220D01*
X055040Y037210D01*
X054971Y037119D01*
X054927Y037013D01*
X054912Y036900D01*
X054927Y036787D01*
X054971Y036681D01*
X055040Y036590D01*
X055054Y036580D01*
X055038Y036533D01*
X054905D01*
X054737Y036700D01*
X054773Y036787D01*
X054788Y036900D01*
X054773Y037013D01*
X054729Y037119D01*
X054660Y037210D01*
X054569Y037279D01*
X054463Y037323D01*
X054350Y037338D01*
X054237Y037323D01*
X054131Y037279D01*
X054040Y037210D01*
X053971Y037119D01*
X053927Y037013D01*
X053912Y036900D01*
X053927Y036787D01*
X053971Y036681D01*
X054040Y036590D01*
X054131Y036521D01*
X054237Y036477D01*
X054350Y036462D01*
X054463Y036477D01*
X054550Y036513D01*
X054756Y036306D01*
X054799Y036278D01*
X054850Y036267D01*
X055009D01*
X055021Y036217D01*
X054953Y036129D01*
X054907Y036019D01*
X054898Y035950D01*
X055802D01*
X055793Y036019D01*
X055747Y036129D01*
X055679Y036217D01*
X055691Y036267D01*
X057895D01*
X060204Y033958D01*
X060180Y033899D01*
X060178Y033884D01*
X060127Y033882D01*
X060120Y033920D01*
X060080Y033980D01*
X060020Y034020D01*
X059967Y034030D01*
X059494Y034504D01*
X059451Y034532D01*
X059400Y034543D01*
X058660D01*
X058609Y034532D01*
X058566Y034504D01*
X055906Y031844D01*
X055878Y031801D01*
X055867Y031750D01*
Y031546D01*
X055830Y031490D01*
X055816Y031420D01*
X055830Y031350D01*
X055870Y031290D01*
X055930Y031250D01*
X056000Y031236D01*
X056070Y031250D01*
X056130Y031290D01*
X056170Y031350D01*
X056184Y031420D01*
X056170Y031490D01*
X056133Y031546D01*
Y031695D01*
X058715Y034277D01*
X059345D01*
X059767Y033855D01*
X059766Y033850D01*
X059780Y033780D01*
X059820Y033720D01*
X059880Y033680D01*
X059950Y033666D01*
X060020Y033680D01*
X060080Y033720D01*
X060119Y033779D01*
X060122Y033780D01*
X060170Y033776D01*
X060180Y033701D01*
X060218Y033608D01*
X060261Y033553D01*
X060236Y033503D01*
X059364D01*
X059339Y033553D01*
X059382Y033608D01*
X059420Y033701D01*
X059433Y033800D01*
X059420Y033899D01*
X059382Y033992D01*
X059321Y034071D01*
X059242Y034132D01*
X059149Y034170D01*
X059050Y034183D01*
X058951Y034170D01*
X058858Y034132D01*
X058779Y034071D01*
X058718Y033992D01*
X058680Y033899D01*
X058667Y033800D01*
X058680Y033701D01*
X058718Y033608D01*
X058775Y033535D01*
X058777Y033520D01*
X058770Y033473D01*
X058756Y033464D01*
X058246Y032954D01*
X058218Y032911D01*
X058207Y032860D01*
Y026660D01*
X058218Y026609D01*
X058246Y026566D01*
X058676Y026136D01*
X058719Y026108D01*
X058742Y026103D01*
X058762Y026049D01*
X058718Y025992D01*
X058694Y025933D01*
X058416D01*
X058360Y025970D01*
X058290Y025984D01*
X058220Y025970D01*
X058160Y025930D01*
X058120Y025870D01*
X058106Y025800D01*
X058120Y025730D01*
X058160Y025670D01*
X058220Y025630D01*
X058290Y025616D01*
X058360Y025630D01*
X058416Y025667D01*
X058694D01*
X058718Y025608D01*
X058761Y025553D01*
X058736Y025503D01*
X057935D01*
X057794Y025644D01*
X057751Y025672D01*
X057700Y025683D01*
X051855D01*
X051565Y025972D01*
Y033728D01*
X053344Y035506D01*
X053372Y035549D01*
X053383Y035600D01*
Y038945D01*
X053417Y038980D01*
X053467Y038959D01*
Y036200D01*
X053478Y036149D01*
X053506Y036106D01*
X053806Y035806D01*
X053849Y035778D01*
X053900Y035767D01*
X053935D01*
X053971Y035681D01*
X054040Y035590D01*
X054131Y035521D01*
X054237Y035477D01*
X054350Y035462D01*
X054463Y035477D01*
X054569Y035521D01*
X054660Y035590D01*
X054729Y035681D01*
X054773Y035787D01*
X054788Y035900D01*
X054773Y036013D01*
X054729Y036119D01*
X054660Y036210D01*
X054569Y036279D01*
X054463Y036323D01*
X054350Y036338D01*
X054237Y036323D01*
X054131Y036279D01*
X054040Y036210D01*
X053971Y036119D01*
X053958Y036088D01*
X053909Y036079D01*
X053733Y036255D01*
Y038945D01*
X054505Y039717D01*
X059600D01*
X059651Y039728D01*
X059694Y039756D01*
X060974Y041036D01*
X061002Y041079D01*
X061013Y041130D01*
Y042075D01*
X061245Y042307D01*
X062130D01*
X062179Y042274D01*
D02*
G37*
G36*
X062596Y033481D02*
X062597Y033479D01*
Y031680D01*
X062607Y031629D01*
X062636Y031586D01*
X062983Y031239D01*
X062964Y031193D01*
X061344D01*
X060896Y031642D01*
X060920Y031701D01*
X060933Y031800D01*
X060920Y031899D01*
X060882Y031992D01*
X060821Y032071D01*
X060742Y032132D01*
X060704Y032147D01*
X060714Y032197D01*
X061190D01*
X061241Y032208D01*
X061284Y032236D01*
X062551Y033504D01*
X062596Y033481D01*
D02*
G37*
G36*
X066105Y031527D02*
X066080Y031490D01*
X066067Y031425D01*
X065836Y031193D01*
X065086D01*
X065067Y031239D01*
X065405Y031577D01*
X066079D01*
X066105Y031527D01*
D02*
G37*
G36*
X062102Y039297D02*
X062090Y039290D01*
X062050Y039230D01*
X062036Y039160D01*
X062048Y039101D01*
X062035Y039082D01*
X062028Y039075D01*
X062009Y039062D01*
X061950Y039074D01*
X061880Y039060D01*
X061820Y039020D01*
X061780Y038960D01*
X061766Y038890D01*
X061780Y038820D01*
X061817Y038764D01*
Y034990D01*
X061828Y034939D01*
X061856Y034896D01*
X061947Y034805D01*
X061960Y034740D01*
X062000Y034680D01*
X062060Y034640D01*
X062130Y034626D01*
X062200Y034640D01*
X062200Y034640D01*
X062210Y034590D01*
X062250Y034530D01*
X062310Y034490D01*
X062327Y034487D01*
X062343Y034433D01*
X060925Y033014D01*
X060923Y033014D01*
X060860Y033020D01*
X060821Y033071D01*
X060742Y033132D01*
X060649Y033170D01*
X060550Y033183D01*
X060451Y033170D01*
X060358Y033132D01*
X060279Y033071D01*
X060218Y032992D01*
X060180Y032899D01*
X060167Y032800D01*
X060180Y032701D01*
X060218Y032608D01*
X060279Y032529D01*
X060300Y032513D01*
X060283Y032463D01*
X059580D01*
X059529Y032452D01*
X059486Y032424D01*
X059208Y032146D01*
X059149Y032170D01*
X059050Y032183D01*
X058951Y032170D01*
X058858Y032132D01*
X058779Y032071D01*
X058718Y031992D01*
X058680Y031899D01*
X058667Y031800D01*
X058680Y031701D01*
X058718Y031608D01*
X058779Y031529D01*
X058858Y031468D01*
X058951Y031430D01*
X059050Y031417D01*
X059149Y031430D01*
X059242Y031468D01*
X059321Y031529D01*
X059382Y031608D01*
X059420Y031701D01*
X059433Y031800D01*
X059420Y031899D01*
X059396Y031958D01*
X059635Y032197D01*
X060386D01*
X060396Y032147D01*
X060358Y032132D01*
X060279Y032071D01*
X060218Y031992D01*
X060180Y031899D01*
X060167Y031800D01*
X060180Y031701D01*
X060218Y031608D01*
X060279Y031529D01*
X060339Y031483D01*
X060323Y031433D01*
X059550D01*
X059499Y031422D01*
X059456Y031394D01*
X059208Y031146D01*
X059149Y031170D01*
X059050Y031183D01*
X058951Y031170D01*
X058858Y031132D01*
X058779Y031071D01*
X058718Y030992D01*
X058680Y030899D01*
X058667Y030800D01*
X058680Y030701D01*
X058718Y030608D01*
X058779Y030529D01*
X058858Y030468D01*
X058951Y030430D01*
X059050Y030417D01*
X059149Y030430D01*
X059242Y030468D01*
X059321Y030529D01*
X059382Y030608D01*
X059420Y030701D01*
X059433Y030800D01*
X059420Y030899D01*
X059396Y030958D01*
X059605Y031167D01*
X060323D01*
X060339Y031117D01*
X060279Y031071D01*
X060218Y030992D01*
X060180Y030899D01*
X060167Y030800D01*
X060180Y030701D01*
X060218Y030608D01*
X060276Y030533D01*
X060272Y030507D01*
X060263Y030483D01*
X059600D01*
X059549Y030472D01*
X059506Y030444D01*
X059208Y030146D01*
X059149Y030170D01*
X059050Y030183D01*
X058951Y030170D01*
X058858Y030132D01*
X058779Y030071D01*
X058718Y029992D01*
X058680Y029899D01*
X058667Y029800D01*
X058680Y029701D01*
X058718Y029608D01*
X058779Y029529D01*
X058858Y029468D01*
X058951Y029430D01*
X059050Y029417D01*
X059149Y029430D01*
X059242Y029468D01*
X059321Y029529D01*
X059382Y029608D01*
X059420Y029701D01*
X059433Y029800D01*
X059420Y029899D01*
X059396Y029958D01*
X059655Y030217D01*
X060440D01*
X060451Y030170D01*
X060358Y030132D01*
X060279Y030071D01*
X060218Y029992D01*
X060180Y029899D01*
X060167Y029800D01*
X060180Y029701D01*
X060218Y029608D01*
X060279Y029529D01*
X060339Y029483D01*
X060323Y029433D01*
X059550D01*
X059499Y029422D01*
X059456Y029394D01*
X059208Y029146D01*
X059149Y029170D01*
X059050Y029183D01*
X058951Y029170D01*
X058858Y029132D01*
X058779Y029071D01*
X058718Y028992D01*
X058680Y028899D01*
X058667Y028800D01*
X058680Y028701D01*
X058718Y028608D01*
X058779Y028529D01*
X058858Y028468D01*
X058951Y028430D01*
X059050Y028417D01*
X059149Y028430D01*
X059242Y028468D01*
X059321Y028529D01*
X059382Y028608D01*
X059420Y028701D01*
X059433Y028800D01*
X059420Y028899D01*
X059396Y028958D01*
X059605Y029167D01*
X060323D01*
X060339Y029117D01*
X060279Y029071D01*
X060218Y028992D01*
X060180Y028899D01*
X060167Y028800D01*
X060180Y028701D01*
X060218Y028608D01*
X060279Y028529D01*
X060358Y028468D01*
X060451Y028430D01*
X060550Y028417D01*
X060649Y028430D01*
X060742Y028468D01*
X060821Y028529D01*
X060882Y028608D01*
X060920Y028701D01*
X060933Y028800D01*
X060920Y028899D01*
X060882Y028992D01*
X060821Y029071D01*
X060761Y029117D01*
X060777Y029167D01*
X061245D01*
X062916Y027496D01*
X062937Y027483D01*
X062922Y027433D01*
X060777D01*
X060761Y027483D01*
X060821Y027529D01*
X060882Y027608D01*
X060920Y027701D01*
X060933Y027800D01*
X060920Y027899D01*
X060882Y027992D01*
X060821Y028071D01*
X060742Y028132D01*
X060649Y028170D01*
X060550Y028183D01*
X060451Y028170D01*
X060358Y028132D01*
X060279Y028071D01*
X060218Y027992D01*
X060180Y027899D01*
X060167Y027800D01*
X060180Y027701D01*
X060218Y027608D01*
X060279Y027529D01*
X060339Y027483D01*
X060323Y027433D01*
X059605D01*
X059396Y027642D01*
X059420Y027701D01*
X059433Y027800D01*
X059420Y027899D01*
X059382Y027992D01*
X059321Y028071D01*
X059242Y028132D01*
X059149Y028170D01*
X059050Y028183D01*
X058951Y028170D01*
X058858Y028132D01*
X058779Y028071D01*
X058718Y027992D01*
X058680Y027899D01*
X058667Y027800D01*
X058680Y027701D01*
X058718Y027608D01*
X058779Y027529D01*
X058858Y027468D01*
X058951Y027430D01*
X059050Y027417D01*
X059149Y027430D01*
X059208Y027454D01*
X059456Y027206D01*
X059499Y027178D01*
X059550Y027167D01*
X060323D01*
X060339Y027117D01*
X060279Y027071D01*
X060218Y026992D01*
X060180Y026899D01*
X060167Y026800D01*
X060180Y026701D01*
X060218Y026608D01*
X060254Y026562D01*
X060232Y026516D01*
X060191Y026511D01*
X059897Y026805D01*
X059884Y026870D01*
X059844Y026930D01*
X059785Y026970D01*
X059714Y026984D01*
X059644Y026970D01*
X059589Y026933D01*
X059406D01*
X059382Y026992D01*
X059321Y027071D01*
X059242Y027132D01*
X059149Y027170D01*
X059050Y027183D01*
X058951Y027170D01*
X058858Y027132D01*
X058779Y027071D01*
X058718Y026992D01*
X058680Y026899D01*
X058667Y026800D01*
X058680Y026701D01*
X058718Y026608D01*
X058779Y026529D01*
X058858Y026468D01*
X058951Y026430D01*
X059050Y026417D01*
X059149Y026430D01*
X059242Y026468D01*
X059321Y026529D01*
X059382Y026608D01*
X059406Y026667D01*
X059589D01*
X059644Y026630D01*
X059709Y026617D01*
X059917Y026410D01*
X059905Y026378D01*
X059894Y026363D01*
X058825D01*
X058473Y026715D01*
Y032805D01*
X058667Y033000D01*
X058710Y032972D01*
X058680Y032899D01*
X058667Y032800D01*
X058680Y032701D01*
X058718Y032608D01*
X058779Y032529D01*
X058858Y032468D01*
X058951Y032430D01*
X059050Y032417D01*
X059149Y032430D01*
X059242Y032468D01*
X059321Y032529D01*
X059382Y032608D01*
X059420Y032701D01*
X059433Y032800D01*
X059420Y032899D01*
X059382Y032992D01*
X059321Y033071D01*
X059242Y033132D01*
X059149Y033170D01*
X059050Y033183D01*
X058951Y033170D01*
X058878Y033140D01*
X058850Y033183D01*
X058905Y033237D01*
X060800D01*
X060851Y033248D01*
X060894Y033276D01*
X061254Y033636D01*
X061282Y033679D01*
X061293Y033730D01*
Y034323D01*
X061343Y034356D01*
X061390Y034346D01*
X061460Y034360D01*
X061520Y034400D01*
X061560Y034460D01*
X061574Y034530D01*
X061560Y034600D01*
X061523Y034656D01*
Y037035D01*
X061560Y037060D01*
X061600Y037120D01*
X061614Y037190D01*
X061600Y037260D01*
X061560Y037320D01*
X061500Y037360D01*
X061430Y037374D01*
X061360Y037360D01*
X061343Y037348D01*
X061293Y037375D01*
Y039005D01*
X061442Y039154D01*
X061490Y039140D01*
X061493Y039122D01*
X061533Y039063D01*
X061592Y039023D01*
X061663Y039009D01*
X061733Y039023D01*
X061792Y039063D01*
X061832Y039122D01*
X061845Y039188D01*
X062005Y039347D01*
X062087D01*
X062102Y039297D01*
D02*
G37*
G36*
X062797Y034365D02*
Y034125D01*
X061135Y032463D01*
X060817D01*
X060800Y032513D01*
X060821Y032529D01*
X060882Y032608D01*
X060885Y032616D01*
X060970D01*
X061029Y032628D01*
X061040Y032630D01*
X061100Y032670D01*
X062700Y034270D01*
X062740Y034330D01*
X062747Y034369D01*
X062797Y034365D01*
D02*
G37*
G36*
X068508Y033455D02*
X068484Y033398D01*
X068471Y033300D01*
X068484Y033202D01*
X068508Y033145D01*
X066659Y031296D01*
X066613Y031315D01*
Y031630D01*
X066602Y031681D01*
X066574Y031724D01*
X066494Y031804D01*
X066451Y031832D01*
X066400Y031843D01*
X065350D01*
X065299Y031832D01*
X065256Y031804D01*
X064826Y031373D01*
X064619D01*
X064609Y031422D01*
X064615Y031424D01*
X064784Y031528D01*
X064935Y031657D01*
X065064Y031808D01*
X065168Y031977D01*
X065244Y032161D01*
X065290Y032354D01*
X065306Y032552D01*
X065290Y032749D01*
X065244Y032942D01*
X065168Y033126D01*
X065064Y033295D01*
X064935Y033446D01*
X064784Y033575D01*
X064615Y033679D01*
X064432Y033755D01*
X064295Y033787D01*
X064301Y033837D01*
X068125D01*
X068508Y033455D01*
D02*
G37*
G36*
X062757Y039097D02*
X062747Y039048D01*
X062286Y038587D01*
X062258Y038544D01*
X062247Y038493D01*
Y035006D01*
X062206Y034980D01*
X062197Y034980D01*
X062135Y034993D01*
X062083Y035045D01*
Y038764D01*
X062120Y038820D01*
X062134Y038890D01*
X062122Y038949D01*
X062135Y038968D01*
X062142Y038975D01*
X062161Y038988D01*
X062220Y038976D01*
X062290Y038990D01*
X062350Y039030D01*
X062390Y039090D01*
X062401Y039147D01*
X062728D01*
X062757Y039097D01*
D02*
G37*
G36*
X063550Y029871D02*
X063124Y029446D01*
X063065Y029470D01*
X062966Y029483D01*
X062867Y029470D01*
X062774Y029432D01*
X062695Y029371D01*
X062634Y029292D01*
X062596Y029199D01*
X062582Y029100D01*
X062596Y029001D01*
X062634Y028908D01*
X062695Y028829D01*
X062774Y028768D01*
X062867Y028730D01*
X062966Y028717D01*
X063065Y028730D01*
X063157Y028768D01*
X063237Y028829D01*
X063298Y028908D01*
X063336Y029001D01*
X063349Y029100D01*
X063336Y029199D01*
X063311Y029258D01*
X063771Y029717D01*
X078571D01*
X080245Y028043D01*
X080225Y027993D01*
X074261D01*
X073211Y029042D01*
X073236Y029101D01*
X073249Y029200D01*
X073236Y029299D01*
X073198Y029392D01*
X073137Y029471D01*
X073057Y029532D01*
X072965Y029570D01*
X072866Y029583D01*
X072767Y029570D01*
X072674Y029532D01*
X072595Y029471D01*
X072534Y029392D01*
X072496Y029299D01*
X072482Y029200D01*
X072496Y029101D01*
X072534Y029008D01*
X072595Y028929D01*
X072674Y028868D01*
X072767Y028830D01*
X072866Y028817D01*
X072965Y028830D01*
X073024Y028854D01*
X074106Y027773D01*
X074101Y027747D01*
X074087Y027723D01*
X063065D01*
X061518Y029270D01*
X061520Y029290D01*
X061560Y029350D01*
X061574Y029420D01*
X061560Y029490D01*
X061520Y029550D01*
X061460Y029590D01*
X061390Y029604D01*
X061320Y029590D01*
X061260Y029550D01*
X061220Y029490D01*
X061209Y029433D01*
X060777D01*
X060761Y029483D01*
X060821Y029529D01*
X060882Y029608D01*
X060920Y029701D01*
X060933Y029800D01*
X060924Y029867D01*
X060963Y029917D01*
X063530D01*
X063550Y029871D01*
D02*
G37*
G36*
X062605Y038157D02*
X063027Y037735D01*
Y037647D01*
X062977Y037614D01*
X062930Y037624D01*
X062860Y037610D01*
X062800Y037570D01*
X062760Y037510D01*
X062746Y037440D01*
X062760Y037370D01*
X062797Y037314D01*
Y034435D01*
X062747Y034431D01*
X062740Y034470D01*
X062700Y034530D01*
X062640Y034570D01*
X062597Y034578D01*
X062560Y034625D01*
X062558Y034632D01*
X062564Y034660D01*
X062550Y034730D01*
X062513Y034786D01*
Y038133D01*
X062563Y038166D01*
X062605Y038157D01*
D02*
G37*
G36*
X056887Y037125D02*
X056896Y037083D01*
X056863Y037033D01*
X055765D01*
X055729Y037119D01*
X055660Y037210D01*
X055646Y037220D01*
X055662Y037267D01*
X056745D01*
X056887Y037125D01*
D02*
G37*
G36*
X061106Y030736D02*
X061149Y030708D01*
X061200Y030697D01*
X065995D01*
X066014Y030651D01*
X065845Y030483D01*
X060837D01*
X060828Y030507D01*
X060824Y030533D01*
X060882Y030608D01*
X060920Y030701D01*
X060933Y030800D01*
X060927Y030844D01*
X060975Y030868D01*
X061106Y030736D01*
D02*
G37*
G36*
X057120Y036583D02*
X057099Y036533D01*
X055662D01*
X055646Y036580D01*
X055660Y036590D01*
X055729Y036681D01*
X055765Y036767D01*
X056935D01*
X057120Y036583D01*
D02*
G37*
%LPC*%
G36*
X064840Y040514D02*
Y040370D01*
X064984D01*
X064978Y040398D01*
X064934Y040464D01*
X064868Y040508D01*
X064840Y040514D01*
D02*
G37*
G36*
X065280D02*
X065252Y040508D01*
X065186Y040464D01*
X065142Y040398D01*
X065136Y040370D01*
X065280D01*
Y040514D01*
D02*
G37*
G36*
X052184Y028297D02*
X052130Y028290D01*
X052033Y028249D01*
X051949Y028185D01*
X051885Y028102D01*
X051845Y028004D01*
X051837Y027950D01*
X052184D01*
Y028297D01*
D02*
G37*
G36*
X052284D02*
Y027950D01*
X052631D01*
X052624Y028004D01*
X052584Y028102D01*
X052520Y028185D01*
X052436Y028249D01*
X052339Y028290D01*
X052284Y028297D01*
D02*
G37*
G36*
X065380Y040514D02*
Y040370D01*
X065524D01*
X065518Y040398D01*
X065474Y040464D01*
X065408Y040508D01*
X065380Y040514D01*
D02*
G37*
G36*
X061420Y042184D02*
X061392Y042178D01*
X061326Y042134D01*
X061282Y042068D01*
X061276Y042040D01*
X061420D01*
Y042184D01*
D02*
G37*
G36*
X055862Y027850D02*
X055500D01*
Y027488D01*
X055558Y027496D01*
X055659Y027538D01*
X055746Y027604D01*
X055812Y027691D01*
X055854Y027792D01*
X055862Y027850D01*
D02*
G37*
G36*
X055400D02*
X055038D01*
X055046Y027792D01*
X055088Y027691D01*
X055154Y027604D01*
X055241Y027538D01*
X055342Y027496D01*
X055400Y027488D01*
Y027850D01*
D02*
G37*
G36*
X061520Y042184D02*
Y042040D01*
X061664D01*
X061658Y042068D01*
X061614Y042134D01*
X061548Y042178D01*
X061520Y042184D01*
D02*
G37*
G36*
X056450Y028298D02*
X056347Y028285D01*
X056251Y028245D01*
X056168Y028182D01*
X056105Y028099D01*
X056065Y028003D01*
X056052Y027900D01*
X056065Y027797D01*
X056105Y027701D01*
X056168Y027618D01*
X056251Y027555D01*
X056347Y027515D01*
X056450Y027502D01*
X056553Y027515D01*
X056649Y027555D01*
X056732Y027618D01*
X056795Y027701D01*
X056835Y027797D01*
X056848Y027900D01*
X056835Y028003D01*
X056795Y028099D01*
X056732Y028182D01*
X056649Y028245D01*
X056553Y028285D01*
X056450Y028298D01*
D02*
G37*
G36*
X061664Y041940D02*
X061520D01*
Y041796D01*
X061548Y041802D01*
X061614Y041846D01*
X061658Y041912D01*
X061664Y041940D01*
D02*
G37*
G36*
X061420D02*
X061276D01*
X061282Y041912D01*
X061326Y041846D01*
X061392Y041802D01*
X061420Y041796D01*
Y041940D01*
D02*
G37*
G36*
X052184Y027850D02*
X051837D01*
X051845Y027796D01*
X051885Y027698D01*
X051949Y027615D01*
X052033Y027551D01*
X052130Y027510D01*
X052184Y027503D01*
Y027850D01*
D02*
G37*
G36*
X052631D02*
X052284D01*
Y027503D01*
X052339Y027510D01*
X052436Y027551D01*
X052520Y027615D01*
X052584Y027698D01*
X052624Y027796D01*
X052631Y027850D01*
D02*
G37*
G36*
X055300Y035850D02*
X054898D01*
X054907Y035781D01*
X054953Y035671D01*
X055026Y035576D01*
X055121Y035503D01*
X055231Y035457D01*
X055300Y035448D01*
Y035850D01*
D02*
G37*
G36*
X055802D02*
X055400D01*
Y035448D01*
X055469Y035457D01*
X055579Y035503D01*
X055674Y035576D01*
X055747Y035671D01*
X055793Y035781D01*
X055802Y035850D01*
D02*
G37*
G36*
X069684Y029150D02*
X069337D01*
X069345Y029096D01*
X069385Y028998D01*
X069449Y028915D01*
X069533Y028851D01*
X069630Y028810D01*
X069684Y028803D01*
Y029150D01*
D02*
G37*
G36*
X074784D02*
X074437D01*
X074445Y029096D01*
X074485Y028998D01*
X074549Y028915D01*
X074633Y028851D01*
X074730Y028810D01*
X074784Y028803D01*
Y029150D01*
D02*
G37*
G36*
X070131D02*
X069784D01*
Y028803D01*
X069839Y028810D01*
X069936Y028851D01*
X070020Y028915D01*
X070084Y028998D01*
X070124Y029096D01*
X070131Y029150D01*
D02*
G37*
G36*
X059314Y035950D02*
X059170D01*
Y035806D01*
X059198Y035812D01*
X059264Y035856D01*
X059308Y035922D01*
X059314Y035950D01*
D02*
G37*
G36*
X059070Y036194D02*
X059042Y036188D01*
X058976Y036144D01*
X058932Y036078D01*
X058926Y036050D01*
X059070D01*
Y036194D01*
D02*
G37*
G36*
Y035950D02*
X058926D01*
X058932Y035922D01*
X058976Y035856D01*
X059042Y035812D01*
X059070Y035806D01*
Y035950D01*
D02*
G37*
G36*
X065331Y029050D02*
X064984D01*
Y028703D01*
X065039Y028710D01*
X065136Y028751D01*
X065220Y028815D01*
X065284Y028898D01*
X065324Y028996D01*
X065331Y029050D01*
D02*
G37*
G36*
X064884D02*
X064537D01*
X064545Y028996D01*
X064585Y028898D01*
X064649Y028815D01*
X064733Y028751D01*
X064830Y028710D01*
X064884Y028703D01*
Y029050D01*
D02*
G37*
G36*
X074784Y029597D02*
X074730Y029590D01*
X074633Y029549D01*
X074549Y029485D01*
X074485Y029402D01*
X074445Y029304D01*
X074437Y029250D01*
X074784D01*
Y029597D01*
D02*
G37*
G36*
X069784D02*
Y029250D01*
X070131D01*
X070124Y029304D01*
X070084Y029402D01*
X070020Y029485D01*
X069936Y029549D01*
X069839Y029590D01*
X069784Y029597D01*
D02*
G37*
G36*
X074884D02*
Y029250D01*
X075231D01*
X075224Y029304D01*
X075184Y029402D01*
X075120Y029485D01*
X075036Y029549D01*
X074939Y029590D01*
X074884Y029597D01*
D02*
G37*
G36*
X067866Y033679D02*
X067768Y033666D01*
X067676Y033628D01*
X067598Y033568D01*
X067538Y033489D01*
X067500Y033398D01*
X067487Y033300D01*
X067500Y033202D01*
X067538Y033111D01*
X067598Y033032D01*
X067676Y032972D01*
X067768Y032934D01*
X067866Y032921D01*
X067964Y032934D01*
X068055Y032972D01*
X068133Y033032D01*
X068194Y033111D01*
X068231Y033202D01*
X068244Y033300D01*
X068231Y033398D01*
X068194Y033489D01*
X068133Y033568D01*
X068055Y033628D01*
X067964Y033666D01*
X067866Y033679D01*
D02*
G37*
G36*
X054659Y033817D02*
X054461Y033801D01*
X054268Y033755D01*
X054085Y033679D01*
X053916Y033575D01*
X053765Y033446D01*
X053636Y033295D01*
X053532Y033126D01*
X053456Y032942D01*
X053410Y032749D01*
X053394Y032552D01*
X053410Y032354D01*
X053456Y032161D01*
X053532Y031977D01*
X053636Y031808D01*
X053765Y031657D01*
X053916Y031528D01*
X054085Y031424D01*
X054268Y031348D01*
X054461Y031302D01*
X054659Y031287D01*
X054857Y031302D01*
X055050Y031348D01*
X055233Y031424D01*
X055403Y031528D01*
X055554Y031657D01*
X055682Y031808D01*
X055786Y031977D01*
X055862Y032161D01*
X055908Y032354D01*
X055924Y032552D01*
X055908Y032749D01*
X055862Y032942D01*
X055786Y033126D01*
X055682Y033295D01*
X055554Y033446D01*
X055403Y033575D01*
X055233Y033679D01*
X055050Y033755D01*
X054857Y033801D01*
X054659Y033817D01*
D02*
G37*
G36*
X067766Y029583D02*
X067667Y029570D01*
X067574Y029532D01*
X067495Y029471D01*
X067434Y029392D01*
X067396Y029299D01*
X067382Y029200D01*
X067396Y029101D01*
X067434Y029008D01*
X067495Y028929D01*
X067574Y028868D01*
X067667Y028830D01*
X067766Y028817D01*
X067865Y028830D01*
X067957Y028868D01*
X068037Y028929D01*
X068098Y029008D01*
X068136Y029101D01*
X068149Y029200D01*
X068136Y029299D01*
X068098Y029392D01*
X068037Y029471D01*
X067957Y029532D01*
X067865Y029570D01*
X067766Y029583D01*
D02*
G37*
G36*
X075231Y029150D02*
X074884D01*
Y028803D01*
X074939Y028810D01*
X075036Y028851D01*
X075120Y028915D01*
X075184Y028998D01*
X075224Y029096D01*
X075231Y029150D01*
D02*
G37*
G36*
X064884Y029497D02*
X064830Y029490D01*
X064733Y029449D01*
X064649Y029385D01*
X064585Y029302D01*
X064545Y029204D01*
X064537Y029150D01*
X064884D01*
Y029497D01*
D02*
G37*
G36*
X069684Y029597D02*
X069630Y029590D01*
X069533Y029549D01*
X069449Y029485D01*
X069385Y029402D01*
X069345Y029304D01*
X069337Y029250D01*
X069684D01*
Y029597D01*
D02*
G37*
G36*
X064984Y029497D02*
Y029150D01*
X065331D01*
X065324Y029204D01*
X065284Y029302D01*
X065220Y029385D01*
X065136Y029449D01*
X065039Y029490D01*
X064984Y029497D01*
D02*
G37*
G36*
X060100Y039994D02*
X060072Y039988D01*
X060006Y039944D01*
X059962Y039878D01*
X059956Y039850D01*
X060100D01*
Y039994D01*
D02*
G37*
G36*
X060200D02*
Y039850D01*
X060344D01*
X060338Y039878D01*
X060294Y039944D01*
X060228Y039988D01*
X060200Y039994D01*
D02*
G37*
G36*
X060344Y039750D02*
X060200D01*
Y039606D01*
X060228Y039612D01*
X060294Y039656D01*
X060338Y039722D01*
X060344Y039750D01*
D02*
G37*
G36*
X055400Y028312D02*
X055342Y028304D01*
X055241Y028262D01*
X055154Y028196D01*
X055088Y028109D01*
X055046Y028008D01*
X055038Y027950D01*
X055400D01*
Y028312D01*
D02*
G37*
G36*
X060100Y039750D02*
X059956D01*
X059962Y039722D01*
X060006Y039656D01*
X060072Y039612D01*
X060100Y039606D01*
Y039750D01*
D02*
G37*
G36*
X065524Y040270D02*
X065380D01*
Y040126D01*
X065408Y040132D01*
X065474Y040176D01*
X065518Y040242D01*
X065524Y040270D01*
D02*
G37*
G36*
X064740Y040514D02*
X064712Y040508D01*
X064646Y040464D01*
X064602Y040398D01*
X064596Y040370D01*
X064740D01*
Y040514D01*
D02*
G37*
G36*
X065280Y040270D02*
X065136D01*
X065142Y040242D01*
X065186Y040176D01*
X065252Y040132D01*
X065280Y040126D01*
Y040270D01*
D02*
G37*
G36*
X064740D02*
X064596D01*
X064602Y040242D01*
X064646Y040176D01*
X064712Y040132D01*
X064740Y040126D01*
Y040270D01*
D02*
G37*
G36*
X064984D02*
X064840D01*
Y040126D01*
X064868Y040132D01*
X064934Y040176D01*
X064978Y040242D01*
X064984Y040270D01*
D02*
G37*
G36*
X058670Y037808D02*
X058642Y037803D01*
X058576Y037759D01*
X058531Y037692D01*
X058526Y037664D01*
X058670D01*
Y037808D01*
D02*
G37*
G36*
X058770D02*
Y037664D01*
X058914D01*
X058908Y037692D01*
X058864Y037759D01*
X058798Y037803D01*
X058770Y037808D01*
D02*
G37*
G36*
X058914Y037564D02*
X058770D01*
Y037420D01*
X058798Y037426D01*
X058864Y037470D01*
X058908Y037536D01*
X058914Y037564D01*
D02*
G37*
G36*
X059170Y036194D02*
Y036050D01*
X059314D01*
X059308Y036078D01*
X059264Y036144D01*
X059198Y036188D01*
X059170Y036194D01*
D02*
G37*
G36*
X058670Y037564D02*
X058526D01*
X058531Y037536D01*
X058576Y037470D01*
X058642Y037426D01*
X058670Y037420D01*
Y037564D01*
D02*
G37*
G36*
X059880Y038374D02*
X059852Y038368D01*
X059786Y038324D01*
X059742Y038258D01*
X059736Y038230D01*
X059880D01*
Y038374D01*
D02*
G37*
G36*
X059980D02*
Y038230D01*
X060124D01*
X060118Y038258D01*
X060074Y038324D01*
X060008Y038368D01*
X059980Y038374D01*
D02*
G37*
G36*
X060124Y038130D02*
X059980D01*
Y037986D01*
X060008Y037992D01*
X060074Y038036D01*
X060118Y038102D01*
X060124Y038130D01*
D02*
G37*
G36*
X055500Y028312D02*
Y027950D01*
X055862D01*
X055854Y028008D01*
X055812Y028109D01*
X055746Y028196D01*
X055659Y028262D01*
X055558Y028304D01*
X055500Y028312D01*
D02*
G37*
G36*
X059880Y038130D02*
X059736D01*
X059742Y038102D01*
X059786Y038036D01*
X059852Y037992D01*
X059880Y037986D01*
Y038130D01*
D02*
G37*
%LPD*%
D29*
X050900Y034100D02*
X052650Y035850D01*
X050900Y022990D02*
Y034100D01*
Y022990D02*
X053930Y019960D01*
X051433Y033783D02*
X053250Y035600D01*
X051433Y025917D02*
Y033783D01*
Y025917D02*
X051800Y025550D01*
X060817Y039617D02*
X061440Y040240D01*
X060817Y035257D02*
Y039617D01*
X060560Y035000D02*
X060817Y035257D01*
X062450Y043450D02*
X062883Y043017D01*
Y040880D02*
Y043017D01*
X062275Y043020D02*
X062513Y042783D01*
Y042350D02*
Y042783D01*
X061370Y041207D02*
X062513Y042350D01*
X059550Y027300D02*
X074500D01*
X059050Y027800D02*
X059550Y027300D01*
X063010Y027590D02*
X080170D01*
X061300Y029300D02*
X063010Y027590D01*
X074206Y027860D02*
X080255D01*
X072866Y029200D02*
X074206Y027860D01*
X080255D02*
X080435Y027680D01*
X061270Y029300D02*
X061390Y029420D01*
X061270Y029300D02*
X061300D01*
X081120Y023800D02*
Y023950D01*
X059550Y029300D02*
X061270D01*
X061663Y040880D02*
X071580D01*
X080615Y027555D02*
X080960Y027210D01*
X080615Y027555D02*
Y027860D01*
X067766Y010500D02*
Y011366D01*
X054350Y036900D02*
X054850Y036400D01*
X061440Y040240D02*
X063480D01*
X062380Y038493D02*
X062930Y039043D01*
X062380Y034660D02*
Y038493D01*
X060550Y026800D02*
X062530D01*
X063430Y038840D02*
X063920Y038350D01*
X057460Y036950D02*
X060430D01*
X062930Y034070D02*
Y037440D01*
X061190Y032330D02*
X062930Y034070D01*
X059580Y032330D02*
X061190D01*
X059050Y031800D02*
X059580Y032330D01*
X061390Y037150D02*
X061430Y037190D01*
X061390Y034530D02*
Y037150D01*
X059050Y028800D02*
X059550Y029300D01*
X061663Y039193D02*
X061950Y039480D01*
X073350Y040750D02*
X082700Y031400D01*
X058290Y025800D02*
X059050D01*
X071261Y039276D02*
X072300Y040315D01*
Y040505D01*
X053930Y019960D02*
X058890D01*
X059050Y019800D01*
X058010Y022840D02*
X059050Y021800D01*
X060550Y031800D02*
X061290Y031060D01*
X065890D01*
X066250Y031420D01*
X080510Y025280D02*
X080950Y024840D01*
X075710Y025280D02*
X080510D01*
X074620Y026370D02*
X075710Y025280D01*
X060144Y026370D02*
X074620D01*
X059714Y026800D02*
X060144Y026370D01*
X059050Y026800D02*
X059714D01*
X054385Y020230D02*
X068460D01*
X072130Y023900D01*
X078520D01*
X079270Y024650D01*
X058350Y040861D02*
X060509Y043020D01*
X058340Y026660D02*
Y032860D01*
X058850Y033370D01*
X060800D01*
X061160Y033730D01*
Y039060D01*
X061830Y039730D01*
X062610D01*
X059050Y020800D02*
X059530Y021280D01*
X062130D01*
X061950Y034990D02*
X062130Y034810D01*
X061950Y034990D02*
Y038890D01*
X081120Y023950D02*
X081180D01*
X080960Y023640D02*
X081120Y023800D01*
X072850Y023640D02*
X080960D01*
X068180Y033970D02*
X068850Y033300D01*
X063520Y033970D02*
X068180D01*
X063310Y034180D02*
X063520Y033970D01*
X063310Y034180D02*
Y034680D01*
X063420Y034790D01*
Y037990D01*
X062840Y038570D02*
X063420Y037990D01*
X061200Y030830D02*
X066080D01*
X066480Y031230D01*
Y031630D01*
X066400Y031710D02*
X066480Y031630D01*
X065350Y031710D02*
X066400D01*
X064880Y031240D02*
X065350Y031710D01*
X063169Y031240D02*
X064880D01*
X062730Y031680D02*
X063169Y031240D01*
X062730Y031680D02*
Y033480D01*
X063110Y033860D01*
Y034950D01*
X063160Y035000D01*
Y037790D01*
X062610Y038340D02*
X063160Y037790D01*
X058350Y038939D02*
X059938D01*
X055350Y036900D02*
X056990D01*
X057230Y036660D01*
X060040D01*
X082280Y023240D02*
Y024261D01*
X079840Y026701D02*
X082280Y024261D01*
X079840Y026701D02*
Y027130D01*
X079994Y027283D01*
X080199D01*
X080435Y027520D01*
Y027680D01*
X054350Y037900D02*
X054850Y037400D01*
X056800D01*
X057070Y037130D01*
X080100Y026940D02*
X084206D01*
X085266Y028000D01*
X074726Y024300D02*
X078090D01*
X060300Y025300D02*
X060720D01*
X059050Y021800D02*
X060550D01*
X063230Y042440D02*
X071050D01*
X071864Y041626D01*
X064984Y036500D02*
X065010D01*
X063920Y034760D02*
Y038350D01*
X068744Y022120D02*
Y022206D01*
X060330Y025800D02*
X060550D01*
X059900Y026230D02*
X060330Y025800D01*
X058340Y026660D02*
X058770Y026230D01*
X059900D01*
X060509Y043020D02*
X062275D01*
X060880Y042130D02*
X061190Y042440D01*
X062255D01*
X053600Y039000D02*
X054450Y039850D01*
X053600Y036200D02*
Y039000D01*
Y036200D02*
X053900Y035900D01*
X054350D01*
X059410Y040050D02*
X060650Y041290D01*
X056000Y031420D02*
Y031750D01*
X058660Y034410D01*
X059400D01*
X060550Y029800D02*
X060800Y030050D01*
X066200D01*
X066580Y030430D01*
X062966Y029100D02*
X063716Y029850D01*
X078625D01*
X080615Y027860D01*
X060720Y025300D02*
X061320Y025900D01*
X073126D01*
X074726Y024300D01*
X070950Y039480D02*
X072220Y040750D01*
X073350D01*
X061950Y039480D02*
X070950D01*
X063650Y039770D02*
X070898D01*
X072148Y041020D01*
X060550Y024800D02*
X061200Y025450D01*
X065500D01*
X068744Y022206D01*
X059228Y025370D02*
X059229Y025371D01*
X059229D01*
X057700Y025550D02*
X057880Y025370D01*
X059228D01*
X051800Y025550D02*
X057700D01*
X057050Y043450D02*
X062450D01*
X059050Y030800D02*
X059550Y031300D01*
X060730D01*
X061200Y030830D01*
X054850Y036400D02*
X057950D01*
X060550Y033800D01*
X059400Y034410D02*
X059950Y033860D01*
Y033850D02*
Y033860D01*
X059050Y029800D02*
X059600Y030350D01*
X065900D01*
X068850Y033300D01*
X060000Y024350D02*
X060550Y023800D01*
X060000Y024350D02*
Y025000D01*
X060300Y025300D01*
X059600Y024440D02*
Y025000D01*
X059229Y025371D02*
X059600Y025000D01*
X059050Y023800D02*
Y023950D01*
X059110D01*
X059600Y024440D01*
X052650Y035850D02*
Y039050D01*
X057050Y043450D01*
X053250Y035600D02*
Y039000D01*
X054300Y040050D01*
X059410D01*
X060550Y021800D02*
X068950D01*
X072350Y025200D01*
X072966D01*
X072148Y041020D02*
X075490D01*
X075870Y040640D01*
X067766Y011366D02*
X078700Y022300D01*
Y023400D01*
X064995Y039280D02*
X065000Y039276D01*
X062340Y039280D02*
X064995D01*
X062220Y039160D02*
X062340Y039280D01*
X065010Y036500D02*
X067110Y038600D01*
X067200D01*
X065000Y039276D02*
X071261D01*
X068370Y039050D02*
X068380Y039040D01*
X054450Y039850D02*
X059600D01*
X060880Y041130D01*
Y042130D01*
X061370Y040570D02*
Y041207D01*
D30*
X060970Y032800D02*
X062570Y034400D01*
X060550Y032800D02*
X060970D01*
X077486Y035296D02*
Y035580D01*
X076590Y034400D02*
X077486Y035296D01*
X063545Y034400D02*
X076590D01*
X055350Y037900D02*
X055600Y038150D01*
X060054Y038659D02*
X060218Y038823D01*
Y039055D01*
X060178Y039096D02*
X060218Y039055D01*
X060178Y039096D02*
Y039096D01*
X060210Y039128D01*
X055600Y038150D02*
X058973D01*
X059482Y038659D01*
X060054D01*
X064900Y039050D02*
X068370D01*
D31*
X074900Y041900D02*
X075400D01*
X076350Y040950D01*
X078250D01*
D32*
X084350Y035366D02*
D03*
Y033634D02*
D03*
D33*
X054350Y035900D02*
D03*
X055350D02*
D03*
X054350Y037900D02*
D03*
X055350D02*
D03*
Y036900D02*
D03*
X054350D02*
D03*
D34*
X068650Y046484D02*
D03*
Y044516D02*
D03*
X050266Y027900D02*
D03*
X052234D02*
D03*
X085266Y028000D02*
D03*
X087234D02*
D03*
X067766Y010500D02*
D03*
X069734D02*
D03*
X074934Y025200D02*
D03*
X072966D02*
D03*
X062966Y029100D02*
D03*
X064934D02*
D03*
X067766Y029200D02*
D03*
X069734D02*
D03*
X072866D02*
D03*
X074834D02*
D03*
X059050Y033800D02*
D03*
Y032800D02*
D03*
Y031800D02*
D03*
Y030800D02*
D03*
Y029800D02*
D03*
Y028800D02*
D03*
Y027800D02*
D03*
Y026800D02*
D03*
Y025800D02*
D03*
Y024800D02*
D03*
Y023800D02*
D03*
Y022800D02*
D03*
Y021800D02*
D03*
Y020800D02*
D03*
Y019800D02*
D03*
X060550Y033800D02*
D03*
Y032800D02*
D03*
Y031800D02*
D03*
Y030800D02*
D03*
Y029800D02*
D03*
Y028800D02*
D03*
Y027800D02*
D03*
Y026800D02*
D03*
Y025800D02*
D03*
Y024800D02*
D03*
Y023800D02*
D03*
Y022800D02*
D03*
Y021800D02*
D03*
Y020800D02*
D03*
Y019800D02*
D03*
X079666Y018900D02*
D03*
X081634D02*
D03*
X073750Y015500D02*
D03*
X075000D02*
D03*
X076250D02*
D03*
X077500D02*
D03*
X078750D02*
D03*
Y014250D02*
D03*
X077500D02*
D03*
X076250D02*
D03*
X075000D02*
D03*
X073750D02*
D03*
X078750Y013000D02*
D03*
X077500D02*
D03*
X076250D02*
D03*
X075000D02*
D03*
X073750D02*
D03*
X077500Y011750D02*
D03*
X076250D02*
D03*
X075000D02*
D03*
X077500Y016750D02*
D03*
X076250D02*
D03*
X075000D02*
D03*
D35*
X068750Y041400D02*
D03*
Y040400D02*
D03*
Y015100D02*
D03*
Y016100D02*
D03*
X082250Y028000D02*
D03*
X081250D02*
D03*
X055450Y027900D02*
D03*
X056450D02*
D03*
D36*
X056850Y017800D02*
D03*
X061850D02*
D03*
D37*
X064041Y023800D02*
D03*
X054659D02*
D03*
Y032552D02*
D03*
X064041D02*
D03*
D38*
X069834Y033300D02*
D03*
Y025200D02*
D03*
D39*
X068850Y033300D02*
D03*
X067866D02*
D03*
X068850Y025200D02*
D03*
X067866D02*
D03*
D40*
X066650Y013700D02*
D03*
D41*
Y012700D02*
D03*
D42*
X058350Y038939D02*
D03*
Y040861D02*
D03*
D43*
X074500Y027300D02*
D03*
X061390Y029420D02*
D03*
X067130Y014340D02*
D03*
X056130Y014290D02*
D03*
X065200Y016000D02*
D03*
X058140Y012420D02*
D03*
X059930Y012440D02*
D03*
X061700Y012450D02*
D03*
X063650Y012500D02*
D03*
X063550Y015980D02*
D03*
X061740Y015960D02*
D03*
X064540Y014310D02*
D03*
X057560Y015940D02*
D03*
X059960D02*
D03*
X059120Y036000D02*
D03*
X058720Y037614D02*
D03*
X059930Y038180D02*
D03*
X060150Y039800D02*
D03*
X065330Y040320D02*
D03*
X064790D02*
D03*
X061470Y041990D02*
D03*
X063545Y034400D02*
D03*
X062570D02*
D03*
X080960Y027210D02*
D03*
X063480Y040240D02*
D03*
X060560Y035000D02*
D03*
X062930Y039043D02*
D03*
X062380Y034660D02*
D03*
X062530Y026800D02*
D03*
X063430Y038840D02*
D03*
X063650Y039770D02*
D03*
X075870Y040640D02*
D03*
X060430Y036950D02*
D03*
X057460D02*
D03*
X062930Y037440D02*
D03*
X061430Y037190D02*
D03*
X061390Y034530D02*
D03*
X061663Y039193D02*
D03*
X082700Y031400D02*
D03*
X058290Y025800D02*
D03*
X060650Y041290D02*
D03*
X062220Y039160D02*
D03*
X072300Y040505D02*
D03*
X061663Y040880D02*
D03*
X058010Y022840D02*
D03*
X066250Y031420D02*
D03*
X080950Y024840D02*
D03*
X054385Y020230D02*
D03*
X079270Y024650D02*
D03*
X059714Y026800D02*
D03*
X062255Y042440D02*
D03*
X061370Y040570D02*
D03*
X062610Y039730D02*
D03*
X056000Y031420D02*
D03*
X062130Y021280D02*
D03*
Y034810D02*
D03*
X061950Y038890D02*
D03*
X081180Y023950D02*
D03*
X072850Y023640D02*
D03*
X066580Y030430D02*
D03*
X062840Y038570D02*
D03*
X062610Y038340D02*
D03*
X071580Y040880D02*
D03*
X059938Y038939D02*
D03*
X060040Y036660D02*
D03*
X082280Y023240D02*
D03*
X057070Y037130D02*
D03*
X080170Y027590D02*
D03*
X080100Y026940D02*
D03*
X078090Y024300D02*
D03*
X063230Y042440D02*
D03*
X071864Y041626D02*
D03*
X060210Y039128D02*
D03*
X069900Y020250D02*
D03*
X070650D02*
D03*
Y019050D02*
D03*
X071750Y018100D02*
D03*
X073150Y020284D02*
D03*
X074350Y020300D02*
D03*
X072450Y022250D02*
D03*
X073700D02*
D03*
X071050D02*
D03*
X075950Y018750D02*
D03*
X075250Y020900D02*
D03*
X075050Y022250D02*
D03*
X073700Y018100D02*
D03*
X084000Y034750D02*
D03*
Y034250D02*
D03*
X082600Y035550D02*
D03*
X063320Y041920D02*
D03*
X064787Y037810D02*
D03*
X060390Y041920D02*
D03*
X065040Y044270D02*
D03*
X065080Y043040D02*
D03*
X058814Y042268D02*
D03*
X077486Y035580D02*
D03*
X064984Y036500D02*
D03*
X063920Y034760D02*
D03*
X064850Y035600D02*
D03*
X055533Y017850D02*
D03*
X056850Y019150D02*
D03*
X057850Y018600D02*
D03*
X055900Y018700D02*
D03*
X055850Y016900D02*
D03*
X068744Y022120D02*
D03*
X059950Y033850D02*
D03*
X072050Y045300D02*
D03*
X074900Y041900D02*
D03*
X078250Y040950D02*
D03*
X078700Y023400D02*
D03*
X064900Y039050D02*
D03*
X067200Y038600D02*
D03*
X068380Y039040D02*
D03*
M02*
