G04 Layer_Color=15132400*
%FSAX24Y24*%
%MOIN*%
G70*
G01*
G75*
%ADD13C,0.0100*%
%ADD28C,0.0098*%
%ADD29C,0.0236*%
%ADD30C,0.0079*%
G36*
X085800Y035787D02*
X085292D01*
Y035922D01*
X085800D01*
Y035787D01*
D02*
G37*
G36*
X085290Y035521D02*
X085800D01*
Y035386D01*
X085164D01*
Y035787D01*
X085290D01*
Y035521D01*
D02*
G37*
G36*
X085800Y036862D02*
X085673D01*
Y036728D01*
X085547D01*
Y036863D01*
X085673D01*
Y036997D01*
X085800D01*
Y036862D01*
D02*
G37*
G36*
X085292Y036863D02*
X085417D01*
Y036728D01*
X085547D01*
Y036593D01*
X085417D01*
Y036460D01*
X085803D01*
X085800Y036325D01*
X084909D01*
Y036863D01*
X085035D01*
Y036460D01*
X085290D01*
Y036862D01*
X085037D01*
Y036997D01*
X085292D01*
Y036863D01*
D02*
G37*
G36*
X085673Y035117D02*
X085292D01*
Y035251D01*
X085673D01*
Y035117D01*
D02*
G37*
G36*
X085800Y034446D02*
X084909D01*
Y034581D01*
X085800D01*
Y034446D01*
D02*
G37*
G36*
X085418Y033775D02*
X085292D01*
Y034311D01*
X085418D01*
Y033775D01*
D02*
G37*
G36*
X085290Y034847D02*
X085164D01*
Y035116D01*
X085290D01*
Y034847D01*
D02*
G37*
G36*
X085800D02*
X085673D01*
Y034714D01*
X085292D01*
Y034849D01*
X085673D01*
Y035116D01*
X085800D01*
Y034847D01*
D02*
G37*
G36*
Y038606D02*
X085673D01*
Y038473D01*
X085292D01*
Y038608D01*
X085673D01*
Y038874D01*
X085800D01*
Y038606D01*
D02*
G37*
G36*
X085673Y038204D02*
X085547D01*
Y038338D01*
X085673D01*
Y038204D01*
D02*
G37*
G36*
Y038876D02*
X085292D01*
Y039009D01*
X085673D01*
Y038876D01*
D02*
G37*
G36*
X085290Y038606D02*
X085164D01*
Y038874D01*
X085290D01*
Y038606D01*
D02*
G37*
G36*
X085417Y038204D02*
X085290D01*
Y038338D01*
X085417D01*
Y038204D01*
D02*
G37*
G36*
X085290Y037263D02*
X085164D01*
Y037531D01*
X085290D01*
Y037263D01*
D02*
G37*
G36*
X085545Y037265D02*
X085672D01*
Y037130D01*
X085292D01*
Y037265D01*
X085418D01*
Y037533D01*
X085292D01*
Y037668D01*
X085545D01*
Y037265D01*
D02*
G37*
G36*
X085800Y037935D02*
X085673D01*
Y037801D01*
X085290D01*
Y037935D01*
X085164D01*
Y038203D01*
X085290D01*
Y037936D01*
X085673D01*
Y038203D01*
X085800D01*
Y037935D01*
D02*
G37*
G36*
Y037263D02*
X085673D01*
Y037531D01*
X085800D01*
Y037263D01*
D02*
G37*
G36*
X098833Y022850D02*
X098438D01*
Y022890D01*
X098395D01*
Y023077D01*
X098833D01*
Y022850D01*
D02*
G37*
G36*
X089740D02*
X089540D01*
Y022887D01*
X089500D01*
Y023452D01*
X089740D01*
Y022850D01*
D02*
G37*
G36*
X096437Y047358D02*
X096766D01*
Y047169D01*
X096437D01*
Y046856D01*
X096237D01*
Y047169D01*
X095908D01*
Y047358D01*
X096237D01*
Y047671D01*
X096437D01*
Y047358D01*
D02*
G37*
G36*
X095100Y047356D02*
X095262D01*
Y047046D01*
X095392D01*
Y047010D01*
X095429D01*
Y046700D01*
X095229D01*
Y047010D01*
X095062D01*
Y047325D01*
X094900D01*
Y047827D01*
X095100D01*
Y047356D01*
D02*
G37*
G36*
X091158Y023263D02*
X091355D01*
Y022847D01*
X091158D01*
Y022890D01*
X091115D01*
Y023225D01*
X090565D01*
Y022890D01*
X091115D01*
Y022847D01*
X091158D01*
Y022662D01*
X090960D01*
Y022515D01*
X091158D01*
Y022327D01*
X091355D01*
Y022100D01*
X091115D01*
Y022287D01*
X090918D01*
Y022473D01*
X090720D01*
Y022662D01*
X090565D01*
Y022095D01*
X090325Y022100D01*
Y023452D01*
X091158D01*
Y023263D01*
D02*
G37*
G36*
X095805Y022887D02*
X096005D01*
Y022100D01*
X095370D01*
Y022287D01*
X095173D01*
Y022515D01*
X095367D01*
Y022475D01*
X095413D01*
Y022327D01*
X095765D01*
Y022475D01*
X095413D01*
Y022515D01*
X095367D01*
Y022703D01*
X095765D01*
Y022850D01*
X095367D01*
Y023077D01*
X095805D01*
Y022887D01*
D02*
G37*
G36*
X094388Y022100D02*
X093750D01*
Y022285D01*
X093555D01*
Y023077D01*
X093795D01*
Y022327D01*
X094148D01*
Y023077D01*
X094388D01*
Y022100D01*
D02*
G37*
G36*
X092168Y022890D02*
X092367D01*
Y022475D01*
X091775D01*
Y022327D01*
X092168D01*
Y022100D01*
X091730D01*
Y022287D01*
X091535D01*
Y022890D01*
X091730D01*
Y022850D01*
X091775D01*
Y022703D01*
X092128D01*
Y022850D01*
X091775D01*
Y022890D01*
X091730D01*
Y023077D01*
X092168D01*
Y022890D01*
D02*
G37*
G36*
X089500Y022850D02*
X089540D01*
Y022473D01*
X089345D01*
Y022515D01*
X089300D01*
Y022887D01*
X089500D01*
Y022850D01*
D02*
G37*
G36*
X085800Y032700D02*
X084909D01*
Y032835D01*
X085673D01*
Y033236D01*
X085800D01*
Y032700D01*
D02*
G37*
G36*
X090858Y047325D02*
X090692D01*
Y047356D01*
X090658D01*
Y047827D01*
X090858D01*
Y047325D01*
D02*
G37*
G36*
X085035Y033505D02*
X084909D01*
Y033640D01*
X085035D01*
Y033505D01*
D02*
G37*
G36*
X085800D02*
X085290D01*
Y033371D01*
X085164D01*
Y033640D01*
X085800D01*
Y033505D01*
D02*
G37*
G36*
X091702Y047169D02*
X091008D01*
Y047358D01*
X091702D01*
Y047169D01*
D02*
G37*
G36*
X095758Y047325D02*
X095592D01*
Y047356D01*
X095558D01*
Y047827D01*
X095758D01*
Y047325D01*
D02*
G37*
G36*
X095558D02*
X095592D01*
Y047010D01*
X095429D01*
Y047046D01*
X095392D01*
Y047356D01*
X095558D01*
Y047325D01*
D02*
G37*
G36*
X090658D02*
X090692D01*
Y047010D01*
X090529D01*
Y047046D01*
X090492D01*
Y047356D01*
X090658D01*
Y047325D01*
D02*
G37*
G36*
X090200Y047356D02*
X090362D01*
Y047046D01*
X090492D01*
Y047010D01*
X090529D01*
Y046700D01*
X090329D01*
Y047010D01*
X090162D01*
Y047325D01*
X090000D01*
Y047827D01*
X090200D01*
Y047356D01*
D02*
G37*
G36*
X085290Y039279D02*
X085800D01*
Y039144D01*
X085164D01*
Y039547D01*
X085290D01*
Y039279D01*
D02*
G37*
G36*
X091768Y048987D02*
X091967D01*
Y048200D01*
X091333D01*
Y048387D01*
X091135D01*
Y048615D01*
X091330D01*
Y048575D01*
X091375D01*
Y048428D01*
X091728D01*
Y048575D01*
X091375D01*
Y048615D01*
X091330D01*
Y048802D01*
X091728D01*
Y048950D01*
X091330D01*
Y049177D01*
X091768D01*
Y048987D01*
D02*
G37*
G36*
X087890Y048573D02*
X087930D01*
Y048387D01*
X087735D01*
Y048428D01*
X087690D01*
Y048615D01*
X087890D01*
Y048573D01*
D02*
G37*
G36*
X089100Y048950D02*
X089140D01*
Y048573D01*
X088945D01*
Y048615D01*
X088900D01*
Y048987D01*
X089100D01*
Y048950D01*
D02*
G37*
G36*
X096613Y048015D02*
X096412D01*
Y048053D01*
X096372D01*
Y048200D01*
X095975D01*
Y048385D01*
X095780D01*
Y049177D01*
X096020D01*
Y048428D01*
X096372D01*
Y049177D01*
X096613D01*
Y048015D01*
D02*
G37*
G36*
X095010Y048990D02*
X095165D01*
Y048950D01*
X095208D01*
Y048762D01*
X095010D01*
Y048200D01*
X094770D01*
Y049177D01*
X095010D01*
Y048990D01*
D02*
G37*
G36*
X088550Y048987D02*
X088745D01*
Y048615D01*
X088900D01*
Y048573D01*
X088945D01*
Y048200D01*
X088705D01*
Y048573D01*
X088505D01*
Y048950D01*
X088310D01*
Y049552D01*
X088550D01*
Y048987D01*
D02*
G37*
G36*
X087690Y048387D02*
X087735D01*
Y048200D01*
X087295D01*
Y048428D01*
X087690D01*
Y048387D01*
D02*
G37*
G36*
X093390Y049177D02*
X093588D01*
Y048950D01*
X093390D01*
Y048428D01*
X093588D01*
Y048200D01*
X093345D01*
Y048385D01*
X093150D01*
Y048950D01*
X092952D01*
Y049177D01*
X093150D01*
Y049552D01*
X093390D01*
Y049177D01*
D02*
G37*
G36*
X092583D02*
X092780D01*
Y048950D01*
X092583D01*
Y048428D01*
X092780D01*
Y048200D01*
X092537D01*
Y048385D01*
X092343D01*
Y048950D01*
X092145D01*
Y049177D01*
X092343D01*
Y049552D01*
X092583D01*
Y049177D01*
D02*
G37*
G36*
X077602Y031002D02*
X077764D01*
Y030812D01*
X077602D01*
Y030500D01*
X077402D01*
Y030812D01*
X076908D01*
Y031158D01*
X077071D01*
Y031125D01*
X077108D01*
Y031002D01*
X077402D01*
Y031281D01*
X077273D01*
Y031312D01*
X077237D01*
Y031471D01*
X077402D01*
Y031627D01*
X077602D01*
Y031002D01*
D02*
G37*
G36*
X076427Y031312D02*
X076594D01*
Y031002D01*
X076758D01*
Y030500D01*
X076558D01*
Y030812D01*
X076100D01*
Y030500D01*
X075900D01*
Y031002D01*
X076065D01*
Y031312D01*
X076227D01*
Y031281D01*
X076265D01*
Y031002D01*
X076394D01*
Y031281D01*
X076265D01*
Y031312D01*
X076227D01*
Y031627D01*
X076427D01*
Y031312D01*
D02*
G37*
G36*
X078610Y031627D02*
X078772D01*
Y031437D01*
X078610D01*
Y031314D01*
X078772D01*
Y031125D01*
X078610D01*
Y030969D01*
X078410D01*
Y031125D01*
X078281D01*
Y030969D01*
X078081D01*
Y031125D01*
X077916D01*
Y031314D01*
X078081D01*
Y031437D01*
X077916D01*
Y031627D01*
X078081D01*
Y031783D01*
X078281D01*
Y031627D01*
X078410D01*
Y031783D01*
X078610D01*
Y031627D01*
D02*
G37*
G36*
X077237Y031281D02*
X077273D01*
Y031125D01*
X077108D01*
Y031158D01*
X077071D01*
Y031312D01*
X077237D01*
Y031281D01*
D02*
G37*
G36*
X087930Y049365D02*
X088130D01*
Y048573D01*
X087930D01*
Y048615D01*
X087890D01*
Y048762D01*
X087295D01*
Y048950D01*
X087100D01*
Y049365D01*
X087295D01*
Y049325D01*
X087340D01*
Y048990D01*
X087890D01*
Y049325D01*
X087340D01*
Y049365D01*
X087295D01*
Y049552D01*
X087930D01*
Y049365D01*
D02*
G37*
G36*
X090755Y049363D02*
X090955D01*
Y048948D01*
X090755D01*
Y048990D01*
X090715D01*
Y049325D01*
X090165D01*
Y048990D01*
X090715D01*
Y048948D01*
X090755D01*
Y048800D01*
X090955D01*
Y048385D01*
X090755D01*
Y048428D01*
X090715D01*
Y048762D01*
X090165D01*
Y048428D01*
X090715D01*
Y048385D01*
X090755D01*
Y048200D01*
X089925D01*
Y049552D01*
X090755D01*
Y049363D01*
D02*
G37*
G36*
X094392Y048990D02*
X094593D01*
Y048575D01*
X094000D01*
Y048428D01*
X094392D01*
Y048200D01*
X093955D01*
Y048387D01*
X093760D01*
Y048990D01*
X093955D01*
Y048950D01*
X094000D01*
Y048802D01*
X094353D01*
Y048950D01*
X094000D01*
Y048990D01*
X093955D01*
Y049177D01*
X094392D01*
Y048990D01*
D02*
G37*
G36*
X095603Y048950D02*
X095208D01*
Y048990D01*
X095165D01*
Y049177D01*
X095603D01*
Y048950D01*
D02*
G37*
G36*
X089340D02*
X089140D01*
Y048987D01*
X089100D01*
Y049552D01*
X089340D01*
Y048950D01*
D02*
G37*
G36*
X085800Y041023D02*
X085292D01*
Y041158D01*
X085800D01*
Y041023D01*
D02*
G37*
G36*
X085290Y040755D02*
X085164D01*
Y041022D01*
X085290D01*
Y040755D01*
D02*
G37*
G36*
Y041423D02*
X085164D01*
Y041691D01*
X085290D01*
Y041423D01*
D02*
G37*
G36*
X085545Y041425D02*
X085672D01*
Y041290D01*
X085292D01*
Y041425D01*
X085418D01*
Y041693D01*
X085292D01*
Y041828D01*
X085545D01*
Y041425D01*
D02*
G37*
G36*
X085800Y040620D02*
X085292D01*
Y040753D01*
X085800D01*
Y040620D01*
D02*
G37*
G36*
X085290Y039682D02*
X085164D01*
Y039949D01*
X085290D01*
Y039682D01*
D02*
G37*
G36*
X085800Y039547D02*
X085292D01*
Y039681D01*
X085800D01*
Y039547D01*
D02*
G37*
G36*
X085290Y040352D02*
X085800D01*
Y040217D01*
X085164D01*
Y040620D01*
X085290D01*
Y040352D01*
D02*
G37*
G36*
X085800Y039950D02*
X085292D01*
Y040085D01*
X085800D01*
Y039950D01*
D02*
G37*
G36*
Y043437D02*
X085673D01*
Y043706D01*
X085800D01*
Y043437D01*
D02*
G37*
G36*
X085290D02*
X085164D01*
Y043706D01*
X085290D01*
Y043437D01*
D02*
G37*
G36*
X096372Y048015D02*
X096412D01*
Y047825D01*
X095975D01*
Y048053D01*
X096372D01*
Y048015D01*
D02*
G37*
G36*
X085800Y044109D02*
X085673D01*
Y043975D01*
X085292D01*
Y044110D01*
X085673D01*
Y044377D01*
X085290D01*
Y044109D01*
X085164D01*
Y044377D01*
X084909D01*
Y044512D01*
X085800D01*
Y044109D01*
D02*
G37*
G36*
X085545Y043439D02*
X085672D01*
Y043304D01*
X085292D01*
Y043439D01*
X085418D01*
Y043707D01*
X085292D01*
Y043842D01*
X085545D01*
Y043439D01*
D02*
G37*
G36*
X085290Y042096D02*
X085800D01*
Y041961D01*
X085164D01*
Y042363D01*
X085290D01*
Y042096D01*
D02*
G37*
G36*
X085800Y041423D02*
X085673D01*
Y041691D01*
X085800D01*
Y041423D01*
D02*
G37*
G36*
Y042766D02*
X085673D01*
Y042633D01*
X085292D01*
Y042768D01*
X085673D01*
Y043034D01*
X085290D01*
Y042766D01*
X085164D01*
Y043034D01*
X084909D01*
Y043169D01*
X085800D01*
Y042766D01*
D02*
G37*
G36*
Y042363D02*
X085292D01*
Y042498D01*
X085800D01*
Y042363D01*
D02*
G37*
G36*
X093378Y021915D02*
X093177D01*
Y021953D01*
X093138D01*
Y022100D01*
X092740D01*
Y022285D01*
X092545D01*
Y022887D01*
X092743D01*
Y022850D01*
X092785D01*
Y022327D01*
X093138D01*
Y022850D01*
X092785D01*
Y022887D01*
X092743D01*
Y023077D01*
X093378D01*
Y021915D01*
D02*
G37*
G36*
X097043Y015825D02*
X096450D01*
Y015490D01*
X096845D01*
Y015263D01*
X096450D01*
Y014700D01*
X096210D01*
Y016053D01*
X097043D01*
Y015825D01*
D02*
G37*
G36*
X095195D02*
X095240D01*
Y014928D01*
X095790D01*
Y014885D01*
X095830D01*
Y014700D01*
X095195D01*
Y014885D01*
X095000D01*
Y015862D01*
X095195D01*
Y015825D01*
D02*
G37*
G36*
X095830Y015862D02*
X096030D01*
Y014885D01*
X095830D01*
Y014928D01*
X095790D01*
Y015825D01*
X095240D01*
Y015862D01*
X095195D01*
Y016053D01*
X095830D01*
Y015862D01*
D02*
G37*
G36*
X098053Y015825D02*
X097460D01*
Y015490D01*
X097855D01*
Y015263D01*
X097460D01*
Y014700D01*
X097220D01*
Y016053D01*
X098053D01*
Y015825D01*
D02*
G37*
G36*
X026919Y013253D02*
X027186D01*
Y012950D01*
X026866D01*
Y013200D01*
X026132D01*
Y013253D01*
X026072D01*
Y013503D01*
X026919D01*
Y013253D01*
D02*
G37*
G36*
X031765Y013000D02*
X032032D01*
Y012503D01*
X032295D01*
Y011700D01*
X031975D01*
Y012200D01*
X031242D01*
Y011700D01*
X030922D01*
Y012503D01*
X031185D01*
Y013000D01*
X031445D01*
Y012950D01*
X031505D01*
Y012503D01*
X031712D01*
Y012950D01*
X031505D01*
Y013000D01*
X031445D01*
Y013503D01*
X031765D01*
Y013000D01*
D02*
G37*
G36*
X030672Y011700D02*
X030352D01*
Y012200D01*
X030089D01*
Y012447D01*
X029829D01*
Y012697D01*
X029565D01*
Y012950D01*
X029359D01*
Y011700D01*
X029039D01*
Y013503D01*
X029359D01*
Y013253D01*
X029622D01*
Y013000D01*
X029882D01*
Y012753D01*
X030149D01*
Y012503D01*
X030352D01*
Y013503D01*
X030672D01*
Y011700D01*
D02*
G37*
G36*
X036871Y013250D02*
X037135D01*
Y012697D01*
X036871D01*
Y012753D01*
X036815D01*
Y013200D01*
X036081D01*
Y012753D01*
X036815D01*
Y012697D01*
X036871D01*
Y012450D01*
X036608D01*
Y012253D01*
X036871D01*
Y012003D01*
X037135D01*
Y011700D01*
X036815D01*
Y011950D01*
X036551D01*
Y012197D01*
X036288D01*
Y012450D01*
X036081D01*
Y011693D01*
X035761Y011700D01*
Y013503D01*
X036871D01*
Y013250D01*
D02*
G37*
G36*
X025309D02*
X025572D01*
Y012697D01*
X025309D01*
Y012753D01*
X025252D01*
Y013200D01*
X024519D01*
Y012753D01*
X025252D01*
Y012697D01*
X025309D01*
Y012450D01*
X025046D01*
Y012253D01*
X025309D01*
Y012003D01*
X025572D01*
Y011700D01*
X025252D01*
Y011950D01*
X024989D01*
Y012197D01*
X024726D01*
Y012450D01*
X024519D01*
Y011693D01*
X024199Y011700D01*
Y013503D01*
X025309D01*
Y013250D01*
D02*
G37*
G36*
X033365Y029987D02*
X033520D01*
Y029950D01*
X033560D01*
Y029200D01*
X033323D01*
Y029950D01*
X032970D01*
Y029200D01*
X032730D01*
Y030178D01*
X033365D01*
Y029987D01*
D02*
G37*
G36*
X031960Y030178D02*
X032352D01*
Y029987D01*
X032552D01*
Y029200D01*
X032313D01*
Y029950D01*
X031960D01*
Y029200D01*
X031720D01*
Y030552D01*
X031960D01*
Y030178D01*
D02*
G37*
G36*
X021042Y029987D02*
X021242D01*
Y029385D01*
X021042D01*
Y029427D01*
X021003D01*
Y029950D01*
X020650D01*
Y029427D01*
X021003D01*
Y029385D01*
X021042D01*
Y029200D01*
X020650D01*
Y028825D01*
X020410D01*
Y030178D01*
X021042D01*
Y029987D01*
D02*
G37*
G36*
X033955D02*
X034155D01*
Y029200D01*
X033915D01*
Y029950D01*
X033560D01*
Y029987D01*
X033520D01*
Y030178D01*
X033955D01*
Y029987D01*
D02*
G37*
G36*
X030905Y029950D02*
X030950D01*
Y029427D01*
X031302D01*
Y029385D01*
X031342D01*
Y029200D01*
X030905D01*
Y029385D01*
X030710D01*
Y029987D01*
X030905D01*
Y029950D01*
D02*
G37*
G36*
X023680Y029802D02*
X023835D01*
Y029760D01*
X023877D01*
Y029615D01*
X024075D01*
Y029427D01*
X024272D01*
Y029200D01*
X024032D01*
Y029388D01*
X023835D01*
Y029575D01*
X023680D01*
Y029200D01*
X023440D01*
Y030552D01*
X023680D01*
Y029802D01*
D02*
G37*
G36*
X019440Y029427D02*
X019990D01*
Y029388D01*
X020030D01*
Y029200D01*
X019395D01*
Y029388D01*
X019200D01*
Y029615D01*
X019440D01*
Y029427D01*
D02*
G37*
G36*
X029290Y029762D02*
X029335D01*
Y029427D01*
X029885D01*
Y029385D01*
X029925D01*
Y029200D01*
X029290D01*
Y029385D01*
X029095D01*
Y029800D01*
X029290D01*
Y029762D01*
D02*
G37*
G36*
X025700Y029990D02*
X025855D01*
Y029950D01*
X025898D01*
Y029762D01*
X025700D01*
Y029200D01*
X025460D01*
Y030178D01*
X025700D01*
Y029990D01*
D02*
G37*
G36*
X022846Y013200D02*
X022906D01*
Y012003D01*
X023639D01*
Y011947D01*
X023693D01*
Y011700D01*
X022846D01*
Y011947D01*
X022586D01*
Y013250D01*
X022846D01*
Y013200D01*
D02*
G37*
G36*
X019946Y012003D02*
X020680D01*
Y011950D01*
X020733D01*
Y011700D01*
X019886Y011693D01*
Y011950D01*
X019626D01*
Y012253D01*
X019946D01*
Y012003D01*
D02*
G37*
G36*
X033908Y013200D02*
X033382D01*
Y011700D01*
X033062D01*
Y013200D01*
X032535D01*
Y013503D01*
X033908D01*
Y013200D01*
D02*
G37*
G36*
X026072D02*
X026132D01*
Y012003D01*
X026866D01*
Y011947D01*
X026919D01*
Y011700D01*
X026072D01*
Y011947D01*
X025812D01*
Y013253D01*
X026072D01*
Y013200D01*
D02*
G37*
G36*
X018333Y012003D02*
X019066D01*
Y011950D01*
X019120D01*
Y011700D01*
X018273Y011693D01*
Y011950D01*
X018013D01*
Y012253D01*
X018333D01*
Y012003D01*
D02*
G37*
G36*
X040535Y044190D02*
X040930D01*
Y043962D01*
X040535D01*
Y043587D01*
X040295D01*
Y043962D01*
X039900D01*
Y044190D01*
X040295D01*
Y044565D01*
X040535D01*
Y044190D01*
D02*
G37*
G36*
X040833Y042562D02*
X040000D01*
Y042790D01*
X040833D01*
Y042562D01*
D02*
G37*
G36*
X016720Y012003D02*
X017453D01*
Y011950D01*
X017507D01*
Y011700D01*
X016660Y011693D01*
Y011950D01*
X016400D01*
Y012253D01*
X016720D01*
Y012003D01*
D02*
G37*
G36*
X084700Y013058D02*
X084675D01*
Y013153D01*
X084579Y013058D01*
X084544D01*
X084625Y013136D01*
X084541Y013250D01*
X084575D01*
X084643Y013153D01*
X084675Y013183D01*
Y013250D01*
X084700D01*
Y013058D01*
D02*
G37*
G36*
X021000Y013200D02*
X019946D01*
Y013003D01*
X020733D01*
Y012753D01*
X021000D01*
Y011950D01*
X020733D01*
Y012003D01*
X020680D01*
Y012700D01*
X019626D01*
Y013503D01*
X021000D01*
Y013200D01*
D02*
G37*
G36*
X019386D02*
X018333D01*
Y013003D01*
X019120D01*
Y012753D01*
X019386D01*
Y011950D01*
X019120D01*
Y012003D01*
X019066D01*
Y012700D01*
X018013D01*
Y013503D01*
X019386D01*
Y013200D01*
D02*
G37*
G36*
X028269Y013000D02*
X028535D01*
Y012503D01*
X028799D01*
Y011700D01*
X028479D01*
Y012200D01*
X027746D01*
Y011700D01*
X027426D01*
Y012503D01*
X027689D01*
Y013000D01*
X027949D01*
Y012950D01*
X028009D01*
Y012503D01*
X028215D01*
Y012950D01*
X028009D01*
Y013000D01*
X027949D01*
Y013503D01*
X028269D01*
Y013000D01*
D02*
G37*
G36*
X022349Y012450D02*
X021240D01*
Y012753D01*
X022349D01*
Y012450D01*
D02*
G37*
G36*
X017773Y013200D02*
X016720D01*
Y013003D01*
X017507D01*
Y012753D01*
X017773D01*
Y011950D01*
X017507D01*
Y012003D01*
X017453D01*
Y012700D01*
X016400D01*
Y013503D01*
X017773D01*
Y013200D01*
D02*
G37*
G36*
X023693Y013250D02*
X023959D01*
Y011947D01*
X023693D01*
Y012003D01*
X023639D01*
Y013200D01*
X022906D01*
Y013250D01*
X022846D01*
Y013503D01*
X023693D01*
Y013250D01*
D02*
G37*
G36*
X034408Y013200D02*
X034468D01*
Y012003D01*
X035201D01*
Y011947D01*
X035255D01*
Y011700D01*
X034408D01*
Y011947D01*
X034148D01*
Y013250D01*
X034408D01*
Y013200D01*
D02*
G37*
G36*
X035255Y013250D02*
X035521D01*
Y011947D01*
X035255D01*
Y012003D01*
X035201D01*
Y013200D01*
X034468D01*
Y013250D01*
X034408D01*
Y013503D01*
X035255D01*
Y013250D01*
D02*
G37*
G36*
X027186Y011947D02*
X026919D01*
Y012003D01*
X026866D01*
Y012200D01*
X026602D01*
Y012503D01*
X027186D01*
Y011947D01*
D02*
G37*
G36*
X029290Y030325D02*
X029335D01*
Y029990D01*
X029885D01*
Y029948D01*
X029925D01*
Y029800D01*
X030125D01*
Y029385D01*
X029925D01*
Y029427D01*
X029885D01*
Y029762D01*
X029335D01*
Y029800D01*
X029290D01*
Y029948D01*
X029095D01*
Y030363D01*
X029290D01*
Y030325D01*
D02*
G37*
G36*
X042632Y049075D02*
X042832D01*
Y048703D01*
X043030D01*
Y048100D01*
X042790D01*
Y048475D01*
X042240D01*
Y048100D01*
X042000D01*
Y048703D01*
X042197D01*
Y049075D01*
X042393D01*
Y049037D01*
X042438D01*
Y048703D01*
X042593D01*
Y049037D01*
X042438D01*
Y049075D01*
X042393D01*
Y049453D01*
X042632D01*
Y049075D01*
D02*
G37*
G36*
X045052Y048100D02*
X044415D01*
Y048285D01*
X044220D01*
Y048888D01*
X044415D01*
Y048850D01*
X044460D01*
Y048327D01*
X044812D01*
Y048850D01*
X044460D01*
Y048888D01*
X044415D01*
Y049078D01*
X044812D01*
Y049453D01*
X045052D01*
Y048100D01*
D02*
G37*
G36*
X045668Y049225D02*
X045427D01*
Y049453D01*
X045668D01*
Y049225D01*
D02*
G37*
G36*
X047885Y049075D02*
X048085D01*
Y048703D01*
X048282D01*
Y048100D01*
X048042D01*
Y048475D01*
X047492D01*
Y048100D01*
X047252D01*
Y048703D01*
X047450D01*
Y049075D01*
X047645D01*
Y049037D01*
X047690D01*
Y048703D01*
X047845D01*
Y049037D01*
X047690D01*
Y049075D01*
X047645D01*
Y049453D01*
X047885D01*
Y049075D01*
D02*
G37*
G36*
X044043Y048100D02*
X043405D01*
Y048285D01*
X043210D01*
Y049078D01*
X043450D01*
Y048327D01*
X043802D01*
Y049078D01*
X044043D01*
Y048100D01*
D02*
G37*
G36*
X049688Y048888D02*
X049887D01*
Y048100D01*
X049647D01*
Y048850D01*
X049292D01*
Y048888D01*
X049253D01*
Y049078D01*
X049688D01*
Y048888D01*
D02*
G37*
G36*
X049097D02*
X049253D01*
Y048850D01*
X049292D01*
Y048100D01*
X049055D01*
Y048850D01*
X048703D01*
Y048100D01*
X048463D01*
Y049078D01*
X049097D01*
Y048888D01*
D02*
G37*
G36*
X050708D02*
X050908D01*
Y048285D01*
X050708D01*
Y048327D01*
X050668D01*
Y048850D01*
X050315D01*
Y048327D01*
X050668D01*
Y048285D01*
X050708D01*
Y048100D01*
X050315D01*
Y047725D01*
X050075D01*
Y049078D01*
X050708D01*
Y048888D01*
D02*
G37*
G36*
X046470D02*
X046667D01*
Y048285D01*
X046470D01*
Y048327D01*
X046430D01*
Y048850D01*
X046077D01*
Y048888D01*
X046033D01*
Y049078D01*
X046470D01*
Y048888D01*
D02*
G37*
G36*
X098240Y022890D02*
X098395D01*
Y022850D01*
X098438D01*
Y022662D01*
X098240D01*
Y022100D01*
X098000D01*
Y023077D01*
X098240D01*
Y022890D01*
D02*
G37*
G36*
X097185Y022850D02*
X097230D01*
Y022327D01*
X097583D01*
Y022285D01*
X097622D01*
Y022100D01*
X097185D01*
Y022285D01*
X096990D01*
Y022887D01*
X097185D01*
Y022850D01*
D02*
G37*
G36*
X088530Y023225D02*
X087740D01*
Y023077D01*
X088330D01*
Y022890D01*
X088530D01*
Y022287D01*
X088330D01*
Y022327D01*
X088290D01*
Y022850D01*
X087500D01*
Y023452D01*
X088530D01*
Y023225D01*
D02*
G37*
G36*
X097622Y022887D02*
X097820D01*
Y022285D01*
X097622D01*
Y022327D01*
X097583D01*
Y022850D01*
X097230D01*
Y022887D01*
X097185D01*
Y023077D01*
X097622D01*
Y022887D01*
D02*
G37*
G36*
X096620Y023077D02*
X096818D01*
Y022850D01*
X096620D01*
Y022327D01*
X096818D01*
Y022100D01*
X096575D01*
Y022285D01*
X096380D01*
Y022850D01*
X096182D01*
Y023077D01*
X096380D01*
Y023452D01*
X096620D01*
Y023077D01*
D02*
G37*
G36*
X087740Y022327D02*
X088290D01*
Y022287D01*
X088330D01*
Y022100D01*
X087695Y022095D01*
Y022287D01*
X087500D01*
Y022515D01*
X087740D01*
Y022327D01*
D02*
G37*
G36*
X093138Y021915D02*
X093177D01*
Y021725D01*
X092740D01*
Y021953D01*
X093138D01*
Y021915D01*
D02*
G37*
G36*
X095002Y022100D02*
X094762D01*
Y023225D01*
X094565D01*
Y023452D01*
X095002D01*
Y022100D01*
D02*
G37*
G36*
X088950Y022887D02*
X089145D01*
Y022515D01*
X089300D01*
Y022473D01*
X089345D01*
Y022100D01*
X089105D01*
Y022473D01*
X088905D01*
Y022850D01*
X088710D01*
Y023452D01*
X088950D01*
Y022887D01*
D02*
G37*
G36*
X025082Y029990D02*
X025282D01*
Y029575D01*
X024690D01*
Y029427D01*
X025082D01*
Y029200D01*
X024645D01*
Y029388D01*
X024450D01*
Y029990D01*
X024645D01*
Y029950D01*
X024690D01*
Y029802D01*
X025043D01*
Y029950D01*
X024690D01*
Y029990D01*
X024645D01*
Y030178D01*
X025082D01*
Y029990D01*
D02*
G37*
G36*
X022053D02*
X022253D01*
Y029575D01*
X021660D01*
Y029427D01*
X022053D01*
Y029200D01*
X021615D01*
Y029388D01*
X021420D01*
Y029990D01*
X021615D01*
Y029950D01*
X021660D01*
Y029802D01*
X022013D01*
Y029950D01*
X021660D01*
Y029990D01*
X021615D01*
Y030178D01*
X022053D01*
Y029990D01*
D02*
G37*
G36*
X029925Y030363D02*
X030125D01*
Y029948D01*
X029925D01*
Y029990D01*
X029885D01*
Y030325D01*
X029335D01*
Y030363D01*
X029290D01*
Y030552D01*
X029925D01*
Y030363D01*
D02*
G37*
G36*
X027708Y029802D02*
X027903D01*
Y029575D01*
X027708D01*
Y029200D01*
X027468D01*
Y029575D01*
X026875D01*
Y029990D01*
X027070D01*
Y029950D01*
X027115D01*
Y029802D01*
X027468D01*
Y030138D01*
X027313D01*
Y030175D01*
X027270D01*
Y030365D01*
X027468D01*
Y030552D01*
X027708D01*
Y029802D01*
D02*
G37*
G36*
X028918Y029762D02*
X028085D01*
Y029990D01*
X028918D01*
Y029762D01*
D02*
G37*
G36*
X019395Y030325D02*
X019440D01*
Y029987D01*
X020030D01*
Y029802D01*
X020230D01*
Y029388D01*
X020030D01*
Y029427D01*
X019990D01*
Y029760D01*
X019395D01*
Y029950D01*
X019200D01*
Y030365D01*
X019395D01*
Y030325D01*
D02*
G37*
G36*
X031342Y029987D02*
X031540D01*
Y029385D01*
X031342D01*
Y029427D01*
X031302D01*
Y029950D01*
X030950D01*
Y029987D01*
X030905D01*
Y030178D01*
X031342D01*
Y029987D01*
D02*
G37*
G36*
X024032Y029950D02*
X024075D01*
Y029760D01*
X023877D01*
Y029802D01*
X023835D01*
Y029987D01*
X024032D01*
Y029950D01*
D02*
G37*
G36*
X023063Y029987D02*
X023263D01*
Y029200D01*
X022627D01*
Y029388D01*
X022430D01*
Y029615D01*
X022625D01*
Y029575D01*
X022670D01*
Y029427D01*
X023022D01*
Y029575D01*
X022670D01*
Y029615D01*
X022625D01*
Y029802D01*
X023022D01*
Y029950D01*
X022625D01*
Y030178D01*
X023063D01*
Y029987D01*
D02*
G37*
G36*
X093135Y014700D02*
X092895D01*
Y015075D01*
X092697D01*
Y015260D01*
X092502D01*
Y015447D01*
X092305D01*
Y015638D01*
X092150D01*
Y014700D01*
X091910D01*
Y016053D01*
X092150D01*
Y015865D01*
X092347D01*
Y015675D01*
X092542D01*
Y015490D01*
X092743D01*
Y015302D01*
X092895D01*
Y016053D01*
X093135D01*
Y014700D01*
D02*
G37*
G36*
X091530Y015862D02*
X091730D01*
Y014885D01*
X091530D01*
Y014928D01*
X091490D01*
Y015825D01*
X090940D01*
Y015862D01*
X090895D01*
Y016053D01*
X091530D01*
Y015862D01*
D02*
G37*
G36*
X046033Y048850D02*
X046077D01*
Y048327D01*
X046430D01*
Y048285D01*
X046470D01*
Y048100D01*
X046033D01*
Y048285D01*
X045837D01*
Y048888D01*
X046033D01*
Y048850D01*
D02*
G37*
G36*
X045668Y048100D02*
X045427D01*
Y048850D01*
X045230D01*
Y049078D01*
X045668D01*
Y048100D01*
D02*
G37*
G36*
X090895Y015825D02*
X090940D01*
Y014928D01*
X091490D01*
Y014885D01*
X091530D01*
Y014700D01*
X090895D01*
Y014885D01*
X090700D01*
Y015862D01*
X090895D01*
Y015825D01*
D02*
G37*
G36*
X026293Y029950D02*
X025898D01*
Y029990D01*
X025855D01*
Y030178D01*
X026293D01*
Y029950D01*
D02*
G37*
G36*
X024272D02*
X024075D01*
Y029987D01*
X024032D01*
Y030178D01*
X024272D01*
Y029950D01*
D02*
G37*
G36*
X020030Y030365D02*
X020230D01*
Y030138D01*
X019990D01*
Y030325D01*
X019440D01*
Y030365D01*
X019395D01*
Y030552D01*
X020030D01*
Y030365D01*
D02*
G37*
G36*
X027270Y030138D02*
X027313D01*
Y029950D01*
X027115D01*
Y029990D01*
X027070D01*
Y030175D01*
X027270D01*
Y030138D01*
D02*
G37*
G36*
X049737Y031281D02*
X049773D01*
Y031125D01*
X049608D01*
Y031158D01*
X049571D01*
Y031312D01*
X049737D01*
Y031281D01*
D02*
G37*
G36*
X049092Y031471D02*
X049258D01*
Y031281D01*
X049058D01*
Y031437D01*
X048600D01*
Y031471D01*
X048562D01*
Y031627D01*
X049092D01*
Y031471D01*
D02*
G37*
G36*
X067165Y049125D02*
X066770D01*
Y048000D01*
X066530D01*
Y049125D01*
X066135D01*
Y049352D01*
X067165D01*
Y049125D01*
D02*
G37*
G36*
X067783Y048000D02*
X067543D01*
Y048750D01*
X067345D01*
Y048977D01*
X067783D01*
Y048000D01*
D02*
G37*
G36*
X049258Y030656D02*
X049092D01*
Y030690D01*
X049058D01*
Y030846D01*
X049258D01*
Y030656D01*
D02*
G37*
G36*
X050102Y031002D02*
X050264D01*
Y030812D01*
X050102D01*
Y030500D01*
X049902D01*
Y030812D01*
X049408D01*
Y031158D01*
X049571D01*
Y031125D01*
X049608D01*
Y031002D01*
X049902D01*
Y031281D01*
X049773D01*
Y031312D01*
X049737D01*
Y031471D01*
X049902D01*
Y031627D01*
X050102D01*
Y031002D01*
D02*
G37*
G36*
X046358Y032556D02*
X046192D01*
Y032590D01*
X046158D01*
Y032746D01*
X046358D01*
Y032556D01*
D02*
G37*
G36*
X047202Y032902D02*
X047364D01*
Y032712D01*
X047202D01*
Y032400D01*
X047002D01*
Y032712D01*
X046508D01*
Y033058D01*
X046671D01*
Y033025D01*
X046708D01*
Y032902D01*
X047002D01*
Y033181D01*
X046873D01*
Y033212D01*
X046837D01*
Y033371D01*
X047002D01*
Y033527D01*
X047202D01*
Y032902D01*
D02*
G37*
G36*
X046837Y033181D02*
X046873D01*
Y033025D01*
X046708D01*
Y033058D01*
X046671D01*
Y033212D01*
X046837D01*
Y033181D01*
D02*
G37*
G36*
X051110Y031627D02*
X051272D01*
Y031437D01*
X051110D01*
Y031314D01*
X051272D01*
Y031125D01*
X051110D01*
Y030969D01*
X050910D01*
Y031125D01*
X050781D01*
Y030969D01*
X050581D01*
Y031125D01*
X050416D01*
Y031314D01*
X050581D01*
Y031437D01*
X050416D01*
Y031627D01*
X050581D01*
Y031783D01*
X050781D01*
Y031627D01*
X050910D01*
Y031783D01*
X051110D01*
Y031627D01*
D02*
G37*
G36*
X064760Y048228D02*
X065310D01*
Y048187D01*
X065350D01*
Y048000D01*
X064715Y047995D01*
Y048187D01*
X064520D01*
Y048415D01*
X064760D01*
Y048228D01*
D02*
G37*
G36*
X045662Y033337D02*
X045700D01*
Y032590D01*
X046158D01*
Y032556D01*
X046192D01*
Y032400D01*
X045662D01*
Y032556D01*
X045500D01*
Y033371D01*
X045662D01*
Y033337D01*
D02*
G37*
G36*
X048562Y031437D02*
X048600D01*
Y030690D01*
X049058D01*
Y030656D01*
X049092D01*
Y030500D01*
X048562D01*
Y030656D01*
X048400D01*
Y031471D01*
X048562D01*
Y031437D01*
D02*
G37*
G36*
X066118Y035287D02*
X065920D01*
Y035327D01*
X065880D01*
Y035515D01*
X066118D01*
Y035287D01*
D02*
G37*
G36*
X056710Y031627D02*
X056872D01*
Y031437D01*
X056710D01*
Y031314D01*
X056872D01*
Y031125D01*
X056710D01*
Y030969D01*
X056510D01*
Y031125D01*
X056381D01*
Y030969D01*
X056181D01*
Y031125D01*
X056016D01*
Y031314D01*
X056181D01*
Y031437D01*
X056016D01*
Y031627D01*
X056181D01*
Y031783D01*
X056381D01*
Y031627D01*
X056510D01*
Y031783D01*
X056710D01*
Y031627D01*
D02*
G37*
G36*
X052358Y032712D02*
X052394D01*
Y032554D01*
X052227D01*
Y032590D01*
X052194D01*
Y032744D01*
X052358D01*
Y032712D01*
D02*
G37*
G36*
X054527Y031469D02*
X054694D01*
Y031314D01*
X054858D01*
Y030812D01*
X054694D01*
Y030844D01*
X054658D01*
Y031279D01*
X054494D01*
Y031437D01*
X054200D01*
Y030690D01*
X054494D01*
Y030654D01*
X054527D01*
Y030500D01*
X054000D01*
Y031627D01*
X054527D01*
Y031469D01*
D02*
G37*
G36*
X055702Y031002D02*
X055864D01*
Y030812D01*
X055702D01*
Y030500D01*
X055502D01*
Y030812D01*
X055008D01*
Y031158D01*
X055171D01*
Y031125D01*
X055208D01*
Y031002D01*
X055502D01*
Y031281D01*
X055373D01*
Y031312D01*
X055337D01*
Y031471D01*
X055502D01*
Y031627D01*
X055702D01*
Y031002D01*
D02*
G37*
G36*
X055337Y031281D02*
X055373D01*
Y031125D01*
X055208D01*
Y031158D01*
X055171D01*
Y031312D01*
X055337D01*
Y031281D01*
D02*
G37*
G36*
X053037Y033181D02*
X053073D01*
Y033025D01*
X052908D01*
Y033058D01*
X052871D01*
Y033212D01*
X053037D01*
Y033181D01*
D02*
G37*
G36*
X069177Y048787D02*
X069377D01*
Y048000D01*
X069138D01*
Y048750D01*
X068783D01*
Y048787D01*
X068742D01*
Y048977D01*
X069177D01*
Y048787D01*
D02*
G37*
G36*
X068587D02*
X068742D01*
Y048750D01*
X068783D01*
Y048000D01*
X068545D01*
Y048750D01*
X068193D01*
Y048000D01*
X067952D01*
Y048977D01*
X068587D01*
Y048787D01*
D02*
G37*
G36*
X052227Y033369D02*
X052394D01*
Y033214D01*
X052558D01*
Y032712D01*
X052394D01*
Y032744D01*
X052358D01*
Y033179D01*
X052194D01*
Y033337D01*
X051900D01*
Y032590D01*
X052194D01*
Y032554D01*
X052227D01*
Y032400D01*
X051700D01*
Y033527D01*
X052227D01*
Y033369D01*
D02*
G37*
G36*
X070815Y048790D02*
X070970D01*
Y048750D01*
X071013D01*
Y048562D01*
X070815D01*
Y048000D01*
X070575D01*
Y048977D01*
X070815D01*
Y048790D01*
D02*
G37*
G36*
X053402Y032902D02*
X053564D01*
Y032712D01*
X053402D01*
Y032400D01*
X053202D01*
Y032712D01*
X052708D01*
Y033058D01*
X052871D01*
Y033025D01*
X052908D01*
Y032902D01*
X053202D01*
Y033181D01*
X053073D01*
Y033212D01*
X053037D01*
Y033371D01*
X053202D01*
Y033527D01*
X053402D01*
Y032902D01*
D02*
G37*
G36*
X063550Y048228D02*
X064100D01*
Y048187D01*
X064140D01*
Y048000D01*
X063505Y047995D01*
Y048187D01*
X063310D01*
Y048415D01*
X063550D01*
Y048228D01*
D02*
G37*
G36*
X060672Y036225D02*
X060433D01*
Y036453D01*
X060672D01*
Y036225D01*
D02*
G37*
G36*
X071137Y035850D02*
X071182D01*
Y035327D01*
X071535D01*
Y035285D01*
X071575D01*
Y035100D01*
X071137D01*
Y035285D01*
X070943D01*
Y035887D01*
X071137D01*
Y035850D01*
D02*
G37*
G36*
X067490Y036225D02*
X067533D01*
Y036037D01*
X067335D01*
Y036077D01*
X067295D01*
Y036265D01*
X067490D01*
Y036225D01*
D02*
G37*
G36*
X067730D02*
X067533D01*
Y036265D01*
X067490D01*
Y036453D01*
X067730D01*
Y036225D01*
D02*
G37*
G36*
X065118D02*
X064878D01*
Y036453D01*
X065118D01*
Y036225D01*
D02*
G37*
G36*
X066943Y035890D02*
X067098D01*
Y035850D01*
X067140D01*
Y035703D01*
X067335D01*
Y035515D01*
X067533D01*
Y035327D01*
X067730D01*
Y035100D01*
X067490D01*
Y035287D01*
X067295D01*
Y035475D01*
X067098D01*
Y035663D01*
X066943D01*
Y035100D01*
X066702D01*
Y036453D01*
X066943D01*
Y035890D01*
D02*
G37*
G36*
X070173Y036077D02*
X070565D01*
Y035887D01*
X070765D01*
Y035285D01*
X070565D01*
Y035327D01*
X070525D01*
Y035850D01*
X070173D01*
Y035327D01*
X070525D01*
Y035285D01*
X070565D01*
Y035100D01*
X069932D01*
Y036453D01*
X070173D01*
Y036077D01*
D02*
G37*
G36*
X063292Y035887D02*
X063490D01*
Y035285D01*
X063292D01*
Y035327D01*
X063253D01*
Y035850D01*
X062900D01*
Y035887D01*
X062855D01*
Y036077D01*
X063292D01*
Y035887D01*
D02*
G37*
G36*
X073795Y035850D02*
X073400D01*
Y035890D01*
X073358D01*
Y036077D01*
X073795D01*
Y035850D01*
D02*
G37*
G36*
X073203Y035890D02*
X073358D01*
Y035850D01*
X073400D01*
Y035663D01*
X073203D01*
Y035100D01*
X072962D01*
Y036077D01*
X073203D01*
Y035890D01*
D02*
G37*
G36*
X059815Y035475D02*
X059858D01*
Y035285D01*
X059658D01*
Y035327D01*
X059618D01*
Y035512D01*
X059815D01*
Y035475D01*
D02*
G37*
G36*
X057030Y036265D02*
X057230D01*
Y036037D01*
X056990D01*
Y036225D01*
X056440D01*
Y036265D01*
X056395D01*
Y036453D01*
X057030D01*
Y036265D01*
D02*
G37*
G36*
X065483Y035850D02*
X065528D01*
Y035327D01*
X065880D01*
Y035287D01*
X065920D01*
Y035100D01*
X065483D01*
Y035287D01*
X065287D01*
Y035890D01*
X065483D01*
Y035850D01*
D02*
G37*
G36*
X071575Y035887D02*
X071772D01*
Y035285D01*
X071575D01*
Y035327D01*
X071535D01*
Y035850D01*
X071182D01*
Y035887D01*
X071137D01*
Y036077D01*
X071575D01*
Y035887D01*
D02*
G37*
G36*
X056395Y036225D02*
X056440D01*
Y035327D01*
X056990D01*
Y035287D01*
X057030D01*
Y035100D01*
X056395D01*
Y035287D01*
X056200D01*
Y036265D01*
X056395D01*
Y036225D01*
D02*
G37*
G36*
X067295Y036037D02*
X067335D01*
Y035850D01*
X067140D01*
Y035890D01*
X067098D01*
Y036077D01*
X067295D01*
Y036037D01*
D02*
G37*
G36*
X046192Y033371D02*
X046358D01*
Y033181D01*
X046158D01*
Y033337D01*
X045700D01*
Y033371D01*
X045662D01*
Y033527D01*
X046192D01*
Y033371D01*
D02*
G37*
G36*
X057230Y035287D02*
X057030D01*
Y035327D01*
X056990D01*
Y035515D01*
X057230D01*
Y035287D01*
D02*
G37*
G36*
X069515Y034915D02*
X069555D01*
Y034725D01*
X069117D01*
Y034952D01*
X069515D01*
Y034915D01*
D02*
G37*
G36*
X062340Y048228D02*
X062890D01*
Y048187D01*
X062930D01*
Y048000D01*
X062295Y047995D01*
Y048187D01*
X062100D01*
Y048415D01*
X062340D01*
Y048228D01*
D02*
G37*
G36*
X064303Y035887D02*
X064503D01*
Y035100D01*
X064262D01*
Y035850D01*
X063910D01*
Y035100D01*
X063670D01*
Y036077D01*
X064303D01*
Y035887D01*
D02*
G37*
G36*
X065118Y035100D02*
X064878D01*
Y035850D01*
X064680D01*
Y036077D01*
X065118D01*
Y035100D01*
D02*
G37*
G36*
X060672D02*
X060433D01*
Y035850D01*
X060235D01*
Y036077D01*
X060672D01*
Y035100D01*
D02*
G37*
G36*
X062290Y036077D02*
X062488D01*
Y035850D01*
X062290D01*
Y035327D01*
X062488D01*
Y035100D01*
X062245D01*
Y035285D01*
X062050D01*
Y035850D01*
X061852D01*
Y036077D01*
X062050D01*
Y036453D01*
X062290D01*
Y036077D01*
D02*
G37*
G36*
X062855Y035850D02*
X062900D01*
Y035327D01*
X063253D01*
Y035285D01*
X063292D01*
Y035100D01*
X062855D01*
Y035285D01*
X062660D01*
Y035887D01*
X062855D01*
Y035850D01*
D02*
G37*
G36*
X054658Y030812D02*
X054694D01*
Y030654D01*
X054527D01*
Y030690D01*
X054494D01*
Y030844D01*
X054658D01*
Y030812D01*
D02*
G37*
G36*
X071358Y030654D02*
X071192D01*
Y030690D01*
X071158D01*
Y030812D01*
X070994D01*
Y031002D01*
X071358D01*
Y030654D01*
D02*
G37*
G36*
X058243Y035703D02*
X058438D01*
Y035475D01*
X058243D01*
Y035100D01*
X058003D01*
Y035475D01*
X057410D01*
Y035890D01*
X057605D01*
Y035850D01*
X057650D01*
Y035703D01*
X058003D01*
Y036037D01*
X057847D01*
Y036075D01*
X057805D01*
Y036265D01*
X058003D01*
Y036453D01*
X058243D01*
Y035703D01*
D02*
G37*
G36*
X064340Y049125D02*
X063550D01*
Y048977D01*
X064140D01*
Y048790D01*
X064340D01*
Y048187D01*
X064140D01*
Y048228D01*
X064100D01*
Y048750D01*
X063310D01*
Y049352D01*
X064340D01*
Y049125D01*
D02*
G37*
G36*
X065550D02*
X064760D01*
Y048977D01*
X065350D01*
Y048790D01*
X065550D01*
Y048187D01*
X065350D01*
Y048228D01*
X065310D01*
Y048750D01*
X064520D01*
Y049352D01*
X065550D01*
Y049125D01*
D02*
G37*
G36*
X070662Y031437D02*
X070700D01*
Y030690D01*
X071158D01*
Y030654D01*
X071192D01*
Y030500D01*
X070662D01*
Y030654D01*
X070500D01*
Y031471D01*
X070662D01*
Y031437D01*
D02*
G37*
G36*
X072585Y035887D02*
X072785D01*
Y035100D01*
X072150D01*
Y035287D01*
X071953D01*
Y035515D01*
X072147D01*
Y035475D01*
X072193D01*
Y035327D01*
X072545D01*
Y035475D01*
X072193D01*
Y035515D01*
X072147D01*
Y035703D01*
X072545D01*
Y035850D01*
X072147D01*
Y036077D01*
X072585D01*
Y035887D01*
D02*
G37*
G36*
X061475D02*
X061675D01*
Y035100D01*
X061040D01*
Y035287D01*
X060842D01*
Y035515D01*
X061038D01*
Y035475D01*
X061083D01*
Y035327D01*
X061435D01*
Y035475D01*
X061083D01*
Y035515D01*
X061038D01*
Y035703D01*
X061435D01*
Y035850D01*
X061038D01*
Y036077D01*
X061475D01*
Y035887D01*
D02*
G37*
G36*
X071837Y031281D02*
X071873D01*
Y031125D01*
X071708D01*
Y031158D01*
X071671D01*
Y031312D01*
X071837D01*
Y031281D01*
D02*
G37*
G36*
X071192Y031471D02*
X071358D01*
Y031281D01*
X071158D01*
Y031437D01*
X070700D01*
Y031471D01*
X070662D01*
Y031627D01*
X071192D01*
Y031471D01*
D02*
G37*
G36*
X072202Y031002D02*
X072364D01*
Y030812D01*
X072202D01*
Y030500D01*
X072002D01*
Y030812D01*
X071508D01*
Y031158D01*
X071671D01*
Y031125D01*
X071708D01*
Y031002D01*
X072002D01*
Y031281D01*
X071873D01*
Y031312D01*
X071837D01*
Y031471D01*
X072002D01*
Y031627D01*
X072202D01*
Y031002D01*
D02*
G37*
G36*
X069755Y034915D02*
X069555D01*
Y034952D01*
X069515D01*
Y035100D01*
X069117D01*
Y035285D01*
X068923D01*
Y036077D01*
X069163D01*
Y035327D01*
X069515D01*
Y036077D01*
X069755D01*
Y034915D01*
D02*
G37*
G36*
X068545Y035890D02*
X068745D01*
Y035475D01*
X068152D01*
Y035327D01*
X068545D01*
Y035100D01*
X068108D01*
Y035287D01*
X067913D01*
Y035890D01*
X068108D01*
Y035850D01*
X068152D01*
Y035703D01*
X068505D01*
Y035850D01*
X068152D01*
Y035890D01*
X068108D01*
Y036077D01*
X068545D01*
Y035890D01*
D02*
G37*
G36*
X081402Y032902D02*
X081564D01*
Y032712D01*
X081402D01*
Y032400D01*
X081202D01*
Y032712D01*
X080708D01*
Y033058D01*
X080871D01*
Y033025D01*
X080908D01*
Y032902D01*
X081202D01*
Y033181D01*
X081073D01*
Y033212D01*
X081037D01*
Y033371D01*
X081202D01*
Y033527D01*
X081402D01*
Y032902D01*
D02*
G37*
G36*
X080392Y033369D02*
X080558D01*
Y033023D01*
X080392D01*
Y033058D01*
X080358D01*
Y033337D01*
X079900D01*
Y033058D01*
X080358D01*
Y033023D01*
X080392D01*
Y032900D01*
X080558D01*
Y032554D01*
X080392D01*
Y032590D01*
X080358D01*
Y032869D01*
X079900D01*
Y032590D01*
X080358D01*
Y032554D01*
X080392D01*
Y032400D01*
X079700D01*
Y033527D01*
X080392D01*
Y033369D01*
D02*
G37*
G36*
X081037Y033181D02*
X081073D01*
Y033025D01*
X080908D01*
Y033058D01*
X080871D01*
Y033212D01*
X081037D01*
Y033181D01*
D02*
G37*
G36*
X067783Y049125D02*
X067543D01*
Y049352D01*
X067783D01*
Y049125D01*
D02*
G37*
G36*
X071407Y048750D02*
X071013D01*
Y048790D01*
X070970D01*
Y048977D01*
X071407D01*
Y048750D01*
D02*
G37*
G36*
X065920Y035890D02*
X066118D01*
Y035663D01*
X065880D01*
Y035850D01*
X065528D01*
Y035890D01*
X065483D01*
Y036077D01*
X065920D01*
Y035890D01*
D02*
G37*
G36*
X070198Y048790D02*
X070398D01*
Y048375D01*
X069805D01*
Y048228D01*
X070198D01*
Y048000D01*
X069760D01*
Y048187D01*
X069565D01*
Y048790D01*
X069760D01*
Y048750D01*
X069805D01*
Y048602D01*
X070157D01*
Y048750D01*
X069805D01*
Y048790D01*
X069760D01*
Y048977D01*
X070198D01*
Y048790D01*
D02*
G37*
G36*
X074805Y035100D02*
X074167D01*
Y035285D01*
X073973D01*
Y035887D01*
X074167D01*
Y035850D01*
X074212D01*
Y035327D01*
X074565D01*
Y035850D01*
X074212D01*
Y035887D01*
X074167D01*
Y036077D01*
X074565D01*
Y036453D01*
X074805D01*
Y035100D01*
D02*
G37*
G36*
X075037Y033181D02*
X075073D01*
Y033025D01*
X074908D01*
Y033058D01*
X074871D01*
Y033212D01*
X075037D01*
Y033181D01*
D02*
G37*
G36*
X059658Y036263D02*
X059858D01*
Y036077D01*
X060055D01*
Y035475D01*
X059858D01*
Y035512D01*
X059815D01*
Y036035D01*
X059618D01*
Y036225D01*
X059265D01*
Y035327D01*
X059618D01*
Y035285D01*
X059658D01*
Y035100D01*
X059025D01*
Y036453D01*
X059658D01*
Y036263D01*
D02*
G37*
G36*
X074227Y033212D02*
X074394D01*
Y032902D01*
X074558D01*
Y032400D01*
X074358D01*
Y032712D01*
X073900D01*
Y032400D01*
X073700D01*
Y032902D01*
X073865D01*
Y033212D01*
X074027D01*
Y033181D01*
X074065D01*
Y032902D01*
X074194D01*
Y033181D01*
X074065D01*
Y033212D01*
X074027D01*
Y033527D01*
X074227D01*
Y033212D01*
D02*
G37*
G36*
X075402Y032902D02*
X075564D01*
Y032712D01*
X075402D01*
Y032400D01*
X075202D01*
Y032712D01*
X074708D01*
Y033058D01*
X074871D01*
Y033025D01*
X074908D01*
Y032902D01*
X075202D01*
Y033181D01*
X075073D01*
Y033212D01*
X075037D01*
Y033371D01*
X075202D01*
Y033527D01*
X075402D01*
Y032902D01*
D02*
G37*
G36*
X063535D02*
X063698D01*
Y032712D01*
X063535D01*
Y032400D01*
X063335D01*
Y032712D01*
X062842D01*
Y033058D01*
X063004D01*
Y033025D01*
X063042D01*
Y032902D01*
X063335D01*
Y033181D01*
X063206D01*
Y033212D01*
X063171D01*
Y033371D01*
X063335D01*
Y033527D01*
X063535D01*
Y032902D01*
D02*
G37*
G36*
X069537Y033181D02*
X069573D01*
Y033025D01*
X069408D01*
Y033058D01*
X069371D01*
Y033212D01*
X069537D01*
Y033181D01*
D02*
G37*
G36*
X069058Y032554D02*
X068892D01*
Y032590D01*
X068858D01*
Y032712D01*
X068694D01*
Y032902D01*
X069058D01*
Y032554D01*
D02*
G37*
G36*
X069902Y032902D02*
X070064D01*
Y032712D01*
X069902D01*
Y032400D01*
X069702D01*
Y032712D01*
X069208D01*
Y033058D01*
X069371D01*
Y033025D01*
X069408D01*
Y032902D01*
X069702D01*
Y033181D01*
X069573D01*
Y033212D01*
X069537D01*
Y033371D01*
X069702D01*
Y033527D01*
X069902D01*
Y032902D01*
D02*
G37*
G36*
X068892Y033371D02*
X069058D01*
Y033181D01*
X068858D01*
Y033337D01*
X068400D01*
Y033371D01*
X068362D01*
Y033527D01*
X068892D01*
Y033371D01*
D02*
G37*
G36*
X062694Y033337D02*
X062200D01*
Y033058D01*
X062529D01*
Y032869D01*
X062200D01*
Y032400D01*
X062000D01*
Y033527D01*
X062694D01*
Y033337D01*
D02*
G37*
G36*
X065694Y031437D02*
X065200D01*
Y031158D01*
X065529D01*
Y030969D01*
X065200D01*
Y030500D01*
X065000D01*
Y031627D01*
X065694D01*
Y031437D01*
D02*
G37*
G36*
X066171Y031281D02*
X066206D01*
Y031125D01*
X066041D01*
Y031158D01*
X066004D01*
Y031312D01*
X066171D01*
Y031281D01*
D02*
G37*
G36*
X066535Y031002D02*
X066698D01*
Y030812D01*
X066535D01*
Y030500D01*
X066335D01*
Y030812D01*
X065842D01*
Y031158D01*
X066004D01*
Y031125D01*
X066041D01*
Y031002D01*
X066335D01*
Y031281D01*
X066206D01*
Y031312D01*
X066171D01*
Y031471D01*
X066335D01*
Y031627D01*
X066535D01*
Y031002D01*
D02*
G37*
G36*
X063171Y033181D02*
X063206D01*
Y033025D01*
X063042D01*
Y033058D01*
X063004D01*
Y033212D01*
X063171D01*
Y033181D01*
D02*
G37*
G36*
X058694Y033337D02*
X058200D01*
Y033058D01*
X058529D01*
Y032869D01*
X058200D01*
Y032590D01*
X058694D01*
Y032400D01*
X058000D01*
Y033527D01*
X058694D01*
Y033337D01*
D02*
G37*
G36*
X059171Y033181D02*
X059206D01*
Y033025D01*
X059042D01*
Y033058D01*
X059004D01*
Y033212D01*
X059171D01*
Y033181D01*
D02*
G37*
G36*
X059535Y032902D02*
X059698D01*
Y032712D01*
X059535D01*
Y032400D01*
X059335D01*
Y032712D01*
X058842D01*
Y033058D01*
X059004D01*
Y033025D01*
X059042D01*
Y032902D01*
X059335D01*
Y033181D01*
X059206D01*
Y033212D01*
X059171D01*
Y033371D01*
X059335D01*
Y033527D01*
X059535D01*
Y032902D01*
D02*
G37*
G36*
X057805Y036037D02*
X057847D01*
Y035850D01*
X057650D01*
Y035890D01*
X057605D01*
Y036075D01*
X057805D01*
Y036037D01*
D02*
G37*
G36*
X068362Y033337D02*
X068400D01*
Y032590D01*
X068858D01*
Y032554D01*
X068892D01*
Y032400D01*
X068362D01*
Y032554D01*
X068200D01*
Y033371D01*
X068362D01*
Y033337D01*
D02*
G37*
G36*
X067543Y031627D02*
X067706D01*
Y031437D01*
X067543D01*
Y031314D01*
X067706D01*
Y031125D01*
X067543D01*
Y030969D01*
X067343D01*
Y031125D01*
X067214D01*
Y030969D01*
X067014D01*
Y031125D01*
X066850D01*
Y031314D01*
X067014D01*
Y031437D01*
X066850D01*
Y031627D01*
X067014D01*
Y031783D01*
X067214D01*
Y031627D01*
X067343D01*
Y031783D01*
X067543D01*
Y031627D01*
D02*
G37*
G36*
X063130Y049125D02*
X062340D01*
Y048977D01*
X062930D01*
Y048790D01*
X063130D01*
Y048187D01*
X062930D01*
Y048228D01*
X062890D01*
Y048750D01*
X062100D01*
Y049352D01*
X063130D01*
Y049125D01*
D02*
G37*
G36*
X073210Y031627D02*
X073372D01*
Y031437D01*
X073210D01*
Y031314D01*
X073372D01*
Y031125D01*
X073210D01*
Y030969D01*
X073010D01*
Y031125D01*
X072881D01*
Y030969D01*
X072681D01*
Y031125D01*
X072516D01*
Y031314D01*
X072681D01*
Y031437D01*
X072516D01*
Y031627D01*
X072681D01*
Y031783D01*
X072881D01*
Y031627D01*
X073010D01*
Y031783D01*
X073210D01*
Y031627D01*
D02*
G37*
%LPC*%
G36*
X029335Y029427D02*
X029290D01*
Y029385D01*
X029335D01*
Y029427D01*
D02*
G37*
G36*
X021042Y029987D02*
X021003D01*
Y029950D01*
X021042D01*
Y029987D01*
D02*
G37*
G36*
X022053Y029990D02*
X022013D01*
Y029950D01*
X022053D01*
Y029990D01*
D02*
G37*
G36*
X072585Y035887D02*
X072545D01*
Y035850D01*
X072585D01*
Y035887D01*
D02*
G37*
G36*
X023877Y029615D02*
X023835D01*
Y029575D01*
X023877D01*
Y029615D01*
D02*
G37*
G36*
X020030Y029802D02*
X019990D01*
Y029760D01*
X020030D01*
Y029802D01*
D02*
G37*
G36*
X023063Y029987D02*
X023022D01*
Y029950D01*
X023063D01*
Y029987D01*
D02*
G37*
G36*
X070565Y035887D02*
X070525D01*
Y035850D01*
X070565D01*
Y035887D01*
D02*
G37*
G36*
X071575D02*
X071535D01*
Y035850D01*
X071575D01*
Y035887D01*
D02*
G37*
G36*
X029925Y029800D02*
X029885D01*
Y029762D01*
X029925D01*
Y029800D01*
D02*
G37*
G36*
X021660Y029427D02*
X021615D01*
Y029388D01*
X021660D01*
Y029427D01*
D02*
G37*
G36*
X065920Y035890D02*
X065880D01*
Y035850D01*
X065920D01*
Y035890D01*
D02*
G37*
G36*
X022670Y029427D02*
X022627D01*
Y029388D01*
X022670D01*
Y029427D01*
D02*
G37*
G36*
X024690D02*
X024645D01*
Y029388D01*
X024690D01*
Y029427D01*
D02*
G37*
G36*
X024075D02*
X024032D01*
Y029388D01*
X024075D01*
Y029427D01*
D02*
G37*
G36*
X064303Y035887D02*
X064262D01*
Y035850D01*
X064303D01*
Y035887D01*
D02*
G37*
G36*
X019440Y029427D02*
X019395D01*
Y029388D01*
X019440D01*
Y029427D01*
D02*
G37*
G36*
X067140Y035703D02*
X067098D01*
Y035663D01*
X067140D01*
Y035703D01*
D02*
G37*
G36*
X063292Y035887D02*
X063253D01*
Y035850D01*
X063292D01*
Y035887D01*
D02*
G37*
G36*
X019440Y029987D02*
X019395D01*
Y029950D01*
X019440D01*
Y029987D01*
D02*
G37*
G36*
X068545Y035890D02*
X068505D01*
Y035850D01*
X068545D01*
Y035890D01*
D02*
G37*
G36*
X029335Y029990D02*
X029290D01*
Y029948D01*
X029335D01*
Y029990D01*
D02*
G37*
G36*
X030950Y029427D02*
X030905D01*
Y029385D01*
X030950D01*
Y029427D01*
D02*
G37*
G36*
X061475Y035887D02*
X061435D01*
Y035850D01*
X061475D01*
Y035887D01*
D02*
G37*
G36*
X063550Y048228D02*
X063505D01*
Y048187D01*
X063550D01*
Y048228D01*
D02*
G37*
G36*
X018333Y012003D02*
X018273D01*
Y011950D01*
X018333D01*
Y012003D01*
D02*
G37*
G36*
X034468D02*
X034408D01*
Y011947D01*
X034468D01*
Y012003D01*
D02*
G37*
G36*
X016720D02*
X016660D01*
Y011950D01*
X016720D01*
Y012003D01*
D02*
G37*
G36*
X019946D02*
X019886D01*
Y011950D01*
X019946D01*
Y012003D01*
D02*
G37*
G36*
X036871D02*
X036815D01*
Y011950D01*
X036871D01*
Y012003D01*
D02*
G37*
G36*
X025046Y012253D02*
X024989D01*
Y012197D01*
X025046D01*
Y012253D01*
D02*
G37*
G36*
X062340Y048228D02*
X062295D01*
Y048187D01*
X062340D01*
Y048228D01*
D02*
G37*
G36*
X025309Y012003D02*
X025252D01*
Y011950D01*
X025309D01*
Y012003D01*
D02*
G37*
G36*
X064760Y048228D02*
X064715D01*
Y048187D01*
X064760D01*
Y048228D01*
D02*
G37*
G36*
X068587Y048787D02*
X068545D01*
Y048750D01*
X068587D01*
Y048787D01*
D02*
G37*
G36*
X065350Y048790D02*
X065310D01*
Y048750D01*
X065350D01*
Y048790D01*
D02*
G37*
G36*
X070198D02*
X070157D01*
Y048750D01*
X070198D01*
Y048790D01*
D02*
G37*
G36*
X069177Y048787D02*
X069138D01*
Y048750D01*
X069177D01*
Y048787D01*
D02*
G37*
G36*
X064140Y048790D02*
X064100D01*
Y048750D01*
X064140D01*
Y048790D01*
D02*
G37*
G36*
X022906Y012003D02*
X022846D01*
Y011947D01*
X022906D01*
Y012003D01*
D02*
G37*
G36*
X026132D02*
X026072D01*
Y011947D01*
X026132D01*
Y012003D01*
D02*
G37*
G36*
X062930Y048790D02*
X062890D01*
Y048750D01*
X062930D01*
Y048790D01*
D02*
G37*
G36*
X069805Y048228D02*
X069760D01*
Y048187D01*
X069805D01*
Y048228D01*
D02*
G37*
G36*
X035255Y013250D02*
X035201D01*
Y013200D01*
X035255D01*
Y013250D01*
D02*
G37*
G36*
X036871D02*
X036815D01*
Y013200D01*
X036871D01*
Y013250D01*
D02*
G37*
G36*
X025309D02*
X025252D01*
Y013200D01*
X025309D01*
Y013250D01*
D02*
G37*
G36*
X026919Y013253D02*
X026866D01*
Y013200D01*
X026919D01*
Y013253D01*
D02*
G37*
G36*
X095240Y014928D02*
X095195D01*
Y014885D01*
X095240D01*
Y014928D01*
D02*
G37*
G36*
X057030Y036265D02*
X056990D01*
Y036225D01*
X057030D01*
Y036265D01*
D02*
G37*
G36*
X059858Y036077D02*
X059815D01*
Y036035D01*
X059858D01*
Y036077D01*
D02*
G37*
G36*
X095830Y015862D02*
X095790D01*
Y015825D01*
X095830D01*
Y015862D01*
D02*
G37*
G36*
X059658Y036263D02*
X059618D01*
Y036225D01*
X059658D01*
Y036263D01*
D02*
G37*
G36*
X023693Y013250D02*
X023639D01*
Y013200D01*
X023693D01*
Y013250D01*
D02*
G37*
G36*
X029882Y012753D02*
X029829D01*
Y012697D01*
X029882D01*
Y012753D01*
D02*
G37*
G36*
X017507D02*
X017453D01*
Y012700D01*
X017507D01*
Y012753D01*
D02*
G37*
G36*
X036608Y012253D02*
X036551D01*
Y012197D01*
X036608D01*
Y012253D01*
D02*
G37*
G36*
X030149Y012503D02*
X030089D01*
Y012447D01*
X030149D01*
Y012503D01*
D02*
G37*
G36*
X019120Y012753D02*
X019066D01*
Y012700D01*
X019120D01*
Y012753D01*
D02*
G37*
G36*
X029622Y013000D02*
X029565D01*
Y012950D01*
X029622D01*
Y013000D01*
D02*
G37*
G36*
X031765D02*
X031712D01*
Y012950D01*
X031765D01*
Y013000D01*
D02*
G37*
G36*
X020733Y012753D02*
X020680D01*
Y012700D01*
X020733D01*
Y012753D01*
D02*
G37*
G36*
X028269Y013000D02*
X028215D01*
Y012950D01*
X028269D01*
Y013000D01*
D02*
G37*
G36*
X025082Y029990D02*
X025043D01*
Y029950D01*
X025082D01*
Y029990D01*
D02*
G37*
G36*
X052394Y033214D02*
X052358D01*
Y033179D01*
X052394D01*
Y033214D01*
D02*
G37*
G36*
X085292Y036863D02*
X085290D01*
Y036862D01*
X085292D01*
Y036863D01*
D02*
G37*
G36*
X052227Y033369D02*
X052194D01*
Y033337D01*
X052227D01*
Y033369D01*
D02*
G37*
G36*
X050910Y031437D02*
X050781D01*
Y031314D01*
X050910D01*
Y031437D01*
D02*
G37*
G36*
X048600Y030690D02*
X048562D01*
Y030656D01*
X048600D01*
Y030690D01*
D02*
G37*
G36*
X067343Y031437D02*
X067214D01*
Y031314D01*
X067343D01*
Y031437D01*
D02*
G37*
G36*
X068892Y033371D02*
X068858D01*
Y033337D01*
X068892D01*
Y033371D01*
D02*
G37*
G36*
X054694Y031314D02*
X054658D01*
Y031279D01*
X054694D01*
Y031314D01*
D02*
G37*
G36*
X054527Y031469D02*
X054494D01*
Y031437D01*
X054527D01*
Y031469D01*
D02*
G37*
G36*
X056510Y031437D02*
X056381D01*
Y031314D01*
X056510D01*
Y031437D01*
D02*
G37*
G36*
X049092Y031471D02*
X049058D01*
Y031437D01*
X049092D01*
Y031471D01*
D02*
G37*
G36*
X091158Y023263D02*
X091115D01*
Y023225D01*
X091158D01*
Y023263D01*
D02*
G37*
G36*
X046192Y033371D02*
X046158D01*
Y033337D01*
X046192D01*
Y033371D01*
D02*
G37*
G36*
X097622Y022887D02*
X097583D01*
Y022850D01*
X097622D01*
Y022887D01*
D02*
G37*
G36*
X092168Y022890D02*
X092128D01*
Y022850D01*
X092168D01*
Y022890D01*
D02*
G37*
G36*
X095805Y022887D02*
X095765D01*
Y022850D01*
X095805D01*
Y022887D01*
D02*
G37*
G36*
X045700Y032590D02*
X045662D01*
Y032556D01*
X045700D01*
Y032590D01*
D02*
G37*
G36*
X090200Y047356D02*
X090162D01*
Y047325D01*
X090200D01*
Y047356D01*
D02*
G37*
G36*
X090362Y047046D02*
X090329D01*
Y047010D01*
X090362D01*
Y047046D01*
D02*
G37*
G36*
X095262D02*
X095229D01*
Y047010D01*
X095262D01*
Y047046D01*
D02*
G37*
G36*
X095100Y047356D02*
X095062D01*
Y047325D01*
X095100D01*
Y047356D01*
D02*
G37*
G36*
X068400Y032590D02*
X068362D01*
Y032554D01*
X068400D01*
Y032590D01*
D02*
G37*
G36*
X094392Y048990D02*
X094353D01*
Y048950D01*
X094392D01*
Y048990D01*
D02*
G37*
G36*
X080392Y033369D02*
X080358D01*
Y033337D01*
X080392D01*
Y033369D01*
D02*
G37*
G36*
X091768Y048987D02*
X091728D01*
Y048950D01*
X091768D01*
Y048987D01*
D02*
G37*
G36*
X087340Y048990D02*
X087295D01*
Y048950D01*
X087340D01*
Y048990D01*
D02*
G37*
G36*
X088550Y048987D02*
X088505D01*
Y048950D01*
X088550D01*
Y048987D01*
D02*
G37*
G36*
X078410Y031437D02*
X078281D01*
Y031314D01*
X078410D01*
Y031437D01*
D02*
G37*
G36*
X080392Y032900D02*
X080358D01*
Y032869D01*
X080392D01*
Y032900D01*
D02*
G37*
G36*
X076427Y031312D02*
X076394D01*
Y031281D01*
X076427D01*
Y031312D01*
D02*
G37*
G36*
X087930Y049365D02*
X087890D01*
Y049325D01*
X087930D01*
Y049365D01*
D02*
G37*
G36*
X090755Y049363D02*
X090715D01*
Y049325D01*
X090755D01*
Y049363D01*
D02*
G37*
G36*
X074227Y033212D02*
X074194D01*
Y033181D01*
X074227D01*
Y033212D01*
D02*
G37*
G36*
X093390Y048428D02*
X093345D01*
Y048385D01*
X093390D01*
Y048428D01*
D02*
G37*
G36*
X096020D02*
X095975D01*
Y048385D01*
X096020D01*
Y048428D01*
D02*
G37*
G36*
X092583D02*
X092537D01*
Y048385D01*
X092583D01*
Y048428D01*
D02*
G37*
G36*
X071192Y031471D02*
X071158D01*
Y031437D01*
X071192D01*
Y031471D01*
D02*
G37*
G36*
X073010Y031437D02*
X072881D01*
Y031314D01*
X073010D01*
Y031437D01*
D02*
G37*
G36*
X088745Y048615D02*
X088705D01*
Y048573D01*
X088745D01*
Y048615D01*
D02*
G37*
G36*
X090755Y048800D02*
X090715D01*
Y048762D01*
X090755D01*
Y048800D01*
D02*
G37*
G36*
X070700Y030690D02*
X070662D01*
Y030654D01*
X070700D01*
Y030690D01*
D02*
G37*
G36*
X091375Y048428D02*
X091333D01*
Y048387D01*
X091375D01*
Y048428D01*
D02*
G37*
G36*
X094000D02*
X093955D01*
Y048387D01*
X094000D01*
Y048428D01*
D02*
G37*
G36*
X088950Y022887D02*
X088905D01*
Y022850D01*
X088950D01*
Y022887D01*
D02*
G37*
G36*
X067533Y035327D02*
X067490D01*
Y035287D01*
X067533D01*
Y035327D01*
D02*
G37*
G36*
X043450Y048327D02*
X043405D01*
Y048285D01*
X043450D01*
Y048327D01*
D02*
G37*
G36*
X068152Y035327D02*
X068108D01*
Y035287D01*
X068152D01*
Y035327D01*
D02*
G37*
G36*
X091530Y015862D02*
X091490D01*
Y015825D01*
X091530D01*
Y015862D01*
D02*
G37*
G36*
X072193Y035327D02*
X072150D01*
Y035287D01*
X072193D01*
Y035327D01*
D02*
G37*
G36*
X061083D02*
X061040D01*
Y035287D01*
X061083D01*
Y035327D01*
D02*
G37*
G36*
X056440D02*
X056395D01*
Y035287D01*
X056440D01*
Y035327D01*
D02*
G37*
G36*
X065528D02*
X065483D01*
Y035287D01*
X065528D01*
Y035327D01*
D02*
G37*
G36*
X044460Y048327D02*
X044415D01*
Y048285D01*
X044460D01*
Y048327D01*
D02*
G37*
G36*
X046077D02*
X046033D01*
Y048285D01*
X046077D01*
Y048327D01*
D02*
G37*
G36*
X092347Y015675D02*
X092305D01*
Y015638D01*
X092347D01*
Y015675D01*
D02*
G37*
G36*
X033365Y029987D02*
X033323D01*
Y029950D01*
X033365D01*
Y029987D01*
D02*
G37*
G36*
X033955D02*
X033915D01*
Y029950D01*
X033955D01*
Y029987D01*
D02*
G37*
G36*
X032352D02*
X032313D01*
Y029950D01*
X032352D01*
Y029987D01*
D02*
G37*
G36*
X067335Y035515D02*
X067295D01*
Y035475D01*
X067335D01*
Y035515D01*
D02*
G37*
G36*
X031342Y029987D02*
X031302D01*
Y029950D01*
X031342D01*
Y029987D01*
D02*
G37*
G36*
X092743Y015302D02*
X092697D01*
Y015260D01*
X092743D01*
Y015302D01*
D02*
G37*
G36*
X092542Y015490D02*
X092502D01*
Y015447D01*
X092542D01*
Y015490D01*
D02*
G37*
G36*
X090940Y014928D02*
X090895D01*
Y014885D01*
X090940D01*
Y014928D01*
D02*
G37*
G36*
X020030Y030365D02*
X019990D01*
Y030325D01*
X020030D01*
Y030365D01*
D02*
G37*
G36*
X029925Y030363D02*
X029885D01*
Y030325D01*
X029925D01*
Y030363D01*
D02*
G37*
G36*
X074212Y035327D02*
X074167D01*
Y035285D01*
X074212D01*
Y035327D01*
D02*
G37*
G36*
X087740Y022327D02*
X087695D01*
Y022287D01*
X087740D01*
Y022327D01*
D02*
G37*
G36*
X091158D02*
X091115D01*
Y022287D01*
X091158D01*
Y022327D01*
D02*
G37*
G36*
X097230D02*
X097185D01*
Y022285D01*
X097230D01*
Y022327D01*
D02*
G37*
G36*
X093795D02*
X093750D01*
Y022285D01*
X093795D01*
Y022327D01*
D02*
G37*
G36*
X096620D02*
X096575D01*
Y022285D01*
X096620D01*
Y022327D01*
D02*
G37*
G36*
X090960Y022515D02*
X090918D01*
Y022473D01*
X090960D01*
Y022515D01*
D02*
G37*
G36*
X088330Y022890D02*
X088290D01*
Y022850D01*
X088330D01*
Y022890D01*
D02*
G37*
G36*
X089145Y022515D02*
X089105D01*
Y022473D01*
X089145D01*
Y022515D01*
D02*
G37*
G36*
X091775Y022327D02*
X091730D01*
Y022287D01*
X091775D01*
Y022327D01*
D02*
G37*
G36*
X095413D02*
X095370D01*
Y022287D01*
X095413D01*
Y022327D01*
D02*
G37*
G36*
X092785D02*
X092740D01*
Y022285D01*
X092785D01*
Y022327D01*
D02*
G37*
G36*
X050708Y048888D02*
X050668D01*
Y048850D01*
X050708D01*
Y048888D01*
D02*
G37*
G36*
X042632Y049075D02*
X042593D01*
Y049037D01*
X042632D01*
Y049075D01*
D02*
G37*
G36*
X049688Y048888D02*
X049647D01*
Y048850D01*
X049688D01*
Y048888D01*
D02*
G37*
G36*
X046470D02*
X046430D01*
Y048850D01*
X046470D01*
Y048888D01*
D02*
G37*
G36*
X049097D02*
X049055D01*
Y048850D01*
X049097D01*
Y048888D01*
D02*
G37*
G36*
X062900Y035327D02*
X062855D01*
Y035285D01*
X062900D01*
Y035327D01*
D02*
G37*
G36*
X062290D02*
X062245D01*
Y035285D01*
X062290D01*
Y035327D01*
D02*
G37*
G36*
X069163D02*
X069117D01*
Y035285D01*
X069163D01*
Y035327D01*
D02*
G37*
G36*
X047885Y049075D02*
X047845D01*
Y049037D01*
X047885D01*
Y049075D01*
D02*
G37*
G36*
X071182Y035327D02*
X071137D01*
Y035285D01*
X071182D01*
Y035327D01*
D02*
G37*
%LPD*%
D13*
X042000Y030000D02*
G03*
X042000Y030000I-015000J000000D01*
G01*
X098184Y020700D02*
G03*
X098184Y020700I-000984J000000D01*
G01*
X089584Y020600D02*
G03*
X089584Y020600I-000984J000000D01*
G01*
X048884Y046400D02*
G03*
X048884Y046400I-000984J000000D01*
G01*
X051984Y039900D02*
G03*
X051984Y039900I-000984J000000D01*
G01*
X048572Y013000D02*
G03*
X048572Y013000I-001457J000000D01*
G01*
X054072D02*
G03*
X054072Y013000I-001457J000000D01*
G01*
X056772Y020000D02*
G03*
X056772Y020000I-001457J000000D01*
G01*
X059672Y013000D02*
G03*
X059672Y013000I-001457J000000D01*
G01*
X065072D02*
G03*
X065072Y013000I-001457J000000D01*
G01*
X067772Y020000D02*
G03*
X067772Y020000I-001457J000000D01*
G01*
X070572Y013000D02*
G03*
X070572Y013000I-001457J000000D01*
G01*
X073272Y020000D02*
G03*
X073272Y020000I-001457J000000D01*
G01*
X076172Y013000D02*
G03*
X076172Y013000I-001457J000000D01*
G01*
X078772Y020000D02*
G03*
X078772Y020000I-001457J000000D01*
G01*
X081672Y013000D02*
G03*
X081672Y013000I-001457J000000D01*
G01*
X051272Y020000D02*
G03*
X051272Y020000I-001457J000000D01*
G01*
X049350Y025050D02*
Y028050D01*
X050273D01*
Y025050D02*
Y028050D01*
X049350Y025050D02*
X050273D01*
X045750Y025000D02*
Y028000D01*
X046673D01*
Y025000D02*
Y028000D01*
X045750Y025000D02*
X046673D01*
X067900Y038700D02*
X069900D01*
Y037700D02*
Y038700D01*
X067900Y037700D02*
X069900D01*
X067900D02*
Y038700D01*
Y040600D02*
X069900D01*
Y039600D02*
Y040600D01*
X067900Y039600D02*
X069900D01*
X067900D02*
Y040600D01*
Y042600D02*
X069900D01*
Y041600D02*
Y042600D01*
X067900Y041600D02*
X069900D01*
X067900D02*
Y042600D01*
X067500Y043450D02*
X070500D01*
X067500D02*
Y044373D01*
X070500D01*
Y043450D02*
Y044373D01*
X051050Y034500D02*
Y037500D01*
X050127Y034500D02*
X051050D01*
X050127D02*
Y037500D01*
X051050D01*
X048250Y034500D02*
Y037500D01*
X049173D01*
Y034500D02*
Y037500D01*
X048250Y034500D02*
X049173D01*
X095100Y019200D02*
Y021200D01*
X094100Y019200D02*
X095100D01*
X094100D02*
Y021200D01*
X095100D01*
X088050Y011300D02*
Y014300D01*
X088973D01*
Y011300D02*
Y014300D01*
X088050Y011300D02*
X088973D01*
X044500Y010500D02*
Y031500D01*
Y010500D02*
X049500D01*
Y017500D01*
X048000D02*
X049500D01*
X048000D02*
Y031500D01*
X044500D02*
X048000D01*
X055100Y010500D02*
Y017500D01*
X053600D02*
X055100D01*
X053600D02*
Y031500D01*
X051600D02*
X053600D01*
X051600Y017500D02*
Y031500D01*
X050100Y017500D02*
X051600D01*
X050100Y010500D02*
Y017500D01*
Y010500D02*
X055100D01*
X060700D02*
Y031500D01*
X055700Y010500D02*
X060700D01*
X055700D02*
Y017500D01*
X057200D01*
Y031500D01*
X060700D01*
X061100Y010500D02*
Y031500D01*
Y010500D02*
X066100D01*
Y017500D01*
X064600D02*
X066100D01*
X064600D02*
Y031500D01*
X061100D02*
X064600D01*
X071600Y010500D02*
Y017500D01*
X070100D02*
X071600D01*
X070100D02*
Y031500D01*
X068100D02*
X070100D01*
X068100Y017500D02*
Y031500D01*
X066600Y017500D02*
X068100D01*
X066600Y010500D02*
Y017500D01*
Y010500D02*
X071600D01*
X077100D02*
Y017500D01*
X075600D02*
X077100D01*
X075600D02*
Y031500D01*
X073600D02*
X075600D01*
X073600Y017500D02*
Y031500D01*
X072100Y017500D02*
X073600D01*
X072100Y010500D02*
Y017500D01*
Y010500D02*
X077100D01*
X082600D02*
Y031500D01*
X077600Y010500D02*
X082600D01*
X077600D02*
Y017500D01*
X079100D01*
Y031500D01*
X082600D01*
X052150Y025000D02*
Y028000D01*
X053073D01*
Y025000D02*
Y028000D01*
X052150Y025000D02*
X053073D01*
X058550Y025050D02*
Y028050D01*
X059473D01*
Y025050D02*
Y028050D01*
X058550Y025050D02*
X059473D01*
X062350D02*
Y028050D01*
X063273D01*
Y025050D02*
Y028050D01*
X062350Y025050D02*
X063273D01*
X066050D02*
Y028050D01*
X066973D01*
Y025050D02*
Y028050D01*
X066050Y025050D02*
X066973D01*
X068650Y025000D02*
Y028000D01*
X069573D01*
Y025000D02*
Y028000D01*
X068650Y025000D02*
X069573D01*
X071450Y025050D02*
Y028050D01*
X072373D01*
Y025050D02*
Y028050D01*
X071450Y025050D02*
X072373D01*
X074150D02*
Y028050D01*
X075073D01*
Y025050D02*
Y028050D01*
X074150Y025050D02*
X075073D01*
X076850D02*
Y028050D01*
X077773D01*
Y025050D02*
Y028050D01*
X076850Y025050D02*
X077773D01*
X080350Y025000D02*
Y028000D01*
X081273D01*
Y025000D02*
Y028000D01*
X080350Y025000D02*
X081273D01*
X054850D02*
Y028000D01*
X055773D01*
Y025000D02*
Y028000D01*
X054850Y025000D02*
X055773D01*
X099199Y024177D02*
Y046223D01*
X086601Y024177D02*
X099199D01*
X086601D02*
Y046223D01*
X096837D02*
X099199D01*
X086601D02*
X088963D01*
X091719D02*
X094081D01*
X091300Y019800D02*
Y019300D01*
X091400Y019200D01*
X091600D01*
X091700Y019300D01*
Y019800D01*
X092300Y019200D02*
X091900D01*
X092300Y019600D01*
Y019700D01*
X092200Y019800D01*
X092000D01*
X091900Y019700D01*
X064100Y043600D02*
Y043100D01*
X064200Y043000D01*
X064400D01*
X064500Y043100D01*
Y043600D01*
X064700Y043000D02*
X064900D01*
X064800D01*
Y043600D01*
X064700Y043500D01*
X083300Y016600D02*
X083700D01*
X083500D01*
Y016000D01*
X083900D02*
Y016600D01*
X084200D01*
X084300Y016500D01*
Y016300D01*
X084200Y016200D01*
X083900D01*
X084500Y015900D02*
X084899D01*
X085099Y016600D02*
Y016200D01*
X085299Y016000D01*
X085499Y016200D01*
Y016600D01*
X086099Y016500D02*
X085999Y016600D01*
X085799D01*
X085699Y016500D01*
Y016100D01*
X085799Y016000D01*
X085999D01*
X086099Y016100D01*
X086699Y016500D02*
X086599Y016600D01*
X086399D01*
X086299Y016500D01*
Y016100D01*
X086399Y016000D01*
X086599D01*
X086699Y016100D01*
X056000Y041450D02*
X056400D01*
X056200D01*
Y040850D01*
X056600D02*
Y041450D01*
X056900D01*
X057000Y041350D01*
Y041150D01*
X056900Y041050D01*
X056600D01*
X057200Y040750D02*
X057599D01*
X058199Y041350D02*
X058099Y041450D01*
X057899D01*
X057799Y041350D01*
Y041250D01*
X057899Y041150D01*
X058099D01*
X058199Y041050D01*
Y040950D01*
X058099Y040850D01*
X057899D01*
X057799Y040950D01*
X058399Y041450D02*
X058599D01*
X058499D01*
Y040850D01*
X058399D01*
X058599D01*
X059299Y041350D02*
X059199Y041450D01*
X058999D01*
X058899Y041350D01*
Y040950D01*
X058999Y040850D01*
X059199D01*
X059299Y040950D01*
Y041150D01*
X059099D01*
X083200Y018000D02*
X083600D01*
X083400D01*
Y017400D01*
X083800D02*
Y018000D01*
X084100D01*
X084200Y017900D01*
Y017700D01*
X084100Y017600D01*
X083800D01*
X084400Y017300D02*
X084799D01*
X085399Y017900D02*
X085299Y018000D01*
X085099D01*
X084999Y017900D01*
Y017500D01*
X085099Y017400D01*
X085299D01*
X085399Y017500D01*
Y017700D01*
X085199D01*
X085599Y017400D02*
Y018000D01*
X085999Y017400D01*
Y018000D01*
X086199D02*
Y017400D01*
X086499D01*
X086599Y017500D01*
Y017900D01*
X086499Y018000D01*
X086199D01*
X079600Y015300D02*
X079500Y015400D01*
X079300D01*
X079200Y015300D01*
Y015200D01*
X079300Y015100D01*
X079500D01*
X079600Y015000D01*
Y014900D01*
X079500Y014800D01*
X079300D01*
X079200Y014900D01*
X079800Y015400D02*
Y014800D01*
X080000Y015000D01*
X080200Y014800D01*
Y015400D01*
X080400Y014800D02*
X080600D01*
X080500D01*
Y015400D01*
X080400Y015300D01*
X080899Y015400D02*
X081299D01*
Y015300D01*
X080899Y014900D01*
Y014800D01*
X076700Y022300D02*
X076600Y022400D01*
X076400D01*
X076300Y022300D01*
Y022200D01*
X076400Y022100D01*
X076600D01*
X076700Y022000D01*
Y021900D01*
X076600Y021800D01*
X076400D01*
X076300Y021900D01*
X076900Y022400D02*
Y021800D01*
X077100Y022000D01*
X077300Y021800D01*
Y022400D01*
X077500Y021800D02*
X077700D01*
X077600D01*
Y022400D01*
X077500Y022300D01*
X078399Y022400D02*
X078199Y022300D01*
X077999Y022100D01*
Y021900D01*
X078099Y021800D01*
X078299D01*
X078399Y021900D01*
Y022000D01*
X078299Y022100D01*
X077999D01*
X074000Y015300D02*
X073900Y015400D01*
X073700D01*
X073600Y015300D01*
Y015200D01*
X073700Y015100D01*
X073900D01*
X074000Y015000D01*
Y014900D01*
X073900Y014800D01*
X073700D01*
X073600Y014900D01*
X074200Y015400D02*
Y014800D01*
X074400Y015000D01*
X074600Y014800D01*
Y015400D01*
X074800Y014800D02*
X075000D01*
X074900D01*
Y015400D01*
X074800Y015300D01*
X075699Y015400D02*
X075299D01*
Y015100D01*
X075499Y015200D01*
X075599D01*
X075699Y015100D01*
Y014900D01*
X075599Y014800D01*
X075399D01*
X075299Y014900D01*
X071100Y022300D02*
X071000Y022400D01*
X070800D01*
X070700Y022300D01*
Y022200D01*
X070800Y022100D01*
X071000D01*
X071100Y022000D01*
Y021900D01*
X071000Y021800D01*
X070800D01*
X070700Y021900D01*
X071300Y022400D02*
Y021800D01*
X071500Y022000D01*
X071700Y021800D01*
Y022400D01*
X071900Y021800D02*
X072100D01*
X072000D01*
Y022400D01*
X071900Y022300D01*
X072699Y021800D02*
Y022400D01*
X072399Y022100D01*
X072799D01*
X068400Y015300D02*
X068300Y015400D01*
X068100D01*
X068000Y015300D01*
Y015200D01*
X068100Y015100D01*
X068300D01*
X068400Y015000D01*
Y014900D01*
X068300Y014800D01*
X068100D01*
X068000Y014900D01*
X068600Y015400D02*
Y014800D01*
X068800Y015000D01*
X069000Y014800D01*
Y015400D01*
X069200Y014800D02*
X069400D01*
X069300D01*
Y015400D01*
X069200Y015300D01*
X069699D02*
X069799Y015400D01*
X069999D01*
X070099Y015300D01*
Y015200D01*
X069999Y015100D01*
X069899D01*
X069999D01*
X070099Y015000D01*
Y014900D01*
X069999Y014800D01*
X069799D01*
X069699Y014900D01*
X065600Y022300D02*
X065500Y022400D01*
X065300D01*
X065200Y022300D01*
Y022200D01*
X065300Y022100D01*
X065500D01*
X065600Y022000D01*
Y021900D01*
X065500Y021800D01*
X065300D01*
X065200Y021900D01*
X065800Y022400D02*
Y021800D01*
X066000Y022000D01*
X066200Y021800D01*
Y022400D01*
X066400Y021800D02*
X066600D01*
X066500D01*
Y022400D01*
X066400Y022300D01*
X067299Y021800D02*
X066899D01*
X067299Y022200D01*
Y022300D01*
X067199Y022400D01*
X066999D01*
X066899Y022300D01*
X063000Y015300D02*
X062900Y015400D01*
X062700D01*
X062600Y015300D01*
Y015200D01*
X062700Y015100D01*
X062900D01*
X063000Y015000D01*
Y014900D01*
X062900Y014800D01*
X062700D01*
X062600Y014900D01*
X063200Y015400D02*
Y014800D01*
X063400Y015000D01*
X063600Y014800D01*
Y015400D01*
X063800Y014800D02*
X064000D01*
X063900D01*
Y015400D01*
X063800Y015300D01*
X064299Y014800D02*
X064499D01*
X064399D01*
Y015400D01*
X064299Y015300D01*
X057500D02*
X057400Y015400D01*
X057200D01*
X057100Y015300D01*
Y015200D01*
X057200Y015100D01*
X057400D01*
X057500Y015000D01*
Y014900D01*
X057400Y014800D01*
X057200D01*
X057100Y014900D01*
X057700Y015400D02*
Y014800D01*
X057900Y015000D01*
X058100Y014800D01*
Y015400D01*
X058300Y014800D02*
X058500D01*
X058400D01*
Y015400D01*
X058300Y015300D01*
X058799D02*
X058899Y015400D01*
X059099D01*
X059199Y015300D01*
Y014900D01*
X059099Y014800D01*
X058899D01*
X058799Y014900D01*
Y015300D01*
X054900Y022300D02*
X054800Y022400D01*
X054600D01*
X054500Y022300D01*
Y022200D01*
X054600Y022100D01*
X054800D01*
X054900Y022000D01*
Y021900D01*
X054800Y021800D01*
X054600D01*
X054500Y021900D01*
X055100Y022400D02*
Y021800D01*
X055300Y022000D01*
X055500Y021800D01*
Y022400D01*
X055700Y021900D02*
X055800Y021800D01*
X056000D01*
X056099Y021900D01*
Y022300D01*
X056000Y022400D01*
X055800D01*
X055700Y022300D01*
Y022200D01*
X055800Y022100D01*
X056099D01*
X052200Y015300D02*
X052100Y015400D01*
X051900D01*
X051800Y015300D01*
Y015200D01*
X051900Y015100D01*
X052100D01*
X052200Y015000D01*
Y014900D01*
X052100Y014800D01*
X051900D01*
X051800Y014900D01*
X052400Y015400D02*
Y014800D01*
X052600Y015000D01*
X052800Y014800D01*
Y015400D01*
X053000Y015300D02*
X053100Y015400D01*
X053300D01*
X053399Y015300D01*
Y015200D01*
X053300Y015100D01*
X053399Y015000D01*
Y014900D01*
X053300Y014800D01*
X053100D01*
X053000Y014900D01*
Y015000D01*
X053100Y015100D01*
X053000Y015200D01*
Y015300D01*
X053100Y015100D02*
X053300D01*
X049400Y022300D02*
X049300Y022400D01*
X049100D01*
X049000Y022300D01*
Y022200D01*
X049100Y022100D01*
X049300D01*
X049400Y022000D01*
Y021900D01*
X049300Y021800D01*
X049100D01*
X049000Y021900D01*
X049600Y022400D02*
Y021800D01*
X049800Y022000D01*
X050000Y021800D01*
Y022400D01*
X050200D02*
X050599D01*
Y022300D01*
X050200Y021900D01*
Y021800D01*
X046700Y015300D02*
X046600Y015400D01*
X046400D01*
X046300Y015300D01*
Y015200D01*
X046400Y015100D01*
X046600D01*
X046700Y015000D01*
Y014900D01*
X046600Y014800D01*
X046400D01*
X046300Y014900D01*
X046900Y015400D02*
Y014800D01*
X047100Y015000D01*
X047300Y014800D01*
Y015400D01*
X047899D02*
X047700Y015300D01*
X047500Y015100D01*
Y014900D01*
X047600Y014800D01*
X047800D01*
X047899Y014900D01*
Y015000D01*
X047800Y015100D01*
X047500D01*
X093900Y011900D02*
X093800Y012000D01*
X093600D01*
X093500Y011900D01*
Y011800D01*
X093600Y011700D01*
X093800D01*
X093900Y011600D01*
Y011500D01*
X093800Y011400D01*
X093600D01*
X093500Y011500D01*
X094100Y012000D02*
Y011400D01*
X094300Y011600D01*
X094500Y011400D01*
Y012000D01*
X094700Y011400D02*
X094900D01*
X094800D01*
Y012000D01*
X094700Y011900D01*
X041940Y045370D02*
X041840Y045470D01*
X041640D01*
X041540Y045370D01*
Y045270D01*
X041640Y045170D01*
X041840D01*
X041940Y045070D01*
Y044970D01*
X041840Y044870D01*
X041640D01*
X041540Y044970D01*
X042140Y044870D02*
Y045470D01*
X042440D01*
X042540Y045370D01*
Y045170D01*
X042440Y045070D01*
X042140D01*
X042740Y045470D02*
Y044870D01*
Y045070D01*
X043139Y045470D01*
X042840Y045170D01*
X043139Y044870D01*
X043339D02*
X043539D01*
X043439D01*
Y045470D01*
X043339Y045370D01*
X080000Y029200D02*
Y029800D01*
X080300D01*
X080400Y029700D01*
Y029500D01*
X080300Y029400D01*
X080000D01*
X080200D02*
X080400Y029200D01*
X080600D02*
X080800D01*
X080700D01*
Y029800D01*
X080600Y029700D01*
X081100Y029800D02*
X081500D01*
Y029700D01*
X081100Y029300D01*
Y029200D01*
X076600D02*
Y029800D01*
X076900D01*
X077000Y029700D01*
Y029500D01*
X076900Y029400D01*
X076600D01*
X076800D02*
X077000Y029200D01*
X077200D02*
X077400D01*
X077300D01*
Y029800D01*
X077200Y029700D01*
X078100Y029800D02*
X077900Y029700D01*
X077700Y029500D01*
Y029300D01*
X077800Y029200D01*
X078000D01*
X078100Y029300D01*
Y029400D01*
X078000Y029500D01*
X077700D01*
X073900Y029200D02*
Y029800D01*
X074200D01*
X074300Y029700D01*
Y029500D01*
X074200Y029400D01*
X073900D01*
X074100D02*
X074300Y029200D01*
X074500D02*
X074700D01*
X074600D01*
Y029800D01*
X074500Y029700D01*
X075400Y029800D02*
X075000D01*
Y029500D01*
X075200Y029600D01*
X075300D01*
X075400Y029500D01*
Y029300D01*
X075300Y029200D01*
X075100D01*
X075000Y029300D01*
X071100Y029200D02*
Y029800D01*
X071400D01*
X071500Y029700D01*
Y029500D01*
X071400Y029400D01*
X071100D01*
X071300D02*
X071500Y029200D01*
X071700D02*
X071900D01*
X071800D01*
Y029800D01*
X071700Y029700D01*
X072500Y029200D02*
Y029800D01*
X072200Y029500D01*
X072600D01*
X068400Y029200D02*
Y029800D01*
X068700D01*
X068800Y029700D01*
Y029500D01*
X068700Y029400D01*
X068400D01*
X068600D02*
X068800Y029200D01*
X069000D02*
X069200D01*
X069100D01*
Y029800D01*
X069000Y029700D01*
X069500D02*
X069600Y029800D01*
X069800D01*
X069900Y029700D01*
Y029600D01*
X069800Y029500D01*
X069700D01*
X069800D01*
X069900Y029400D01*
Y029300D01*
X069800Y029200D01*
X069600D01*
X069500Y029300D01*
X065700Y029200D02*
Y029800D01*
X066000D01*
X066100Y029700D01*
Y029500D01*
X066000Y029400D01*
X065700D01*
X065900D02*
X066100Y029200D01*
X066300D02*
X066500D01*
X066400D01*
Y029800D01*
X066300Y029700D01*
X067200Y029200D02*
X066800D01*
X067200Y029600D01*
Y029700D01*
X067100Y029800D01*
X066900D01*
X066800Y029700D01*
X062200Y029200D02*
Y029800D01*
X062500D01*
X062600Y029700D01*
Y029500D01*
X062500Y029400D01*
X062200D01*
X062400D02*
X062600Y029200D01*
X062800D02*
X063000D01*
X062900D01*
Y029800D01*
X062800Y029700D01*
X063300Y029200D02*
X063500D01*
X063400D01*
Y029800D01*
X063300Y029700D01*
X058200Y029200D02*
Y029800D01*
X058500D01*
X058600Y029700D01*
Y029500D01*
X058500Y029400D01*
X058200D01*
X058400D02*
X058600Y029200D01*
X058800D02*
X059000D01*
X058900D01*
Y029800D01*
X058800Y029700D01*
X059300D02*
X059400Y029800D01*
X059600D01*
X059700Y029700D01*
Y029300D01*
X059600Y029200D01*
X059400D01*
X059300Y029300D01*
Y029700D01*
X054900Y029200D02*
Y029800D01*
X055200D01*
X055300Y029700D01*
Y029500D01*
X055200Y029400D01*
X054900D01*
X055100D02*
X055300Y029200D01*
X055500Y029300D02*
X055600Y029200D01*
X055800D01*
X055900Y029300D01*
Y029700D01*
X055800Y029800D01*
X055600D01*
X055500Y029700D01*
Y029600D01*
X055600Y029500D01*
X055900D01*
X052100Y029200D02*
Y029800D01*
X052400D01*
X052500Y029700D01*
Y029500D01*
X052400Y029400D01*
X052100D01*
X052300D02*
X052500Y029200D01*
X052700Y029700D02*
X052800Y029800D01*
X053000D01*
X053100Y029700D01*
Y029600D01*
X053000Y029500D01*
X053100Y029400D01*
Y029300D01*
X053000Y029200D01*
X052800D01*
X052700Y029300D01*
Y029400D01*
X052800Y029500D01*
X052700Y029600D01*
Y029700D01*
X052800Y029500D02*
X053000D01*
X049400Y029220D02*
Y029820D01*
X049700D01*
X049800Y029720D01*
Y029520D01*
X049700Y029420D01*
X049400D01*
X049600D02*
X049800Y029220D01*
X050000Y029820D02*
X050400D01*
Y029720D01*
X050000Y029320D01*
Y029220D01*
X045800Y029170D02*
Y029770D01*
X046100D01*
X046200Y029670D01*
Y029470D01*
X046100Y029370D01*
X045800D01*
X046000D02*
X046200Y029170D01*
X046800Y029770D02*
X046600Y029670D01*
X046400Y029470D01*
Y029270D01*
X046500Y029170D01*
X046700D01*
X046800Y029270D01*
Y029370D01*
X046700Y029470D01*
X046400D01*
X068300Y044800D02*
Y045400D01*
X068600D01*
X068700Y045300D01*
Y045100D01*
X068600Y045000D01*
X068300D01*
X068500D02*
X068700Y044800D01*
X069300Y045400D02*
X068900D01*
Y045100D01*
X069100Y045200D01*
X069200D01*
X069300Y045100D01*
Y044900D01*
X069200Y044800D01*
X069000D01*
X068900Y044900D01*
X046900Y035900D02*
Y036500D01*
X047200D01*
X047300Y036400D01*
Y036200D01*
X047200Y036100D01*
X046900D01*
X047100D02*
X047300Y035900D01*
X047500Y036400D02*
X047600Y036500D01*
X047800D01*
X047900Y036400D01*
Y036300D01*
X047800Y036200D01*
X047700D01*
X047800D01*
X047900Y036100D01*
Y036000D01*
X047800Y035900D01*
X047600D01*
X047500Y036000D01*
X051500Y035900D02*
Y036500D01*
X051800D01*
X051900Y036400D01*
Y036200D01*
X051800Y036100D01*
X051500D01*
X051700D02*
X051900Y035900D01*
X052500D02*
X052100D01*
X052500Y036300D01*
Y036400D01*
X052400Y036500D01*
X052200D01*
X052100Y036400D01*
X089400Y011400D02*
Y012000D01*
X089700D01*
X089800Y011900D01*
Y011700D01*
X089700Y011600D01*
X089400D01*
X089600D02*
X089800Y011400D01*
X090000D02*
X090200D01*
X090100D01*
Y012000D01*
X090000Y011900D01*
X084900Y011500D02*
Y010900D01*
X085300D01*
X085900Y011500D02*
X085500D01*
Y010900D01*
X085900D01*
X085500Y011200D02*
X085700D01*
X086100Y011500D02*
Y010900D01*
X086400D01*
X086499Y011000D01*
Y011400D01*
X086400Y011500D01*
X086100D01*
X086699Y010900D02*
X086899D01*
X086799D01*
Y011500D01*
X086699Y011400D01*
X050900Y045500D02*
Y044900D01*
X051200D01*
X051300Y045000D01*
Y045400D01*
X051200Y045500D01*
X050900D01*
X051500Y044900D02*
X051700D01*
X051600D01*
Y045500D01*
X051500Y045400D01*
X045800Y046500D02*
X045700Y046600D01*
X045500D01*
X045400Y046500D01*
Y046100D01*
X045500Y046000D01*
X045700D01*
X045800Y046100D01*
X046000Y046500D02*
X046100Y046600D01*
X046300D01*
X046400Y046500D01*
Y046400D01*
X046300Y046300D01*
X046400Y046200D01*
Y046100D01*
X046300Y046000D01*
X046100D01*
X046000Y046100D01*
Y046200D01*
X046100Y046300D01*
X046000Y046400D01*
Y046500D01*
X046100Y046300D02*
X046300D01*
X051000Y041700D02*
X050900Y041800D01*
X050700D01*
X050600Y041700D01*
Y041300D01*
X050700Y041200D01*
X050900D01*
X051000Y041300D01*
X051200Y041800D02*
X051600D01*
Y041700D01*
X051200Y041300D01*
Y041200D01*
X094500Y018800D02*
X094400Y018900D01*
X094200D01*
X094100Y018800D01*
Y018400D01*
X094200Y018300D01*
X094400D01*
X094500Y018400D01*
X095100Y018900D02*
X094900Y018800D01*
X094700Y018600D01*
Y018400D01*
X094800Y018300D01*
X095000D01*
X095100Y018400D01*
Y018500D01*
X095000Y018600D01*
X094700D01*
X097100Y019300D02*
X097000Y019400D01*
X096800D01*
X096700Y019300D01*
Y018900D01*
X096800Y018800D01*
X097000D01*
X097100Y018900D01*
X097700Y019400D02*
X097300D01*
Y019100D01*
X097500Y019200D01*
X097600D01*
X097700Y019100D01*
Y018900D01*
X097600Y018800D01*
X097400D01*
X097300Y018900D01*
X088600Y019200D02*
X088500Y019300D01*
X088300D01*
X088200Y019200D01*
Y018800D01*
X088300Y018700D01*
X088500D01*
X088600Y018800D01*
X089100Y018700D02*
Y019300D01*
X088800Y019000D01*
X089200D01*
X070700Y042400D02*
X070600Y042500D01*
X070400D01*
X070300Y042400D01*
Y042000D01*
X070400Y041900D01*
X070600D01*
X070700Y042000D01*
X070900Y042400D02*
X071000Y042500D01*
X071200D01*
X071300Y042400D01*
Y042300D01*
X071200Y042200D01*
X071100D01*
X071200D01*
X071300Y042100D01*
Y042000D01*
X071200Y041900D01*
X071000D01*
X070900Y042000D01*
X070700Y040300D02*
X070600Y040400D01*
X070400D01*
X070300Y040300D01*
Y039900D01*
X070400Y039800D01*
X070600D01*
X070700Y039900D01*
X071300Y039800D02*
X070900D01*
X071300Y040200D01*
Y040300D01*
X071200Y040400D01*
X071000D01*
X070900Y040300D01*
X070700Y038400D02*
X070600Y038500D01*
X070400D01*
X070300Y038400D01*
Y038000D01*
X070400Y037900D01*
X070600D01*
X070700Y038000D01*
X070900Y037900D02*
X071100D01*
X071000D01*
Y038500D01*
X070900Y038400D01*
X087400Y045300D02*
Y044700D01*
X087700D01*
X087800Y044800D01*
Y044900D01*
X087700Y045000D01*
X087400D01*
X087700D01*
X087800Y045100D01*
Y045200D01*
X087700Y045300D01*
X087400D01*
X088000D02*
X088400D01*
X088200D01*
Y044700D01*
X088600D02*
X088800D01*
X088700D01*
Y045300D01*
X088600Y045200D01*
X045200Y039700D02*
Y040100D01*
X045100Y040200D01*
X044900D01*
X044800Y040100D01*
Y039700D01*
X044900Y039600D01*
X045100D01*
X045000Y039800D02*
X045200Y039600D01*
X045100D02*
X045200Y039700D01*
X045400Y039600D02*
X045600D01*
X045500D01*
Y040200D01*
X045400Y040100D01*
X096050Y021550D02*
X096450D01*
X096250Y021750D02*
Y021350D01*
X087450Y021450D02*
X087850D01*
X087650Y021650D02*
Y021250D01*
X046750Y047250D02*
X047150D01*
X046950Y047450D02*
Y047050D01*
X052150Y039050D02*
X051750D01*
X051950Y038850D02*
Y039250D01*
D28*
X093065Y014143D02*
G03*
X093065Y014143I-000049J000000D01*
G01*
X063149Y042562D02*
G03*
X063149Y042562I-000049J000000D01*
G01*
X047789Y038718D02*
G03*
X047789Y038718I-000049J000000D01*
G01*
X090767Y020160D02*
G03*
X090767Y020160I-000049J000000D01*
G01*
D29*
X064068Y042184D02*
G03*
X064068Y042184I-000118J000000D01*
G01*
D30*
X064350Y042578D02*
G03*
X064850Y042578I000250J000000D01*
G01*
X047798Y040755D02*
G03*
X047630Y040851I-000598J-000855D01*
G01*
Y038949D02*
G03*
X047798Y039045I-000430J000951D01*
G01*
X046770Y040851D02*
G03*
X046770Y038949I000430J-000951D01*
G01*
X092755Y020102D02*
G03*
X091045Y020102I-000855J000598D01*
G01*
X086833Y012442D02*
G03*
X085019Y013826I-000933J000658D01*
G01*
X085023Y012369D02*
G03*
X086872Y012502I000877J000731D01*
G01*
X043802Y044475D02*
X044802D01*
Y042325D02*
Y044475D01*
X043802Y042325D02*
X044802D01*
X043802D02*
Y044475D01*
X091717Y012313D02*
Y013887D01*
Y012313D02*
X096283D01*
Y013887D01*
X091717D02*
X096283D01*
X063557Y038522D02*
X065643D01*
X064850Y042578D02*
X065643D01*
X063557D02*
X064350D01*
X065643Y038522D02*
Y042578D01*
X063557Y038522D02*
Y042578D01*
X047798Y039045D02*
Y040755D01*
X048585Y044363D02*
X050415D01*
X048585Y043437D02*
Y044363D01*
Y043437D02*
X050415D01*
Y044363D01*
Y043900D02*
X050915D01*
X048085D02*
X048585D01*
X049085Y043437D02*
Y044363D01*
X091045Y020102D02*
X092755D01*
X085000Y012400D02*
Y013800D01*
M02*
